<?xml version="1.0" encoding="utf-8"?>
<svg version="1.1" xmlns:xlink="http://www.w3.org/1999/xlink" width="17px" height="22px" xmlns="http://www.w3.org/2000/svg">
  <g transform="matrix(1 0 0 1 -221 -53 )">
    <path d="M 10.42578125 13.4921875  C 11.3214142628207 12.3331330128205  11.7692307692309 10.9383012820513  11.7692307692309 9.30769230769229  C 11.7692307692309 7.67708333333333  11.3214142628207 6.28225160256408  10.42578125 5.12319711538463  C 9.53014823717931 3.96414262820512  8.45232371794877 3.38461538461537  7.19230769230756 3.38461538461537  C 5.93229166666667 3.38461538461537  4.85446714743596 3.96414262820512  3.95883413461543 5.12319711538463  C 3.06320112179491 6.28225160256408  2.61538461538457 7.67708333333333  2.61538461538457 9.30769230769229  C 2.61538461538457 10.9383012820513  3.06320112179491 12.3331330128205  3.95883413461543 13.4921875  C 4.85446714743596 14.6512419871795  5.93229166666667 15.2307692307693  7.19230769230756 15.2307692307693  C 8.45232371794877 15.2307692307693  9.53014823717931 14.6512419871795  10.42578125 13.4921875  Z M 16.6219951923076 19.1177884615385  C 16.873998397436 19.4439102564102  17 19.8405448717949  17 20.3076923076923  C 17 20.7660256410256  16.8705929487179 21.1626602564102  16.6117788461539 21.4975961538462  C 16.3529647435897 21.832532051282  16.0464743589744 22  15.6923076923076 22  C 15.3245192307691 22  15.0180288461539 21.832532051282  14.7728365384614 21.4975961538462  L 11.2686298076924 16.9759615384615  C 10.0494791666667 18.0689102564102  8.69070512820509 18.6153846153846  7.19230769230756 18.6153846153846  C 6.21834935897438 18.6153846153846  5.28695913461543 18.3707932692307  4.39813701923087 17.8816105769231  C 3.50931490384614 17.3924278846154  2.74308894230756 16.7313701923077  2.09945913461543 15.8984375  C 1.45582932692299 15.0655048076923  0.945012019230868 14.0739182692307  0.567007211538585 12.9236778846154  C 0.189002403846141 11.7734375  0 10.568108974359  0 9.30769230769229  C 0 8.04727564102562  0.189002403846141 6.84194711538463  0.567007211538585 5.69170673076925  C 0.945012019230868 4.54146634615383  1.45582932692299 3.54987980769229  2.09945913461543 2.71694711538463  C 2.74308894230756 1.88401442307692  3.50931490384614 1.22295673076925  4.39813701923087 0.733774038461542  C 5.28695913461543 0.24459134615383  6.21834935897438 0  7.19230769230756 0  C 8.16626602564089 0  9.09765625 0.24459134615383  9.98647836538457 0.733774038461542  C 10.8753004807691 1.22295673076925  11.6415264423076 1.88401442307692  12.28515625 2.71694711538463  C 12.9287860576924 3.54987980769229  13.4396033653846 4.54146634615383  13.817608173077 5.69170673076925  C 14.1956129807691 6.84194711538463  14.3846153846154 8.04727564102562  14.3846153846154 9.30769230769229  C 14.3846153846154 11.2467948717949  13.9623397435897 13.0052083333333  13.1177884615386 14.5829326923077  L 16.6219951923076 19.1177884615385  Z " fill-rule="nonzero" fill="#a1a1a1" stroke="none" transform="matrix(1 0 0 1 221 53 )" />
  </g>
</svg>