<?xml version="1.0" encoding="utf-8"?>
<svg version="1.1" xmlns:xlink="http://www.w3.org/1999/xlink" width="12px" height="12px" viewBox="9 185  12 12" xmlns="http://www.w3.org/2000/svg">
  <path d="M 15 185  C 18.36 185  21 187.64  21 191  C 21 194.36  18.36 197  15 197  C 11.64 197  9 194.36  9 191  C 9 187.64  11.64 185  15 185  Z " fill-rule="nonzero" fill="#ffffff" stroke="none" />
  <path d="M 15 185.5  C 18.08 185.5  20.5 187.92  20.5 191  C 20.5 194.08  18.08 196.5  15 196.5  C 11.92 196.5  9.5 194.08  9.5 191  C 9.5 187.92  11.92 185.5  15 185.5  Z " stroke-width="1" stroke="#797979" fill="none" />
  <path d="M 15 194  C 13.32 194  12 192.68  12 191  C 12 189.32  13.32 188  15 188  C 16.68 188  18 189.32  18 191  C 18 192.68  16.68 194  15 194  " fill-rule="nonzero" fill="#797979" stroke="none" />
</svg>