<?xml version="1.0" encoding="utf-8"?>
<svg version="1.1" xmlns:xlink="http://www.w3.org/1999/xlink" width="12px" height="12px" viewBox="9 279  12 12" xmlns="http://www.w3.org/2000/svg">
  <path d="M 15 279  C 18.36 279  21 281.64  21 285  C 21 288.36  18.36 291  15 291  C 11.64 291  9 288.36  9 285  C 9 281.64  11.64 279  15 279  Z " fill-rule="nonzero" fill="#ffffff" stroke="none" />
  <path d="M 15 279.5  C 18.08 279.5  20.5 281.92  20.5 285  C 20.5 288.08  18.08 290.5  15 290.5  C 11.92 290.5  9.5 288.08  9.5 285  C 9.5 281.92  11.92 279.5  15 279.5  Z " stroke-width="1" stroke="#797979" fill="none" />
  <path d="M 15 288  C 13.32 288  12 286.68  12 285  C 12 283.32  13.32 282  15 282  C 16.68 282  18 283.32  18 285  C 18 286.68  16.68 288  15 288  " fill-rule="nonzero" fill="#797979" stroke="none" />
</svg>