<?xml version="1.0" encoding="utf-8"?>
<svg version="1.1" xmlns:xlink="http://www.w3.org/1999/xlink" width="12px" height="12px" viewBox="9 92  12 12" xmlns="http://www.w3.org/2000/svg">
  <path d="M 15 92  C 18.36 92  21 94.64  21 98  C 21 101.36  18.36 104  15 104  C 11.64 104  9 101.36  9 98  C 9 94.64  11.64 92  15 92  Z " fill-rule="nonzero" fill="#ffffff" stroke="none" />
  <path d="M 15 92.5  C 18.08 92.5  20.5 94.92  20.5 98  C 20.5 101.08  18.08 103.5  15 103.5  C 11.92 103.5  9.5 101.08  9.5 98  C 9.5 94.92  11.92 92.5  15 92.5  Z " stroke-width="1" stroke="#797979" fill="none" />
  <path d="M 15 101  C 13.32 101  12 99.68  12 98  C 12 96.32  13.32 95  15 95  C 16.68 95  18 96.32  18 98  C 18 99.68  16.68 101  15 101  " fill-rule="nonzero" fill="#797979" stroke="none" />
</svg>