<?xml version="1.0" encoding="utf-8"?>
<svg version="1.1" xmlns:xlink="http://www.w3.org/1999/xlink" width="12px" height="12px" viewBox="9 154  12 12" xmlns="http://www.w3.org/2000/svg">
  <path d="M 15 154  C 18.36 154  21 156.64  21 160  C 21 163.36  18.36 166  15 166  C 11.64 166  9 163.36  9 160  C 9 156.64  11.64 154  15 154  Z " fill-rule="nonzero" fill="#ffffff" stroke="none" />
  <path d="M 15 154.5  C 18.08 154.5  20.5 156.92  20.5 160  C 20.5 163.08  18.08 165.5  15 165.5  C 11.92 165.5  9.5 163.08  9.5 160  C 9.5 156.92  11.92 154.5  15 154.5  Z " stroke-width="1" stroke="#797979" fill="none" />
  <path d="M 15 163  C 13.32 163  12 161.68  12 160  C 12 158.32  13.32 157  15 157  C 16.68 157  18 158.32  18 160  C 18 161.68  16.68 163  15 163  " fill-rule="nonzero" fill="#797979" stroke="none" />
</svg>