<?xml version="1.0" encoding="utf-8"?>
<svg version="1.1" xmlns:xlink="http://www.w3.org/1999/xlink" width="12px" height="12px" viewBox="9 217  12 12" xmlns="http://www.w3.org/2000/svg">
  <path d="M 15 217  C 18.36 217  21 219.64  21 223  C 21 226.36  18.36 229  15 229  C 11.64 229  9 226.36  9 223  C 9 219.64  11.64 217  15 217  Z " fill-rule="nonzero" fill="#ffffff" stroke="none" />
  <path d="M 15 217.5  C 18.08 217.5  20.5 219.92  20.5 223  C 20.5 226.08  18.08 228.5  15 228.5  C 11.92 228.5  9.5 226.08  9.5 223  C 9.5 219.92  11.92 217.5  15 217.5  Z " stroke-width="1" stroke="#797979" fill="none" />
  <path d="M 15 226  C 13.32 226  12 224.68  12 223  C 12 221.32  13.32 220  15 220  C 16.68 220  18 221.32  18 223  C 18 224.68  16.68 226  15 226  " fill-rule="nonzero" fill="#797979" stroke="none" />
</svg>