<?xml version="1.0" encoding="utf-8"?>
<svg version="1.1" xmlns:xlink="http://www.w3.org/1999/xlink" width="239px" height="119px" xmlns="http://www.w3.org/2000/svg">
  <g transform="matrix(1 0 0 1 -36 -106 )">
    <path d="M 155.5 107  C 221.86 107  274 132.74  274 165.5  C 274 198.26  221.86 224  155.5 224  C 89.14 224  37 198.26  37 165.5  C 37 132.74  89.14 107  155.5 107  Z " fill-rule="nonzero" fill="#ffffff" stroke="none" fill-opacity="0" />
    <path d="M 155.5 107  C 221.86 107  274 132.74  274 165.5  C 274 198.26  221.86 224  155.5 224  C 89.14 224  37 198.26  37 165.5  C 37 132.74  89.14 107  155.5 107  Z " stroke-width="2" stroke="#d9001b" fill="none" />
  </g>
</svg>