<?xml version="1.0" encoding="utf-8"?>
<svg version="1.1" xmlns:xlink="http://www.w3.org/1999/xlink" width="66px" height="22px" xmlns="http://www.w3.org/2000/svg">
  <g transform="matrix(1 0 0 1 -771 -435 )">
    <path d="M 804 436  C 821.92 436  836 440.4  836 446  C 836 451.6  821.92 456  804 456  C 786.08 456  772 451.6  772 446  C 772 440.4  786.08 436  804 436  Z " fill-rule="nonzero" fill="#ffffff" stroke="none" fill-opacity="0" />
    <path d="M 804 436  C 821.92 436  836 440.4  836 446  C 836 451.6  821.92 456  804 456  C 786.08 456  772 451.6  772 446  C 772 440.4  786.08 436  804 436  Z " stroke-width="2" stroke="#d9001b" fill="none" />
  </g>
</svg>