<?xml version="1.0" encoding="utf-8"?>
<svg version="1.1" xmlns:xlink="http://www.w3.org/1999/xlink" width="12px" height="12px" viewBox="264 188  12 12" xmlns="http://www.w3.org/2000/svg">
  <path d="M 270 188  C 273.36 188  276 190.64  276 194  C 276 197.36  273.36 200  270 200  C 266.64 200  264 197.36  264 194  C 264 190.64  266.64 188  270 188  Z " fill-rule="nonzero" fill="#ffffff" stroke="none" />
  <path d="M 270 188.5  C 273.08 188.5  275.5 190.92  275.5 194  C 275.5 197.08  273.08 199.5  270 199.5  C 266.92 199.5  264.5 197.08  264.5 194  C 264.5 190.92  266.92 188.5  270 188.5  Z " stroke-width="1" stroke="#797979" fill="none" />
  <path d="M 270 197  C 268.32 197  267 195.68  267 194  C 267 192.32  268.32 191  270 191  C 271.68 191  273 192.32  273 194  C 273 195.68  271.68 197  270 197  " fill-rule="nonzero" fill="#797979" stroke="none" />
</svg>