<?xml version="1.0" encoding="utf-8"?>
<svg version="1.1" xmlns:xlink="http://www.w3.org/1999/xlink" width="12px" height="12px" viewBox="133 188  12 12" xmlns="http://www.w3.org/2000/svg">
  <path d="M 139 188  C 142.36 188  145 190.64  145 194  C 145 197.36  142.36 200  139 200  C 135.64 200  133 197.36  133 194  C 133 190.64  135.64 188  139 188  Z " fill-rule="nonzero" fill="#ffffff" stroke="none" />
  <path d="M 139 188.5  C 142.08 188.5  144.5 190.92  144.5 194  C 144.5 197.08  142.08 199.5  139 199.5  C 135.92 199.5  133.5 197.08  133.5 194  C 133.5 190.92  135.92 188.5  139 188.5  Z " stroke-width="1" stroke="#797979" fill="none" />
  <path d="M 139 197  C 137.32 197  136 195.68  136 194  C 136 192.32  137.32 191  139 191  C 140.68 191  142 192.32  142 194  C 142 195.68  140.68 197  139 197  " fill-rule="nonzero" fill="#797979" stroke="none" />
</svg>