<?xml version="1.0" encoding="utf-8"?>
<svg version="1.1" xmlns:xlink="http://www.w3.org/1999/xlink" width="26px" height="25px" xmlns="http://www.w3.org/2000/svg">
  <g transform="matrix(1 0 0 1 -269 -229 )">
    <path d="M 15.9453125 15.33203125  C 17.3151041666669 14.0149238782051  18.0000000000002 12.4298878205128  18.0000000000002 10.5769230769231  C 18.0000000000002 8.72395833333333  17.3151041666669 7.138922275641  15.9453125 5.82181490384617  C 14.5755208333331 4.50470753205128  12.9270833333334 3.84615384615383  10.9999999999998 3.84615384615383  C 9.07291666666667 3.84615384615383  7.42447916666676 4.50470753205128  6.05468750000008 5.82181490384617  C 4.68489583333339 7.138922275641  3.99999999999992 8.72395833333333  3.99999999999992 10.5769230769231  C 3.99999999999992 12.4298878205128  4.68489583333339 14.0149238782051  6.05468750000008 15.33203125  C 7.42447916666676 16.6491386217949  9.07291666666667 17.3076923076923  10.9999999999998 17.3076923076923  C 12.9270833333334 17.3076923076923  14.5755208333331 16.6491386217949  15.9453125 15.33203125  Z M 25.4218749999998 21.7247596153846  C 25.8072916666668 22.0953525641026  26 22.5460737179487  26 23.0769230769231  C 26 23.5977564102564  25.8020833333333 24.0484775641026  25.40625 24.4290865384616  C 25.0104166666665 24.8096955128205  24.5416666666667 25  23.9999999999998 25  C 23.4374999999998 25  22.96875 24.8096955128205  22.5937499999998 24.4290865384616  L 17.2343750000002 19.2908653846154  C 15.3697916666667 20.5328525641026  13.2916666666666 21.1538461538462  10.9999999999998 21.1538461538462  C 9.51041666666671 21.1538461538462  8.08593750000008 20.8759014423077  6.72656250000015 20.3200120192308  C 5.36718749999998 19.7641225961538  4.19531249999979 19.0129206730769  3.21093750000008 18.06640625  C 2.22656249999987 17.1198918269231  1.44531250000015 15.9930889423077  0.867187500000189 14.6859975961538  C 0.289062499999981 13.37890625  0 12.0092147435897  0 10.5769230769231  C 0 9.14463141025639  0.289062499999981 7.77493990384617  0.867187500000189 6.46784855769234  C 1.44531250000015 5.16075721153844  2.22656249999987 4.03395432692305  3.21093750000008 3.08743990384617  C 4.19531249999979 2.14092548076922  5.36718749999998 1.38972355769234  6.72656250000015 0.833834134615389  C 8.08593750000008 0.277944711538443  9.51041666666671 0  10.9999999999998 0  C 12.4895833333331 0  13.9140625 0.277944711538443  15.2734374999999 0.833834134615389  C 16.6328124999998 1.38972355769234  17.8046874999998 2.14092548076922  18.7890625 3.08743990384617  C 19.7734375000002 4.03395432692305  20.5546874999999 5.16075721153844  21.1328125000001 6.46784855769234  C 21.7109374999998 7.77493990384617  22.0000000000001 9.14463141025639  22.0000000000001 10.5769230769231  C 22.0000000000001 12.7804487179487  21.3541666666665 14.7786458333333  20.0625000000002 16.5715144230769  L 25.4218749999998 21.7247596153846  Z " fill-rule="nonzero" fill="#a1a1a1" stroke="none" transform="matrix(1 0 0 1 269 229 )" />
  </g>
</svg>