<?xml version="1.0" encoding="utf-8"?>
<svg version="1.1" xmlns:xlink="http://www.w3.org/1999/xlink" width="67px" height="28px" xmlns="http://www.w3.org/2000/svg">
  <defs>
    <mask fill="white" id="clip414">
      <path d="M 0 23  L 0 5  C 0 2.20000000000005  2.20000000000005 0  5 0  L 43.6153846153845 0  L 62 0  C 64.8 0  67 2.20000000000005  67 5  L 67 23  C 67 25.8  64.8 28  62 28  L 5 28  C 2.20000000000005 28  0 25.8  0 23  Z " fill-rule="evenodd" />
    </mask>
  </defs>
  <g transform="matrix(1 0 0 1 -813 -490 )">
    <path d="M 0 23  L 0 5  C 0 2.20000000000005  2.20000000000005 0  5 0  L 43.6153846153845 0  L 62 0  C 64.8 0  67 2.20000000000005  67 5  L 67 23  C 67 25.8  64.8 28  62 28  L 5 28  C 2.20000000000005 28  0 25.8  0 23  Z " fill-rule="nonzero" fill="#ffffff" stroke="none" transform="matrix(1 0 0 1 813 490 )" />
    <path d="M 0 23  L 0 5  C 0 2.20000000000005  2.20000000000005 0  5 0  L 43.6153846153845 0  L 62 0  C 64.8 0  67 2.20000000000005  67 5  L 67 23  C 67 25.8  64.8 28  62 28  L 5 28  C 2.20000000000005 28  0 25.8  0 23  Z " stroke-width="2" stroke="#d7d7d7" fill="none" transform="matrix(1 0 0 1 813 490 )" mask="url(#clip414)" />
  </g>
</svg>