<?xml version="1.0" encoding="utf-8"?>
<svg version="1.1" xmlns:xlink="http://www.w3.org/1999/xlink" width="23px" height="22px" xmlns="http://www.w3.org/2000/svg">
  <g transform="matrix(1 0 0 1 -232 -60 )">
    <path d="M 14.10546875 13.4921875  C 15.3172075320515 12.3331330128205  15.9230769230771 10.9383012820513  15.9230769230771 9.30769230769229  C 15.9230769230771 7.67708333333333  15.3172075320515 6.28225160256408  14.10546875 5.12319711538463  C 12.8937299679485 3.96414262820512  11.4354967948719 3.38461538461537  9.73076923076905 3.38461538461537  C 8.02604166666667 3.38461538461537  6.56780849358983 3.96414262820512  5.35606971153853 5.12319711538463  C 4.14433092948723 6.28225160256408  3.53846153846147 7.67708333333333  3.53846153846147 9.30769230769229  C 3.53846153846147 10.9383012820513  4.14433092948723 12.3331330128205  5.35606971153853 13.4921875  C 6.56780849358983 14.6512419871795  8.02604166666667 15.2307692307693  9.73076923076905 15.2307692307693  C 11.4354967948719 15.2307692307693  12.8937299679485 14.6512419871795  14.10546875 13.4921875  Z M 22.488581730769 19.1177884615385  C 22.8295272435898 19.4439102564102  23 19.8405448717949  23 20.3076923076923  C 23 20.7660256410256  22.8249198717948 21.1626602564102  22.4747596153846 21.4975961538462  C 22.1245993589742 21.832532051282  21.7099358974359 22  21.230769230769 22  C 20.7331730769229 22  20.3185096153846 21.832532051282  19.9867788461537 21.4975961538462  L 15.245793269231 16.9759615384615  C 13.5963541666667 18.0689102564102  11.7580128205128 18.6153846153846  9.73076923076905 18.6153846153846  C 8.41306089743593 18.6153846153846  7.15294471153853 18.3707932692307  5.95042067307706 17.8816105769231  C 4.74789663461537 17.3924278846154  3.71123798076905 16.7313701923077  2.84044471153853 15.8984375  C 1.96965144230757 15.0655048076923  1.27854567307706 14.0739182692307  0.767127403846321 12.9236778846154  C 0.255709134615368 11.7734375  0 10.568108974359  0 9.30769230769229  C 0 8.04727564102562  0.255709134615368 6.84194711538463  0.767127403846321 5.69170673076925  C 1.27854567307706 4.54146634615383  1.96965144230757 3.54987980769229  2.84044471153853 2.71694711538463  C 3.71123798076905 1.88401442307692  4.74789663461537 1.22295673076925  5.95042067307706 0.733774038461542  C 7.15294471153853 0.24459134615383  8.41306089743593 0  9.73076923076905 0  C 11.0484775641024 0  12.30859375 0.24459134615383  13.5111177884615 0.733774038461542  C 14.7136418269229 1.22295673076925  15.750300480769 1.88401442307692  16.62109375 2.71694711538463  C 17.491887019231 3.54987980769229  18.1829927884615 4.54146634615383  18.6944110576924 5.69170673076925  C 19.2058293269229 6.84194711538463  19.4615384615385 8.04727564102562  19.4615384615385 9.30769230769229  C 19.4615384615385 11.2467948717949  18.8902243589742 13.0052083333333  17.7475961538463 14.5829326923077  L 22.488581730769 19.1177884615385  Z " fill-rule="nonzero" fill="#aaaaaa" stroke="none" transform="matrix(1 0 0 1 232 60 )" />
  </g>
</svg>