<?xml version="1.0" encoding="utf-8"?>
<svg version="1.1" xmlns:xlink="http://www.w3.org/1999/xlink" width="12px" height="12px" viewBox="178 112  12 12" xmlns="http://www.w3.org/2000/svg">
  <path d="M 184 112  C 187.36 112  190 114.64  190 118  C 190 121.36  187.36 124  184 124  C 180.64 124  178 121.36  178 118  C 178 114.64  180.64 112  184 112  Z " fill-rule="nonzero" fill="#ffffff" stroke="none" />
  <path d="M 184 112.5  C 187.08 112.5  189.5 114.92  189.5 118  C 189.5 121.08  187.08 123.5  184 123.5  C 180.92 123.5  178.5 121.08  178.5 118  C 178.5 114.92  180.92 112.5  184 112.5  Z " stroke-width="1" stroke="#797979" fill="none" />
  <path d="M 184 121  C 182.32 121  181 119.68  181 118  C 181 116.32  182.32 115  184 115  C 185.68 115  187 116.32  187 118  C 187 119.68  185.68 121  184 121  " fill-rule="nonzero" fill="#797979" stroke="none" />
</svg>