<?xml version="1.0" encoding="utf-8"?>
<svg version="1.1" xmlns:xlink="http://www.w3.org/1999/xlink" width="19px" height="22px" xmlns="http://www.w3.org/2000/svg">
  <g transform="matrix(1 0 0 1 -221 -49 )">
    <path d="M 11.65234375 13.4921875  C 12.6533453525643 12.3331330128205  13.1538461538463 10.9383012820513  13.1538461538463 9.30769230769229  C 13.1538461538463 7.67708333333333  12.6533453525643 6.28225160256408  11.65234375 5.12319711538463  C 10.6513421474357 3.96414262820512  9.4467147435898 3.38461538461537  8.03846153846139 3.38461538461537  C 6.63020833333333 3.38461538461537  5.42558092948725 3.96414262820512  4.42457932692313 5.12319711538463  C 3.42357772435902 6.28225160256408  2.92307692307687 7.67708333333333  2.92307692307687 9.30769230769229  C 2.92307692307687 10.9383012820513  3.42357772435902 12.3331330128205  4.42457932692313 13.4921875  C 5.42558092948725 14.6512419871795  6.63020833333333 15.2307692307693  8.03846153846139 15.2307692307693  C 9.4467147435898 15.2307692307693  10.6513421474357 14.6512419871795  11.65234375 13.4921875  Z M 18.5775240384614 19.1177884615385  C 18.8591746794872 19.4439102564102  19 19.8405448717949  19 20.3076923076923  C 19 20.7660256410256  18.8553685897435 21.1626602564102  18.5661057692308 21.4975961538462  C 18.2768429487178 21.832532051282  17.9342948717949 22  17.5384615384614 22  C 17.1274038461537 22  16.7848557692308 21.832532051282  16.5108173076922 21.4975961538462  L 12.5943509615386 16.9759615384615  C 11.2317708333333 18.0689102564102  9.71314102564098 18.6153846153846  8.03846153846139 18.6153846153846  C 6.9499198717949 18.6153846153846  5.90895432692313 18.3707932692307  4.91556490384626 17.8816105769231  C 3.92217548076922 17.3924278846154  3.06580528846139 16.7313701923077  2.34645432692313 15.8984375  C 1.62710336538452 15.0655048076923  1.05618990384626 14.0739182692307  0.633713942307831 12.9236778846154  C 0.211237980769217 11.7734375  0 10.568108974359  0 9.30769230769229  C 0 8.04727564102562  0.211237980769217 6.84194711538463  0.633713942307831 5.69170673076925  C 1.05618990384626 4.54146634615383  1.62710336538452 3.54987980769229  2.34645432692313 2.71694711538463  C 3.06580528846139 1.88401442307692  3.92217548076922 1.22295673076925  4.91556490384626 0.733774038461542  C 5.90895432692313 0.24459134615383  6.9499198717949 0  8.03846153846139 0  C 9.12700320512805 0  10.16796875 0.24459134615383  11.1613581730769 0.733774038461542  C 12.1547475961537 1.22295673076925  13.0111177884614 1.88401442307692  13.73046875 2.71694711538463  C 14.4498197115386 3.54987980769229  15.0207331730769 4.54146634615383  15.4432091346155 5.69170673076925  C 15.8656850961537 6.84194711538463  16.0769230769231 8.04727564102562  16.0769230769231 9.30769230769229  C 16.0769230769231 11.2467948717949  15.6049679487179 13.0052083333333  14.6610576923078 14.5829326923077  L 18.5775240384614 19.1177884615385  Z " fill-rule="nonzero" fill="#a1a1a1" stroke="none" transform="matrix(1 0 0 1 221 49 )" />
  </g>
</svg>