<?xml version="1.0" encoding="utf-8"?>
<svg version="1.1" xmlns:xlink="http://www.w3.org/1999/xlink" width="174px" height="327px" xmlns="http://www.w3.org/2000/svg">
  <g transform="matrix(1 0 0 1 -606 -58 )">
    <path d="M 3 323.7408  L 3 290.5632  L 3 271.3824  L 3 257.904  L 1.15809586281585 243.9072  L 3.05357142857143 230.4288  L 0.674757405376715 214.051762963577  L 5 206.5824  L 5 195.400398540717  L 5.3030064668152 186.299086837254  L 6.51428571428572 174.4416  L 9.50890055353931 161.445406693643  L 13.9918305726632 141.990141748142  L 16.9409454321746 129.191411743046  L 20.9678571428571 111.7152  L 25.2428571428572 91.4976  L 29.5178571428571 74.1312000000001  L 32.9482289360771 62.7710012175197  L 37.2535714285714 39.1392000000001  L 43.9714285714286 27.216  L 46.0071428571428 13.7376  L 54.5571428571428 7.51679999999994  L 169.982142857143 0.648  " stroke-width="2" stroke="#ff0000" fill="none" transform="matrix(1 0 0 1 607 59 )" />
  </g>
</svg>