<?xml version="1.0" encoding="utf-8"?>
<svg version="1.1" xmlns:xlink="http://www.w3.org/1999/xlink" width="214px" height="327px" xmlns="http://www.w3.org/2000/svg">
  <g transform="matrix(1 0 0 1 -585 -37 )">
    <path d="M 2.78966346153846 323.7408  L 5.59197077554491 292.541860465116  L 3 271.3824  L 3 257.904  L 0.428312744078102 243.9072  L 2.78966346153846 230.4288  L 5.59197077554491 220.206976744186  L 5 206.5824  L 5 195.400398540717  L 5.59197077554491 186.299086837254  L 7.10096153846154 174.4416  L 10.8316009763643 161.445406693643  L 16.4163577562614 141.990141748142  L 20.0903141053659 129.191411743046  L 25.1069711538461 111.7152  L 30.4326923076923 91.4976  L 35.1282774949392 76.185981490474  L 35.7584134615385 74.1312000000001  L 35.7584134615385 66.4953488372093  L 36 59.7139534883721  L 36 40.8767441860465  L 40.0319113854469 21.2860465116279  L 53.3586538461538 12.2441860465116  L 66.9519230769231 7.51679999999994  L 210.746394230769 0.647999999999989  " stroke-width="2" stroke="#0099ff" fill="none" transform="matrix(1 0 0 1 586 38 )" />
  </g>
</svg>