<?xml version="1.0" encoding="utf-8"?>
<svg version="1.1" xmlns:xlink="http://www.w3.org/1999/xlink" width="207px" height="347px" xmlns="http://www.w3.org/2000/svg">
  <g transform="matrix(1 0 0 1 -606 -22 )">
    <path d="M 2.69711538461539 343.7248  L 5.40645515739887 310.6  L 3 288.1344  L 3 273.824  L 0.414103316549444 258.9632  L 2.69711538461539 244.6528  L 5.40645515739887 233.8  L 5 219.3344  L 5 207.462151537058  L 5.40645515739887 197.799030469184  L 6.86538461538462 185.2096  L 10.4722587638783 171.411172538929  L 15.8717392524992 150.754965312843  L 19.4238107938135 137.166190245704  L 24.2740384615384 118.6112  L 29.4230769230769 97.1456000000001  L 33.9628844026901 80.8888198540835  L 34.5721153846154 78.7072000000001  L 34.5721153846154 70.6  L 35 63.4  L 35 43.4  L 38.7038384958823 22.6  L 51.5884615384615 13  L 64.7307692307692 7.98079999999993  L 203.754807692308 0.687999999999988  " stroke-width="2" stroke="#0099ff" fill="none" transform="matrix(1 0 0 1 607 23 )" />
  </g>
</svg>