<?xml version="1.0" encoding="utf-8"?>
<svg version="1.1" xmlns:xlink="http://www.w3.org/1999/xlink" width="168px" height="347px" xmlns="http://www.w3.org/2000/svg">
  <g transform="matrix(1 0 0 1 -626 -42 )">
    <path d="M 3 343.7248  L 3 308.4992  L 3 288.1344  L 3 273.824  L 1.1174609202609 258.9632  L 2.94642857142857 244.6528  L 0.651081706942444 227.264834751452  L 5 219.3344  L 5 207.462151537058  L 5.11693606447081 197.799030469184  L 6.28571428571429 185.2096  L 9.17525492008179 171.411172538929  L 13.500889149061 150.754965312843  L 16.3465262942035 137.166190245704  L 20.2321428571429 118.6112  L 24.3571428571429 97.1456  L 28.4821428571429 78.7072000000001  L 31.7921507277937 66.645754379095  L 35.9464285714286 41.5552000000001  L 42.4285714285714 28.896  L 44.3928571428571 14.5856  L 52.6428571428571 7.98079999999994  L 164.017857142857 0.688  " stroke-width="2" stroke="#ff0000" fill="none" transform="matrix(1 0 0 1 627 43 )" />
  </g>
</svg>