<?xml version="1.0" encoding="utf-8"?>
<svg version="1.1" xmlns:xlink="http://www.w3.org/1999/xlink" width="12px" height="12px" viewBox="178 106  12 12" xmlns="http://www.w3.org/2000/svg">
  <path d="M 184 106  C 187.36 106  190 108.64  190 112  C 190 115.36  187.36 118  184 118  C 180.64 118  178 115.36  178 112  C 178 108.64  180.64 106  184 106  Z " fill-rule="nonzero" fill="#ffffff" stroke="none" />
  <path d="M 184 106.5  C 187.08 106.5  189.5 108.92  189.5 112  C 189.5 115.08  187.08 117.5  184 117.5  C 180.92 117.5  178.5 115.08  178.5 112  C 178.5 108.92  180.92 106.5  184 106.5  Z " stroke-width="1" stroke="#797979" fill="none" />
  <path d="M 184 115  C 182.32 115  181 113.68  181 112  C 181 110.32  182.32 109  184 109  C 185.68 109  187 110.32  187 112  C 187 113.68  185.68 115  184 115  " fill-rule="nonzero" fill="#797979" stroke="none" />
</svg>