<?xml version="1.0" encoding="utf-8"?>
<svg version="1.1" xmlns:xlink="http://www.w3.org/1999/xlink" width="12px" height="12px" viewBox="670 164  12 12" xmlns="http://www.w3.org/2000/svg">
  <path d="M 676 164  C 679.36 164  682 166.64  682 170  C 682 173.36  679.36 176  676 176  C 672.64 176  670 173.36  670 170  C 670 166.64  672.64 164  676 164  Z " fill-rule="nonzero" fill="#ffffff" stroke="none" />
  <path d="M 676 164.5  C 679.08 164.5  681.5 166.92  681.5 170  C 681.5 173.08  679.08 175.5  676 175.5  C 672.92 175.5  670.5 173.08  670.5 170  C 670.5 166.92  672.92 164.5  676 164.5  Z " stroke-width="1" stroke="#797979" fill="none" />
  <path d="M 676 173  C 674.32 173  673 171.68  673 170  C 673 168.32  674.32 167  676 167  C 677.68 167  679 168.32  679 170  C 679 171.68  677.68 173  676 173  " fill-rule="nonzero" fill="#797979" stroke="none" />
</svg>