<?xml version="1.0" encoding="utf-8"?>
<svg version="1.1" xmlns:xlink="http://www.w3.org/1999/xlink" width="12px" height="12px" viewBox="670 195  12 12" xmlns="http://www.w3.org/2000/svg">
  <path d="M 676 195  C 679.36 195  682 197.64  682 201  C 682 204.36  679.36 207  676 207  C 672.64 207  670 204.36  670 201  C 670 197.64  672.64 195  676 195  Z " fill-rule="nonzero" fill="#ffffff" stroke="none" />
  <path d="M 676 195.5  C 679.08 195.5  681.5 197.92  681.5 201  C 681.5 204.08  679.08 206.5  676 206.5  C 672.92 206.5  670.5 204.08  670.5 201  C 670.5 197.92  672.92 195.5  676 195.5  Z " stroke-width="1" stroke="#797979" fill="none" />
  <path d="M 676 204  C 674.32 204  673 202.68  673 201  C 673 199.32  674.32 198  676 198  C 677.68 198  679 199.32  679 201  C 679 202.68  677.68 204  676 204  " fill-rule="nonzero" fill="#797979" stroke="none" />
</svg>