<?xml version="1.0" encoding="utf-8"?>
<svg version="1.1" xmlns:xlink="http://www.w3.org/1999/xlink" width="12px" height="12px" viewBox="670 258  12 12" xmlns="http://www.w3.org/2000/svg">
  <path d="M 676 258  C 679.36 258  682 260.64  682 264  C 682 267.36  679.36 270  676 270  C 672.64 270  670 267.36  670 264  C 670 260.64  672.64 258  676 258  Z " fill-rule="nonzero" fill="#ffffff" stroke="none" />
  <path d="M 676 258.5  C 679.08 258.5  681.5 260.92  681.5 264  C 681.5 267.08  679.08 269.5  676 269.5  C 672.92 269.5  670.5 267.08  670.5 264  C 670.5 260.92  672.92 258.5  676 258.5  Z " stroke-width="1" stroke="#797979" fill="none" />
  <path d="M 676 267  C 674.32 267  673 265.68  673 264  C 673 262.32  674.32 261  676 261  C 677.68 261  679 262.32  679 264  C 679 265.68  677.68 267  676 267  " fill-rule="nonzero" fill="#797979" stroke="none" />
</svg>