<?xml version="1.0" encoding="utf-8"?>
<svg version="1.1" xmlns:xlink="http://www.w3.org/1999/xlink" width="12px" height="12px" viewBox="670 320  12 12" xmlns="http://www.w3.org/2000/svg">
  <path d="M 676 320  C 679.36 320  682 322.64  682 326  C 682 329.36  679.36 332  676 332  C 672.64 332  670 329.36  670 326  C 670 322.64  672.64 320  676 320  Z " fill-rule="nonzero" fill="#ffffff" stroke="none" />
  <path d="M 676 320.5  C 679.08 320.5  681.5 322.92  681.5 326  C 681.5 329.08  679.08 331.5  676 331.5  C 672.92 331.5  670.5 329.08  670.5 326  C 670.5 322.92  672.92 320.5  676 320.5  Z " stroke-width="1" stroke="#797979" fill="none" />
  <path d="M 676 329  C 674.32 329  673 327.68  673 326  C 673 324.32  674.32 323  676 323  C 677.68 323  679 324.32  679 326  C 679 327.68  677.68 329  676 329  " fill-rule="nonzero" fill="#797979" stroke="none" />
</svg>