<?xml version="1.0" encoding="utf-8"?>
<svg version="1.1" xmlns:xlink="http://www.w3.org/1999/xlink" width="12px" height="12px" viewBox="670 289  12 12" xmlns="http://www.w3.org/2000/svg">
  <path d="M 676 289  C 679.36 289  682 291.64  682 295  C 682 298.36  679.36 301  676 301  C 672.64 301  670 298.36  670 295  C 670 291.64  672.64 289  676 289  Z " fill-rule="nonzero" fill="#ffffff" stroke="none" />
  <path d="M 676 289.5  C 679.08 289.5  681.5 291.92  681.5 295  C 681.5 298.08  679.08 300.5  676 300.5  C 672.92 300.5  670.5 298.08  670.5 295  C 670.5 291.92  672.92 289.5  676 289.5  Z " stroke-width="1" stroke="#797979" fill="none" />
  <path d="M 676 298  C 674.32 298  673 296.68  673 295  C 673 293.32  674.32 292  676 292  C 677.68 292  679 293.32  679 295  C 679 296.68  677.68 298  676 298  " fill-rule="nonzero" fill="#797979" stroke="none" />
</svg>