<?xml version="1.0" encoding="utf-8"?>
<svg version="1.1" xmlns:xlink="http://www.w3.org/1999/xlink" width="12px" height="12px" viewBox="670 226  12 12" xmlns="http://www.w3.org/2000/svg">
  <path d="M 676 226  C 679.36 226  682 228.64  682 232  C 682 235.36  679.36 238  676 238  C 672.64 238  670 235.36  670 232  C 670 228.64  672.64 226  676 226  Z " fill-rule="nonzero" fill="#ffffff" stroke="none" />
  <path d="M 676 226.5  C 679.08 226.5  681.5 228.92  681.5 232  C 681.5 235.08  679.08 237.5  676 237.5  C 672.92 237.5  670.5 235.08  670.5 232  C 670.5 228.92  672.92 226.5  676 226.5  Z " stroke-width="1" stroke="#797979" fill="none" />
  <path d="M 676 235  C 674.32 235  673 233.68  673 232  C 673 230.32  674.32 229  676 229  C 677.68 229  679 230.32  679 232  C 679 233.68  677.68 235  676 235  " fill-rule="nonzero" fill="#797979" stroke="none" />
</svg>