<?xml version="1.0" encoding="utf-8"?>
<svg version="1.1" xmlns:xlink="http://www.w3.org/1999/xlink" width="12px" height="12px" viewBox="1108 192  12 12" xmlns="http://www.w3.org/2000/svg">
  <path d="M 1114 192  C 1117.36 192  1120 194.64  1120 198  C 1120 201.36  1117.36 204  1114 204  C 1110.64 204  1108 201.36  1108 198  C 1108 194.64  1110.64 192  1114 192  Z " fill-rule="nonzero" fill="#ffffff" stroke="none" />
  <path d="M 1114 192.5  C 1117.08 192.5  1119.5 194.92  1119.5 198  C 1119.5 201.08  1117.08 203.5  1114 203.5  C 1110.92 203.5  1108.5 201.08  1108.5 198  C 1108.5 194.92  1110.92 192.5  1114 192.5  Z " stroke-width="1" stroke="#797979" fill="none" />
  <path d="M 1114 201  C 1112.32 201  1111 199.68  1111 198  C 1111 196.32  1112.32 195  1114 195  C 1115.68 195  1117 196.32  1117 198  C 1117 199.68  1115.68 201  1114 201  " fill-rule="nonzero" fill="#797979" stroke="none" />
</svg>