<?xml version="1.0" encoding="utf-8"?>
<svg version="1.1" xmlns:xlink="http://www.w3.org/1999/xlink" width="12px" height="12px" viewBox="1239 192  12 12" xmlns="http://www.w3.org/2000/svg">
  <path d="M 1245 192  C 1248.36 192  1251 194.64  1251 198  C 1251 201.36  1248.36 204  1245 204  C 1241.64 204  1239 201.36  1239 198  C 1239 194.64  1241.64 192  1245 192  Z " fill-rule="nonzero" fill="#ffffff" stroke="none" />
  <path d="M 1245 192.5  C 1248.08 192.5  1250.5 194.92  1250.5 198  C 1250.5 201.08  1248.08 203.5  1245 203.5  C 1241.92 203.5  1239.5 201.08  1239.5 198  C 1239.5 194.92  1241.92 192.5  1245 192.5  Z " stroke-width="1" stroke="#797979" fill="none" />
  <path d="M 1245 201  C 1243.32 201  1242 199.68  1242 198  C 1242 196.32  1243.32 195  1245 195  C 1246.68 195  1248 196.32  1248 198  C 1248 199.68  1246.68 201  1245 201  " fill-rule="nonzero" fill="#797979" stroke="none" />
</svg>