<?xml version="1.0" encoding="utf-8"?>
<svg version="1.1" xmlns:xlink="http://www.w3.org/1999/xlink" width="12px" height="12px" viewBox="143 192  12 12" xmlns="http://www.w3.org/2000/svg">
  <path d="M 149 192  C 152.36 192  155 194.64  155 198  C 155 201.36  152.36 204  149 204  C 145.64 204  143 201.36  143 198  C 143 194.64  145.64 192  149 192  Z " fill-rule="nonzero" fill="#f0f0f0" stroke="none" />
  <path d="M 149 192.5  C 152.08 192.5  154.5 194.92  154.5 198  C 154.5 201.08  152.08 203.5  149 203.5  C 145.92 203.5  143.5 201.08  143.5 198  C 143.5 194.92  145.92 192.5  149 192.5  Z " stroke-width="1" stroke="#797979" fill="none" />
  <path d="M 149 201  C 147.32 201  146 199.68  146 198  C 146 196.32  147.32 195  149 195  C 150.68 195  152 196.32  152 198  C 152 199.68  150.68 201  149 201  " fill-rule="nonzero" fill="#797979" stroke="none" />
</svg>