<?xml version="1.0" encoding="utf-8"?>
<svg version="1.1" xmlns:xlink="http://www.w3.org/1999/xlink" width="13px" height="18px" xmlns="http://www.w3.org/2000/svg">
  <g transform="matrix(1 0 0 1 -1411 -169 )">
    <path d="M 8.39027027027027 13.66875  C 8.5027027027027 13.78125  8.55891891891892 13.9125  8.55891891891892 14.0625  L 8.55891891891892 17.4375  C 8.55891891891892 17.5875  8.5027027027027 17.71875  8.39027027027027 17.83125  C 8.27783783783784 17.94375  8.14666666666667 18  7.99675675675676 18  L 4.62378378378378 18  C 4.47387387387387 18  4.3427027027027 17.94375  4.23027027027027 17.83125  C 4.11783783783784 17.71875  4.06162162162162 17.5875  4.06162162162162 17.4375  L 4.06162162162162 14.0625  C 4.06162162162162 13.9125  4.11783783783784 13.78125  4.23027027027027 13.66875  C 4.3427027027027 13.55625  4.47387387387387 13.5  4.62378378378378 13.5  L 7.99675675675676 13.5  C 8.14666666666667 13.5  8.27783783783784 13.55625  8.39027027027027 13.66875  Z M 12.4237837837838 3.39609375  C 12.8079279279279 4.10390625  13 4.846875  13 5.625  C 13 6.13125  12.9273873873874 6.6046875  12.7821621621622 7.0453125  C 12.6369369369369 7.4859375  12.472972972973 7.84453125  12.2902702702703 8.12109375  C 12.1075675675676 8.39765625  11.8499099099099 8.6765625  11.5172972972973 8.9578125  C 11.1846846846847 9.2390625  10.9153153153153 9.44296875  10.7091891891892 9.56953125  C 10.5030630630631 9.69609375  10.2172972972973 9.8625  9.85189189189189 10.06875  C 9.46774774774775 10.284375  9.14684684684685 10.5890625  8.88918918918919 10.9828125  C 8.63153153153153 11.3765625  8.5027027027027 11.690625  8.5027027027027 11.925  C 8.5027027027027 12.084375  8.44648648648649 12.23671875  8.33405405405405 12.38203125  C 8.22162162162162 12.52734375  8.09045045045045 12.6  7.94054054054054 12.6  L 4.56756756756757 12.6  C 4.42702702702703 12.6  4.30756756756757 12.51328125  4.20918918918919 12.33984375  C 4.11081081081081 12.16640625  4.06162162162162 11.990625  4.06162162162162 11.8125  L 4.06162162162162 11.1796875  C 4.06162162162162 10.4015625  4.36612612612613 9.66796875  4.97513513513513 8.97890625  C 5.58414414414414 8.28984375  6.25405405405405 7.78125  6.98486486486486 7.453125  C 7.53765765765766 7.2  7.93117117117117 6.9375  8.16540540540541 6.665625  C 8.39963963963964 6.39375  8.51675675675676 6.0375  8.51675675675676 5.596875  C 8.51675675675676 5.203125  8.29891891891892 4.85625  7.86324324324324 4.55625  C 7.42756756756757 4.25625  6.92396396396397 4.10625  6.35243243243243 4.10625  C 5.74342342342342 4.10625  5.23747747747748 4.2421875  4.83459459459459 4.5140625  C 4.50666666666667 4.7484375  4.00540540540541 5.2875  3.33081081081081 6.13125  C 3.20900900900901 6.28125  3.06378378378378 6.35625  2.89513513513514 6.35625  C 2.7827027027027 6.35625  2.66558558558559 6.31875  2.54378378378378 6.24375  L 0.238918918918919 4.4859375  C 0.117117117117117 4.3921875  0.0445045045045048 4.275  0.0210810810810811 4.134375  C -0.00234234234234221 3.99375  0.0234234234234235 3.8625  0.0983783783783784 3.740625  C 1.59747747747748 1.246875  3.77117117117117 0  6.61945945945946 0  C 7.36900900900901 0  8.12324324324324 0.1453125  8.88216216216216 0.435937499999999  C 9.64108108108108 0.726562499999999  10.325045045045 1.115625  10.9340540540541 1.603125  C 11.5430630630631 2.090625  12.0396396396396 2.68828125  12.4237837837838 3.39609375  Z " fill-rule="nonzero" fill="#000000" stroke="none" transform="matrix(1 0 0 1 1411 169 )" />
  </g>
</svg>