<?xml version="1.0" encoding="utf-8"?>
<svg version="1.1" xmlns:xlink="http://www.w3.org/1999/xlink" width="49.6923076923077px" height="10px" preserveAspectRatio="xMinYMid meet" viewBox="427.307692307692 340  49.6923076923077 8" xmlns="http://www.w3.org/2000/svg">
  <path d="M 1223 475  L 1235 475  A 5 5 0 0 1 1240 480 L 1240 572.5  A 5 5 0 0 1 1235 577.5 L 437.307692307692 577.5  A 5 5 0 0 1 432.307692307692 572.5 L 432.307692307692 459  A 3 3 0 0 0 435.307692307692 456 A 3 3 0 0 0 432.307692307692 453 L 432.307692307692 349  A 5 5 0 0 1 437.307692307692 344 L 471 344  " stroke-width="2" stroke="#ff0000" fill="none" />
  <path d="M 470 351.6  L 477 344  L 470 336.4  L 470 351.6  Z " fill-rule="nonzero" fill="#ff0000" stroke="none" />
</svg>