<?xml version="1.0" encoding="utf-8"?>
<svg version="1.1" xmlns:xlink="http://www.w3.org/1999/xlink" width="12px" height="12px" viewBox="688 466  12 12" xmlns="http://www.w3.org/2000/svg">
  <path d="M 694 466  C 697.36 466  700 468.64  700 472  C 700 475.36  697.36 478  694 478  C 690.64 478  688 475.36  688 472  C 688 468.64  690.64 466  694 466  Z " fill-rule="nonzero" fill="#ffffff" stroke="none" />
  <path d="M 694 466.5  C 697.08 466.5  699.5 468.92  699.5 472  C 699.5 475.08  697.08 477.5  694 477.5  C 690.92 477.5  688.5 475.08  688.5 472  C 688.5 468.92  690.92 466.5  694 466.5  Z " stroke-width="1" stroke="#797979" fill="none" />
  <path d="M 694 475  C 692.32 475  691 473.68  691 472  C 691 470.32  692.32 469  694 469  C 695.68 469  697 470.32  697 472  C 697 473.68  695.68 475  694 475  " fill-rule="nonzero" fill="#797979" stroke="none" />
</svg>