<?xml version="1.0" encoding="utf-8"?>
<svg version="1.1" xmlns:xlink="http://www.w3.org/1999/xlink" width="12px" height="12px" viewBox="838 1092  12 12" xmlns="http://www.w3.org/2000/svg">
  <path d="M 844 1092  C 847.36 1092  850 1094.64  850 1098  C 850 1101.36  847.36 1104  844 1104  C 840.64 1104  838 1101.36  838 1098  C 838 1094.64  840.64 1092  844 1092  Z " fill-rule="nonzero" fill="#ffffff" stroke="none" />
  <path d="M 844 1092.5  C 847.08 1092.5  849.5 1094.92  849.5 1098  C 849.5 1101.08  847.08 1103.5  844 1103.5  C 840.92 1103.5  838.5 1101.08  838.5 1098  C 838.5 1094.92  840.92 1092.5  844 1092.5  Z " stroke-width="1" stroke="#797979" fill="none" />
  <path d="M 844 1101  C 842.32 1101  841 1099.68  841 1098  C 841 1096.32  842.32 1095  844 1095  C 845.68 1095  847 1096.32  847 1098  C 847 1099.68  845.68 1101  844 1101  " fill-rule="nonzero" fill="#797979" stroke="none" />
</svg>