<?xml version="1.0" encoding="utf-8"?>
<svg version="1.1" xmlns:xlink="http://www.w3.org/1999/xlink" width="12px" height="12px" viewBox="471 1605  12 12" xmlns="http://www.w3.org/2000/svg">
  <path d="M 477 1605  C 480.36 1605  483 1607.64  483 1611  C 483 1614.36  480.36 1617  477 1617  C 473.64 1617  471 1614.36  471 1611  C 471 1607.64  473.64 1605  477 1605  Z " fill-rule="nonzero" fill="#ffffff" stroke="none" />
  <path d="M 477 1605.5  C 480.08 1605.5  482.5 1607.92  482.5 1611  C 482.5 1614.08  480.08 1616.5  477 1616.5  C 473.92 1616.5  471.5 1614.08  471.5 1611  C 471.5 1607.92  473.92 1605.5  477 1605.5  Z " stroke-width="1" stroke="#797979" fill="none" />
  <path d="M 477 1614  C 475.32 1614  474 1612.68  474 1611  C 474 1609.32  475.32 1608  477 1608  C 478.68 1608  480 1609.32  480 1611  C 480 1612.68  478.68 1614  477 1614  " fill-rule="nonzero" fill="#797979" stroke="none" />
</svg>