<?xml version="1.0" encoding="utf-8"?>
<svg version="1.1" xmlns:xlink="http://www.w3.org/1999/xlink" width="12px" height="12px" viewBox="471 1089  12 12" xmlns="http://www.w3.org/2000/svg">
  <path d="M 477 1089  C 480.36 1089  483 1091.64  483 1095  C 483 1098.36  480.36 1101  477 1101  C 473.64 1101  471 1098.36  471 1095  C 471 1091.64  473.64 1089  477 1089  Z " fill-rule="nonzero" fill="#ffffff" stroke="none" />
  <path d="M 477 1089.5  C 480.08 1089.5  482.5 1091.92  482.5 1095  C 482.5 1098.08  480.08 1100.5  477 1100.5  C 473.92 1100.5  471.5 1098.08  471.5 1095  C 471.5 1091.92  473.92 1089.5  477 1089.5  Z " stroke-width="1" stroke="#797979" fill="none" />
  <path d="M 477 1098  C 475.32 1098  474 1096.68  474 1095  C 474 1093.32  475.32 1092  477 1092  C 478.68 1092  480 1093.32  480 1095  C 480 1096.68  478.68 1098  477 1098  " fill-rule="nonzero" fill="#797979" stroke="none" />
</svg>