<?xml version="1.0" encoding="utf-8"?>
<svg version="1.1" xmlns:xlink="http://www.w3.org/1999/xlink" width="12px" height="12px" viewBox="329 2170  12 12" xmlns="http://www.w3.org/2000/svg">
  <path d="M 335 2170  C 338.36 2170  341 2172.64  341 2176  C 341 2179.36  338.36 2182  335 2182  C 331.64 2182  329 2179.36  329 2176  C 329 2172.64  331.64 2170  335 2170  Z " fill-rule="nonzero" fill="#ffffff" stroke="none" />
  <path d="M 335 2170.5  C 338.08 2170.5  340.5 2172.92  340.5 2176  C 340.5 2179.08  338.08 2181.5  335 2181.5  C 331.92 2181.5  329.5 2179.08  329.5 2176  C 329.5 2172.92  331.92 2170.5  335 2170.5  Z " stroke-width="1" stroke="#797979" fill="none" />
  <path d="M 335 2179  C 333.32 2179  332 2177.68  332 2176  C 332 2174.32  333.32 2173  335 2173  C 336.68 2173  338 2174.32  338 2176  C 338 2177.68  336.68 2179  335 2179  " fill-rule="nonzero" fill="#797979" stroke="none" />
</svg>