<?xml version="1.0" encoding="utf-8"?>
<svg version="1.1" xmlns:xlink="http://www.w3.org/1999/xlink" width="12px" height="12px" viewBox="585 1605  12 12" xmlns="http://www.w3.org/2000/svg">
  <path d="M 591 1605  C 594.36 1605  597 1607.64  597 1611  C 597 1614.36  594.36 1617  591 1617  C 587.64 1617  585 1614.36  585 1611  C 585 1607.64  587.64 1605  591 1605  Z " fill-rule="nonzero" fill="#ffffff" stroke="none" />
  <path d="M 591 1605.5  C 594.08 1605.5  596.5 1607.92  596.5 1611  C 596.5 1614.08  594.08 1616.5  591 1616.5  C 587.92 1616.5  585.5 1614.08  585.5 1611  C 585.5 1607.92  587.92 1605.5  591 1605.5  Z " stroke-width="1" stroke="#797979" fill="none" />
  <path d="M 591 1614  C 589.32 1614  588 1612.68  588 1611  C 588 1609.32  589.32 1608  591 1608  C 592.68 1608  594 1609.32  594 1611  C 594 1612.68  592.68 1614  591 1614  " fill-rule="nonzero" fill="#797979" stroke="none" />
</svg>