<?xml version="1.0" encoding="utf-8"?>
<svg version="1.1" xmlns:xlink="http://www.w3.org/1999/xlink" width="12px" height="12px" viewBox="838 1608  12 12" xmlns="http://www.w3.org/2000/svg">
  <path d="M 844 1608  C 847.36 1608  850 1610.64  850 1614  C 850 1617.36  847.36 1620  844 1620  C 840.64 1620  838 1617.36  838 1614  C 838 1610.64  840.64 1608  844 1608  Z " fill-rule="nonzero" fill="#ffffff" stroke="none" />
  <path d="M 844 1608.5  C 847.08 1608.5  849.5 1610.92  849.5 1614  C 849.5 1617.08  847.08 1619.5  844 1619.5  C 840.92 1619.5  838.5 1617.08  838.5 1614  C 838.5 1610.92  840.92 1608.5  844 1608.5  Z " stroke-width="1" stroke="#797979" fill="none" />
  <path d="M 844 1617  C 842.32 1617  841 1615.68  841 1614  C 841 1612.32  842.32 1611  844 1611  C 845.68 1611  847 1612.32  847 1614  C 847 1615.68  845.68 1617  844 1617  " fill-rule="nonzero" fill="#797979" stroke="none" />
</svg>