<?xml version="1.0" encoding="utf-8"?>
<svg version="1.1" xmlns:xlink="http://www.w3.org/1999/xlink" width="12px" height="12px" viewBox="957 1092  12 12" xmlns="http://www.w3.org/2000/svg">
  <path d="M 963 1092  C 966.36 1092  969 1094.64  969 1098  C 969 1101.36  966.36 1104  963 1104  C 959.64 1104  957 1101.36  957 1098  C 957 1094.64  959.64 1092  963 1092  Z " fill-rule="nonzero" fill="#ffffff" stroke="none" />
  <path d="M 963 1092.5  C 966.08 1092.5  968.5 1094.92  968.5 1098  C 968.5 1101.08  966.08 1103.5  963 1103.5  C 959.92 1103.5  957.5 1101.08  957.5 1098  C 957.5 1094.92  959.92 1092.5  963 1092.5  Z " stroke-width="1" stroke="#797979" fill="none" />
  <path d="M 963 1101  C 961.32 1101  960 1099.68  960 1098  C 960 1096.32  961.32 1095  963 1095  C 964.68 1095  966 1096.32  966 1098  C 966 1099.68  964.68 1101  963 1101  " fill-rule="nonzero" fill="#797979" stroke="none" />
</svg>