<?xml version="1.0" encoding="utf-8"?>
<svg version="1.1" xmlns:xlink="http://www.w3.org/1999/xlink" width="12px" height="12px" viewBox="1076 2173  12 12" xmlns="http://www.w3.org/2000/svg">
  <path d="M 1082 2173  C 1085.36 2173  1088 2175.64  1088 2179  C 1088 2182.36  1085.36 2185  1082 2185  C 1078.64 2185  1076 2182.36  1076 2179  C 1076 2175.64  1078.64 2173  1082 2173  Z " fill-rule="nonzero" fill="#ffffff" stroke="none" />
  <path d="M 1082 2173.5  C 1085.08 2173.5  1087.5 2175.92  1087.5 2179  C 1087.5 2182.08  1085.08 2184.5  1082 2184.5  C 1078.92 2184.5  1076.5 2182.08  1076.5 2179  C 1076.5 2175.92  1078.92 2173.5  1082 2173.5  Z " stroke-width="1" stroke="#797979" fill="none" />
  <path d="M 1082 2182  C 1080.32 2182  1079 2180.68  1079 2179  C 1079 2177.32  1080.32 2176  1082 2176  C 1083.68 2176  1085 2177.32  1085 2179  C 1085 2180.68  1083.68 2182  1082 2182  " fill-rule="nonzero" fill="#797979" stroke="none" />
</svg>