<?xml version="1.0" encoding="utf-8"?>
<svg version="1.1" xmlns:xlink="http://www.w3.org/1999/xlink" width="12px" height="12px" viewBox="957 1608  12 12" xmlns="http://www.w3.org/2000/svg">
  <path d="M 963 1608  C 966.36 1608  969 1610.64  969 1614  C 969 1617.36  966.36 1620  963 1620  C 959.64 1620  957 1617.36  957 1614  C 957 1610.64  959.64 1608  963 1608  Z " fill-rule="nonzero" fill="#ffffff" stroke="none" />
  <path d="M 963 1608.5  C 966.08 1608.5  968.5 1610.92  968.5 1614  C 968.5 1617.08  966.08 1619.5  963 1619.5  C 959.92 1619.5  957.5 1617.08  957.5 1614  C 957.5 1610.92  959.92 1608.5  963 1608.5  Z " stroke-width="1" stroke="#797979" fill="none" />
  <path d="M 963 1617  C 961.32 1617  960 1615.68  960 1614  C 960 1612.32  961.32 1611  963 1611  C 964.68 1611  966 1612.32  966 1614  C 966 1615.68  964.68 1617  963 1617  " fill-rule="nonzero" fill="#797979" stroke="none" />
</svg>