<?xml version="1.0" encoding="utf-8"?>
<svg version="1.1" xmlns:xlink="http://www.w3.org/1999/xlink" width="12px" height="12px" viewBox="688 1092  12 12" xmlns="http://www.w3.org/2000/svg">
  <path d="M 694 1092  C 697.36 1092  700 1094.64  700 1098  C 700 1101.36  697.36 1104  694 1104  C 690.64 1104  688 1101.36  688 1098  C 688 1094.64  690.64 1092  694 1092  Z " fill-rule="nonzero" fill="#ffffff" stroke="none" />
  <path d="M 694 1092.5  C 697.08 1092.5  699.5 1094.92  699.5 1098  C 699.5 1101.08  697.08 1103.5  694 1103.5  C 690.92 1103.5  688.5 1101.08  688.5 1098  C 688.5 1094.92  690.92 1092.5  694 1092.5  Z " stroke-width="1" stroke="#797979" fill="none" />
  <path d="M 694 1101  C 692.32 1101  691 1099.68  691 1098  C 691 1096.32  692.32 1095  694 1095  C 695.68 1095  697 1096.32  697 1098  C 697 1099.68  695.68 1101  694 1101  " fill-rule="nonzero" fill="#797979" stroke="none" />
</svg>