<?xml version="1.0" encoding="utf-8"?>
<svg version="1.1" xmlns:xlink="http://www.w3.org/1999/xlink" width="12px" height="12px" viewBox="688 1608  12 12" xmlns="http://www.w3.org/2000/svg">
  <path d="M 694 1608  C 697.36 1608  700 1610.64  700 1614  C 700 1617.36  697.36 1620  694 1620  C 690.64 1620  688 1617.36  688 1614  C 688 1610.64  690.64 1608  694 1608  Z " fill-rule="nonzero" fill="#ffffff" stroke="none" />
  <path d="M 694 1608.5  C 697.08 1608.5  699.5 1610.92  699.5 1614  C 699.5 1617.08  697.08 1619.5  694 1619.5  C 690.92 1619.5  688.5 1617.08  688.5 1614  C 688.5 1610.92  690.92 1608.5  694 1608.5  Z " stroke-width="1" stroke="#797979" fill="none" />
  <path d="M 694 1617  C 692.32 1617  691 1615.68  691 1614  C 691 1612.32  692.32 1611  694 1611  C 695.68 1611  697 1612.32  697 1614  C 697 1615.68  695.68 1617  694 1617  " fill-rule="nonzero" fill="#797979" stroke="none" />
</svg>