<?xml version="1.0" encoding="utf-8"?>
<svg version="1.1" xmlns:xlink="http://www.w3.org/1999/xlink" width="24px" height="22px" xmlns="http://www.w3.org/2000/svg">
  <g transform="matrix(1 0 0 1 -182 -11 )">
    <path d="M 14.71875 13.4921875  C 15.9831730769233 12.3331330128205  16.6153846153848 10.9383012820513  16.6153846153848 9.30769230769229  C 16.6153846153848 7.67708333333333  15.9831730769233 6.28225160256408  14.71875 5.12319711538463  C 13.4543269230767 3.96414262820512  11.9326923076924 3.38461538461537  10.153846153846 3.38461538461537  C 8.375 3.38461538461537  6.85336538461547 3.96414262820512  5.58894230769238 5.12319711538463  C 4.32451923076928 6.28225160256408  3.69230769230762 7.67708333333333  3.69230769230762 9.30769230769229  C 3.69230769230762 10.9383012820513  4.32451923076928 12.3331330128205  5.58894230769238 13.4921875  C 6.85336538461547 14.6512419871795  8.375 15.2307692307693  10.153846153846 15.2307692307693  C 11.9326923076924 15.2307692307693  13.4543269230767 14.6512419871795  14.71875 13.4921875  Z M 23.466346153846 19.1177884615385  C 23.8221153846155 19.4439102564102  24 19.8405448717949  24 20.3076923076923  C 24 20.7660256410256  23.8173076923076 21.1626602564102  23.4519230769231 21.4975961538462  C 23.0865384615383 21.832532051282  22.6538461538462 22  22.153846153846 22  C 21.6346153846152 22  21.2019230769231 21.832532051282  20.8557692307691 21.4975961538462  L 15.908653846154 16.9759615384615  C 14.1875 18.0689102564102  12.2692307692307 18.6153846153846  10.153846153846 18.6153846153846  C 8.77884615384619 18.6153846153846  7.46394230769238 18.3707932692307  6.20913461538476 17.8816105769231  C 4.95432692307691 17.3924278846154  3.87259615384596 16.7313701923077  2.96394230769238 15.8984375  C 2.05528846153834 15.0655048076923  1.33413461538476 14.0739182692307  0.800480769230944 12.9236778846154  C 0.266826923076906 11.7734375  0 10.568108974359  0 9.30769230769229  C 0 8.04727564102562  0.266826923076906 6.84194711538463  0.800480769230944 5.69170673076925  C 1.33413461538476 4.54146634615383  2.05528846153834 3.54987980769229  2.96394230769238 2.71694711538463  C 3.87259615384596 1.88401442307692  4.95432692307691 1.22295673076925  6.20913461538476 0.733774038461542  C 7.46394230769238 0.24459134615383  8.77884615384619 0  10.153846153846 0  C 11.528846153846 0  12.84375 0.24459134615383  14.0985576923076 0.733774038461542  C 15.3533653846152 1.22295673076925  16.435096153846 1.88401442307692  17.34375 2.71694711538463  C 18.252403846154 3.54987980769229  18.9735576923076 4.54146634615383  19.5072115384617 5.69170673076925  C 20.0408653846152 6.84194711538463  20.3076923076924 8.04727564102562  20.3076923076924 9.30769230769229  C 20.3076923076924 11.2467948717949  19.7115384615383 13.0052083333333  18.5192307692309 14.5829326923077  L 23.466346153846 19.1177884615385  Z " fill-rule="nonzero" fill="#a1a1a1" stroke="none" transform="matrix(1 0 0 1 182 11 )" />
  </g>
</svg>