<?xml version="1.0" encoding="utf-8"?>
<svg version="1.1" xmlns:xlink="http://www.w3.org/1999/xlink" width="160px" height="160px" xmlns="http://www.w3.org/2000/svg">
  <g transform="matrix(1 0 0 1 -29 -104 )">
    <path d="M 29 104  L 189 104  L 189 264  L 29 264  L 29 104  " fill-rule="nonzero" fill="#cccccc" stroke="none" />
    <path d="M 40 115  L 178 115  L 178 253  L 40 253  L 40 115  " fill-rule="nonzero" fill="#ffffff" stroke="none" />
    <path d="M 124.2 152  C 117.48 152  112.2 146.72  112.2 140  C 112.2 133.28  117.48 128  124.2 128  C 130.92 128  136.2 133.28  136.2 140  C 136.2 146.72  130.92 152  124.2 152  " fill-rule="nonzero" fill="#cccccc" stroke="none" />
    <path d="M 44 249  L 44 177.5  L 76.5 145  L 122 171  L 148 164.5  L 174 171  L 174 249  L 44 249  " fill-rule="nonzero" fill="#169bd5" stroke="none" />
  </g>
</svg>