<?xml version="1.0" encoding="utf-8"?>
<svg version="1.1" xmlns:xlink="http://www.w3.org/1999/xlink" width="12px" height="12px" viewBox="1922 267.5  12 12" xmlns="http://www.w3.org/2000/svg">
  <path d="M 1928 267.5  C 1931.36 267.5  1934 270.14  1934 273.5  C 1934 276.86  1931.36 279.5  1928 279.5  C 1924.64 279.5  1922 276.86  1922 273.5  C 1922 270.14  1924.64 267.5  1928 267.5  Z " fill-rule="nonzero" fill="#ffffff" stroke="none" />
  <path d="M 1928 268  C 1931.08 268  1933.5 270.42  1933.5 273.5  C 1933.5 276.58  1931.08 279  1928 279  C 1924.92 279  1922.5 276.58  1922.5 273.5  C 1922.5 270.42  1924.92 268  1928 268  Z " stroke-width="1" stroke="#797979" fill="none" />
  <path d="M 1928 276.5  C 1926.32 276.5  1925 275.18  1925 273.5  C 1925 271.82  1926.32 270.5  1928 270.5  C 1929.68 270.5  1931 271.82  1931 273.5  C 1931 275.18  1929.68 276.5  1928 276.5  " fill-rule="nonzero" fill="#797979" stroke="none" />
</svg>