<?xml version="1.0" encoding="utf-8"?>
<svg version="1.1" xmlns:xlink="http://www.w3.org/1999/xlink" width="12px" height="12px" viewBox="2358 267.5  12 12" xmlns="http://www.w3.org/2000/svg">
  <path d="M 2364 267.5  C 2367.36 267.5  2370 270.14  2370 273.5  C 2370 276.86  2367.36 279.5  2364 279.5  C 2360.64 279.5  2358 276.86  2358 273.5  C 2358 270.14  2360.64 267.5  2364 267.5  Z " fill-rule="nonzero" fill="#ffffff" stroke="none" />
  <path d="M 2364 268  C 2367.08 268  2369.5 270.42  2369.5 273.5  C 2369.5 276.58  2367.08 279  2364 279  C 2360.92 279  2358.5 276.58  2358.5 273.5  C 2358.5 270.42  2360.92 268  2364 268  Z " stroke-width="1" stroke="#797979" fill="none" />
  <path d="M 2364 276.5  C 2362.32 276.5  2361 275.18  2361 273.5  C 2361 271.82  2362.32 270.5  2364 270.5  C 2365.68 270.5  2367 271.82  2367 273.5  C 2367 275.18  2365.68 276.5  2364 276.5  " fill-rule="nonzero" fill="#797979" stroke="none" />
</svg>