<?xml version="1.0" encoding="utf-8"?>
<svg version="1.1" xmlns:xlink="http://www.w3.org/1999/xlink" width="12px" height="12px" viewBox="2406 267.5  12 12" xmlns="http://www.w3.org/2000/svg">
  <path d="M 2412 267.5  C 2415.36 267.5  2418 270.14  2418 273.5  C 2418 276.86  2415.36 279.5  2412 279.5  C 2408.64 279.5  2406 276.86  2406 273.5  C 2406 270.14  2408.64 267.5  2412 267.5  Z " fill-rule="nonzero" fill="#ffffff" stroke="none" />
  <path d="M 2412 268  C 2415.08 268  2417.5 270.42  2417.5 273.5  C 2417.5 276.58  2415.08 279  2412 279  C 2408.92 279  2406.5 276.58  2406.5 273.5  C 2406.5 270.42  2408.92 268  2412 268  Z " stroke-width="1" stroke="#797979" fill="none" />
  <path d="M 2412 276.5  C 2410.32 276.5  2409 275.18  2409 273.5  C 2409 271.82  2410.32 270.5  2412 270.5  C 2413.68 270.5  2415 271.82  2415 273.5  C 2415 275.18  2413.68 276.5  2412 276.5  " fill-rule="nonzero" fill="#797979" stroke="none" />
</svg>