<?xml version="1.0" encoding="utf-8"?>
<svg version="1.1" xmlns:xlink="http://www.w3.org/1999/xlink" width="12px" height="12px" viewBox="1970 267.5  12 12" xmlns="http://www.w3.org/2000/svg">
  <path d="M 1976 267.5  C 1979.36 267.5  1982 270.14  1982 273.5  C 1982 276.86  1979.36 279.5  1976 279.5  C 1972.64 279.5  1970 276.86  1970 273.5  C 1970 270.14  1972.64 267.5  1976 267.5  Z " fill-rule="nonzero" fill="#ffffff" stroke="none" />
  <path d="M 1976 268  C 1979.08 268  1981.5 270.42  1981.5 273.5  C 1981.5 276.58  1979.08 279  1976 279  C 1972.92 279  1970.5 276.58  1970.5 273.5  C 1970.5 270.42  1972.92 268  1976 268  Z " stroke-width="1" stroke="#797979" fill="none" />
  <path d="M 1976 276.5  C 1974.32 276.5  1973 275.18  1973 273.5  C 1973 271.82  1974.32 270.5  1976 270.5  C 1977.68 270.5  1979 271.82  1979 273.5  C 1979 275.18  1977.68 276.5  1976 276.5  " fill-rule="nonzero" fill="#797979" stroke="none" />
</svg>