<?xml version="1.0" encoding="utf-8"?>
<svg version="1.1" xmlns:xlink="http://www.w3.org/1999/xlink" width="12px" height="12px" viewBox="1970 473.5  12 12" xmlns="http://www.w3.org/2000/svg">
  <path d="M 1976 473.5  C 1979.36 473.5  1982 476.14  1982 479.5  C 1982 482.86  1979.36 485.5  1976 485.5  C 1972.64 485.5  1970 482.86  1970 479.5  C 1970 476.14  1972.64 473.5  1976 473.5  Z " fill-rule="nonzero" fill="#ffffff" stroke="none" />
  <path d="M 1976 474  C 1979.08 474  1981.5 476.42  1981.5 479.5  C 1981.5 482.58  1979.08 485  1976 485  C 1972.92 485  1970.5 482.58  1970.5 479.5  C 1970.5 476.42  1972.92 474  1976 474  Z " stroke-width="1" stroke="#797979" fill="none" />
  <path d="M 1976 482.5  C 1974.32 482.5  1973 481.18  1973 479.5  C 1973 477.82  1974.32 476.5  1976 476.5  C 1977.68 476.5  1979 477.82  1979 479.5  C 1979 481.18  1977.68 482.5  1976 482.5  " fill-rule="nonzero" fill="#797979" stroke="none" />
</svg>