<?xml version="1.0" encoding="utf-8"?>
<svg version="1.1" xmlns:xlink="http://www.w3.org/1999/xlink" width="12px" height="12px" viewBox="1922 473.5  12 12" xmlns="http://www.w3.org/2000/svg">
  <path d="M 1928 473.5  C 1931.36 473.5  1934 476.14  1934 479.5  C 1934 482.86  1931.36 485.5  1928 485.5  C 1924.64 485.5  1922 482.86  1922 479.5  C 1922 476.14  1924.64 473.5  1928 473.5  Z " fill-rule="nonzero" fill="#ffffff" stroke="none" />
  <path d="M 1928 474  C 1931.08 474  1933.5 476.42  1933.5 479.5  C 1933.5 482.58  1931.08 485  1928 485  C 1924.92 485  1922.5 482.58  1922.5 479.5  C 1922.5 476.42  1924.92 474  1928 474  Z " stroke-width="1" stroke="#797979" fill="none" />
  <path d="M 1928 482.5  C 1926.32 482.5  1925 481.18  1925 479.5  C 1925 477.82  1926.32 476.5  1928 476.5  C 1929.68 476.5  1931 477.82  1931 479.5  C 1931 481.18  1929.68 482.5  1928 482.5  " fill-rule="nonzero" fill="#797979" stroke="none" />
</svg>