<?xml version="1.0" encoding="utf-8"?>
<svg version="1.1" xmlns:xlink="http://www.w3.org/1999/xlink" width="12px" height="12px" viewBox="84 771.5  12 12" xmlns="http://www.w3.org/2000/svg">
  <path d="M 90 771.5  C 93.36 771.5  96 774.14  96 777.5  C 96 780.86  93.36 783.5  90 783.5  C 86.64 783.5  84 780.86  84 777.5  C 84 774.14  86.64 771.5  90 771.5  Z " fill-rule="nonzero" fill="#ffffff" stroke="none" />
  <path d="M 90 772  C 93.08 772  95.5 774.42  95.5 777.5  C 95.5 780.58  93.08 783  90 783  C 86.92 783  84.5 780.58  84.5 777.5  C 84.5 774.42  86.92 772  90 772  Z " stroke-width="1" stroke="#797979" fill="none" />
  <path d="M 90 780.5  C 88.32 780.5  87 779.18  87 777.5  C 87 775.82  88.32 774.5  90 774.5  C 91.68 774.5  93 775.82  93 777.5  C 93 779.18  91.68 780.5  90 780.5  " fill-rule="nonzero" fill="#797979" stroke="none" />
</svg>