<?xml version="1.0" encoding="utf-8"?>
<svg version="1.1" xmlns:xlink="http://www.w3.org/1999/xlink" width="12px" height="12px" viewBox="36 1101.5  12 12" xmlns="http://www.w3.org/2000/svg">
  <path d="M 42 1101.5  C 45.36 1101.5  48 1104.14  48 1107.5  C 48 1110.86  45.36 1113.5  42 1113.5  C 38.64 1113.5  36 1110.86  36 1107.5  C 36 1104.14  38.64 1101.5  42 1101.5  Z " fill-rule="nonzero" fill="#ffffff" stroke="none" />
  <path d="M 42 1102  C 45.08 1102  47.5 1104.42  47.5 1107.5  C 47.5 1110.58  45.08 1113  42 1113  C 38.92 1113  36.5 1110.58  36.5 1107.5  C 36.5 1104.42  38.92 1102  42 1102  Z " stroke-width="1" stroke="#797979" fill="none" />
  <path d="M 42 1110.5  C 40.32 1110.5  39 1109.18  39 1107.5  C 39 1105.82  40.32 1104.5  42 1104.5  C 43.68 1104.5  45 1105.82  45 1107.5  C 45 1109.18  43.68 1110.5  42 1110.5  " fill-rule="nonzero" fill="#797979" stroke="none" />
</svg>