<?xml version="1.0" encoding="utf-8"?>
<svg version="1.1" xmlns:xlink="http://www.w3.org/1999/xlink" width="12px" height="12px" viewBox="36 1426.5  12 12" xmlns="http://www.w3.org/2000/svg">
  <path d="M 42 1426.5  C 45.36 1426.5  48 1429.14  48 1432.5  C 48 1435.86  45.36 1438.5  42 1438.5  C 38.64 1438.5  36 1435.86  36 1432.5  C 36 1429.14  38.64 1426.5  42 1426.5  Z " fill-rule="nonzero" fill="#ffffff" stroke="none" />
  <path d="M 42 1427  C 45.08 1427  47.5 1429.42  47.5 1432.5  C 47.5 1435.58  45.08 1438  42 1438  C 38.92 1438  36.5 1435.58  36.5 1432.5  C 36.5 1429.42  38.92 1427  42 1427  Z " stroke-width="1" stroke="#797979" fill="none" />
  <path d="M 42 1435.5  C 40.32 1435.5  39 1434.18  39 1432.5  C 39 1430.82  40.32 1429.5  42 1429.5  C 43.68 1429.5  45 1430.82  45 1432.5  C 45 1434.18  43.68 1435.5  42 1435.5  " fill-rule="nonzero" fill="#797979" stroke="none" />
</svg>