<?xml version="1.0" encoding="utf-8"?>
<svg version="1.1" xmlns:xlink="http://www.w3.org/1999/xlink" width="12px" height="12px" viewBox="36 1756.5  12 12" xmlns="http://www.w3.org/2000/svg">
  <path d="M 42 1756.5  C 45.36 1756.5  48 1759.14  48 1762.5  C 48 1765.86  45.36 1768.5  42 1768.5  C 38.64 1768.5  36 1765.86  36 1762.5  C 36 1759.14  38.64 1756.5  42 1756.5  Z " fill-rule="nonzero" fill="#ffffff" stroke="none" />
  <path d="M 42 1757  C 45.08 1757  47.5 1759.42  47.5 1762.5  C 47.5 1765.58  45.08 1768  42 1768  C 38.92 1768  36.5 1765.58  36.5 1762.5  C 36.5 1759.42  38.92 1757  42 1757  Z " stroke-width="1" stroke="#797979" fill="none" />
  <path d="M 42 1765.5  C 40.32 1765.5  39 1764.18  39 1762.5  C 39 1760.82  40.32 1759.5  42 1759.5  C 43.68 1759.5  45 1760.82  45 1762.5  C 45 1764.18  43.68 1765.5  42 1765.5  " fill-rule="nonzero" fill="#797979" stroke="none" />
</svg>