<?xml version="1.0" encoding="utf-8"?>
<svg version="1.1" xmlns:xlink="http://www.w3.org/1999/xlink" width="12px" height="12px" viewBox="84 1426.5  12 12" xmlns="http://www.w3.org/2000/svg">
  <path d="M 90 1426.5  C 93.36 1426.5  96 1429.14  96 1432.5  C 96 1435.86  93.36 1438.5  90 1438.5  C 86.64 1438.5  84 1435.86  84 1432.5  C 84 1429.14  86.64 1426.5  90 1426.5  Z " fill-rule="nonzero" fill="#ffffff" stroke="none" />
  <path d="M 90 1427  C 93.08 1427  95.5 1429.42  95.5 1432.5  C 95.5 1435.58  93.08 1438  90 1438  C 86.92 1438  84.5 1435.58  84.5 1432.5  C 84.5 1429.42  86.92 1427  90 1427  Z " stroke-width="1" stroke="#797979" fill="none" />
  <path d="M 90 1435.5  C 88.32 1435.5  87 1434.18  87 1432.5  C 87 1430.82  88.32 1429.5  90 1429.5  C 91.68 1429.5  93 1430.82  93 1432.5  C 93 1434.18  91.68 1435.5  90 1435.5  " fill-rule="nonzero" fill="#797979" stroke="none" />
</svg>