<?xml version="1.0" encoding="utf-8"?>
<svg version="1.1" xmlns:xlink="http://www.w3.org/1999/xlink" width="115px" height="30px" xmlns="http://www.w3.org/2000/svg">
  <g transform="matrix(1 0 0 1 -11 -68 )">
    <path d="M 12 76  A 7 7 0 0 1 19 69 L 118 69  A 7 7 0 0 1 125 76 L 125 90  A 7 7 0 0 1 118 97 L 19 97  A 7 7 0 0 1 12 90 L 12 76  Z " fill-rule="nonzero" fill="#ffffff" stroke="none" />
    <path d="M 11.5 76  A 7.5 7.5 0 0 1 19 68.5 L 118 68.5  A 7.5 7.5 0 0 1 125.5 76 L 125.5 90  A 7.5 7.5 0 0 1 118 97.5 L 19 97.5  A 7.5 7.5 0 0 1 11.5 90 L 11.5 76  Z " stroke-width="1" stroke="#1890ff" fill="none" stroke-opacity="0.996078431372549" />
  </g>
</svg>