<?xml version="1.0" encoding="utf-8"?>
<svg version="1.1" xmlns:xlink="http://www.w3.org/1999/xlink" width="80px" height="30px" xmlns="http://www.w3.org/2000/svg">
  <g transform="matrix(1 0 0 1 -447 -532 )">
    <path d="M 448 537  A 4 4 0 0 1 452 533 L 522 533  A 4 4 0 0 1 526 537 L 526 557  A 4 4 0 0 1 522 561 L 452 561  A 4 4 0 0 1 448 557 L 448 537  Z " fill-rule="nonzero" fill="#ffffff" stroke="none" />
    <path d="M 447.5 537  A 4.5 4.5 0 0 1 452 532.5 L 522 532.5  A 4.5 4.5 0 0 1 526.5 537 L 526.5 557  A 4.5 4.5 0 0 1 522 561.5 L 452 561.5  A 4.5 4.5 0 0 1 447.5 557 L 447.5 537  Z " stroke-width="1" stroke="#797979" fill="none" stroke-opacity="0.564705882352941" />
  </g>
</svg>