<?xml version="1.0" encoding="utf-8"?>
<svg version="1.1" xmlns:xlink="http://www.w3.org/1999/xlink" width="353px" height="30px" viewBox="197 22  353 30" xmlns="http://www.w3.org/2000/svg">
  <path d="M 198 27  A 4 4 0 0 1 202 23 L 545 23  A 4 4 0 0 1 549 27 L 549 47  A 4 4 0 0 1 545 51 L 202 51  A 4 4 0 0 1 198 47 L 198 27  Z " fill-rule="nonzero" fill="#f0f0f0" stroke="none" />
  <path d="M 197.5 27  A 4.5 4.5 0 0 1 202 22.5 L 545 22.5  A 4.5 4.5 0 0 1 549.5 27 L 549.5 47  A 4.5 4.5 0 0 1 545 51.5 L 202 51.5  A 4.5 4.5 0 0 1 197.5 47 L 197.5 27  Z " stroke-width="1" stroke="#797979" fill="none" stroke-opacity="0.490196078431373" />
</svg>