<?xml version="1.0" encoding="utf-8"?>
<svg version="1.1" xmlns:xlink="http://www.w3.org/1999/xlink" width="140px" height="143px" xmlns="http://www.w3.org/2000/svg">
  <g transform="matrix(1 0 0 1 -356 -223 )">
    <path d="M 426 227.5  C 462.68 227.5  491.5 256.98  491.5 294.5  C 491.5 332.02  462.68 361.5  426 361.5  C 389.32 361.5  360.5 332.02  360.5 294.5  C 360.5 256.98  389.32 227.5  426 227.5  Z " fill-rule="nonzero" fill="#ffffff" stroke="none" />
    <path d="M 426 225.5  C 463.8 225.5  493.5 255.86  493.5 294.5  C 493.5 333.14  463.8 363.5  426 363.5  C 388.2 363.5  358.5 333.14  358.5 294.5  C 358.5 255.86  388.2 225.5  426 225.5  Z " stroke-width="5" stroke="#000000" fill="none" stroke-opacity="0.0392156862745098" />
  </g>
</svg>