<?xml version="1.0" encoding="utf-8"?>
<svg version="1.1" xmlns:xlink="http://www.w3.org/1999/xlink" width="163px" height="164px" xmlns="http://www.w3.org/2000/svg">
  <g transform="matrix(1 0 0 1 -143 -246 )">
    <path d="M 224.5 250.5  C 267.62 250.5  301.5 284.6  301.5 328  C 301.5 371.4  267.62 405.5  224.5 405.5  C 181.38 405.5  147.5 371.4  147.5 328  C 147.5 284.6  181.38 250.5  224.5 250.5  Z " fill-rule="nonzero" fill="#ffffff" stroke="none" />
    <path d="M 224.5 248.5  C 268.74 248.5  303.5 283.48  303.5 328  C 303.5 372.52  268.74 407.5  224.5 407.5  C 180.26 407.5  145.5 372.52  145.5 328  C 145.5 283.48  180.26 248.5  224.5 248.5  Z " stroke-width="5" stroke="#000000" fill="none" stroke-opacity="0.0392156862745098" />
  </g>
</svg>