<?xml version="1.0" encoding="utf-8"?>
<svg version="1.1" xmlns:xlink="http://www.w3.org/1999/xlink" width="80px" height="30px" xmlns="http://www.w3.org/2000/svg">
  <g transform="matrix(1 0 0 1 -448 -452 )">
    <path d="M 449 457  A 4 4 0 0 1 453 453 L 523 453  A 4 4 0 0 1 527 457 L 527 477  A 4 4 0 0 1 523 481 L 453 481  A 4 4 0 0 1 449 477 L 449 457  Z " fill-rule="nonzero" fill="#ffffff" stroke="none" />
    <path d="M 448.5 457  A 4.5 4.5 0 0 1 453 452.5 L 523 452.5  A 4.5 4.5 0 0 1 527.5 457 L 527.5 477  A 4.5 4.5 0 0 1 523 481.5 L 453 481.5  A 4.5 4.5 0 0 1 448.5 477 L 448.5 457  Z " stroke-width="1" stroke="#797979" fill="none" stroke-opacity="0.584313725490196" />
  </g>
</svg>