<?xml version="1.0" encoding="utf-8"?>
<svg version="1.1" xmlns:xlink="http://www.w3.org/1999/xlink" width="22px" height="22px" xmlns="http://www.w3.org/2000/svg">
  <g transform="matrix(1 0 0 1 -231 -59 )">
    <path d="M 13.4921875 13.4921875  C 14.6512419871797 12.3331330128205  15.2307692307694 10.9383012820513  15.2307692307694 9.30769230769229  C 15.2307692307694 7.67708333333333  14.6512419871797 6.28225160256408  13.4921875 5.12319711538463  C 12.3331330128203 3.96414262820512  10.9383012820513 3.38461538461537  9.30769230769213 3.38461538461537  C 7.67708333333333 3.38461538461537  6.28225160256418 3.96414262820512  5.12319711538468 5.12319711538463  C 3.96414262820518 6.28225160256408  3.38461538461532 7.67708333333333  3.38461538461532 9.30769230769229  C 3.38461538461532 10.9383012820513  3.96414262820518 12.3331330128205  5.12319711538468 13.4921875  C 6.28225160256418 14.6512419871795  7.67708333333333 15.2307692307693  9.30769230769213 15.2307692307693  C 10.9383012820513 15.2307692307693  12.3331330128203 14.6512419871795  13.4921875 13.4921875  Z M 21.5108173076921 19.1177884615385  C 21.8369391025642 19.4439102564102  22 19.8405448717949  22 20.3076923076923  C 22 20.7660256410256  21.832532051282 21.1626602564102  21.4975961538462 21.4975961538462  C 21.1626602564101 21.832532051282  20.7660256410257 22  20.3076923076921 22  C 19.8317307692306 22  19.4350961538462 21.832532051282  19.1177884615383 21.4975961538462  L 14.5829326923079 16.9759615384615  C 13.0052083333333 18.0689102564102  11.2467948717948 18.6153846153846  9.30769230769213 18.6153846153846  C 8.04727564102567 18.6153846153846  6.84194711538468 18.3707932692307  5.69170673076936 17.8816105769231  C 4.54146634615383 17.3924278846154  3.54987980769213 16.7313701923077  2.71694711538468 15.8984375  C 1.88401442307681 15.0655048076923  1.22295673076936 14.0739182692307  0.733774038461699 12.9236778846154  C 0.24459134615383 11.7734375  0 10.568108974359  0 9.30769230769229  C 0 8.04727564102562  0.24459134615383 6.84194711538463  0.733774038461699 5.69170673076925  C 1.22295673076936 4.54146634615383  1.88401442307681 3.54987980769229  2.71694711538468 2.71694711538463  C 3.54987980769213 1.88401442307692  4.54146634615383 1.22295673076925  5.69170673076936 0.733774038461542  C 6.84194711538468 0.24459134615383  8.04727564102567 0  9.30769230769213 0  C 10.5681089743588 0  11.7734375 0.24459134615383  12.9236778846153 0.733774038461542  C 14.0739182692306 1.22295673076925  15.0655048076921 1.88401442307692  15.8984375 2.71694711538463  C 16.7313701923079 3.54987980769229  17.3924278846153 4.54146634615383  17.8816105769232 5.69170673076925  C 18.3707932692306 6.84194711538463  18.6153846153847 8.04727564102562  18.6153846153847 9.30769230769229  C 18.6153846153847 11.2467948717949  18.0689102564101 13.0052083333333  16.9759615384617 14.5829326923077  L 21.5108173076921 19.1177884615385  Z " fill-rule="nonzero" fill="#aaaaaa" stroke="none" transform="matrix(1 0 0 1 231 59 )" />
  </g>
</svg>