<?xml version="1.0" encoding="utf-8"?>
<svg version="1.1" xmlns:xlink="http://www.w3.org/1999/xlink" width="163px" height="137px" xmlns="http://www.w3.org/2000/svg">
  <g transform="matrix(1 0 0 1 3 2 )">
    <path d="M -3 -2  L 160 -2  L 160 135  L -3 135  L -3 -2  " fill-rule="nonzero" fill="#cccccc" stroke="none" />
    <path d="M 7 8  L 150 8  L 150 125  L 7 125  L 7 8  " fill-rule="nonzero" fill="#ffffff" stroke="none" />
    <path d="M 92.035 39.1  C 86.281 39.1  81.76 34.579  81.76 28.825  C 81.76 23.071  86.281 18.55  92.035 18.55  C 97.789 18.55  102.31 23.071  102.31 28.825  C 102.31 34.579  97.789 39.1  92.035 39.1  " fill-rule="nonzero" fill="#cccccc" stroke="none" />
    <path d="M 11 122  L 11 61.5  L 45 34  L 92.6 66.5276073619632  L 119.8 50.5  L 147 66.5276073619632  L 147 122  L 11 122  " fill-rule="nonzero" fill="#169bd5" stroke="none" />
  </g>
</svg>