<?xml version="1.0" encoding="utf-8"?>
<svg version="1.1" xmlns:xlink="http://www.w3.org/1999/xlink" width="159px" height="144px" xmlns="http://www.w3.org/2000/svg">
  <g>
    <path d="M 0 0  L 159 0  L 159 144  L 0 144  L 0 0  " fill-rule="nonzero" fill="#cccccc" stroke="none" />
    <path d="M 10 10  L 149 10  L 149 134  L 10 134  L 10 10  " fill-rule="nonzero" fill="#ffffff" stroke="none" />
    <path d="M 93.48 43.2  C 87.432 43.2  82.68 38.448  82.68 32.4  C 82.68 26.352  87.432 21.6  93.48 21.6  C 99.528 21.6  104.28 26.352  104.28 32.4  C 104.28 38.448  99.528 43.2  93.48 43.2  " fill-rule="nonzero" fill="#cccccc" stroke="none" />
    <path d="M 14 131  L 14 66.65  L 47 37.4  L 93.2 67.422641509434  L 119.6 54.95  L 146 67.422641509434  L 146 131  L 14 131  " fill-rule="nonzero" fill="#169bd5" stroke="none" />
  </g>
</svg>