<?xml version="1.0" encoding="utf-8"?>
<svg version="1.1" xmlns:xlink="http://www.w3.org/1999/xlink" width="12px" height="12px" viewBox="136 671  12 12" xmlns="http://www.w3.org/2000/svg">
  <path d="M 142 671  C 145.36 671  148 673.64  148 677  C 148 680.36  145.36 683  142 683  C 138.64 683  136 680.36  136 677  C 136 673.64  138.64 671  142 671  Z " fill-rule="nonzero" fill="#ffffff" stroke="none" />
  <path d="M 142 671.5  C 145.08 671.5  147.5 673.92  147.5 677  C 147.5 680.08  145.08 682.5  142 682.5  C 138.92 682.5  136.5 680.08  136.5 677  C 136.5 673.92  138.92 671.5  142 671.5  Z " stroke-width="1" stroke="#797979" fill="none" />
  <path d="M 142 680  C 140.32 680  139 678.68  139 677  C 139 675.32  140.32 674  142 674  C 143.68 674  145 675.32  145 677  C 145 678.68  143.68 680  142 680  " fill-rule="nonzero" fill="#797979" stroke="none" />
</svg>