<?xml version="1.0" encoding="utf-8"?>
<svg version="1.1" xmlns:xlink="http://www.w3.org/1999/xlink" width="12px" height="12px" viewBox="136 635  12 12" xmlns="http://www.w3.org/2000/svg">
  <path d="M 142 635  C 145.36 635  148 637.64  148 641  C 148 644.36  145.36 647  142 647  C 138.64 647  136 644.36  136 641  C 136 637.64  138.64 635  142 635  Z " fill-rule="nonzero" fill="#ffffff" stroke="none" />
  <path d="M 142 635.5  C 145.08 635.5  147.5 637.92  147.5 641  C 147.5 644.08  145.08 646.5  142 646.5  C 138.92 646.5  136.5 644.08  136.5 641  C 136.5 637.92  138.92 635.5  142 635.5  Z " stroke-width="1" stroke="#797979" fill="none" />
  <path d="M 142 644  C 140.32 644  139 642.68  139 641  C 139 639.32  140.32 638  142 638  C 143.68 638  145 639.32  145 641  C 145 642.68  143.68 644  142 644  " fill-rule="nonzero" fill="#797979" stroke="none" />
</svg>