<?xml version="1.0" encoding="utf-8"?>
<svg version="1.1" xmlns:xlink="http://www.w3.org/1999/xlink" width="12px" height="12px" viewBox="133 185  12 12" xmlns="http://www.w3.org/2000/svg">
  <path d="M 139 185  C 142.36 185  145 187.64  145 191  C 145 194.36  142.36 197  139 197  C 135.64 197  133 194.36  133 191  C 133 187.64  135.64 185  139 185  Z " fill-rule="nonzero" fill="#ffffff" stroke="none" />
  <path d="M 139 185.5  C 142.08 185.5  144.5 187.92  144.5 191  C 144.5 194.08  142.08 196.5  139 196.5  C 135.92 196.5  133.5 194.08  133.5 191  C 133.5 187.92  135.92 185.5  139 185.5  Z " stroke-width="1" stroke="#797979" fill="none" />
  <path d="M 139 194  C 137.32 194  136 192.68  136 191  C 136 189.32  137.32 188  139 188  C 140.68 188  142 189.32  142 191  C 142 192.68  140.68 194  139 194  " fill-rule="nonzero" fill="#797979" stroke="none" />
</svg>