<?xml version="1.0" encoding="utf-8"?>
<svg version="1.1" xmlns:xlink="http://www.w3.org/1999/xlink" width="12px" height="12px" viewBox="121 226  12 12" xmlns="http://www.w3.org/2000/svg">
  <path d="M 127 226  C 130.36 226  133 228.64  133 232  C 133 235.36  130.36 238  127 238  C 123.64 238  121 235.36  121 232  C 121 228.64  123.64 226  127 226  Z " fill-rule="nonzero" fill="#ffffff" stroke="none" />
  <path d="M 127 226.5  C 130.08 226.5  132.5 228.92  132.5 232  C 132.5 235.08  130.08 237.5  127 237.5  C 123.92 237.5  121.5 235.08  121.5 232  C 121.5 228.92  123.92 226.5  127 226.5  Z " stroke-width="1" stroke="#797979" fill="none" />
  <path d="M 127 235  C 125.32 235  124 233.68  124 232  C 124 230.32  125.32 229  127 229  C 128.68 229  130 230.32  130 232  C 130 233.68  128.68 235  127 235  " fill-rule="nonzero" fill="#797979" stroke="none" />
</svg>