<?xml version="1.0" encoding="utf-8"?>
<svg version="1.1" xmlns:xlink="http://www.w3.org/1999/xlink" width="12px" height="12px" viewBox="83 176  12 12" xmlns="http://www.w3.org/2000/svg">
  <path d="M 89 176  C 92.36 176  95 178.64  95 182  C 95 185.36  92.36 188  89 188  C 85.64 188  83 185.36  83 182  C 83 178.64  85.64 176  89 176  Z " fill-rule="nonzero" fill="#ffffff" stroke="none" />
  <path d="M 89 176.5  C 92.08 176.5  94.5 178.92  94.5 182  C 94.5 185.08  92.08 187.5  89 187.5  C 85.92 187.5  83.5 185.08  83.5 182  C 83.5 178.92  85.92 176.5  89 176.5  Z " stroke-width="1" stroke="#797979" fill="none" />
  <path d="M 89 185  C 87.32 185  86 183.68  86 182  C 86 180.32  87.32 179  89 179  C 90.68 179  92 180.32  92 182  C 92 183.68  90.68 185  89 185  " fill-rule="nonzero" fill="#797979" stroke="none" />
</svg>