<?xml version="1.0" encoding="utf-8"?>
<svg version="1.1" xmlns:xlink="http://www.w3.org/1999/xlink" width="10px" height="178px" preserveAspectRatio="xMidYMin meet" viewBox="1468 682  8 178" xmlns="http://www.w3.org/2000/svg">
  <path d="M 1217 687.5  L 1403 687.5  A 3 3 0 0 1 1406 684.5 A 3 3 0 0 1 1409 687.5 L 1458 687.5  A 3 3 0 0 1 1461 684.5 A 3 3 0 0 1 1464 687.5 L 1467 687.5  A 5 5 0 0 1 1472.5 692.5 L 1472.5 859  " stroke-width="1" stroke="#d9001b" fill="none" />
  <path d="M 1477.14644660941 853.946446609407  L 1472.5 858.592893218813  L 1467.85355339059 853.946446609407  L 1467.14644660941 854.653553390593  L 1472.14644660941 859.653553390593  L 1472.5 860.007106781187  L 1472.85355339059 859.653553390593  L 1477.85355339059 854.653553390593  L 1477.14644660941 853.946446609407  Z " fill-rule="nonzero" fill="#d9001b" stroke="none" />
</svg>