<?xml version="1.0" encoding="utf-8"?>
<svg version="1.1" xmlns:xlink="http://www.w3.org/1999/xlink" width="13px" height="16px" xmlns="http://www.w3.org/2000/svg">
  <g transform="matrix(1 0 0 1 -15 -132 )">
    <path d="M 12.7129755434783 6.41335044929397  C 12.9043251811594 6.67008985879333  13 6.97988874625588  13 7.34274711168164  L 13 8.65725288831836  C 13 9.02011125374412  12.9043251811594 9.32991014120667  12.7129755434783 9.58664955070603  C 12.5216259057971 9.84338896020539  12.2728713768116 9.97175866495507  11.9667119565217 9.97175866495507  L 5.74932065217391 9.97175866495507  L 8.33695652173913 12.9910141206675  C 8.5606884057971 13.2374839537869  8.67255434782609 13.5455712451861  8.67255434782609 13.9152759948652  C 8.67255434782609 14.2849807445443  8.5606884057971 14.5930680359435  8.33695652173913 14.8395378690629  L 7.67459239130435 15.6200256739409  C 7.4567481884058 15.8733418913137  7.19180253623188 16  6.87975543478261 16  C 6.57359601449275 16  6.30570652173913 15.8733418913137  6.07608695652174 15.6200256739409  L 0.326766304347826 8.92426187419769  C 0.108922101449275 8.67094565682499  0 8.36285836542576  0 8  C 0 7.64398801882756  0.108922101449275 7.33247753530167  0.326766304347826 7.06546854942234  L 6.07608695652174 0.390243902439025  C 6.29981884057971 0.130081300813007  6.56770833333333 0  6.87975543478261 0  C 7.18591485507246 0  7.45086050724638 0.130081300813007  7.67459239130435 0.390243902439025  L 8.33695652173913 1.15019255455712  C 8.5606884057971 1.41035515618314  8.67255434782609 1.72186563970903  8.67255434782609 2.08472400513479  C 8.67255434782609 2.44758237056055  8.5606884057971 2.75909285408643  8.33695652173913 3.01925545571245  L 5.74932065217391 6.02824133504493  L 11.9667119565217 6.02824133504493  C 12.2728713768116 6.02824133504493  12.5216259057971 6.15661103979461  12.7129755434783 6.41335044929397  Z " fill-rule="nonzero" fill="#7f7f7f" stroke="none" transform="matrix(1 0 0 1 15 132 )" />
  </g>
</svg>