<?xml version="1.0" encoding="utf-8"?>
<svg version="1.1" xmlns:xlink="http://www.w3.org/1999/xlink" width="10px" height="174px" preserveAspectRatio="xMidYMin meet" viewBox="1468 664  8 174" xmlns="http://www.w3.org/2000/svg">
  <path d="M 1196 669.5  L 1403 669.5  A 3 3 0 0 1 1406 666.5 A 3 3 0 0 1 1409 669.5 L 1458 669.5  A 3 3 0 0 1 1461 666.5 A 3 3 0 0 1 1464 669.5 L 1467 669.5  A 5 5 0 0 1 1472.5 674.5 L 1472.5 837  " stroke-width="1" stroke="#d9001b" fill="none" />
  <path d="M 1477.14644660941 831.946446609407  L 1472.5 836.592893218813  L 1467.85355339059 831.946446609407  L 1467.14644660941 832.653553390593  L 1472.14644660941 837.653553390593  L 1472.5 838.007106781187  L 1472.85355339059 837.653553390593  L 1477.85355339059 832.653553390593  L 1477.14644660941 831.946446609407  Z " fill-rule="nonzero" fill="#d9001b" stroke="none" />
</svg>