<?xml version="1.0" encoding="utf-8"?>
<svg version="1.1" xmlns:xlink="http://www.w3.org/1999/xlink" width="40px" height="40px" xmlns="http://www.w3.org/2000/svg">
  <g transform="matrix(1 0 0 1 -64 -122 )">
    <path d="M 64 122  L 104 122  L 104 162  L 64 162  L 64 122  " fill-rule="nonzero" fill="#cccccc" stroke="none" />
    <path d="M 67 125  L 101 125  L 101 159  L 67 159  L 67 125  " fill-rule="nonzero" fill="#ffffff" stroke="none" />
    <path d="M 87.8 134  C 86.12 134  84.8 132.68  84.8 131  C 84.8 129.32  86.12 128  87.8 128  C 89.48 128  90.8 129.32  90.8 131  C 90.8 132.68  89.48 134  87.8 134  " fill-rule="nonzero" fill="#cccccc" stroke="none" />
    <path d="M 68 158  L 68 140.4  L 76 132.4  L 87.2 138.8  L 93.6 137.2  L 100 138.8  L 100 158  L 68 158  " fill-rule="nonzero" fill="#169bd5" stroke="none" />
  </g>
</svg>