<?xml version="1.0" encoding="utf-8"?>
<svg version="1.1" xmlns:xlink="http://www.w3.org/1999/xlink" width="25px" height="25px" xmlns="http://www.w3.org/2000/svg">
  <g transform="matrix(1 0 0 1 -1369 -369 )">
    <path d="M 1381.5 369  C 1388.5 369  1394 374.5  1394 381.5  C 1394 388.5  1388.5 394  1381.5 394  C 1374.5 394  1369 388.5  1369 381.5  C 1369 374.5  1374.5 369  1381.5 369  Z " fill-rule="nonzero" fill="#ffffff" stroke="none" />
    <path d="M 1381.5 369.5  C 1388.22 369.5  1393.5 374.78  1393.5 381.5  C 1393.5 388.22  1388.22 393.5  1381.5 393.5  C 1374.78 393.5  1369.5 388.22  1369.5 381.5  C 1369.5 374.78  1374.78 369.5  1381.5 369.5  Z " stroke-width="1" stroke="#797979" fill="none" />
  </g>
</svg>