<?xml version="1.0" encoding="utf-8"?>
<svg version="1.1" xmlns:xlink="http://www.w3.org/1999/xlink" width="165px" height="34px" xmlns="http://www.w3.org/2000/svg">
  <defs>
    <mask fill="white" id="clip238">
      <path d="M 0 34  L 0 0  L 158.373493975904 0  L 165 0  L 165 34  L 161.355421686747 34  L 142.54746835443 34  L 0 34  Z " fill-rule="evenodd" />
    </mask>
  </defs>
  <g transform="matrix(1 0 0 1 -1081 -456 )">
    <path d="M 0 34  L 0 0  L 158.373493975904 0  L 165 0  L 165 34  L 161.355421686747 34  L 142.54746835443 34  L 0 34  Z " fill-rule="nonzero" fill="#393939" stroke="none" transform="matrix(1 0 0 1 1081 456 )" />
    <path d="M 0 34  L 0 0  L 158.373493975904 0  L 165 0  L 165 34  L 161.355421686747 34  L 142.54746835443 34  L 0 34  Z " stroke-width="2" stroke="#797979" fill="none" transform="matrix(1 0 0 1 1081 456 )" mask="url(#clip238)" />
  </g>
</svg>