<?xml version="1.0" encoding="utf-8"?>
<svg version="1.1" xmlns:xlink="http://www.w3.org/1999/xlink" width="12px" height="12px" viewBox="20 491.5  12 12" xmlns="http://www.w3.org/2000/svg">
  <path d="M 26 491.5  C 29.36 491.5  32 494.14  32 497.5  C 32 500.86  29.36 503.5  26 503.5  C 22.64 503.5  20 500.86  20 497.5  C 20 494.14  22.64 491.5  26 491.5  Z " fill-rule="nonzero" fill="#ffffff" stroke="none" />
  <path d="M 26 492  C 29.08 492  31.5 494.42  31.5 497.5  C 31.5 500.58  29.08 503  26 503  C 22.92 503  20.5 500.58  20.5 497.5  C 20.5 494.42  22.92 492  26 492  Z " stroke-width="1" stroke="#797979" fill="none" />
  <path d="M 26 500.5  C 24.32 500.5  23 499.18  23 497.5  C 23 495.82  24.32 494.5  26 494.5  C 27.68 494.5  29 495.82  29 497.5  C 29 499.18  27.68 500.5  26 500.5  " fill-rule="nonzero" fill="#797979" stroke="none" />
</svg>