<?xml version="1.0" encoding="utf-8"?>
<svg version="1.1" xmlns:xlink="http://www.w3.org/1999/xlink" width="12px" height="12px" viewBox="20 147.5  12 12" xmlns="http://www.w3.org/2000/svg">
  <path d="M 26 147.5  C 29.36 147.5  32 150.14  32 153.5  C 32 156.86  29.36 159.5  26 159.5  C 22.64 159.5  20 156.86  20 153.5  C 20 150.14  22.64 147.5  26 147.5  Z " fill-rule="nonzero" fill="#ffffff" stroke="none" />
  <path d="M 26 148  C 29.08 148  31.5 150.42  31.5 153.5  C 31.5 156.58  29.08 159  26 159  C 22.92 159  20.5 156.58  20.5 153.5  C 20.5 150.42  22.92 148  26 148  Z " stroke-width="1" stroke="#797979" fill="none" />
  <path d="M 26 156.5  C 24.32 156.5  23 155.18  23 153.5  C 23 151.82  24.32 150.5  26 150.5  C 27.68 150.5  29 151.82  29 153.5  C 29 155.18  27.68 156.5  26 156.5  " fill-rule="nonzero" fill="#797979" stroke="none" />
</svg>