<?xml version="1.0" encoding="utf-8"?>
<svg version="1.1" xmlns:xlink="http://www.w3.org/1999/xlink" width="12px" height="12px" viewBox="20 177.5  12 12" xmlns="http://www.w3.org/2000/svg">
  <path d="M 26 177.5  C 29.36 177.5  32 180.14  32 183.5  C 32 186.86  29.36 189.5  26 189.5  C 22.64 189.5  20 186.86  20 183.5  C 20 180.14  22.64 177.5  26 177.5  Z " fill-rule="nonzero" fill="#ffffff" stroke="none" />
  <path d="M 26 178  C 29.08 178  31.5 180.42  31.5 183.5  C 31.5 186.58  29.08 189  26 189  C 22.92 189  20.5 186.58  20.5 183.5  C 20.5 180.42  22.92 178  26 178  Z " stroke-width="1" stroke="#797979" fill="none" />
  <path d="M 26 186.5  C 24.32 186.5  23 185.18  23 183.5  C 23 181.82  24.32 180.5  26 180.5  C 27.68 180.5  29 181.82  29 183.5  C 29 185.18  27.68 186.5  26 186.5  " fill-rule="nonzero" fill="#797979" stroke="none" />
</svg>