<?xml version="1.0" encoding="utf-8"?>
<svg version="1.1" xmlns:xlink="http://www.w3.org/1999/xlink" width="12px" height="12px" viewBox="20 768.5  12 12" xmlns="http://www.w3.org/2000/svg">
  <path d="M 26 768.5  C 29.36 768.5  32 771.14  32 774.5  C 32 777.86  29.36 780.5  26 780.5  C 22.64 780.5  20 777.86  20 774.5  C 20 771.14  22.64 768.5  26 768.5  Z " fill-rule="nonzero" fill="#ffffff" stroke="none" />
  <path d="M 26 769  C 29.08 769  31.5 771.42  31.5 774.5  C 31.5 777.58  29.08 780  26 780  C 22.92 780  20.5 777.58  20.5 774.5  C 20.5 771.42  22.92 769  26 769  Z " stroke-width="1" stroke="#797979" fill="none" />
  <path d="M 26 777.5  C 24.32 777.5  23 776.18  23 774.5  C 23 772.82  24.32 771.5  26 771.5  C 27.68 771.5  29 772.82  29 774.5  C 29 776.18  27.68 777.5  26 777.5  " fill-rule="nonzero" fill="#797979" stroke="none" />
</svg>