<?xml version="1.0" encoding="utf-8"?>
<svg version="1.1" xmlns:xlink="http://www.w3.org/1999/xlink" width="138px" height="49px" xmlns="http://www.w3.org/2000/svg">
  <defs>
    <mask fill="white" id="clip242">
      <path d="M 0 49  L 0 0  L 132.457831325301 0  L 138 0  L 138 49  L 134.951807228916 49  L 119.221518987342 49  L 0 49  Z " fill-rule="evenodd" />
    </mask>
  </defs>
  <g transform="matrix(1 0 0 1 -149 -40 )">
    <path d="M 0 49  L 0 0  L 132.457831325301 0  L 138 0  L 138 49  L 134.951807228916 49  L 119.221518987342 49  L 0 49  Z " fill-rule="nonzero" fill="#393939" stroke="none" transform="matrix(1 0 0 1 149 40 )" />
    <path d="M 0 49  L 0 0  L 132.457831325301 0  L 138 0  L 138 49  L 134.951807228916 49  L 119.221518987342 49  L 0 49  Z " stroke-width="2" stroke="#797979" fill="none" transform="matrix(1 0 0 1 149 40 )" mask="url(#clip242)" />
  </g>
</svg>