<?xml version="1.0" encoding="utf-8"?>
<svg version="1.1" xmlns:xlink="http://www.w3.org/1999/xlink" width="12px" height="12px" viewBox="20 741.5  12 12" xmlns="http://www.w3.org/2000/svg">
  <path d="M 26 741.5  C 29.36 741.5  32 744.14  32 747.5  C 32 750.86  29.36 753.5  26 753.5  C 22.64 753.5  20 750.86  20 747.5  C 20 744.14  22.64 741.5  26 741.5  Z " fill-rule="nonzero" fill="#ffffff" stroke="none" />
  <path d="M 26 742  C 29.08 742  31.5 744.42  31.5 747.5  C 31.5 750.58  29.08 753  26 753  C 22.92 753  20.5 750.58  20.5 747.5  C 20.5 744.42  22.92 742  26 742  Z " stroke-width="1" stroke="#797979" fill="none" />
  <path d="M 26 750.5  C 24.32 750.5  23 749.18  23 747.5  C 23 745.82  24.32 744.5  26 744.5  C 27.68 744.5  29 745.82  29 747.5  C 29 749.18  27.68 750.5  26 750.5  " fill-rule="nonzero" fill="#797979" stroke="none" />
</svg>