<?xml version="1.0" encoding="utf-8"?>
<svg version="1.1" xmlns:xlink="http://www.w3.org/1999/xlink" width="177px" height="34px" xmlns="http://www.w3.org/2000/svg">
  <defs>
    <mask fill="white" id="clip241">
      <path d="M 0 34  L 0 0  L 169.89156626506 0  L 177 0  L 177 34  L 173.090361445783 34  L 152.914556962025 34  L 0 34  Z " fill-rule="evenodd" />
    </mask>
  </defs>
  <g transform="matrix(1 0 0 1 -110 -255 )">
    <path d="M 0 34  L 0 0  L 169.89156626506 0  L 177 0  L 177 34  L 173.090361445783 34  L 152.914556962025 34  L 0 34  Z " fill-rule="nonzero" fill="#393939" stroke="none" transform="matrix(1 0 0 1 110 255 )" />
    <path d="M 0 34  L 0 0  L 169.89156626506 0  L 177 0  L 177 34  L 173.090361445783 34  L 152.914556962025 34  L 0 34  Z " stroke-width="2" stroke="#797979" fill="none" transform="matrix(1 0 0 1 110 255 )" mask="url(#clip241)" />
  </g>
</svg>