<?xml version="1.0" encoding="utf-8"?>
<svg version="1.1" xmlns:xlink="http://www.w3.org/1999/xlink" width="15px" height="15px" xmlns="http://www.w3.org/2000/svg">
  <g transform="matrix(1 0 0 1 -1018 -373 )">
    <path d="M 1025.5 373  C 1029.7 373  1033 376.3  1033 380.5  C 1033 384.7  1029.7 388  1025.5 388  C 1021.3 388  1018 384.7  1018 380.5  C 1018 376.3  1021.3 373  1025.5 373  Z " fill-rule="nonzero" fill="#ffffff" stroke="none" />
    <path d="M 1025.5 373.5  C 1029.42 373.5  1032.5 376.58  1032.5 380.5  C 1032.5 384.42  1029.42 387.5  1025.5 387.5  C 1021.58 387.5  1018.5 384.42  1018.5 380.5  C 1018.5 376.58  1021.58 373.5  1025.5 373.5  Z " stroke-width="1" stroke="#797979" fill="none" />
  </g>
</svg>