<?xml version="1.0" encoding="utf-8"?>
<svg version="1.1" xmlns:xlink="http://www.w3.org/1999/xlink" width="12px" height="12px" viewBox="21 99.5  12 12" xmlns="http://www.w3.org/2000/svg">
  <path d="M 27 99.5  C 30.36 99.5  33 102.14  33 105.5  C 33 108.86  30.36 111.5  27 111.5  C 23.64 111.5  21 108.86  21 105.5  C 21 102.14  23.64 99.5  27 99.5  Z " fill-rule="nonzero" fill="#ffffff" stroke="none" />
  <path d="M 27 100  C 30.08 100  32.5 102.42  32.5 105.5  C 32.5 108.58  30.08 111  27 111  C 23.92 111  21.5 108.58  21.5 105.5  C 21.5 102.42  23.92 100  27 100  Z " stroke-width="1" stroke="#797979" fill="none" />
  <path d="M 27 108.5  C 25.32 108.5  24 107.18  24 105.5  C 24 103.82  25.32 102.5  27 102.5  C 28.68 102.5  30 103.82  30 105.5  C 30 107.18  28.68 108.5  27 108.5  " fill-rule="nonzero" fill="#797979" stroke="none" />
</svg>