<?xml version="1.0" encoding="utf-8"?>
<svg version="1.1" xmlns:xlink="http://www.w3.org/1999/xlink" width="12px" height="12px" viewBox="21 556.5  12 12" xmlns="http://www.w3.org/2000/svg">
  <path d="M 27 556.5  C 30.36 556.5  33 559.14  33 562.5  C 33 565.86  30.36 568.5  27 568.5  C 23.64 568.5  21 565.86  21 562.5  C 21 559.14  23.64 556.5  27 556.5  Z " fill-rule="nonzero" fill="#ffffff" stroke="none" />
  <path d="M 27 557  C 30.08 557  32.5 559.42  32.5 562.5  C 32.5 565.58  30.08 568  27 568  C 23.92 568  21.5 565.58  21.5 562.5  C 21.5 559.42  23.92 557  27 557  Z " stroke-width="1" stroke="#797979" fill="none" />
  <path d="M 27 565.5  C 25.32 565.5  24 564.18  24 562.5  C 24 560.82  25.32 559.5  27 559.5  C 28.68 559.5  30 560.82  30 562.5  C 30 564.18  28.68 565.5  27 565.5  " fill-rule="nonzero" fill="#797979" stroke="none" />
</svg>