<?xml version="1.0" encoding="utf-8"?>
<svg version="1.1" xmlns:xlink="http://www.w3.org/1999/xlink" width="12px" height="12px" viewBox="21 126.5  12 12" xmlns="http://www.w3.org/2000/svg">
  <path d="M 27 126.5  C 30.36 126.5  33 129.14  33 132.5  C 33 135.86  30.36 138.5  27 138.5  C 23.64 138.5  21 135.86  21 132.5  C 21 129.14  23.64 126.5  27 126.5  Z " fill-rule="nonzero" fill="#ffffff" stroke="none" />
  <path d="M 27 127  C 30.08 127  32.5 129.42  32.5 132.5  C 32.5 135.58  30.08 138  27 138  C 23.92 138  21.5 135.58  21.5 132.5  C 21.5 129.42  23.92 127  27 127  Z " stroke-width="1" stroke="#797979" fill="none" />
  <path d="M 27 135.5  C 25.32 135.5  24 134.18  24 132.5  C 24 130.82  25.32 129.5  27 129.5  C 28.68 129.5  30 130.82  30 132.5  C 30 134.18  28.68 135.5  27 135.5  " fill-rule="nonzero" fill="#797979" stroke="none" />
</svg>