<?xml version="1.0" encoding="utf-8"?>
<svg version="1.1" xmlns:xlink="http://www.w3.org/1999/xlink" width="12px" height="12px" viewBox="21 223.5  12 12" xmlns="http://www.w3.org/2000/svg">
  <path d="M 27 223.5  C 30.36 223.5  33 226.14  33 229.5  C 33 232.86  30.36 235.5  27 235.5  C 23.64 235.5  21 232.86  21 229.5  C 21 226.14  23.64 223.5  27 223.5  Z " fill-rule="nonzero" fill="#ffffff" stroke="none" />
  <path d="M 27 224  C 30.08 224  32.5 226.42  32.5 229.5  C 32.5 232.58  30.08 235  27 235  C 23.92 235  21.5 232.58  21.5 229.5  C 21.5 226.42  23.92 224  27 224  Z " stroke-width="1" stroke="#797979" fill="none" />
  <path d="M 27 232.5  C 25.32 232.5  24 231.18  24 229.5  C 24 227.82  25.32 226.5  27 226.5  C 28.68 226.5  30 227.82  30 229.5  C 30 231.18  28.68 232.5  27 232.5  " fill-rule="nonzero" fill="#797979" stroke="none" />
</svg>