<?xml version="1.0" encoding="utf-8"?>
<svg version="1.1" xmlns:xlink="http://www.w3.org/1999/xlink" width="35px" height="35px" xmlns="http://www.w3.org/2000/svg">
  <g transform="matrix(1 0 0 1 -98 -89 )">
    <path d="M 115.5 89.5  C 125.02 89.5  132.5 96.98  132.5 106.5  C 132.5 116.02  125.02 123.5  115.5 123.5  C 105.98 123.5  98.5 116.02  98.5 106.5  C 98.5 96.98  105.98 89.5  115.5 89.5  Z " fill-rule="nonzero" fill="#ffffff" stroke="none" />
    <path d="M 115.5 89.5  C 125.02 89.5  132.5 96.98  132.5 106.5  C 132.5 116.02  125.02 123.5  115.5 123.5  C 105.98 123.5  98.5 116.02  98.5 106.5  C 98.5 96.98  105.98 89.5  115.5 89.5  Z " stroke-width="1" stroke="#7f7f7f" fill="none" stroke-opacity="0.996078431372549" />
  </g>
</svg>