<?xml version="1.0" encoding="utf-8"?>
<svg version="1.1" xmlns:xlink="http://www.w3.org/1999/xlink" width="20px" height="2px" xmlns="http://www.w3.org/2000/svg">
  <g transform="matrix(1 0 0 1 -217 -213 )">
    <path d="M 19.4754464285714 0.18359375  C 19.8251488095238 0.305989583333333  20 0.453125  20 0.625  L 20 1.375  C 20 1.546875  19.8251488095238 1.69401041666667  19.4754464285714 1.81640625  C 19.1257440476191 1.93880208333333  18.7053571428571 2  18.2142857142857 2  L 1.78571428571429 2  C 1.29464285714286 2  0.874255952380952 1.93880208333333  0.524553571428571 1.81640625  C 0.17485119047619 1.69401041666667  0 1.546875  0 1.375  L 0 0.625  C 0 0.453125  0.17485119047619 0.305989583333333  0.524553571428571 0.18359375  C 0.874255952380952 0.061197916666667  1.29464285714286 0  1.78571428571429 0  L 18.2142857142857 0  C 18.7053571428571 0  19.1257440476191 0.061197916666667  19.4754464285714 0.18359375  Z " fill-rule="nonzero" fill="#aaaaaa" stroke="none" transform="matrix(1 0 0 1 217 213 )" />
  </g>
</svg>