<?xml version="1.0" encoding="utf-8"?>
<svg version="1.1" xmlns:xlink="http://www.w3.org/1999/xlink" width="10px" height="10px" xmlns="http://www.w3.org/2000/svg">
  <g transform="matrix(1 0 0 1 -88 -71 )">
    <path d="M 93 71  C 95.8 71  98 73.2  98 76  C 98 78.8  95.8 81  93 81  C 90.2 81  88 78.8  88 76  C 88 73.2  90.2 71  93 71  Z " fill-rule="nonzero" fill="#555555" stroke="none" />
    <path d="M 93 71.5  C 95.52 71.5  97.5 73.48  97.5 76  C 97.5 78.52  95.52 80.5  93 80.5  C 90.48 80.5  88.5 78.52  88.5 76  C 88.5 73.48  90.48 71.5  93 71.5  Z " stroke-width="1" stroke="#555555" fill="none" />
  </g>
</svg>