<?xml version="1.0" encoding="utf-8"?>
<svg version="1.1" xmlns:xlink="http://www.w3.org/1999/xlink" width="30px" height="30px" xmlns="http://www.w3.org/2000/svg">
  <g transform="matrix(1 0 0 1 -126 -58 )">
    <path d="M 141 58.5  C 149.12 58.5  155.5 64.88  155.5 73  C 155.5 81.12  149.12 87.5  141 87.5  C 132.88 87.5  126.5 81.12  126.5 73  C 126.5 64.88  132.88 58.5  141 58.5  Z " fill-rule="nonzero" fill="#ffffff" stroke="none" />
    <path d="M 141 58.5  C 149.12 58.5  155.5 64.88  155.5 73  C 155.5 81.12  149.12 87.5  141 87.5  C 132.88 87.5  126.5 81.12  126.5 73  C 126.5 64.88  132.88 58.5  141 58.5  Z " stroke-width="1" stroke="#7f7f7f" fill="none" stroke-opacity="0.996078431372549" />
  </g>
</svg>