<?xml version="1.0" encoding="utf-8"?>
<svg version="1.1" xmlns:xlink="http://www.w3.org/1999/xlink" width="99px" height="10px" preserveAspectRatio="xMinYMid meet" viewBox="382 429  99 8" xmlns="http://www.w3.org/2000/svg">
  <path d="M 230 221.5  L 235 221.5  A 5 5 0 0 1 240.5 226.5 L 240.5 253  A 5 5 0 0 0 245.5 258.5 L 382 258.5  A 5 5 0 0 1 387.5 263.5 L 387.5 428  A 5 5 0 0 0 392.5 433.5 L 480 433.5  " stroke-width="1" stroke="#d9001b" fill="none" />
  <path d="M 474.946446609407 428.853553390593  L 479.592893218813 433.5  L 474.946446609407 438.146446609407  L 475.653553390593 438.853553390593  L 480.653553390593 433.853553390593  L 481.007106781187 433.5  L 480.653553390593 433.146446609407  L 475.653553390593 428.146446609407  L 474.946446609407 428.853553390593  Z " fill-rule="nonzero" fill="#d9001b" stroke="none" />
</svg>