<?xml version="1.0" encoding="utf-8"?>
<svg version="1.1" xmlns:xlink="http://www.w3.org/1999/xlink" width="50px" height="30px" xmlns="http://www.w3.org/2000/svg">
  <g transform="matrix(1 0 0 1 -1356 -366 )">
    <path d="M 1357 370  A 3 3 0 0 1 1360 367 L 1402 367  A 3 3 0 0 1 1405 370 L 1405 392  A 3 3 0 0 1 1402 395 L 1360 395  A 3 3 0 0 1 1357 392 L 1357 370  Z " fill-rule="nonzero" fill="#ffffff" stroke="none" />
    <path d="M 1356.5 370  A 3.5 3.5 0 0 1 1360 366.5 L 1402 366.5  A 3.5 3.5 0 0 1 1405.5 370 L 1405.5 392  A 3.5 3.5 0 0 1 1402 395.5 L 1360 395.5  A 3.5 3.5 0 0 1 1356.5 392 L 1356.5 370  Z " stroke-width="1" stroke="#409eff" fill="none" stroke-opacity="0.996078431372549" />
  </g>
</svg>