<?xml version="1.0" encoding="utf-8"?>
<svg version="1.1" xmlns:xlink="http://www.w3.org/1999/xlink" width="12px" height="12px" viewBox="11 113  12 12" xmlns="http://www.w3.org/2000/svg">
  <path d="M 17 113  C 20.36 113  23 115.64  23 119  C 23 122.36  20.36 125  17 125  C 13.64 125  11 122.36  11 119  C 11 115.64  13.64 113  17 113  Z " fill-rule="nonzero" fill="#ffffff" stroke="none" />
  <path d="M 17 113.5  C 20.08 113.5  22.5 115.92  22.5 119  C 22.5 122.08  20.08 124.5  17 124.5  C 13.92 124.5  11.5 122.08  11.5 119  C 11.5 115.92  13.92 113.5  17 113.5  Z " stroke-width="1" stroke="#797979" fill="none" />
  <path d="M 17 122  C 15.32 122  14 120.68  14 119  C 14 117.32  15.32 116  17 116  C 18.68 116  20 117.32  20 119  C 20 120.68  18.68 122  17 122  " fill-rule="nonzero" fill="#797979" stroke="none" />
</svg>