<?xml version="1.0" encoding="utf-8"?>
<svg version="1.1" xmlns:xlink="http://www.w3.org/1999/xlink" width="12px" height="12px" viewBox="270 120  12 12" xmlns="http://www.w3.org/2000/svg">
  <path d="M 276 120  C 279.36 120  282 122.64  282 126  C 282 129.36  279.36 132  276 132  C 272.64 132  270 129.36  270 126  C 270 122.64  272.64 120  276 120  Z " fill-rule="nonzero" fill="#ffffff" stroke="none" />
  <path d="M 276 120.5  C 279.08 120.5  281.5 122.92  281.5 126  C 281.5 129.08  279.08 131.5  276 131.5  C 272.92 131.5  270.5 129.08  270.5 126  C 270.5 122.92  272.92 120.5  276 120.5  Z " stroke-width="1" stroke="#797979" fill="none" />
  <path d="M 276 129  C 274.32 129  273 127.68  273 126  C 273 124.32  274.32 123  276 123  C 277.68 123  279 124.32  279 126  C 279 127.68  277.68 129  276 129  " fill-rule="nonzero" fill="#797979" stroke="none" />
</svg>