<?xml version="1.0" encoding="utf-8"?>
<svg version="1.1" xmlns:xlink="http://www.w3.org/1999/xlink" width="12px" height="12px" viewBox="271 164  12 12" xmlns="http://www.w3.org/2000/svg">
  <path d="M 277 164  C 280.36 164  283 166.64  283 170  C 283 173.36  280.36 176  277 176  C 273.64 176  271 173.36  271 170  C 271 166.64  273.64 164  277 164  Z " fill-rule="nonzero" fill="#ffffff" stroke="none" />
  <path d="M 277 164.5  C 280.08 164.5  282.5 166.92  282.5 170  C 282.5 173.08  280.08 175.5  277 175.5  C 273.92 175.5  271.5 173.08  271.5 170  C 271.5 166.92  273.92 164.5  277 164.5  Z " stroke-width="1" stroke="#797979" fill="none" />
  <path d="M 277 173  C 275.32 173  274 171.68  274 170  C 274 168.32  275.32 167  277 167  C 278.68 167  280 168.32  280 170  C 280 171.68  278.68 173  277 173  " fill-rule="nonzero" fill="#797979" stroke="none" />
</svg>