<?xml version="1.0" encoding="utf-8"?>
<svg version="1.1" xmlns:xlink="http://www.w3.org/1999/xlink" width="12px" height="12px" viewBox="230 68  12 12" xmlns="http://www.w3.org/2000/svg">
  <path d="M 236 68  C 239.36 68  242 70.64  242 74  C 242 77.36  239.36 80  236 80  C 232.64 80  230 77.36  230 74  C 230 70.64  232.64 68  236 68  Z " fill-rule="nonzero" fill="#ffffff" stroke="none" />
  <path d="M 236 68.5  C 239.08 68.5  241.5 70.92  241.5 74  C 241.5 77.08  239.08 79.5  236 79.5  C 232.92 79.5  230.5 77.08  230.5 74  C 230.5 70.92  232.92 68.5  236 68.5  Z " stroke-width="1" stroke="#797979" fill="none" />
  <path d="M 236 77  C 234.32 77  233 75.68  233 74  C 233 72.32  234.32 71  236 71  C 237.68 71  239 72.32  239 74  C 239 75.68  237.68 77  236 77  " fill-rule="nonzero" fill="#797979" stroke="none" />
</svg>