<?xml version="1.0" encoding="utf-8"?>
<svg version="1.1" xmlns:xlink="http://www.w3.org/1999/xlink" width="12px" height="12px" viewBox="139 126  12 12" xmlns="http://www.w3.org/2000/svg">
  <path d="M 145 126  C 148.36 126  151 128.64  151 132  C 151 135.36  148.36 138  145 138  C 141.64 138  139 135.36  139 132  C 139 128.64  141.64 126  145 126  Z " fill-rule="nonzero" fill="#ffffff" stroke="none" />
  <path d="M 145 126.5  C 148.08 126.5  150.5 128.92  150.5 132  C 150.5 135.08  148.08 137.5  145 137.5  C 141.92 137.5  139.5 135.08  139.5 132  C 139.5 128.92  141.92 126.5  145 126.5  Z " stroke-width="1" stroke="#797979" fill="none" />
  <path d="M 145 135  C 143.32 135  142 133.68  142 132  C 142 130.32  143.32 129  145 129  C 146.68 129  148 130.32  148 132  C 148 133.68  146.68 135  145 135  " fill-rule="nonzero" fill="#797979" stroke="none" />
</svg>