<?xml version="1.0" encoding="utf-8"?>
<svg version="1.1" xmlns:xlink="http://www.w3.org/1999/xlink" width="12px" height="12px" viewBox="269 82  12 12" xmlns="http://www.w3.org/2000/svg">
  <path d="M 275 82  C 278.36 82  281 84.64  281 88  C 281 91.36  278.36 94  275 94  C 271.64 94  269 91.36  269 88  C 269 84.64  271.64 82  275 82  Z " fill-rule="nonzero" fill="#ffffff" stroke="none" />
  <path d="M 275 82.5  C 278.08 82.5  280.5 84.92  280.5 88  C 280.5 91.08  278.08 93.5  275 93.5  C 271.92 93.5  269.5 91.08  269.5 88  C 269.5 84.92  271.92 82.5  275 82.5  Z " stroke-width="1" stroke="#797979" fill="none" />
  <path d="M 275 91  C 273.32 91  272 89.68  272 88  C 272 86.32  273.32 85  275 85  C 276.68 85  278 86.32  278 88  C 278 89.68  276.68 91  275 91  " fill-rule="nonzero" fill="#797979" stroke="none" />
</svg>