<?xml version="1.0" encoding="utf-8"?>
<svg version="1.1" xmlns:xlink="http://www.w3.org/1999/xlink" width="12px" height="12px" viewBox="178 116  12 12" xmlns="http://www.w3.org/2000/svg">
  <path d="M 184 116  C 187.36 116  190 118.64  190 122  C 190 125.36  187.36 128  184 128  C 180.64 128  178 125.36  178 122  C 178 118.64  180.64 116  184 116  Z " fill-rule="nonzero" fill="#ffffff" stroke="none" />
  <path d="M 184 116.5  C 187.08 116.5  189.5 118.92  189.5 122  C 189.5 125.08  187.08 127.5  184 127.5  C 180.92 127.5  178.5 125.08  178.5 122  C 178.5 118.92  180.92 116.5  184 116.5  Z " stroke-width="1" stroke="#797979" fill="none" />
  <path d="M 184 125  C 182.32 125  181 123.68  181 122  C 181 120.32  182.32 119  184 119  C 185.68 119  187 120.32  187 122  C 187 123.68  185.68 125  184 125  " fill-rule="nonzero" fill="#797979" stroke="none" />
</svg>