<?xml version="1.0" encoding="utf-8"?>
<svg version="1.1" xmlns:xlink="http://www.w3.org/1999/xlink" width="12px" height="12px" viewBox="248 93  12 12" xmlns="http://www.w3.org/2000/svg">
  <path d="M 254 93  C 257.36 93  260 95.64  260 99  C 260 102.36  257.36 105  254 105  C 250.64 105  248 102.36  248 99  C 248 95.64  250.64 93  254 93  Z " fill-rule="nonzero" fill="#ffffff" stroke="none" />
  <path d="M 254 93.5  C 257.08 93.5  259.5 95.92  259.5 99  C 259.5 102.08  257.08 104.5  254 104.5  C 250.92 104.5  248.5 102.08  248.5 99  C 248.5 95.92  250.92 93.5  254 93.5  Z " stroke-width="1" stroke="#797979" fill="none" />
  <path d="M 254 102  C 252.32 102  251 100.68  251 99  C 251 97.32  252.32 96  254 96  C 255.68 96  257 97.32  257 99  C 257 100.68  255.68 102  254 102  " fill-rule="nonzero" fill="#797979" stroke="none" />
</svg>