<?xml version="1.0" encoding="utf-8"?>
<svg version="1.1" xmlns:xlink="http://www.w3.org/1999/xlink" width="12px" height="12px" viewBox="133 93  12 12" xmlns="http://www.w3.org/2000/svg">
  <path d="M 139 93  C 142.36 93  145 95.64  145 99  C 145 102.36  142.36 105  139 105  C 135.64 105  133 102.36  133 99  C 133 95.64  135.64 93  139 93  Z " fill-rule="nonzero" fill="#ffffff" stroke="none" />
  <path d="M 139 93.5  C 142.08 93.5  144.5 95.92  144.5 99  C 144.5 102.08  142.08 104.5  139 104.5  C 135.92 104.5  133.5 102.08  133.5 99  C 133.5 95.92  135.92 93.5  139 93.5  Z " stroke-width="1" stroke="#797979" fill="none" />
  <path d="M 139 102  C 137.32 102  136 100.68  136 99  C 136 97.32  137.32 96  139 96  C 140.68 96  142 97.32  142 99  C 142 100.68  140.68 102  139 102  " fill-rule="nonzero" fill="#797979" stroke="none" />
</svg>