<?xml version="1.0" encoding="utf-8"?>
<svg version="1.1" xmlns:xlink="http://www.w3.org/1999/xlink" width="168px" height="160px" xmlns="http://www.w3.org/2000/svg">
  <g transform="matrix(1 0 0 1 -26 -38 )">
    <path d="M 26 38  L 194 38  L 194 198  L 26 198  L 26 38  " fill-rule="nonzero" fill="#cccccc" stroke="none" />
    <path d="M 37 49  L 183 49  L 183 187  L 37 187  L 37 49  " fill-rule="nonzero" fill="#ffffff" stroke="none" />
    <path d="M 125.36 86  C 118.64 86  113.36 80.72  113.36 74  C 113.36 67.28  118.64 62  125.36 62  C 132.08 62  137.36 67.28  137.36 74  C 137.36 80.72  132.08 86  125.36 86  " fill-rule="nonzero" fill="#cccccc" stroke="none" />
    <path d="M 41 183  L 41 111.5  L 75.5 79  L 123.8 108.714285714286  L 151.4 98.5  L 179 108.714285714286  L 179 183  L 41 183  " fill-rule="nonzero" fill="#169bd5" stroke="none" />
  </g>
</svg>