<?xml version="1.0" encoding="utf-8"?>
<svg version="1.1" xmlns:xlink="http://www.w3.org/1999/xlink" width="823px" height="664px" xmlns="http://www.w3.org/2000/svg">
  <g transform="matrix(1 0 0 1 -17 -82 )">
    <path d="M 17 82  L 840 82  L 840 746  L 17 746  L 17 82  " fill-rule="nonzero" fill="#cccccc" stroke="none" />
    <path d="M 63 128  L 794 128  L 794 700  L 63 700  L 63 128  " fill-rule="nonzero" fill="#ffffff" stroke="none" />
    <path d="M 494.76 281.2  C 466.872 281.2  444.96 259.288  444.96 231.4  C 444.96 203.512  466.872 181.6  494.76 181.6  C 522.648 181.6  544.56 203.512  544.56 231.4  C 544.56 259.288  522.648 281.2  494.76 281.2  " fill-rule="nonzero" fill="#cccccc" stroke="none" />
    <path d="M 80 684  L 80 387.55  L 254.5 252.8  L 498.8 423.079465370595  L 638.4 333.65  L 778 423.079465370595  L 778 684  L 80 684  " fill-rule="nonzero" fill="#169bd5" stroke="none" />
  </g>
</svg>