<?xml version="1.0" encoding="utf-8"?>
<svg version="1.1" xmlns:xlink="http://www.w3.org/1999/xlink" width="10px" height="10px" xmlns="http://www.w3.org/2000/svg">
  <g transform="matrix(1 0 0 1 -61 -241 )">
    <path d="M 66 242  C 68.24 242  70 243.76  70 246  C 70 248.24  68.24 250  66 250  C 63.76 250  62 248.24  62 246  C 62 243.76  63.76 242  66 242  Z " fill-rule="nonzero" fill="#ffffff" stroke="none" />
    <path d="M 66 242  C 68.24 242  70 243.76  70 246  C 70 248.24  68.24 250  66 250  C 63.76 250  62 248.24  62 246  C 62 243.76  63.76 242  66 242  Z " stroke-width="2" stroke="#1890ff" fill="none" />
  </g>
</svg>