<?xml version="1.0" encoding="utf-8"?>
<svg version="1.1" xmlns:xlink="http://www.w3.org/1999/xlink" width="10px" height="10px" xmlns="http://www.w3.org/2000/svg">
  <g transform="matrix(1 0 0 1 -61 -366 )">
    <path d="M 66 367  C 68.24 367  70 368.76  70 371  C 70 373.24  68.24 375  66 375  C 63.76 375  62 373.24  62 371  C 62 368.76  63.76 367  66 367  Z " fill-rule="nonzero" fill="#ffffff" stroke="none" />
    <path d="M 66 367  C 68.24 367  70 368.76  70 371  C 70 373.24  68.24 375  66 375  C 63.76 375  62 373.24  62 371  C 62 368.76  63.76 367  66 367  Z " stroke-width="2" stroke="#d9d9d9" fill="none" />
  </g>
</svg>