<?xml version="1.0" encoding="utf-8"?>
<svg version="1.1" xmlns:xlink="http://www.w3.org/1999/xlink" width="207.461538461538px" height="10px" preserveAspectRatio="xMinYMid meet" viewBox="836 766  207.461538461538 8" xmlns="http://www.w3.org/2000/svg">
  <path d="M 1018 389  L 1033.46153846154 389  A 5 5 0 0 1 1038.46153846154 394 L 1038.46153846154 406  A 3 3 0 0 1 1041.46153846154 409 A 3 3 0 0 1 1038.46153846154 412 L 1038.46153846154 493  A 3 3 0 0 1 1041.46153846154 496 A 3 3 0 0 1 1038.46153846154 499 L 1038.46153846154 765  A 5 5 0 0 1 1033.46153846154 770 L 846 770  A 5 5 0 0 0 841 775 L 841 780  " stroke-width="2" stroke="#0099ff" fill="none" />
  <path d="M 833.4 779  L 841 786  L 848.6 779  L 833.4 779  Z " fill-rule="nonzero" fill="#0099ff" stroke="none" />
</svg>