<?xml version="1.0" encoding="utf-8"?>
<svg version="1.1" xmlns:xlink="http://www.w3.org/1999/xlink" width="25px" height="10px" preserveAspectRatio="xMinYMid meet" viewBox="1518 853  25 8" xmlns="http://www.w3.org/2000/svg">
  <path d="M 1028 522  L 1033 522  A 5 5 0 0 1 1038 527 L 1038 579.615384615385  A 5 5 0 0 0 1043 584.615384615385 L 1070.38461538462 584.615384615385  A 5 5 0 0 1 1075.38461538462 589.615384615385 L 1075.38461538462 741.153846153846  A 5 5 0 0 0 1080.38461538462 746.153846153846 L 1495 746.153846153846  A 5 5 0 0 1 1500 751.153846153846 L 1500 855  A 5 5 0 0 0 1505 860 L 1536.5 860  A 1.5 1.5 0 0 0 1538 858.5 A 1.5 1.5 0 0 0 1536.5 857 L 1524 857  " stroke-width="2" stroke="#0099ff" fill="none" />
  <path d="M 1525 849.4  L 1518 857  L 1525 864.6  L 1525 849.4  Z " fill-rule="nonzero" fill="#0099ff" stroke="none" />
</svg>