<?xml version="1.0" encoding="utf-8"?>
<svg version="1.1" xmlns:xlink="http://www.w3.org/1999/xlink" width="12px" height="12px" viewBox="531 102  12 12" xmlns="http://www.w3.org/2000/svg">
  <path d="M 537 102  C 540.36 102  543 104.64  543 108  C 543 111.36  540.36 114  537 114  C 533.64 114  531 111.36  531 108  C 531 104.64  533.64 102  537 102  Z " fill-rule="nonzero" fill="#ffffff" stroke="none" />
  <path d="M 537 102.5  C 540.08 102.5  542.5 104.92  542.5 108  C 542.5 111.08  540.08 113.5  537 113.5  C 533.92 113.5  531.5 111.08  531.5 108  C 531.5 104.92  533.92 102.5  537 102.5  Z " stroke-width="1" stroke="#797979" fill="none" />
  <path d="M 537 111  C 535.32 111  534 109.68  534 108  C 534 106.32  535.32 105  537 105  C 538.68 105  540 106.32  540 108  C 540 109.68  538.68 111  537 111  " fill-rule="nonzero" fill="#797979" stroke="none" />
</svg>