<?xml version="1.0" encoding="utf-8"?>
<svg version="1.1" xmlns:xlink="http://www.w3.org/1999/xlink" width="12px" height="12px" viewBox="531 188  12 12" xmlns="http://www.w3.org/2000/svg">
  <path d="M 537 188  C 540.36 188  543 190.64  543 194  C 543 197.36  540.36 200  537 200  C 533.64 200  531 197.36  531 194  C 531 190.64  533.64 188  537 188  Z " fill-rule="nonzero" fill="#ffffff" stroke="none" />
  <path d="M 537 188.5  C 540.08 188.5  542.5 190.92  542.5 194  C 542.5 197.08  540.08 199.5  537 199.5  C 533.92 199.5  531.5 197.08  531.5 194  C 531.5 190.92  533.92 188.5  537 188.5  Z " stroke-width="1" stroke="#797979" fill="none" />
  <path d="M 537 197  C 535.32 197  534 195.68  534 194  C 534 192.32  535.32 191  537 191  C 538.68 191  540 192.32  540 194  C 540 195.68  538.68 197  537 197  " fill-rule="nonzero" fill="#797979" stroke="none" />
</svg>