<?xml version="1.0" encoding="utf-8"?>
<svg version="1.1" xmlns:xlink="http://www.w3.org/1999/xlink" width="82px" height="19px" xmlns="http://www.w3.org/2000/svg">
  <defs>
    <mask fill="white" id="clip86">
      <path d="M 0 19  L 0 0  L 27 0  L 38.2666666666667 0  L 82 0  L 82 19  L 0 19  Z " fill-rule="evenodd" />
    </mask>
  </defs>
  <g transform="matrix(1 0 0 1 -135 -421 )">
    <path d="M 0 19  L 0 0  L 27 0  L 38.2666666666667 0  L 82 0  L 82 19  L 0 19  Z " fill-rule="nonzero" fill="#393939" stroke="none" transform="matrix(1 0 0 1 135 421 )" />
    <path d="M 0 19  L 0 0  L 27 0  L 38.2666666666667 0  L 82 0  L 82 19  L 0 19  Z " stroke-width="2" stroke="#797979" fill="none" transform="matrix(1 0 0 1 135 421 )" mask="url(#clip86)" />
  </g>
</svg>