<?xml version="1.0" encoding="utf-8"?>
<svg version="1.1" xmlns:xlink="http://www.w3.org/1999/xlink" width="12px" height="12px" viewBox="178 101  12 12" xmlns="http://www.w3.org/2000/svg">
  <path d="M 184 101  C 187.36 101  190 103.64  190 107  C 190 110.36  187.36 113  184 113  C 180.64 113  178 110.36  178 107  C 178 103.64  180.64 101  184 101  Z " fill-rule="nonzero" fill="#ffffff" stroke="none" />
  <path d="M 184 101.5  C 187.08 101.5  189.5 103.92  189.5 107  C 189.5 110.08  187.08 112.5  184 112.5  C 180.92 112.5  178.5 110.08  178.5 107  C 178.5 103.92  180.92 101.5  184 101.5  Z " stroke-width="1" stroke="#797979" fill="none" />
  <path d="M 184 110  C 182.32 110  181 108.68  181 107  C 181 105.32  182.32 104  184 104  C 185.68 104  187 105.32  187 107  C 187 108.68  185.68 110  184 110  " fill-rule="nonzero" fill="#797979" stroke="none" />
</svg>