<?xml version="1.0" encoding="utf-8"?>
<svg version="1.1" xmlns:xlink="http://www.w3.org/1999/xlink" width="12px" height="12px" viewBox="122 154  12 12" xmlns="http://www.w3.org/2000/svg">
  <path d="M 128 154  C 131.36 154  134 156.64  134 160  C 134 163.36  131.36 166  128 166  C 124.64 166  122 163.36  122 160  C 122 156.64  124.64 154  128 154  Z " fill-rule="nonzero" fill="#ffffff" stroke="none" />
  <path d="M 128 154.5  C 131.08 154.5  133.5 156.92  133.5 160  C 133.5 163.08  131.08 165.5  128 165.5  C 124.92 165.5  122.5 163.08  122.5 160  C 122.5 156.92  124.92 154.5  128 154.5  Z " stroke-width="1" stroke="#797979" fill="none" />
  <path d="M 128 163  C 126.32 163  125 161.68  125 160  C 125 158.32  126.32 157  128 157  C 129.68 157  131 158.32  131 160  C 131 161.68  129.68 163  128 163  " fill-rule="nonzero" fill="#797979" stroke="none" />
</svg>