<?xml version="1.0" encoding="utf-8"?>
<svg version="1.1" xmlns:xlink="http://www.w3.org/1999/xlink" width="12px" height="12px" viewBox="2369 353  12 12" xmlns="http://www.w3.org/2000/svg">
  <path d="M 2375 353  C 2378.36 353  2381 355.64  2381 359  C 2381 362.36  2378.36 365  2375 365  C 2371.64 365  2369 362.36  2369 359  C 2369 355.64  2371.64 353  2375 353  Z " fill-rule="nonzero" fill="#ffffff" stroke="none" />
  <path d="M 2375 353.5  C 2378.08 353.5  2380.5 355.92  2380.5 359  C 2380.5 362.08  2378.08 364.5  2375 364.5  C 2371.92 364.5  2369.5 362.08  2369.5 359  C 2369.5 355.92  2371.92 353.5  2375 353.5  Z " stroke-width="1" stroke="#797979" fill="none" />
  <path d="M 2375 362  C 2373.32 362  2372 360.68  2372 359  C 2372 357.32  2373.32 356  2375 356  C 2376.68 356  2378 357.32  2378 359  C 2378 360.68  2376.68 362  2375 362  " fill-rule="nonzero" fill="#797979" stroke="none" />
</svg>