<?xml version="1.0" encoding="utf-8"?>
<svg version="1.1" xmlns:xlink="http://www.w3.org/1999/xlink" width="12px" height="12px" viewBox="1934 262.5  12 12" xmlns="http://www.w3.org/2000/svg">
  <path d="M 1940 262.5  C 1943.36 262.5  1946 265.14  1946 268.5  C 1946 271.86  1943.36 274.5  1940 274.5  C 1936.64 274.5  1934 271.86  1934 268.5  C 1934 265.14  1936.64 262.5  1940 262.5  Z " fill-rule="nonzero" fill="#ffffff" stroke="none" />
  <path d="M 1940 263  C 1943.08 263  1945.5 265.42  1945.5 268.5  C 1945.5 271.58  1943.08 274  1940 274  C 1936.92 274  1934.5 271.58  1934.5 268.5  C 1934.5 265.42  1936.92 263  1940 263  Z " stroke-width="1" stroke="#797979" fill="none" />
  <path d="M 1940 271.5  C 1938.32 271.5  1937 270.18  1937 268.5  C 1937 266.82  1938.32 265.5  1940 265.5  C 1941.68 265.5  1943 266.82  1943 268.5  C 1943 270.18  1941.68 271.5  1940 271.5  " fill-rule="nonzero" fill="#797979" stroke="none" />
</svg>