<?xml version="1.0" encoding="utf-8"?>
<svg version="1.1" xmlns:xlink="http://www.w3.org/1999/xlink" width="12px" height="12px" viewBox="1982 262.5  12 12" xmlns="http://www.w3.org/2000/svg">
  <path d="M 1988 262.5  C 1991.36 262.5  1994 265.14  1994 268.5  C 1994 271.86  1991.36 274.5  1988 274.5  C 1984.64 274.5  1982 271.86  1982 268.5  C 1982 265.14  1984.64 262.5  1988 262.5  Z " fill-rule="nonzero" fill="#ffffff" stroke="none" />
  <path d="M 1988 263  C 1991.08 263  1993.5 265.42  1993.5 268.5  C 1993.5 271.58  1991.08 274  1988 274  C 1984.92 274  1982.5 271.58  1982.5 268.5  C 1982.5 265.42  1984.92 263  1988 263  Z " stroke-width="1" stroke="#797979" fill="none" />
  <path d="M 1988 271.5  C 1986.32 271.5  1985 270.18  1985 268.5  C 1985 266.82  1986.32 265.5  1988 265.5  C 1989.68 265.5  1991 266.82  1991 268.5  C 1991 270.18  1989.68 271.5  1988 271.5  " fill-rule="nonzero" fill="#797979" stroke="none" />
</svg>