<?xml version="1.0" encoding="utf-8"?>
<svg version="1.1" xmlns:xlink="http://www.w3.org/1999/xlink" width="12px" height="12px" viewBox="1982 426.5  12 12" xmlns="http://www.w3.org/2000/svg">
  <path d="M 1988 426.5  C 1991.36 426.5  1994 429.14  1994 432.5  C 1994 435.86  1991.36 438.5  1988 438.5  C 1984.64 438.5  1982 435.86  1982 432.5  C 1982 429.14  1984.64 426.5  1988 426.5  Z " fill-rule="nonzero" fill="#ffffff" stroke="none" />
  <path d="M 1988 427  C 1991.08 427  1993.5 429.42  1993.5 432.5  C 1993.5 435.58  1991.08 438  1988 438  C 1984.92 438  1982.5 435.58  1982.5 432.5  C 1982.5 429.42  1984.92 427  1988 427  Z " stroke-width="1" stroke="#797979" fill="none" />
  <path d="M 1988 435.5  C 1986.32 435.5  1985 434.18  1985 432.5  C 1985 430.82  1986.32 429.5  1988 429.5  C 1989.68 429.5  1991 430.82  1991 432.5  C 1991 434.18  1989.68 435.5  1988 435.5  " fill-rule="nonzero" fill="#797979" stroke="none" />
</svg>