<?xml version="1.0" encoding="utf-8"?>
<svg version="1.1" xmlns:xlink="http://www.w3.org/1999/xlink" width="12px" height="12px" viewBox="1934 426.5  12 12" xmlns="http://www.w3.org/2000/svg">
  <path d="M 1940 426.5  C 1943.36 426.5  1946 429.14  1946 432.5  C 1946 435.86  1943.36 438.5  1940 438.5  C 1936.64 438.5  1934 435.86  1934 432.5  C 1934 429.14  1936.64 426.5  1940 426.5  Z " fill-rule="nonzero" fill="#ffffff" stroke="none" />
  <path d="M 1940 427  C 1943.08 427  1945.5 429.42  1945.5 432.5  C 1945.5 435.58  1943.08 438  1940 438  C 1936.92 438  1934.5 435.58  1934.5 432.5  C 1934.5 429.42  1936.92 427  1940 427  Z " stroke-width="1" stroke="#797979" fill="none" />
  <path d="M 1940 435.5  C 1938.32 435.5  1937 434.18  1937 432.5  C 1937 430.82  1938.32 429.5  1940 429.5  C 1941.68 429.5  1943 430.82  1943 432.5  C 1943 434.18  1941.68 435.5  1940 435.5  " fill-rule="nonzero" fill="#797979" stroke="none" />
</svg>