<?xml version="1.0" encoding="utf-8"?>
<svg version="1.1" xmlns:xlink="http://www.w3.org/1999/xlink" width="12px" height="12px" viewBox="2370 262.5  12 12" xmlns="http://www.w3.org/2000/svg">
  <path d="M 2376 262.5  C 2379.36 262.5  2382 265.14  2382 268.5  C 2382 271.86  2379.36 274.5  2376 274.5  C 2372.64 274.5  2370 271.86  2370 268.5  C 2370 265.14  2372.64 262.5  2376 262.5  Z " fill-rule="nonzero" fill="#ffffff" stroke="none" />
  <path d="M 2376 263  C 2379.08 263  2381.5 265.42  2381.5 268.5  C 2381.5 271.58  2379.08 274  2376 274  C 2372.92 274  2370.5 271.58  2370.5 268.5  C 2370.5 265.42  2372.92 263  2376 263  Z " stroke-width="1" stroke="#797979" fill="none" />
  <path d="M 2376 271.5  C 2374.32 271.5  2373 270.18  2373 268.5  C 2373 266.82  2374.32 265.5  2376 265.5  C 2377.68 265.5  2379 266.82  2379 268.5  C 2379 270.18  2377.68 271.5  2376 271.5  " fill-rule="nonzero" fill="#797979" stroke="none" />
</svg>