<?xml version="1.0" encoding="utf-8"?>
<svg version="1.1" xmlns:xlink="http://www.w3.org/1999/xlink" width="12px" height="12px" viewBox="84 284.5  12 12" xmlns="http://www.w3.org/2000/svg">
  <path d="M 90 284.5  C 93.36 284.5  96 287.14  96 290.5  C 96 293.86  93.36 296.5  90 296.5  C 86.64 296.5  84 293.86  84 290.5  C 84 287.14  86.64 284.5  90 284.5  Z " fill-rule="nonzero" fill="#ffffff" stroke="none" />
  <path d="M 90 285  C 93.08 285  95.5 287.42  95.5 290.5  C 95.5 293.58  93.08 296  90 296  C 86.92 296  84.5 293.58  84.5 290.5  C 84.5 287.42  86.92 285  90 285  Z " stroke-width="1" stroke="#797979" fill="none" />
  <path d="M 90 293.5  C 88.32 293.5  87 292.18  87 290.5  C 87 288.82  88.32 287.5  90 287.5  C 91.68 287.5  93 288.82  93 290.5  C 93 292.18  91.68 293.5  90 293.5  " fill-rule="nonzero" fill="#797979" stroke="none" />
</svg>