<?xml version="1.0" encoding="utf-8"?>
<svg version="1.1" xmlns:xlink="http://www.w3.org/1999/xlink" width="157px" height="89px" xmlns="http://www.w3.org/2000/svg">
  <g transform="matrix(1 0 0 1 -39 -94 )">
    <path d="M 39 94  L 196 94  L 196 183  L 39 183  L 39 94  " fill-rule="nonzero" fill="#cccccc" stroke="none" />
    <path d="M 45 100  L 190 100  L 190 177  L 45 177  L 45 100  " fill-rule="nonzero" fill="#ffffff" stroke="none" />
    <path d="M 127.315 120.7  C 123.577 120.7  120.64 117.763  120.64 114.025  C 120.64 110.287  123.577 107.35  127.315 107.35  C 131.053 107.35  133.99 110.287  133.99 114.025  C 133.99 117.763  131.053 120.7  127.315 120.7  " fill-rule="nonzero" fill="#cccccc" stroke="none" />
    <path d="M 47 175  L 47 134.85  L 82.25 116.6  L 131.6 150.170700636943  L 159.8 127.55  L 188 150.170700636943  L 188 175  L 47 175  " fill-rule="nonzero" fill="#169bd5" stroke="none" />
  </g>
</svg>