<?xml version="1.0" encoding="utf-8"?>
<svg version="1.1" xmlns:xlink="http://www.w3.org/1999/xlink" width="30px" height="30px" xmlns="http://www.w3.org/2000/svg">
  <g transform="matrix(1 0 0 1 -557 -421 )">
    <path d="M 572 422  C 579.84 422  586 428.16  586 436  C 586 443.84  579.84 450  572 450  C 564.16 450  558 443.84  558 436  C 558 428.16  564.16 422  572 422  Z " fill-rule="nonzero" fill="#ffffff" stroke="none" />
    <path d="M 572 422  C 579.84 422  586 428.16  586 436  C 586 443.84  579.84 450  572 450  C 564.16 450  558 443.84  558 436  C 558 428.16  564.16 422  572 422  Z " stroke-width="2" stroke="#d9001b" fill="none" />
  </g>
</svg>