<?xml version="1.0" encoding="utf-8"?>
<svg version="1.1" xmlns:xlink="http://www.w3.org/1999/xlink" width="12px" height="12px" viewBox="21 824.5  12 12" xmlns="http://www.w3.org/2000/svg">
  <path d="M 27 824.5  C 30.36 824.5  33 827.14  33 830.5  C 33 833.86  30.36 836.5  27 836.5  C 23.64 836.5  21 833.86  21 830.5  C 21 827.14  23.64 824.5  27 824.5  Z " fill-rule="nonzero" fill="#ffffff" stroke="none" />
  <path d="M 27 825  C 30.08 825  32.5 827.42  32.5 830.5  C 32.5 833.58  30.08 836  27 836  C 23.92 836  21.5 833.58  21.5 830.5  C 21.5 827.42  23.92 825  27 825  Z " stroke-width="1" stroke="#797979" fill="none" />
  <path d="M 27 833.5  C 25.32 833.5  24 832.18  24 830.5  C 24 828.82  25.32 827.5  27 827.5  C 28.68 827.5  30 828.82  30 830.5  C 30 832.18  28.68 833.5  27 833.5  " fill-rule="nonzero" fill="#797979" stroke="none" />
</svg>