<?xml version="1.0" encoding="utf-8"?>
<svg version="1.1" xmlns:xlink="http://www.w3.org/1999/xlink" width="12px" height="12px" viewBox="21 967.5  12 12" xmlns="http://www.w3.org/2000/svg">
  <path d="M 27 967.5  C 30.36 967.5  33 970.14  33 973.5  C 33 976.86  30.36 979.5  27 979.5  C 23.64 979.5  21 976.86  21 973.5  C 21 970.14  23.64 967.5  27 967.5  Z " fill-rule="nonzero" fill="#ffffff" stroke="none" />
  <path d="M 27 968  C 30.08 968  32.5 970.42  32.5 973.5  C 32.5 976.58  30.08 979  27 979  C 23.92 979  21.5 976.58  21.5 973.5  C 21.5 970.42  23.92 968  27 968  Z " stroke-width="1" stroke="#797979" fill="none" />
  <path d="M 27 976.5  C 25.32 976.5  24 975.18  24 973.5  C 24 971.82  25.32 970.5  27 970.5  C 28.68 970.5  30 971.82  30 973.5  C 30 975.18  28.68 976.5  27 976.5  " fill-rule="nonzero" fill="#797979" stroke="none" />
</svg>