<?xml version="1.0" encoding="utf-8"?>
<svg version="1.1" xmlns:xlink="http://www.w3.org/1999/xlink" width="12px" height="12px" viewBox="21 1002.5  12 12" xmlns="http://www.w3.org/2000/svg">
  <path d="M 27 1002.5  C 30.36 1002.5  33 1005.14  33 1008.5  C 33 1011.86  30.36 1014.5  27 1014.5  C 23.64 1014.5  21 1011.86  21 1008.5  C 21 1005.14  23.64 1002.5  27 1002.5  Z " fill-rule="nonzero" fill="#ffffff" stroke="none" />
  <path d="M 27 1003  C 30.08 1003  32.5 1005.42  32.5 1008.5  C 32.5 1011.58  30.08 1014  27 1014  C 23.92 1014  21.5 1011.58  21.5 1008.5  C 21.5 1005.42  23.92 1003  27 1003  Z " stroke-width="1" stroke="#797979" fill="none" />
  <path d="M 27 1011.5  C 25.32 1011.5  24 1010.18  24 1008.5  C 24 1006.82  25.32 1005.5  27 1005.5  C 28.68 1005.5  30 1006.82  30 1008.5  C 30 1010.18  28.68 1011.5  27 1011.5  " fill-rule="nonzero" fill="#797979" stroke="none" />
</svg>