<?xml version="1.0" encoding="utf-8"?>
<svg version="1.1" xmlns:xlink="http://www.w3.org/1999/xlink" width="12px" height="12px" viewBox="267 677  12 12" xmlns="http://www.w3.org/2000/svg">
  <path d="M 273 677  C 276.36 677  279 679.64  279 683  C 279 686.36  276.36 689  273 689  C 269.64 689  267 686.36  267 683  C 267 679.64  269.64 677  273 677  Z " fill-rule="nonzero" fill="#ffffff" stroke="none" />
  <path d="M 273 677.5  C 276.08 677.5  278.5 679.92  278.5 683  C 278.5 686.08  276.08 688.5  273 688.5  C 269.92 688.5  267.5 686.08  267.5 683  C 267.5 679.92  269.92 677.5  273 677.5  Z " stroke-width="1" stroke="#797979" fill="none" />
  <path d="M 273 686  C 271.32 686  270 684.68  270 683  C 270 681.32  271.32 680  273 680  C 274.68 680  276 681.32  276 683  C 276 684.68  274.68 686  273 686  " fill-rule="nonzero" fill="#797979" stroke="none" />
</svg>