<?xml version="1.0" encoding="utf-8"?>
<svg version="1.1" xmlns:xlink="http://www.w3.org/1999/xlink" width="12px" height="12px" viewBox="136 636  12 12" xmlns="http://www.w3.org/2000/svg">
  <path d="M 142 636  C 145.36 636  148 638.64  148 642  C 148 645.36  145.36 648  142 648  C 138.64 648  136 645.36  136 642  C 136 638.64  138.64 636  142 636  Z " fill-rule="nonzero" fill="#ffffff" stroke="none" />
  <path d="M 142 636.5  C 145.08 636.5  147.5 638.92  147.5 642  C 147.5 645.08  145.08 647.5  142 647.5  C 138.92 647.5  136.5 645.08  136.5 642  C 136.5 638.92  138.92 636.5  142 636.5  Z " stroke-width="1" stroke="#797979" fill="none" />
  <path d="M 142 645  C 140.32 645  139 643.68  139 642  C 139 640.32  140.32 639  142 639  C 143.68 639  145 640.32  145 642  C 145 643.68  143.68 645  142 645  " fill-rule="nonzero" fill="#797979" stroke="none" />
</svg>