<?xml version="1.0" encoding="utf-8"?>
<svg version="1.1" xmlns:xlink="http://www.w3.org/1999/xlink" width="12px" height="12px" viewBox="133 186  12 12" xmlns="http://www.w3.org/2000/svg">
  <path d="M 139 186  C 142.36 186  145 188.64  145 192  C 145 195.36  142.36 198  139 198  C 135.64 198  133 195.36  133 192  C 133 188.64  135.64 186  139 186  Z " fill-rule="nonzero" fill="#ffffff" stroke="none" />
  <path d="M 139 186.5  C 142.08 186.5  144.5 188.92  144.5 192  C 144.5 195.08  142.08 197.5  139 197.5  C 135.92 197.5  133.5 195.08  133.5 192  C 133.5 188.92  135.92 186.5  139 186.5  Z " stroke-width="1" stroke="#797979" fill="none" />
  <path d="M 139 195  C 137.32 195  136 193.68  136 192  C 136 190.32  137.32 189  139 189  C 140.68 189  142 190.32  142 192  C 142 193.68  140.68 195  139 195  " fill-rule="nonzero" fill="#797979" stroke="none" />
</svg>