<?xml version="1.0" encoding="utf-8"?>
<svg version="1.1" xmlns:xlink="http://www.w3.org/1999/xlink" width="12px" height="12px" viewBox="136 677  12 12" xmlns="http://www.w3.org/2000/svg">
  <path d="M 142 677  C 145.36 677  148 679.64  148 683  C 148 686.36  145.36 689  142 689  C 138.64 689  136 686.36  136 683  C 136 679.64  138.64 677  142 677  Z " fill-rule="nonzero" fill="#ffffff" stroke="none" />
  <path d="M 142 677.5  C 145.08 677.5  147.5 679.92  147.5 683  C 147.5 686.08  145.08 688.5  142 688.5  C 138.92 688.5  136.5 686.08  136.5 683  C 136.5 679.92  138.92 677.5  142 677.5  Z " stroke-width="1" stroke="#797979" fill="none" />
  <path d="M 142 686  C 140.32 686  139 684.68  139 683  C 139 681.32  140.32 680  142 680  C 143.68 680  145 681.32  145 683  C 145 684.68  143.68 686  142 686  " fill-rule="nonzero" fill="#797979" stroke="none" />
</svg>