<?xml version="1.0" encoding="utf-8"?>
<svg version="1.1" xmlns:xlink="http://www.w3.org/1999/xlink" width="12px" height="12px" viewBox="264 186  12 12" xmlns="http://www.w3.org/2000/svg">
  <path d="M 270 186  C 273.36 186  276 188.64  276 192  C 276 195.36  273.36 198  270 198  C 266.64 198  264 195.36  264 192  C 264 188.64  266.64 186  270 186  Z " fill-rule="nonzero" fill="#ffffff" stroke="none" />
  <path d="M 270 186.5  C 273.08 186.5  275.5 188.92  275.5 192  C 275.5 195.08  273.08 197.5  270 197.5  C 266.92 197.5  264.5 195.08  264.5 192  C 264.5 188.92  266.92 186.5  270 186.5  Z " stroke-width="1" stroke="#797979" fill="none" />
  <path d="M 270 195  C 268.32 195  267 193.68  267 192  C 267 190.32  268.32 189  270 189  C 271.68 189  273 190.32  273 192  C 273 193.68  271.68 195  270 195  " fill-rule="nonzero" fill="#797979" stroke="none" />
</svg>