<?xml version="1.0" encoding="utf-8"?>
<svg version="1.1" xmlns:xlink="http://www.w3.org/1999/xlink" width="12px" height="12px" viewBox="266 636  12 12" xmlns="http://www.w3.org/2000/svg">
  <path d="M 272 636  C 275.36 636  278 638.64  278 642  C 278 645.36  275.36 648  272 648  C 268.64 648  266 645.36  266 642  C 266 638.64  268.64 636  272 636  Z " fill-rule="nonzero" fill="#ffffff" stroke="none" />
  <path d="M 272 636.5  C 275.08 636.5  277.5 638.92  277.5 642  C 277.5 645.08  275.08 647.5  272 647.5  C 268.92 647.5  266.5 645.08  266.5 642  C 266.5 638.92  268.92 636.5  272 636.5  Z " stroke-width="1" stroke="#797979" fill="none" />
  <path d="M 272 645  C 270.32 645  269 643.68  269 642  C 269 640.32  270.32 639  272 639  C 273.68 639  275 640.32  275 642  C 275 643.68  273.68 645  272 645  " fill-rule="nonzero" fill="#797979" stroke="none" />
</svg>