<?xml version="1.0" encoding="utf-8"?>
<svg version="1.1" xmlns:xlink="http://www.w3.org/1999/xlink" width="12px" height="12px" viewBox="396 636  12 12" xmlns="http://www.w3.org/2000/svg">
  <path d="M 402 636  C 405.36 636  408 638.64  408 642  C 408 645.36  405.36 648  402 648  C 398.64 648  396 645.36  396 642  C 396 638.64  398.64 636  402 636  Z " fill-rule="nonzero" fill="#ffffff" stroke="none" />
  <path d="M 402 636.5  C 405.08 636.5  407.5 638.92  407.5 642  C 407.5 645.08  405.08 647.5  402 647.5  C 398.92 647.5  396.5 645.08  396.5 642  C 396.5 638.92  398.92 636.5  402 636.5  Z " stroke-width="1" stroke="#797979" fill="none" />
  <path d="M 402 645  C 400.32 645  399 643.68  399 642  C 399 640.32  400.32 639  402 639  C 403.68 639  405 640.32  405 642  C 405 643.68  403.68 645  402 645  " fill-rule="nonzero" fill="#797979" stroke="none" />
</svg>