<?xml version="1.0" encoding="utf-8"?>
<svg version="1.1" xmlns:xlink="http://www.w3.org/1999/xlink" width="12px" height="12px" viewBox="175 521  12 12" xmlns="http://www.w3.org/2000/svg">
  <path d="M 181 521  C 184.36 521  187 523.64  187 527  C 187 530.36  184.36 533  181 533  C 177.64 533  175 530.36  175 527  C 175 523.64  177.64 521  181 521  Z " fill-rule="nonzero" fill="#ffffff" stroke="none" />
  <path d="M 181 521.5  C 184.08 521.5  186.5 523.92  186.5 527  C 186.5 530.08  184.08 532.5  181 532.5  C 177.92 532.5  175.5 530.08  175.5 527  C 175.5 523.92  177.92 521.5  181 521.5  Z " stroke-width="1" stroke="#797979" fill="none" />
  <path d="M 181 530  C 179.32 530  178 528.68  178 527  C 178 525.32  179.32 524  181 524  C 182.68 524  184 525.32  184 527  C 184 528.68  182.68 530  181 530  " fill-rule="nonzero" fill="#797979" stroke="none" />
</svg>