<?xml version="1.0" encoding="utf-8"?>
<svg version="1.1" xmlns:xlink="http://www.w3.org/1999/xlink" width="174px" height="160px" xmlns="http://www.w3.org/2000/svg">
  <g transform="matrix(1 0 0 1 -35 -182 )">
    <path d="M 35 182  L 209 182  L 209 342  L 35 342  L 35 182  " fill-rule="nonzero" fill="#cccccc" stroke="none" />
    <path d="M 46 193  L 198 193  L 198 331  L 46 331  L 46 193  " fill-rule="nonzero" fill="#ffffff" stroke="none" />
    <path d="M 137.48 230  C 130.76 230  125.48 224.72  125.48 218  C 125.48 211.28  130.76 206  137.48 206  C 144.2 206  149.48 211.28  149.48 218  C 149.48 224.72  144.2 230  137.48 230  " fill-rule="nonzero" fill="#cccccc" stroke="none" />
    <path d="M 50 327  L 50 255.5  L 86 223  L 136.4 255.275862068966  L 165.2 242.5  L 194 255.275862068966  L 194 327  L 50 327  " fill-rule="nonzero" fill="#169bd5" stroke="none" />
  </g>
</svg>