<?xml version="1.0" encoding="utf-8"?>
<svg version="1.1" xmlns:xlink="http://www.w3.org/1999/xlink" width="1200px" height="48px" xmlns="http://www.w3.org/2000/svg">
  <defs>
    <mask fill="white" id="clip70">
      <path d="M 0 48  L 0 0  L 185 0  L 259 0  L 340 0  L 1200 0  L 1200 48  L 0 48  Z " fill-rule="evenodd" />
    </mask>
  </defs>
  <g transform="matrix(1 0 0 1 0 -652 )">
    <path d="M 0 48  L 0 0  L 185 0  L 259 0  L 340 0  L 1200 0  L 1200 48  L 0 48  Z " fill-rule="nonzero" fill="#ffffff" stroke="none" transform="matrix(1 0 0 1 0 652 )" />
    <path d="M 0 48  L 0 0  L 185 0  L 259 0  L 340 0  L 1200 0  L 1200 48  L 0 48  Z " stroke-width="2" stroke="#d7d7d7" fill="none" transform="matrix(1 0 0 1 0 652 )" mask="url(#clip70)" />
  </g>
</svg>