<?xml version="1.0" encoding="utf-8"?>
<svg version="1.1" xmlns:xlink="http://www.w3.org/1999/xlink" width="676px" height="34px" xmlns="http://www.w3.org/2000/svg">
  <defs>
    <mask fill="white" id="clip72">
      <path d="M 0 34  L 0 0  L 109.558620689655 0  L 676 0  L 676 34  L 471.791666666667 34  L 0 34  Z " fill-rule="evenodd" />
    </mask>
  </defs>
  <g transform="matrix(1 0 0 1 -103 -505 )">
    <path d="M 0 34  L 0 0  L 109.558620689655 0  L 676 0  L 676 34  L 471.791666666667 34  L 0 34  Z " fill-rule="nonzero" fill="#393939" stroke="none" transform="matrix(1 0 0 1 103 505 )" />
    <path d="M 0 34  L 0 0  L 109.558620689655 0  L 676 0  L 676 34  L 471.791666666667 34  L 0 34  Z " stroke-width="2" stroke="#797979" fill="none" transform="matrix(1 0 0 1 103 505 )" mask="url(#clip72)" />
  </g>
</svg>