<?xml version="1.0" encoding="utf-8"?>
<svg version="1.1" xmlns:xlink="http://www.w3.org/1999/xlink" width="164px" height="257px" xmlns="http://www.w3.org/2000/svg">
  <g transform="matrix(1 0 0 1 -444 -96 )">
    <path d="M 3 253.7968  L 3 227.7872  L 3 212.7504  L 3 202.184  L 1.09037095855761 191.2112  L 2.875 180.6448  L 0.635297907986264 167.806011706014  L 4.11753178604329 161.9504  L 4.11753178604329 153.184263053525  L 4.99288912957455 146.049284125502  L 6.13333333333334 136.7536  L 8.95282449777678 126.56522623514  L 13.1735948666595 111.313259271692  L 15.9502468688895 101.279686983746  L 19.7416666666667 87.5792  L 23.7666666666667 71.7296  L 27.7916666666667 58.1152000000001  L 31.0214319222714 49.2093651520062  L 35.075 30.6832  L 41.4 21.336  L 43.3166666666667 10.7696  L 51.3666666666667 5.89279999999995  L 160.041666666667 0.508  " stroke-width="2" stroke="#ff0000" fill="none" transform="matrix(1 0 0 1 445 97 )" />
  </g>
</svg>