<?xml version="1.0" encoding="utf-8"?>
<svg version="1.1" xmlns:xlink="http://www.w3.org/1999/xlink" width="201px" height="257px" xmlns="http://www.w3.org/2000/svg">
  <g transform="matrix(1 0 0 1 -424 -77 )">
    <path d="M 2.61778846153846 253.7968  L 5.24744177041655 229.338372093023  L 3 212.7504  L 3 202.184  L 0.401923807239167 191.2112  L 2.61778846153846 180.6448  L 5.24744177041655 172.631395348837  L 4.16056413233636 161.9504  L 4.16056413233636 153.184263053525  L 5.24744177041655 146.049284125502  L 6.66346153846154 136.7536  L 10.164251153176 126.56522623514  L 15.4049233921316 111.313259271692  L 18.8525222410543 101.279686983746  L 23.5600961538461 87.5792  L 28.5576923076923 71.7296  L 32.9639760379051 59.7260472178407  L 33.5552884615385 58.1152  L 33.5552884615385 52.1290697674419  L 34 46.8127906976744  L 34 32.0453488372093  L 37.5654903048269 16.6872093023256  L 50.0711538461538 9.59883720930232  L 62.8269230769231 5.89279999999995  L 197.762019230769 0.507999999999991  " stroke-width="2" stroke="#0099ff" fill="none" transform="matrix(1 0 0 1 425 78 )" />
  </g>
</svg>