<?xml version="1.0" encoding="utf-8"?>
<svg version="1.1" xmlns:xlink="http://www.w3.org/1999/xlink" width="12px" height="12px" viewBox="619 343  12 12" xmlns="http://www.w3.org/2000/svg">
  <path d="M 625 343  C 628.36 343  631 345.64  631 349  C 631 352.36  628.36 355  625 355  C 621.64 355  619 352.36  619 349  C 619 345.64  621.64 343  625 343  Z " fill-rule="nonzero" fill="#ffffff" stroke="none" />
  <path d="M 625 343.5  C 628.08 343.5  630.5 345.92  630.5 349  C 630.5 352.08  628.08 354.5  625 354.5  C 621.92 354.5  619.5 352.08  619.5 349  C 619.5 345.92  621.92 343.5  625 343.5  Z " stroke-width="1" stroke="#797979" fill="none" />
  <path d="M 625 352  C 623.32 352  622 350.68  622 349  C 622 347.32  623.32 346  625 346  C 626.68 346  628 347.32  628 349  C 628 350.68  626.68 352  625 352  " fill-rule="nonzero" fill="#797979" stroke="none" />
</svg>