<?xml version="1.0" encoding="utf-8"?>
<svg version="1.1" xmlns:xlink="http://www.w3.org/1999/xlink" width="18px" height="18px" xmlns="http://www.w3.org/2000/svg">
  <g transform="matrix(1 0 0 1 -173 -51 )">
    <path d="M 10.9741586538463 7.02584134615385  C 11.0426682692309 7.09435096153846  11.0769230769231 7.17548076923075  11.0769230769231 7.26923076923078  L 11.0769230769231 7.96153846153844  C 11.0769230769231 8.05528846153847  11.0426682692309 8.13641826923076  10.9741586538463 8.20492788461537  C 10.9056490384614 8.27343750000001  10.8245192307691 8.3076923076923  10.7307692307691 8.3076923076923  L 4.5 8.3076923076923  C 4.40625 8.3076923076923  4.32512019230771 8.27343750000001  4.25661057692314 8.20492788461537  C 4.18810096153857 8.13641826923076  4.15384615384628 8.05528846153847  4.15384615384628 7.96153846153844  L 4.15384615384628 7.26923076923078  C 4.15384615384628 7.17548076923075  4.18810096153857 7.09435096153846  4.25661057692314 7.02584134615385  C 4.32512019230771 6.95733173076925  4.40625 6.92307692307693  4.5 6.92307692307693  L 10.7307692307691 6.92307692307693  C 10.8245192307691 6.92307692307693  10.9056490384614 6.95733173076925  10.9741586538463 7.02584134615385  Z M 11.0390625 11.0390625  C 11.9873798076923 10.0907451923077  12.4615384615386 8.94951923076924  12.4615384615386 7.61538461538463  C 12.4615384615386 6.28124999999999  11.9873798076923 5.14002403846154  11.0390625 4.19170673076922  C 10.0907451923077 3.24338942307694  8.94951923076915 2.76923076923078  7.61538461538457 2.76923076923078  C 6.28125 2.76923076923078  5.14002403846143 3.24338942307694  4.19170673076915 4.19170673076922  C 3.24338942307686 5.14002403846154  2.76923076923085 6.28124999999999  2.76923076923085 7.61538461538463  C 2.76923076923085 8.94951923076924  3.24338942307686 10.0907451923077  4.19170673076915 11.0390625  C 5.14002403846143 11.9873798076923  6.28125 12.4615384615384  7.61538461538457 12.4615384615384  C 8.94951923076915 12.4615384615384  10.0907451923077 11.9873798076923  11.0390625 11.0390625  Z M 17.5997596153846 15.6418269230769  C 17.8665865384614 15.9086538461538  18 16.2331730769231  18 16.6153846153846  C 18 16.9975961538462  17.8647836538463 17.3239182692308  17.5943509615386 17.5943509615384  C 17.3239182692309 17.8647836538462  16.9975961538463 18  16.6153846153846 18  C 16.2259615384614 18  15.9014423076923 17.8629807692308  15.6418269230769 17.5889423076923  L 11.9314903846154 13.8894230769231  C 10.640625 14.7836538461538  9.20192307692314 15.2307692307692  7.61538461538457 15.2307692307692  C 6.58413461538457 15.2307692307692  5.59795673076915 15.0306490384616  4.65685096153857 14.6304086538461  C 3.71574519230771 14.2301682692308  2.90444711538457 13.6893028846154  2.22295673076915 13.0078125  C 1.54146634615372 12.3263221153846  1.00060096153857 11.5150240384616  0.60036057692314 10.5739182692308  C 0.200120192307713 9.6328125  0 8.6466346153846  0 7.61538461538463  C 0 6.58413461538462  0.200120192307713 5.59795673076922  0.60036057692314 4.65685096153844  C 1.00060096153857 3.7157451923077  1.54146634615372 2.90444711538463  2.22295673076915 2.22295673076922  C 2.90444711538457 1.54146634615385  3.71574519230771 1.00060096153844  4.65685096153857 0.600360576923074  C 5.59795673076915 0.200120192307704  6.58413461538457 0  7.61538461538457 0  C 8.64663461538457 0  9.6328125 0.200120192307704  10.5739182692309 0.600360576923074  C 11.5150240384614 1.00060096153844  12.3263221153846 1.54146634615385  13.0078125 2.22295673076922  C 13.6893028846154 2.90444711538463  14.2301682692309 3.7157451923077  14.6304086538463 4.65685096153844  C 15.0306490384614 5.59795673076922  15.2307692307691 6.58413461538462  15.2307692307691 7.61538461538463  C 15.2307692307691 9.20192307692306  14.7836538461537 10.640625  13.8894230769231 11.9314903846154  L 17.5997596153846 15.6418269230769  Z " fill-rule="nonzero" fill="#a1a1a1" stroke="none" transform="matrix(1 0 0 1 173 51 )" />
  </g>
</svg>