<?xml version="1.0" encoding="utf-8"?>
<svg version="1.1" xmlns:xlink="http://www.w3.org/1999/xlink" width="12px" height="12px" viewBox="619 308  12 12" xmlns="http://www.w3.org/2000/svg">
  <path d="M 625 308  C 628.36 308  631 310.64  631 314  C 631 317.36  628.36 320  625 320  C 621.64 320  619 317.36  619 314  C 619 310.64  621.64 308  625 308  Z " fill-rule="nonzero" fill="#ffffff" stroke="none" />
  <path d="M 625 308.5  C 628.08 308.5  630.5 310.92  630.5 314  C 630.5 317.08  628.08 319.5  625 319.5  C 621.92 319.5  619.5 317.08  619.5 314  C 619.5 310.92  621.92 308.5  625 308.5  Z " stroke-width="1" stroke="#797979" fill="none" />
  <path d="M 625 317  C 623.32 317  622 315.68  622 314  C 622 312.32  623.32 311  625 311  C 626.68 311  628 312.32  628 314  C 628 315.68  626.68 317  625 317  " fill-rule="nonzero" fill="#797979" stroke="none" />
</svg>