<?xml version="1.0" encoding="utf-8"?>
<svg version="1.1" xmlns:xlink="http://www.w3.org/1999/xlink" width="12px" height="12px" viewBox="13 130  12 12" xmlns="http://www.w3.org/2000/svg">
  <path d="M 19 130  C 22.36 130  25 132.64  25 136  C 25 139.36  22.36 142  19 142  C 15.64 142  13 139.36  13 136  C 13 132.64  15.64 130  19 130  Z " fill-rule="nonzero" fill="#ffffff" stroke="none" />
  <path d="M 19 130.5  C 22.08 130.5  24.5 132.92  24.5 136  C 24.5 139.08  22.08 141.5  19 141.5  C 15.92 141.5  13.5 139.08  13.5 136  C 13.5 132.92  15.92 130.5  19 130.5  Z " stroke-width="1" stroke="#797979" fill="none" />
  <path d="M 19 139  C 17.32 139  16 137.68  16 136  C 16 134.32  17.32 133  19 133  C 20.68 133  22 134.32  22 136  C 22 137.68  20.68 139  19 139  " fill-rule="nonzero" fill="#797979" stroke="none" />
</svg>