<?xml version="1.0" encoding="utf-8"?>
<svg version="1.1" xmlns:xlink="http://www.w3.org/1999/xlink" width="12px" height="12px" viewBox="13 199  12 12" xmlns="http://www.w3.org/2000/svg">
  <path d="M 19 199  C 22.36 199  25 201.64  25 205  C 25 208.36  22.36 211  19 211  C 15.64 211  13 208.36  13 205  C 13 201.64  15.64 199  19 199  Z " fill-rule="nonzero" fill="#ffffff" stroke="none" />
  <path d="M 19 199.5  C 22.08 199.5  24.5 201.92  24.5 205  C 24.5 208.08  22.08 210.5  19 210.5  C 15.92 210.5  13.5 208.08  13.5 205  C 13.5 201.92  15.92 199.5  19 199.5  Z " stroke-width="1" stroke="#797979" fill="none" />
  <path d="M 19 208  C 17.32 208  16 206.68  16 205  C 16 203.32  17.32 202  19 202  C 20.68 202  22 203.32  22 205  C 22 206.68  20.68 208  19 208  " fill-rule="nonzero" fill="#797979" stroke="none" />
</svg>