<?xml version="1.0" encoding="utf-8"?>
<svg version="1.1" xmlns:xlink="http://www.w3.org/1999/xlink" width="558px" height="635px" xmlns="http://www.w3.org/2000/svg">
  <g transform="matrix(1 0 0 1 -17 -111 )">
    <path d="M 17 111  L 575 111  L 575 746  L 17 746  L 17 111  " fill-rule="nonzero" fill="#cccccc" stroke="none" />
    <path d="M 56 150  L 536 150  L 536 707  L 56 707  L 56 150  " fill-rule="nonzero" fill="#ffffff" stroke="none" />
    <path d="M 349.01 289.95  C 325.574 289.95  307.16 271.536  307.16 248.1  C 307.16 224.664  325.574 206.25  349.01 206.25  C 372.446 206.25  390.86 224.664  390.86 248.1  C 390.86 271.536  372.446 289.95  349.01 289.95  " fill-rule="nonzero" fill="#cccccc" stroke="none" />
    <path d="M 70 693  L 70 402.05  L 183 269.8  L 341.2 375.6  L 431.6 349.15  L 522 375.6  L 522 693  L 70 693  " fill-rule="nonzero" fill="#169bd5" stroke="none" />
  </g>
</svg>