<?xml version="1.0" encoding="utf-8"?>
<svg version="1.1" xmlns:xlink="http://www.w3.org/1999/xlink" width="12px" height="12px" viewBox="619 239  12 12" xmlns="http://www.w3.org/2000/svg">
  <path d="M 625 239  C 628.36 239  631 241.64  631 245  C 631 248.36  628.36 251  625 251  C 621.64 251  619 248.36  619 245  C 619 241.64  621.64 239  625 239  Z " fill-rule="nonzero" fill="#ffffff" stroke="none" />
  <path d="M 625 239.5  C 628.08 239.5  630.5 241.92  630.5 245  C 630.5 248.08  628.08 250.5  625 250.5  C 621.92 250.5  619.5 248.08  619.5 245  C 619.5 241.92  621.92 239.5  625 239.5  Z " stroke-width="1" stroke="#797979" fill="none" />
  <path d="M 625 248  C 623.32 248  622 246.68  622 245  C 622 243.32  623.32 242  625 242  C 626.68 242  628 243.32  628 245  C 628 246.68  626.68 248  625 248  " fill-rule="nonzero" fill="#797979" stroke="none" />
</svg>