<?xml version="1.0" encoding="utf-8"?>
<svg version="1.1" xmlns:xlink="http://www.w3.org/1999/xlink" width="12px" height="12px" viewBox="13 234  12 12" xmlns="http://www.w3.org/2000/svg">
  <path d="M 19 234  C 22.36 234  25 236.64  25 240  C 25 243.36  22.36 246  19 246  C 15.64 246  13 243.36  13 240  C 13 236.64  15.64 234  19 234  Z " fill-rule="nonzero" fill="#ffffff" stroke="none" />
  <path d="M 19 234.5  C 22.08 234.5  24.5 236.92  24.5 240  C 24.5 243.08  22.08 245.5  19 245.5  C 15.92 245.5  13.5 243.08  13.5 240  C 13.5 236.92  15.92 234.5  19 234.5  Z " stroke-width="1" stroke="#797979" fill="none" />
  <path d="M 19 243  C 17.32 243  16 241.68  16 240  C 16 238.32  17.32 237  19 237  C 20.68 237  22 238.32  22 240  C 22 241.68  20.68 243  19 243  " fill-rule="nonzero" fill="#797979" stroke="none" />
</svg>