<?xml version="1.0" encoding="utf-8"?>
<svg version="1.1" xmlns:xlink="http://www.w3.org/1999/xlink" width="12px" height="12px" viewBox="619 170  12 12" xmlns="http://www.w3.org/2000/svg">
  <path d="M 625 170  C 628.36 170  631 172.64  631 176  C 631 179.36  628.36 182  625 182  C 621.64 182  619 179.36  619 176  C 619 172.64  621.64 170  625 170  Z " fill-rule="nonzero" fill="#ffffff" stroke="none" />
  <path d="M 625 170.5  C 628.08 170.5  630.5 172.92  630.5 176  C 630.5 179.08  628.08 181.5  625 181.5  C 621.92 181.5  619.5 179.08  619.5 176  C 619.5 172.92  621.92 170.5  625 170.5  Z " stroke-width="1" stroke="#797979" fill="none" />
  <path d="M 625 179  C 623.32 179  622 177.68  622 176  C 622 174.32  623.32 173  625 173  C 626.68 173  628 174.32  628 176  C 628 177.68  626.68 179  625 179  " fill-rule="nonzero" fill="#797979" stroke="none" />
</svg>