<?xml version="1.0" encoding="utf-8"?>
<svg version="1.1" xmlns:xlink="http://www.w3.org/1999/xlink" width="12px" height="12px" viewBox="178 136  12 12" xmlns="http://www.w3.org/2000/svg">
  <path d="M 184 136  C 187.36 136  190 138.64  190 142  C 190 145.36  187.36 148  184 148  C 180.64 148  178 145.36  178 142  C 178 138.64  180.64 136  184 136  Z " fill-rule="nonzero" fill="#ffffff" stroke="none" />
  <path d="M 184 136.5  C 187.08 136.5  189.5 138.92  189.5 142  C 189.5 145.08  187.08 147.5  184 147.5  C 180.92 147.5  178.5 145.08  178.5 142  C 178.5 138.92  180.92 136.5  184 136.5  Z " stroke-width="1" stroke="#797979" fill="none" />
  <path d="M 184 145  C 182.32 145  181 143.68  181 142  C 181 140.32  182.32 139  184 139  C 185.68 139  187 140.32  187 142  C 187 143.68  185.68 145  184 145  " fill-rule="nonzero" fill="#797979" stroke="none" />
</svg>