<?xml version="1.0" encoding="utf-8"?>
<svg version="1.1" xmlns:xlink="http://www.w3.org/1999/xlink" width="12px" height="12px" viewBox="11 174.5  12 12" xmlns="http://www.w3.org/2000/svg">
  <path d="M 17 174.5  C 20.36 174.5  23 177.14  23 180.5  C 23 183.86  20.36 186.5  17 186.5  C 13.64 186.5  11 183.86  11 180.5  C 11 177.14  13.64 174.5  17 174.5  Z " fill-rule="nonzero" fill="#ffffff" stroke="none" />
  <path d="M 17 175  C 20.08 175  22.5 177.42  22.5 180.5  C 22.5 183.58  20.08 186  17 186  C 13.92 186  11.5 183.58  11.5 180.5  C 11.5 177.42  13.92 175  17 175  Z " stroke-width="1" stroke="#797979" fill="none" />
  <path d="M 17 183.5  C 15.32 183.5  14 182.18  14 180.5  C 14 178.82  15.32 177.5  17 177.5  C 18.68 177.5  20 178.82  20 180.5  C 20 182.18  18.68 183.5  17 183.5  " fill-rule="nonzero" fill="#797979" stroke="none" />
</svg>