<?xml version="1.0" encoding="utf-8"?>
<svg version="1.1" xmlns:xlink="http://www.w3.org/1999/xlink" width="12px" height="12px" viewBox="2 107.5  12 12" xmlns="http://www.w3.org/2000/svg">
  <path d="M 8 107.5  C 11.36 107.5  14 110.14  14 113.5  C 14 116.86  11.36 119.5  8 119.5  C 4.64 119.5  2 116.86  2 113.5  C 2 110.14  4.64 107.5  8 107.5  Z " fill-rule="nonzero" fill="#ffffff" stroke="none" />
  <path d="M 8 108  C 11.08 108  13.5 110.42  13.5 113.5  C 13.5 116.58  11.08 119  8 119  C 4.92 119  2.5 116.58  2.5 113.5  C 2.5 110.42  4.92 108  8 108  Z " stroke-width="1" stroke="#797979" fill="none" />
  <path d="M 8 116.5  C 6.32 116.5  5 115.18  5 113.5  C 5 111.82  6.32 110.5  8 110.5  C 9.68 110.5  11 111.82  11 113.5  C 11 115.18  9.68 116.5  8 116.5  " fill-rule="nonzero" fill="#797979" stroke="none" />
</svg>