<?xml version="1.0" encoding="utf-8"?>
<svg version="1.1" xmlns:xlink="http://www.w3.org/1999/xlink" width="12px" height="12px" viewBox="2 140.5  12 12" xmlns="http://www.w3.org/2000/svg">
  <path d="M 8 140.5  C 11.36 140.5  14 143.14  14 146.5  C 14 149.86  11.36 152.5  8 152.5  C 4.64 152.5  2 149.86  2 146.5  C 2 143.14  4.64 140.5  8 140.5  Z " fill-rule="nonzero" fill="#ffffff" stroke="none" />
  <path d="M 8 141  C 11.08 141  13.5 143.42  13.5 146.5  C 13.5 149.58  11.08 152  8 152  C 4.92 152  2.5 149.58  2.5 146.5  C 2.5 143.42  4.92 141  8 141  Z " stroke-width="1" stroke="#797979" fill="none" />
  <path d="M 8 149.5  C 6.32 149.5  5 148.18  5 146.5  C 5 144.82  6.32 143.5  8 143.5  C 9.68 143.5  11 144.82  11 146.5  C 11 148.18  9.68 149.5  8 149.5  " fill-rule="nonzero" fill="#797979" stroke="none" />
</svg>