<?xml version="1.0" encoding="utf-8"?>
<svg version="1.1" xmlns:xlink="http://www.w3.org/1999/xlink" width="165px" height="49px" xmlns="http://www.w3.org/2000/svg">
  <defs>
    <mask fill="white" id="clip167">
      <path d="M 0 49  L 0 0  L 158.373493975904 0  L 165 0  L 165 49  L 161.355421686747 49  L 142.54746835443 49  L 0 49  Z " fill-rule="evenodd" />
    </mask>
  </defs>
  <g transform="matrix(1 0 0 1 -107 -98 )">
    <path d="M 0 49  L 0 0  L 158.373493975904 0  L 165 0  L 165 49  L 161.355421686747 49  L 142.54746835443 49  L 0 49  Z " fill-rule="nonzero" fill="#393939" stroke="none" transform="matrix(1 0 0 1 107 98 )" />
    <path d="M 0 49  L 0 0  L 158.373493975904 0  L 165 0  L 165 49  L 161.355421686747 49  L 142.54746835443 49  L 0 49  Z " stroke-width="2" stroke="#797979" fill="none" transform="matrix(1 0 0 1 107 98 )" mask="url(#clip167)" />
  </g>
</svg>