<?xml version="1.0" encoding="utf-8"?>
<svg version="1.1" xmlns:xlink="http://www.w3.org/1999/xlink" width="20px" height="22px" xmlns="http://www.w3.org/2000/svg">
  <g transform="matrix(1 0 0 1 -416 -1208 )">
    <path d="M 12.265625 13.4921875  C 13.3193108974361 12.3331330128205  13.846153846154 10.9383012820513  13.846153846154 9.30769230769229  C 13.846153846154 7.67708333333333  13.3193108974361 6.28225160256408  12.265625 5.12319711538463  C 11.2119391025639 3.96414262820512  9.94391025641031 3.38461538461537  8.4615384615383 3.38461538461537  C 6.97916666666667 3.38461538461537  5.71113782051289 3.96414262820512  4.65745192307698 5.12319711538463  C 3.60376602564107 6.28225160256408  3.07692307692302 7.67708333333333  3.07692307692302 9.30769230769229  C 3.07692307692302 10.9383012820513  3.60376602564107 12.3331330128205  4.65745192307698 13.4921875  C 5.71113782051289 14.6512419871795  6.97916666666667 15.2307692307693  8.4615384615383 15.2307692307693  C 9.94391025641031 15.2307692307693  11.2119391025639 14.6512419871795  12.265625 13.4921875  Z M 19.5552884615383 19.1177884615385  C 19.8517628205129 19.4439102564102  20 19.8405448717949  20 20.3076923076923  C 20 20.7660256410256  19.8477564102564 21.1626602564102  19.5432692307692 21.4975961538462  C 19.2387820512819 21.832532051282  18.8782051282052 22  18.4615384615383 22  C 18.028846153846 22  17.6682692307692 21.832532051282  17.3798076923075 21.4975961538462  L 13.2572115384617 16.9759615384615  C 11.8229166666667 18.0689102564102  10.2243589743589 18.6153846153846  8.4615384615383 18.6153846153846  C 7.31570512820516 18.6153846153846  6.21995192307698 18.3707932692307  5.17427884615396 17.8816105769231  C 4.12860576923076 17.3924278846154  3.2271634615383 16.7313701923077  2.46995192307698 15.8984375  C 1.71274038461528 15.0655048076923  1.11177884615396 14.0739182692307  0.667067307692453 12.9236778846154  C 0.222355769230755 11.7734375  0 10.568108974359  0 9.30769230769229  C 0 8.04727564102562  0.222355769230755 6.84194711538463  0.667067307692453 5.69170673076925  C 1.11177884615396 4.54146634615383  1.71274038461528 3.54987980769229  2.46995192307698 2.71694711538463  C 3.2271634615383 1.88401442307692  4.12860576923076 1.22295673076925  5.17427884615396 0.733774038461542  C 6.21995192307698 0.24459134615383  7.31570512820516 0  8.4615384615383 0  C 9.60737179487163 0  10.703125 0.24459134615383  11.748798076923 0.733774038461542  C 12.794471153846 1.22295673076925  13.6959134615383 1.88401442307692  14.453125 2.71694711538463  C 15.2103365384617 3.54987980769229  15.811298076923 4.54146634615383  16.2560096153847 5.69170673076925  C 16.700721153846 6.84194711538463  16.923076923077 8.04727564102562  16.923076923077 9.30769230769229  C 16.923076923077 11.2467948717949  16.4262820512819 13.0052083333333  15.4326923076925 14.5829326923077  L 19.5552884615383 19.1177884615385  Z " fill-rule="nonzero" fill="#a1a1a1" stroke="none" transform="matrix(1 0 0 1 416 1208 )" />
  </g>
</svg>