<?xml version="1.0" encoding="utf-8"?>
<svg version="1.1" xmlns:xlink="http://www.w3.org/1999/xlink" width="433px" height="19px" xmlns="http://www.w3.org/2000/svg">
  <defs>
    <mask fill="white" id="clip64">
      <path d="M 0 19  L 0 0  L 43 0  L 433 0  L 433 19  L 76 19  L 0 19  Z " fill-rule="evenodd" />
    </mask>
  </defs>
  <g transform="matrix(1 0 0 1 -498 -42 )">
    <path d="M 0 19  L 0 0  L 43 0  L 433 0  L 433 19  L 76 19  L 0 19  Z " fill-rule="nonzero" fill="#393939" stroke="none" transform="matrix(1 0 0 1 498 42 )" />
    <path d="M 0 19  L 0 0  L 43 0  L 433 0  L 433 19  L 76 19  L 0 19  Z " stroke-width="2" stroke="#797979" fill="none" transform="matrix(1 0 0 1 498 42 )" mask="url(#clip64)" />
  </g>
</svg>