<?xml version="1.0" encoding="utf-8"?>
<svg version="1.1" xmlns:xlink="http://www.w3.org/1999/xlink" width="21px" height="22px" xmlns="http://www.w3.org/2000/svg">
  <g transform="matrix(1 0 0 1 -224 -101 )">
    <path d="M 12.87890625 13.4921875  C 13.9852764423079 12.3331330128205  14.5384615384617 10.9383012820513  14.5384615384617 9.30769230769229  C 14.5384615384617 7.67708333333333  13.9852764423079 6.28225160256408  12.87890625 5.12319711538463  C 11.7725360576921 3.96414262820512  10.4411057692308 3.38461538461537  8.88461538461522 3.38461538461537  C 7.328125 3.38461538461537  5.99669471153854 3.96414262820512  4.89032451923083 5.12319711538463  C 3.78395432692312 6.28225160256408  3.23076923076917 7.67708333333333  3.23076923076917 9.30769230769229  C 3.23076923076917 10.9383012820513  3.78395432692312 12.3331330128205  4.89032451923083 13.4921875  C 5.99669471153854 14.6512419871795  7.328125 15.2307692307693  8.88461538461522 15.2307692307693  C 10.4411057692308 15.2307692307693  11.7725360576921 14.6512419871795  12.87890625 13.4921875  Z M 20.5330528846152 19.1177884615385  C 20.8443509615385 19.4439102564102  21 19.8405448717949  21 20.3076923076923  C 21 20.7660256410256  20.8401442307692 21.1626602564102  20.5204326923077 21.4975961538462  C 20.200721153846 21.832532051282  19.8221153846154 22  19.3846153846152 22  C 18.9302884615383 22  18.5516826923077 21.832532051282  18.2487980769229 21.4975961538462  L 13.9200721153848 16.9759615384615  C 12.4140625 18.0689102564102  10.7355769230769 18.6153846153846  8.88461538461522 18.6153846153846  C 7.68149038461542 18.6153846153846  6.53094951923083 18.3707932692307  5.43299278846166 17.8816105769231  C 4.33503605769229 17.3924278846154  3.38852163461522 16.7313701923077  2.59344951923083 15.8984375  C 1.79837740384605 15.0655048076923  1.16736778846166 14.0739182692307  0.700420673077076 12.9236778846154  C 0.233473557692292 11.7734375  0 10.568108974359  0 9.30769230769229  C 0 8.04727564102562  0.233473557692292 6.84194711538463  0.700420673077076 5.69170673076925  C 1.16736778846166 4.54146634615383  1.79837740384605 3.54987980769229  2.59344951923083 2.71694711538463  C 3.38852163461522 1.88401442307692  4.33503605769229 1.22295673076925  5.43299278846166 0.733774038461542  C 6.53094951923083 0.24459134615383  7.68149038461542 0  8.88461538461522 0  C 10.0877403846152 0  11.23828125 0.24459134615383  12.3362379807692 0.733774038461542  C 13.4341947115383 1.22295673076925  14.3807091346152 1.88401442307692  15.17578125 2.71694711538463  C 15.9708533653848 3.54987980769229  16.6018629807692 4.54146634615383  17.068810096154 5.69170673076925  C 17.5357572115383 6.84194711538463  17.7692307692308 8.04727564102562  17.7692307692308 9.30769230769229  C 17.7692307692308 11.2467948717949  17.247596153846 13.0052083333333  16.2043269230771 14.5829326923077  L 20.5330528846152 19.1177884615385  Z " fill-rule="nonzero" fill="#a1a1a1" stroke="none" transform="matrix(1 0 0 1 224 101 )" />
  </g>
</svg>