<?xml version="1.0" encoding="utf-8"?>
<svg version="1.1" xmlns:xlink="http://www.w3.org/1999/xlink" width="18px" height="22px" xmlns="http://www.w3.org/2000/svg">
  <g transform="matrix(1 0 0 1 -224 -51 )">
    <path d="M 11.0390625 13.4921875  C 11.9873798076925 12.3331330128205  12.4615384615386 10.9383012820513  12.4615384615386 9.30769230769229  C 12.4615384615386 7.67708333333333  11.9873798076925 6.28225160256408  11.0390625 5.12319711538463  C 10.0907451923075 3.96414262820512  8.94951923076928 3.38461538461537  7.61538461538447 3.38461538461537  C 6.28125 3.38461538461537  5.1400240384616 3.96414262820512  4.19170673076928 5.12319711538463  C 3.24338942307696 6.28225160256408  2.76923076923072 7.67708333333333  2.76923076923072 9.30769230769229  C 2.76923076923072 10.9383012820513  3.24338942307696 12.3331330128205  4.19170673076928 13.4921875  C 5.1400240384616 14.6512419871795  6.28125 15.2307692307693  7.61538461538447 15.2307692307693  C 8.94951923076928 15.2307692307693  10.0907451923075 14.6512419871795  11.0390625 13.4921875  Z M 17.5997596153845 19.1177884615385  C 17.8665865384616 19.4439102564102  18 19.8405448717949  18 20.3076923076923  C 18 20.7660256410256  17.8629807692307 21.1626602564102  17.5889423076923 21.4975961538462  C 17.3149038461538 21.832532051282  16.9903846153846 22  16.6153846153845 22  C 16.2259615384614 22  15.9014423076923 21.832532051282  15.6418269230768 21.4975961538462  L 11.9314903846155 16.9759615384615  C 10.640625 18.0689102564102  9.20192307692304 18.6153846153846  7.61538461538447 18.6153846153846  C 6.58413461538464 18.6153846153846  5.59795673076928 18.3707932692307  4.65685096153857 17.8816105769231  C 3.71574519230768 17.3924278846154  2.90444711538447 16.7313701923077  2.22295673076928 15.8984375  C 1.54146634615375 15.0655048076923  1.00060096153857 14.0739182692307  0.600360576923208 12.9236778846154  C 0.200120192307679 11.7734375  0 10.568108974359  0 9.30769230769229  C 0 8.04727564102562  0.200120192307679 6.84194711538463  0.600360576923208 5.69170673076925  C 1.00060096153857 4.54146634615383  1.54146634615375 3.54987980769229  2.22295673076928 2.71694711538463  C 2.90444711538447 1.88401442307692  3.71574519230768 1.22295673076925  4.65685096153857 0.733774038461542  C 5.59795673076928 0.24459134615383  6.58413461538464 0  7.61538461538447 0  C 8.64663461538447 0  9.6328125 0.24459134615383  10.5739182692307 0.733774038461542  C 11.5150240384614 1.22295673076925  12.3263221153845 1.88401442307692  13.0078125 2.71694711538463  C 13.6893028846155 3.54987980769229  14.2301682692307 4.54146634615383  14.6304086538462 5.69170673076925  C 15.0306490384614 6.84194711538463  15.2307692307693 8.04727564102562  15.2307692307693 9.30769230769229  C 15.2307692307693 11.2467948717949  14.7836538461538 13.0052083333333  13.8894230769232 14.5829326923077  L 17.5997596153845 19.1177884615385  Z " fill-rule="nonzero" fill="#a1a1a1" stroke="none" transform="matrix(1 0 0 1 224 51 )" />
  </g>
</svg>