<?xml version="1.0" encoding="utf-8"?>
<svg version="1.1" xmlns:xlink="http://www.w3.org/1999/xlink" width="12px" height="12px" viewBox="177 103  12 12" xmlns="http://www.w3.org/2000/svg">
  <path d="M 183 103  C 186.36 103  189 105.64  189 109  C 189 112.36  186.36 115  183 115  C 179.64 115  177 112.36  177 109  C 177 105.64  179.64 103  183 103  Z " fill-rule="nonzero" fill="#ffffff" stroke="none" />
  <path d="M 183 103.5  C 186.08 103.5  188.5 105.92  188.5 109  C 188.5 112.08  186.08 114.5  183 114.5  C 179.92 114.5  177.5 112.08  177.5 109  C 177.5 105.92  179.92 103.5  183 103.5  Z " stroke-width="1" stroke="#797979" fill="none" />
  <path d="M 183 112  C 181.32 112  180 110.68  180 109  C 180 107.32  181.32 106  183 106  C 184.68 106  186 107.32  186 109  C 186 110.68  184.68 112  183 112  " fill-rule="nonzero" fill="#797979" stroke="none" />
</svg>