<?xml version="1.0" encoding="utf-8"?>
<svg version="1.1" xmlns:xlink="http://www.w3.org/1999/xlink" width="12px" height="12px" viewBox="235 132  12 12" xmlns="http://www.w3.org/2000/svg">
  <path d="M 241 132  C 244.36 132  247 134.64  247 138  C 247 141.36  244.36 144  241 144  C 237.64 144  235 141.36  235 138  C 235 134.64  237.64 132  241 132  Z " fill-rule="nonzero" fill="#ffffff" stroke="none" />
  <path d="M 241 132.5  C 244.08 132.5  246.5 134.92  246.5 138  C 246.5 141.08  244.08 143.5  241 143.5  C 237.92 143.5  235.5 141.08  235.5 138  C 235.5 134.92  237.92 132.5  241 132.5  Z " stroke-width="1" stroke="#797979" fill="none" />
  <path d="M 241 141  C 239.32 141  238 139.68  238 138  C 238 136.32  239.32 135  241 135  C 242.68 135  244 136.32  244 138  C 244 139.68  242.68 141  241 141  " fill-rule="nonzero" fill="#797979" stroke="none" />
</svg>