<?xml version="1.0" encoding="utf-8"?>
<svg version="1.1" xmlns:xlink="http://www.w3.org/1999/xlink" width="12px" height="12px" viewBox="263 172  12 12" xmlns="http://www.w3.org/2000/svg">
  <path d="M 269 172  C 272.36 172  275 174.64  275 178  C 275 181.36  272.36 184  269 184  C 265.64 184  263 181.36  263 178  C 263 174.64  265.64 172  269 172  Z " fill-rule="nonzero" fill="#ffffff" stroke="none" />
  <path d="M 269 172.5  C 272.08 172.5  274.5 174.92  274.5 178  C 274.5 181.08  272.08 183.5  269 183.5  C 265.92 183.5  263.5 181.08  263.5 178  C 263.5 174.92  265.92 172.5  269 172.5  Z " stroke-width="1" stroke="#797979" fill="none" />
  <path d="M 269 181  C 267.32 181  266 179.68  266 178  C 266 176.32  267.32 175  269 175  C 270.68 175  272 176.32  272 178  C 272 179.68  270.68 181  269 181  " fill-rule="nonzero" fill="#797979" stroke="none" />
</svg>