<?xml version="1.0" encoding="utf-8"?>
<svg version="1.1" xmlns:xlink="http://www.w3.org/1999/xlink" width="12px" height="12px" viewBox="132 172  12 12" xmlns="http://www.w3.org/2000/svg">
  <path d="M 138 172  C 141.36 172  144 174.64  144 178  C 144 181.36  141.36 184  138 184  C 134.64 184  132 181.36  132 178  C 132 174.64  134.64 172  138 172  Z " fill-rule="nonzero" fill="#ffffff" stroke="none" />
  <path d="M 138 172.5  C 141.08 172.5  143.5 174.92  143.5 178  C 143.5 181.08  141.08 183.5  138 183.5  C 134.92 183.5  132.5 181.08  132.5 178  C 132.5 174.92  134.92 172.5  138 172.5  Z " stroke-width="1" stroke="#797979" fill="none" />
  <path d="M 138 181  C 136.32 181  135 179.68  135 178  C 135 176.32  136.32 175  138 175  C 139.68 175  141 176.32  141 178  C 141 179.68  139.68 181  138 181  " fill-rule="nonzero" fill="#797979" stroke="none" />
</svg>