<?xml version="1.0" encoding="utf-8"?>
<svg version="1.1" xmlns:xlink="http://www.w3.org/1999/xlink" width="12px" height="12px" viewBox="131 128  12 12" xmlns="http://www.w3.org/2000/svg">
  <path d="M 137 128  C 140.36 128  143 130.64  143 134  C 143 137.36  140.36 140  137 140  C 133.64 140  131 137.36  131 134  C 131 130.64  133.64 128  137 128  Z " fill-rule="nonzero" fill="#ffffff" stroke="none" />
  <path d="M 137 128.5  C 140.08 128.5  142.5 130.92  142.5 134  C 142.5 137.08  140.08 139.5  137 139.5  C 133.92 139.5  131.5 137.08  131.5 134  C 131.5 130.92  133.92 128.5  137 128.5  Z " stroke-width="1" stroke="#797979" fill="none" />
  <path d="M 137 137  C 135.32 137  134 135.68  134 134  C 134 132.32  135.32 131  137 131  C 138.68 131  140 132.32  140 134  C 140 135.68  138.68 137  137 137  " fill-rule="nonzero" fill="#797979" stroke="none" />
</svg>