<?xml version="1.0" encoding="utf-8"?>
<svg version="1.1" xmlns:xlink="http://www.w3.org/1999/xlink" width="12px" height="12px" viewBox="178 111  12 12" xmlns="http://www.w3.org/2000/svg">
  <path d="M 184 111  C 187.36 111  190 113.64  190 117  C 190 120.36  187.36 123  184 123  C 180.64 123  178 120.36  178 117  C 178 113.64  180.64 111  184 111  Z " fill-rule="nonzero" fill="#ffffff" stroke="none" />
  <path d="M 184 111.5  C 187.08 111.5  189.5 113.92  189.5 117  C 189.5 120.08  187.08 122.5  184 122.5  C 180.92 122.5  178.5 120.08  178.5 117  C 178.5 113.92  180.92 111.5  184 111.5  Z " stroke-width="1" stroke="#797979" fill="none" />
  <path d="M 184 120  C 182.32 120  181 118.68  181 117  C 181 115.32  182.32 114  184 114  C 185.68 114  187 115.32  187 117  C 187 118.68  185.68 120  184 120  " fill-rule="nonzero" fill="#797979" stroke="none" />
</svg>