<?xml version="1.0" encoding="utf-8"?>
<svg version="1.1" xmlns:xlink="http://www.w3.org/1999/xlink" width="807px" height="632px" xmlns="http://www.w3.org/2000/svg">
  <g transform="matrix(1 0 0 1 -27 -95 )">
    <path d="M 27 95  L 834 95  L 834 727  L 27 727  L 27 95  " fill-rule="nonzero" fill="#cccccc" stroke="none" />
    <path d="M 71 139  L 790 139  L 790 683  L 71 683  L 71 139  " fill-rule="nonzero" fill="#ffffff" stroke="none" />
    <path d="M 494.04 284.6  C 467.496 284.6  446.64 263.744  446.64 237.2  C 446.64 210.656  467.496 189.8  494.04 189.8  C 520.584 189.8  541.44 210.656  541.44 237.2  C 541.44 263.744  520.584 284.6  494.04 284.6  " fill-rule="nonzero" fill="#cccccc" stroke="none" />
    <path d="M 87 667  L 87 385.4  L 258.75 257.4  L 499.2 426.417100371747  L 636.6 334.2  L 774 426.417100371747  L 774 667  L 87 667  " fill-rule="nonzero" fill="#169bd5" stroke="none" />
  </g>
</svg>