<?xml version="1.0" encoding="utf-8"?>
<svg version="1.1" xmlns:xlink="http://www.w3.org/1999/xlink" width="12px" height="12px" viewBox="10 66  12 12" xmlns="http://www.w3.org/2000/svg">
  <path d="M 16 66  C 19.36 66  22 68.64  22 72  C 22 75.36  19.36 78  16 78  C 12.64 78  10 75.36  10 72  C 10 68.64  12.64 66  16 66  Z " fill-rule="nonzero" fill="#ffffff" stroke="none" />
  <path d="M 16 66.5  C 19.08 66.5  21.5 68.92  21.5 72  C 21.5 75.08  19.08 77.5  16 77.5  C 12.92 77.5  10.5 75.08  10.5 72  C 10.5 68.92  12.92 66.5  16 66.5  Z " stroke-width="1" stroke="#797979" fill="none" />
  <path d="M 16 75  C 14.32 75  13 73.68  13 72  C 13 70.32  14.32 69  16 69  C 17.68 69  19 70.32  19 72  C 19 73.68  17.68 75  16 75  " fill-rule="nonzero" fill="#797979" stroke="none" />
</svg>