<?xml version="1.0" encoding="utf-8"?>
<svg version="1.1" xmlns:xlink="http://www.w3.org/1999/xlink" width="12px" height="12px" viewBox="10 90  12 12" xmlns="http://www.w3.org/2000/svg">
  <path d="M 16 90  C 19.36 90  22 92.64  22 96  C 22 99.36  19.36 102  16 102  C 12.64 102  10 99.36  10 96  C 10 92.64  12.64 90  16 90  Z " fill-rule="nonzero" fill="#ffffff" stroke="none" />
  <path d="M 16 90.5  C 19.08 90.5  21.5 92.92  21.5 96  C 21.5 99.08  19.08 101.5  16 101.5  C 12.92 101.5  10.5 99.08  10.5 96  C 10.5 92.92  12.92 90.5  16 90.5  Z " stroke-width="1" stroke="#797979" fill="none" />
  <path d="M 16 99  C 14.32 99  13 97.68  13 96  C 13 94.32  14.32 93  16 93  C 17.68 93  19 94.32  19 96  C 19 97.68  17.68 99  16 99  " fill-rule="nonzero" fill="#797979" stroke="none" />
</svg>