<?xml version="1.0" encoding="utf-8"?>
<svg version="1.1" xmlns:xlink="http://www.w3.org/1999/xlink" width="12px" height="12px" viewBox="10 41  12 12" xmlns="http://www.w3.org/2000/svg">
  <path d="M 16 41  C 19.36 41  22 43.64  22 47  C 22 50.36  19.36 53  16 53  C 12.64 53  10 50.36  10 47  C 10 43.64  12.64 41  16 41  Z " fill-rule="nonzero" fill="#ffffff" stroke="none" />
  <path d="M 16 41.5  C 19.08 41.5  21.5 43.92  21.5 47  C 21.5 50.08  19.08 52.5  16 52.5  C 12.92 52.5  10.5 50.08  10.5 47  C 10.5 43.92  12.92 41.5  16 41.5  Z " stroke-width="1" stroke="#797979" fill="none" />
  <path d="M 16 50  C 14.32 50  13 48.68  13 47  C 13 45.32  14.32 44  16 44  C 17.68 44  19 45.32  19 47  C 19 48.68  17.68 50  16 50  " fill-rule="nonzero" fill="#797979" stroke="none" />
</svg>