<?xml version="1.0" encoding="utf-8"?>
<svg version="1.1" xmlns:xlink="http://www.w3.org/1999/xlink" width="12px" height="12px" viewBox="406 87  12 12" xmlns="http://www.w3.org/2000/svg">
  <path d="M 412 87  C 415.36 87  418 89.64  418 93  C 418 96.36  415.36 99  412 99  C 408.64 99  406 96.36  406 93  C 406 89.64  408.64 87  412 87  Z " fill-rule="nonzero" fill="#ffffff" stroke="none" />
  <path d="M 412 87.5  C 415.08 87.5  417.5 89.92  417.5 93  C 417.5 96.08  415.08 98.5  412 98.5  C 408.92 98.5  406.5 96.08  406.5 93  C 406.5 89.92  408.92 87.5  412 87.5  Z " stroke-width="1" stroke="#797979" fill="none" />
  <path d="M 412 96  C 410.32 96  409 94.68  409 93  C 409 91.32  410.32 90  412 90  C 413.68 90  415 91.32  415 93  C 415 94.68  413.68 96  412 96  " fill-rule="nonzero" fill="#797979" stroke="none" />
</svg>