<?xml version="1.0" encoding="utf-8"?>
<svg version="1.1" xmlns:xlink="http://www.w3.org/1999/xlink" width="12px" height="12px" viewBox="536 87  12 12" xmlns="http://www.w3.org/2000/svg">
  <path d="M 542 87  C 545.36 87  548 89.64  548 93  C 548 96.36  545.36 99  542 99  C 538.64 99  536 96.36  536 93  C 536 89.64  538.64 87  542 87  Z " fill-rule="nonzero" fill="#ffffff" stroke="none" />
  <path d="M 542 87.5  C 545.08 87.5  547.5 89.92  547.5 93  C 547.5 96.08  545.08 98.5  542 98.5  C 538.92 98.5  536.5 96.08  536.5 93  C 536.5 89.92  538.92 87.5  542 87.5  Z " stroke-width="1" stroke="#797979" fill="none" />
  <path d="M 542 96  C 540.32 96  539 94.68  539 93  C 539 91.32  540.32 90  542 90  C 543.68 90  545 91.32  545 93  C 545 94.68  543.68 96  542 96  " fill-rule="nonzero" fill="#797979" stroke="none" />
</svg>