<?xml version="1.0" encoding="utf-8"?>
<svg version="1.1" xmlns:xlink="http://www.w3.org/1999/xlink" width="12px" height="12px" viewBox="406 131  12 12" xmlns="http://www.w3.org/2000/svg">
  <path d="M 412 131  C 415.36 131  418 133.64  418 137  C 418 140.36  415.36 143  412 143  C 408.64 143  406 140.36  406 137  C 406 133.64  408.64 131  412 131  Z " fill-rule="nonzero" fill="#ffffff" stroke="none" />
  <path d="M 412 131.5  C 415.08 131.5  417.5 133.92  417.5 137  C 417.5 140.08  415.08 142.5  412 142.5  C 408.92 142.5  406.5 140.08  406.5 137  C 406.5 133.92  408.92 131.5  412 131.5  Z " stroke-width="1" stroke="#797979" fill="none" />
  <path d="M 412 140  C 410.32 140  409 138.68  409 137  C 409 135.32  410.32 134  412 134  C 413.68 134  415 135.32  415 137  C 415 138.68  413.68 140  412 140  " fill-rule="nonzero" fill="#797979" stroke="none" />
</svg>