<?xml version="1.0" encoding="utf-8"?>
<svg version="1.1" xmlns:xlink="http://www.w3.org/1999/xlink" width="12px" height="12px" viewBox="2097 458.5  12 12" xmlns="http://www.w3.org/2000/svg">
  <path d="M 2103 458.5  C 2106.36 458.5  2109 461.14  2109 464.5  C 2109 467.86  2106.36 470.5  2103 470.5  C 2099.64 470.5  2097 467.86  2097 464.5  C 2097 461.14  2099.64 458.5  2103 458.5  Z " fill-rule="nonzero" fill="#ffffff" stroke="none" />
  <path d="M 2103 459  C 2106.08 459  2108.5 461.42  2108.5 464.5  C 2108.5 467.58  2106.08 470  2103 470  C 2099.92 470  2097.5 467.58  2097.5 464.5  C 2097.5 461.42  2099.92 459  2103 459  Z " stroke-width="1" stroke="#797979" fill="none" />
  <path d="M 2103 467.5  C 2101.32 467.5  2100 466.18  2100 464.5  C 2100 462.82  2101.32 461.5  2103 461.5  C 2104.68 461.5  2106 462.82  2106 464.5  C 2106 466.18  2104.68 467.5  2103 467.5  " fill-rule="nonzero" fill="#797979" stroke="none" />
</svg>