<?xml version="1.0" encoding="utf-8"?>
<svg version="1.1" xmlns:xlink="http://www.w3.org/1999/xlink" width="12px" height="12px" viewBox="133 205  12 12" xmlns="http://www.w3.org/2000/svg">
  <path d="M 139 205  C 142.36 205  145 207.64  145 211  C 145 214.36  142.36 217  139 217  C 135.64 217  133 214.36  133 211  C 133 207.64  135.64 205  139 205  Z " fill-rule="nonzero" fill="#ffffff" stroke="none" />
  <path d="M 139 205.5  C 142.08 205.5  144.5 207.92  144.5 211  C 144.5 214.08  142.08 216.5  139 216.5  C 135.92 216.5  133.5 214.08  133.5 211  C 133.5 207.92  135.92 205.5  139 205.5  Z " stroke-width="1" stroke="#797979" fill="none" />
  <path d="M 139 214  C 137.32 214  136 212.68  136 211  C 136 209.32  137.32 208  139 208  C 140.68 208  142 209.32  142 211  C 142 212.68  140.68 214  139 214  " fill-rule="nonzero" fill="#797979" stroke="none" />
</svg>