<?xml version="1.0" encoding="utf-8"?>
<svg version="1.1" xmlns:xlink="http://www.w3.org/1999/xlink" width="12px" height="12px" viewBox="266 226  12 12" xmlns="http://www.w3.org/2000/svg">
  <path d="M 272 226  C 275.36 226  278 228.64  278 232  C 278 235.36  275.36 238  272 238  C 268.64 238  266 235.36  266 232  C 266 228.64  268.64 226  272 226  Z " fill-rule="nonzero" fill="#ffffff" stroke="none" />
  <path d="M 272 226.5  C 275.08 226.5  277.5 228.92  277.5 232  C 277.5 235.08  275.08 237.5  272 237.5  C 268.92 237.5  266.5 235.08  266.5 232  C 266.5 228.92  268.92 226.5  272 226.5  Z " stroke-width="1" stroke="#797979" fill="none" />
  <path d="M 272 235  C 270.32 235  269 233.68  269 232  C 269 230.32  270.32 229  272 229  C 273.68 229  275 230.32  275 232  C 275 233.68  273.68 235  272 235  " fill-rule="nonzero" fill="#797979" stroke="none" />
</svg>