<?xml version="1.0" encoding="utf-8"?>
<svg version="1.1" xmlns:xlink="http://www.w3.org/1999/xlink" width="12px" height="12px" viewBox="136 270  12 12" xmlns="http://www.w3.org/2000/svg">
  <path d="M 142 270  C 145.36 270  148 272.64  148 276  C 148 279.36  145.36 282  142 282  C 138.64 282  136 279.36  136 276  C 136 272.64  138.64 270  142 270  Z " fill-rule="nonzero" fill="#ffffff" stroke="none" />
  <path d="M 142 270.5  C 145.08 270.5  147.5 272.92  147.5 276  C 147.5 279.08  145.08 281.5  142 281.5  C 138.92 281.5  136.5 279.08  136.5 276  C 136.5 272.92  138.92 270.5  142 270.5  Z " stroke-width="1" stroke="#797979" fill="none" />
  <path d="M 142 279  C 140.32 279  139 277.68  139 276  C 139 274.32  140.32 273  142 273  C 143.68 273  145 274.32  145 276  C 145 277.68  143.68 279  142 279  " fill-rule="nonzero" fill="#797979" stroke="none" />
</svg>