<?xml version="1.0" encoding="utf-8"?>
<svg version="1.1" xmlns:xlink="http://www.w3.org/1999/xlink" width="12px" height="12px" viewBox="267 270  12 12" xmlns="http://www.w3.org/2000/svg">
  <path d="M 273 270  C 276.36 270  279 272.64  279 276  C 279 279.36  276.36 282  273 282  C 269.64 282  267 279.36  267 276  C 267 272.64  269.64 270  273 270  Z " fill-rule="nonzero" fill="#ffffff" stroke="none" />
  <path d="M 273 270.5  C 276.08 270.5  278.5 272.92  278.5 276  C 278.5 279.08  276.08 281.5  273 281.5  C 269.92 281.5  267.5 279.08  267.5 276  C 267.5 272.92  269.92 270.5  273 270.5  Z " stroke-width="1" stroke="#797979" fill="none" />
  <path d="M 273 279  C 271.32 279  270 277.68  270 276  C 270 274.32  271.32 273  273 273  C 274.68 273  276 274.32  276 276  C 276 277.68  274.68 279  273 279  " fill-rule="nonzero" fill="#797979" stroke="none" />
</svg>