<?xml version="1.0" encoding="utf-8"?>
<svg version="1.1" xmlns:xlink="http://www.w3.org/1999/xlink" width="12px" height="12px" viewBox="396 226  12 12" xmlns="http://www.w3.org/2000/svg">
  <path d="M 402 226  C 405.36 226  408 228.64  408 232  C 408 235.36  405.36 238  402 238  C 398.64 238  396 235.36  396 232  C 396 228.64  398.64 226  402 226  Z " fill-rule="nonzero" fill="#ffffff" stroke="none" />
  <path d="M 402 226.5  C 405.08 226.5  407.5 228.92  407.5 232  C 407.5 235.08  405.08 237.5  402 237.5  C 398.92 237.5  396.5 235.08  396.5 232  C 396.5 228.92  398.92 226.5  402 226.5  Z " stroke-width="1" stroke="#797979" fill="none" />
  <path d="M 402 235  C 400.32 235  399 233.68  399 232  C 399 230.32  400.32 229  402 229  C 403.68 229  405 230.32  405 232  C 405 233.68  403.68 235  402 235  " fill-rule="nonzero" fill="#797979" stroke="none" />
</svg>