<?xml version="1.0" encoding="utf-8"?>
<svg version="1.1" xmlns:xlink="http://www.w3.org/1999/xlink" width="12px" height="12px" viewBox="135 189  12 12" xmlns="http://www.w3.org/2000/svg">
  <path d="M 141 189  C 144.36 189  147 191.64  147 195  C 147 198.36  144.36 201  141 201  C 137.64 201  135 198.36  135 195  C 135 191.64  137.64 189  141 189  Z " fill-rule="nonzero" fill="#ffffff" stroke="none" />
  <path d="M 141 189.5  C 144.08 189.5  146.5 191.92  146.5 195  C 146.5 198.08  144.08 200.5  141 200.5  C 137.92 200.5  135.5 198.08  135.5 195  C 135.5 191.92  137.92 189.5  141 189.5  Z " stroke-width="1" stroke="#797979" fill="none" />
  <path d="M 141 198  C 139.32 198  138 196.68  138 195  C 138 193.32  139.32 192  141 192  C 142.68 192  144 193.32  144 195  C 144 196.68  142.68 198  141 198  " fill-rule="nonzero" fill="#797979" stroke="none" />
</svg>