<?xml version="1.0" encoding="utf-8"?>
<svg version="1.1" xmlns:xlink="http://www.w3.org/1999/xlink" width="12px" height="12px" viewBox="267 233  12 12" xmlns="http://www.w3.org/2000/svg">
  <path d="M 273 233  C 276.36 233  279 235.64  279 239  C 279 242.36  276.36 245  273 245  C 269.64 245  267 242.36  267 239  C 267 235.64  269.64 233  273 233  Z " fill-rule="nonzero" fill="#ffffff" stroke="none" />
  <path d="M 273 233.5  C 276.08 233.5  278.5 235.92  278.5 239  C 278.5 242.08  276.08 244.5  273 244.5  C 269.92 244.5  267.5 242.08  267.5 239  C 267.5 235.92  269.92 233.5  273 233.5  Z " stroke-width="1" stroke="#797979" fill="none" />
  <path d="M 273 242  C 271.32 242  270 240.68  270 239  C 270 237.32  271.32 236  273 236  C 274.68 236  276 237.32  276 239  C 276 240.68  274.68 242  273 242  " fill-rule="nonzero" fill="#797979" stroke="none" />
</svg>