<?xml version="1.0" encoding="utf-8"?>
<svg version="1.1" xmlns:xlink="http://www.w3.org/1999/xlink" width="12px" height="12px" viewBox="269 370.5  12 12" xmlns="http://www.w3.org/2000/svg">
  <path d="M 275 370.5  C 278.36 370.5  281 373.14  281 376.5  C 281 379.86  278.36 382.5  275 382.5  C 271.64 382.5  269 379.86  269 376.5  C 269 373.14  271.64 370.5  275 370.5  Z " fill-rule="nonzero" fill="#ffffff" stroke="none" />
  <path d="M 275 371  C 278.08 371  280.5 373.42  280.5 376.5  C 280.5 379.58  278.08 382  275 382  C 271.92 382  269.5 379.58  269.5 376.5  C 269.5 373.42  271.92 371  275 371  Z " stroke-width="1" stroke="#797979" fill="none" />
  <path d="M 275 379.5  C 273.32 379.5  272 378.18  272 376.5  C 272 374.82  273.32 373.5  275 373.5  C 276.68 373.5  278 374.82  278 376.5  C 278 378.18  276.68 379.5  275 379.5  " fill-rule="nonzero" fill="#797979" stroke="none" />
</svg>