<?xml version="1.0" encoding="utf-8"?>
<svg version="1.1" xmlns:xlink="http://www.w3.org/1999/xlink" width="12px" height="12px" viewBox="169 331.5  12 12" xmlns="http://www.w3.org/2000/svg">
  <path d="M 175 331.5  C 178.36 331.5  181 334.14  181 337.5  C 181 340.86  178.36 343.5  175 343.5  C 171.64 343.5  169 340.86  169 337.5  C 169 334.14  171.64 331.5  175 331.5  Z " fill-rule="nonzero" fill="#ffffff" stroke="none" />
  <path d="M 175 332  C 178.08 332  180.5 334.42  180.5 337.5  C 180.5 340.58  178.08 343  175 343  C 171.92 343  169.5 340.58  169.5 337.5  C 169.5 334.42  171.92 332  175 332  Z " stroke-width="1" stroke="#797979" fill="none" />
  <path d="M 175 340.5  C 173.32 340.5  172 339.18  172 337.5  C 172 335.82  173.32 334.5  175 334.5  C 176.68 334.5  178 335.82  178 337.5  C 178 339.18  176.68 340.5  175 340.5  " fill-rule="nonzero" fill="#797979" stroke="none" />
</svg>