<?xml version="1.0" encoding="utf-8"?>
<svg version="1.1" xmlns:xlink="http://www.w3.org/1999/xlink" width="12px" height="12px" viewBox="268 286.5  12 12" xmlns="http://www.w3.org/2000/svg">
  <path d="M 274 286.5  C 277.36 286.5  280 289.14  280 292.5  C 280 295.86  277.36 298.5  274 298.5  C 270.64 298.5  268 295.86  268 292.5  C 268 289.14  270.64 286.5  274 286.5  Z " fill-rule="nonzero" fill="#ffffff" stroke="none" />
  <path d="M 274 287  C 277.08 287  279.5 289.42  279.5 292.5  C 279.5 295.58  277.08 298  274 298  C 270.92 298  268.5 295.58  268.5 292.5  C 268.5 289.42  270.92 287  274 287  Z " stroke-width="1" stroke="#797979" fill="none" />
  <path d="M 274 295.5  C 272.32 295.5  271 294.18  271 292.5  C 271 290.82  272.32 289.5  274 289.5  C 275.68 289.5  277 290.82  277 292.5  C 277 294.18  275.68 295.5  274 295.5  " fill-rule="nonzero" fill="#797979" stroke="none" />
</svg>