<?xml version="1.0" encoding="utf-8"?>
<svg version="1.1" xmlns:xlink="http://www.w3.org/1999/xlink" width="12px" height="12px" viewBox="269 331.5  12 12" xmlns="http://www.w3.org/2000/svg">
  <path d="M 275 331.5  C 278.36 331.5  281 334.14  281 337.5  C 281 340.86  278.36 343.5  275 343.5  C 271.64 343.5  269 340.86  269 337.5  C 269 334.14  271.64 331.5  275 331.5  Z " fill-rule="nonzero" fill="#ffffff" stroke="none" />
  <path d="M 275 332  C 278.08 332  280.5 334.42  280.5 337.5  C 280.5 340.58  278.08 343  275 343  C 271.92 343  269.5 340.58  269.5 337.5  C 269.5 334.42  271.92 332  275 332  Z " stroke-width="1" stroke="#797979" fill="none" />
  <path d="M 275 340.5  C 273.32 340.5  272 339.18  272 337.5  C 272 335.82  273.32 334.5  275 334.5  C 276.68 334.5  278 335.82  278 337.5  C 278 339.18  276.68 340.5  275 340.5  " fill-rule="nonzero" fill="#797979" stroke="none" />
</svg>