<?xml version="1.0" encoding="utf-8"?>
<svg version="1.1" xmlns:xlink="http://www.w3.org/1999/xlink" width="12px" height="12px" viewBox="394 331.5  12 12" xmlns="http://www.w3.org/2000/svg">
  <path d="M 400 331.5  C 403.36 331.5  406 334.14  406 337.5  C 406 340.86  403.36 343.5  400 343.5  C 396.64 343.5  394 340.86  394 337.5  C 394 334.14  396.64 331.5  400 331.5  Z " fill-rule="nonzero" fill="#ffffff" stroke="none" />
  <path d="M 400 332  C 403.08 332  405.5 334.42  405.5 337.5  C 405.5 340.58  403.08 343  400 343  C 396.92 343  394.5 340.58  394.5 337.5  C 394.5 334.42  396.92 332  400 332  Z " stroke-width="1" stroke="#797979" fill="none" />
  <path d="M 400 340.5  C 398.32 340.5  397 339.18  397 337.5  C 397 335.82  398.32 334.5  400 334.5  C 401.68 334.5  403 335.82  403 337.5  C 403 339.18  401.68 340.5  400 340.5  " fill-rule="nonzero" fill="#797979" stroke="none" />
</svg>