<?xml version="1.0" encoding="utf-8"?>
<svg version="1.1" xmlns:xlink="http://www.w3.org/1999/xlink" width="168px" height="128px" xmlns="http://www.w3.org/2000/svg">
  <g transform="matrix(1 0 0 1 -30 -390 )">
    <path d="M 30 390  L 198 390  L 198 518  L 30 518  L 30 390  " fill-rule="nonzero" fill="#cccccc" stroke="none" />
    <path d="M 39 399  L 189 399  L 189 509  L 39 509  L 39 399  " fill-rule="nonzero" fill="#ffffff" stroke="none" />
    <path d="M 126.96 428.4  C 121.584 428.4  117.36 424.176  117.36 418.8  C 117.36 413.424  121.584 409.2  126.96 409.2  C 132.336 409.2  136.56 413.424  136.56 418.8  C 136.56 424.176  132.336 428.4  126.96 428.4  " fill-rule="nonzero" fill="#cccccc" stroke="none" />
    <path d="M 42 506  L 42 448.8  L 78 422.8  L 128.4 458.457142857143  L 157.2 438.4  L 186 458.457142857143  L 186 506  L 42 506  " fill-rule="nonzero" fill="#169bd5" stroke="none" />
  </g>
</svg>