<?xml version="1.0" encoding="utf-8"?>
<svg version="1.1" xmlns:xlink="http://www.w3.org/1999/xlink" width="12px" height="12px" viewBox="10 28  12 12" xmlns="http://www.w3.org/2000/svg">
  <path d="M 16 28  C 19.36 28  22 30.64  22 34  C 22 37.36  19.36 40  16 40  C 12.64 40  10 37.36  10 34  C 10 30.64  12.64 28  16 28  Z " fill-rule="nonzero" fill="#ffffff" stroke="none" />
  <path d="M 16 28.5  C 19.08 28.5  21.5 30.92  21.5 34  C 21.5 37.08  19.08 39.5  16 39.5  C 12.92 39.5  10.5 37.08  10.5 34  C 10.5 30.92  12.92 28.5  16 28.5  Z " stroke-width="1" stroke="#797979" fill="none" />
  <path d="M 16 37  C 14.32 37  13 35.68  13 34  C 13 32.32  14.32 31  16 31  C 17.68 31  19 32.32  19 34  C 19 35.68  17.68 37  16 37  " fill-rule="nonzero" fill="#797979" stroke="none" />
</svg>