<?xml version="1.0" encoding="utf-8"?>
<svg version="1.1" xmlns:xlink="http://www.w3.org/1999/xlink" width="12px" height="12px" viewBox="21 999.5  12 12" xmlns="http://www.w3.org/2000/svg">
  <path d="M 27 999.5  C 30.36 999.5  33 1002.14  33 1005.5  C 33 1008.86  30.36 1011.5  27 1011.5  C 23.64 1011.5  21 1008.86  21 1005.5  C 21 1002.14  23.64 999.5  27 999.5  Z " fill-rule="nonzero" fill="#ffffff" stroke="none" />
  <path d="M 27 1000  C 30.08 1000  32.5 1002.42  32.5 1005.5  C 32.5 1008.58  30.08 1011  27 1011  C 23.92 1011  21.5 1008.58  21.5 1005.5  C 21.5 1002.42  23.92 1000  27 1000  Z " stroke-width="1" stroke="#797979" fill="none" />
  <path d="M 27 1008.5  C 25.32 1008.5  24 1007.18  24 1005.5  C 24 1003.82  25.32 1002.5  27 1002.5  C 28.68 1002.5  30 1003.82  30 1005.5  C 30 1007.18  28.68 1008.5  27 1008.5  " fill-rule="nonzero" fill="#797979" stroke="none" />
</svg>