<?xml version="1.0" encoding="utf-8"?>
<svg version="1.1" xmlns:xlink="http://www.w3.org/1999/xlink" width="136px" height="28px" xmlns="http://www.w3.org/2000/svg">
  <defs>
    <mask fill="white" id="clip264">
      <path d="M 0 28  L 0 0  L 130.538152610442 0  L 136 0  L 136 28  L 132.995983935743 28  L 117.493670886076 28  L 0 28  Z " fill-rule="evenodd" />
    </mask>
  </defs>
  <g transform="matrix(1 0 0 1 -86 -100 )">
    <path d="M 0 28  L 0 0  L 130.538152610442 0  L 136 0  L 136 28  L 132.995983935743 28  L 117.493670886076 28  L 0 28  Z " fill-rule="nonzero" fill="#393939" stroke="none" transform="matrix(1 0 0 1 86 100 )" />
    <path d="M 0 28  L 0 0  L 130.538152610442 0  L 136 0  L 136 28  L 132.995983935743 28  L 117.493670886076 28  L 0 28  Z " stroke-width="2" stroke="#797979" fill="none" transform="matrix(1 0 0 1 86 100 )" mask="url(#clip264)" />
  </g>
</svg>