<?xml version="1.0" encoding="utf-8"?>
<svg version="1.1" xmlns:xlink="http://www.w3.org/1999/xlink" width="12px" height="12px" viewBox="21 539.5  12 12" xmlns="http://www.w3.org/2000/svg">
  <path d="M 27 539.5  C 30.36 539.5  33 542.14  33 545.5  C 33 548.86  30.36 551.5  27 551.5  C 23.64 551.5  21 548.86  21 545.5  C 21 542.14  23.64 539.5  27 539.5  Z " fill-rule="nonzero" fill="#ffffff" stroke="none" />
  <path d="M 27 540  C 30.08 540  32.5 542.42  32.5 545.5  C 32.5 548.58  30.08 551  27 551  C 23.92 551  21.5 548.58  21.5 545.5  C 21.5 542.42  23.92 540  27 540  Z " stroke-width="1" stroke="#797979" fill="none" />
  <path d="M 27 548.5  C 25.32 548.5  24 547.18  24 545.5  C 24 543.82  25.32 542.5  27 542.5  C 28.68 542.5  30 543.82  30 545.5  C 30 547.18  28.68 548.5  27 548.5  " fill-rule="nonzero" fill="#797979" stroke="none" />
</svg>