<?xml version="1.0" encoding="utf-8"?>
<svg version="1.1" xmlns:xlink="http://www.w3.org/1999/xlink" width="12px" height="12px" viewBox="21 794.5  12 12" xmlns="http://www.w3.org/2000/svg">
  <path d="M 27 794.5  C 30.36 794.5  33 797.14  33 800.5  C 33 803.86  30.36 806.5  27 806.5  C 23.64 806.5  21 803.86  21 800.5  C 21 797.14  23.64 794.5  27 794.5  Z " fill-rule="nonzero" fill="#ffffff" stroke="none" />
  <path d="M 27 795  C 30.08 795  32.5 797.42  32.5 800.5  C 32.5 803.58  30.08 806  27 806  C 23.92 806  21.5 803.58  21.5 800.5  C 21.5 797.42  23.92 795  27 795  Z " stroke-width="1" stroke="#797979" fill="none" />
  <path d="M 27 803.5  C 25.32 803.5  24 802.18  24 800.5  C 24 798.82  25.32 797.5  27 797.5  C 28.68 797.5  30 798.82  30 800.5  C 30 802.18  28.68 803.5  27 803.5  " fill-rule="nonzero" fill="#797979" stroke="none" />
</svg>