<?xml version="1.0" encoding="utf-8"?>
<svg version="1.1" xmlns:xlink="http://www.w3.org/1999/xlink" width="12px" height="12px" viewBox="21 821.5  12 12" xmlns="http://www.w3.org/2000/svg">
  <path d="M 27 821.5  C 30.36 821.5  33 824.14  33 827.5  C 33 830.86  30.36 833.5  27 833.5  C 23.64 833.5  21 830.86  21 827.5  C 21 824.14  23.64 821.5  27 821.5  Z " fill-rule="nonzero" fill="#ffffff" stroke="none" />
  <path d="M 27 822  C 30.08 822  32.5 824.42  32.5 827.5  C 32.5 830.58  30.08 833  27 833  C 23.92 833  21.5 830.58  21.5 827.5  C 21.5 824.42  23.92 822  27 822  Z " stroke-width="1" stroke="#797979" fill="none" />
  <path d="M 27 830.5  C 25.32 830.5  24 829.18  24 827.5  C 24 825.82  25.32 824.5  27 824.5  C 28.68 824.5  30 825.82  30 827.5  C 30 829.18  28.68 830.5  27 830.5  " fill-rule="nonzero" fill="#797979" stroke="none" />
</svg>