<?xml version="1.0" encoding="utf-8"?>
<svg version="1.1" xmlns:xlink="http://www.w3.org/1999/xlink" width="12px" height="12px" viewBox="22 347  12 12" xmlns="http://www.w3.org/2000/svg">
  <path d="M 28 347  C 31.36 347  34 349.64  34 353  C 34 356.36  31.36 359  28 359  C 24.64 359  22 356.36  22 353  C 22 349.64  24.64 347  28 347  Z " fill-rule="nonzero" fill="#ffffff" stroke="none" />
  <path d="M 28 347.5  C 31.08 347.5  33.5 349.92  33.5 353  C 33.5 356.08  31.08 358.5  28 358.5  C 24.92 358.5  22.5 356.08  22.5 353  C 22.5 349.92  24.92 347.5  28 347.5  Z " stroke-width="1" stroke="#797979" fill="none" />
  <path d="M 28 356  C 26.32 356  25 354.68  25 353  C 25 351.32  26.32 350  28 350  C 29.68 350  31 351.32  31 353  C 31 354.68  29.68 356  28 356  " fill-rule="nonzero" fill="#797979" stroke="none" />
</svg>