<?xml version="1.0" encoding="utf-8"?>
<svg version="1.1" xmlns:xlink="http://www.w3.org/1999/xlink" width="200px" height="80px" xmlns="http://www.w3.org/2000/svg">
  <defs>
    <mask fill="white" id="clip265">
      <path d="M 0 80  L 0 0  L 191.967871485944 0  L 200 0  L 200 80  L 195.582329317269 80  L 172.784810126582 80  L 0 80  Z " fill-rule="evenodd" />
    </mask>
  </defs>
  <g transform="matrix(1 0 0 1 -111 -413 )">
    <path d="M 0 80  L 0 0  L 191.967871485944 0  L 200 0  L 200 80  L 195.582329317269 80  L 172.784810126582 80  L 0 80  Z " fill-rule="nonzero" fill="#393939" stroke="none" transform="matrix(1 0 0 1 111 413 )" />
    <path d="M 0 80  L 0 0  L 191.967871485944 0  L 200 0  L 200 80  L 195.582329317269 80  L 172.784810126582 80  L 0 80  Z " stroke-width="2" stroke="#797979" fill="none" transform="matrix(1 0 0 1 111 413 )" mask="url(#clip265)" />
  </g>
</svg>