<?xml version="1.0" encoding="utf-8"?>
<svg version="1.1" xmlns:xlink="http://www.w3.org/1999/xlink" width="170px" height="36px" xmlns="http://www.w3.org/2000/svg">
  <defs>
    <mask fill="white" id="clip261">
      <path d="M 0 36  L 0 0  L 163.172690763052 0  L 170 0  L 170 36  L 166.244979919679 36  L 146.867088607595 36  L 0 36  Z " fill-rule="evenodd" />
    </mask>
  </defs>
  <g transform="matrix(1 0 0 1 -86 -100 )">
    <path d="M 0 36  L 0 0  L 163.172690763052 0  L 170 0  L 170 36  L 166.244979919679 36  L 146.867088607595 36  L 0 36  Z " fill-rule="nonzero" fill="#393939" stroke="none" transform="matrix(1 0 0 1 86 100 )" />
    <path d="M 0 36  L 0 0  L 163.172690763052 0  L 170 0  L 170 36  L 166.244979919679 36  L 146.867088607595 36  L 0 36  Z " stroke-width="2" stroke="#797979" fill="none" transform="matrix(1 0 0 1 86 100 )" mask="url(#clip261)" />
  </g>
</svg>