<?xml version="1.0" encoding="utf-8"?>
<svg version="1.1" xmlns:xlink="http://www.w3.org/1999/xlink" width="12px" height="12px" viewBox="21 253.5  12 12" xmlns="http://www.w3.org/2000/svg">
  <path d="M 27 253.5  C 30.36 253.5  33 256.14  33 259.5  C 33 262.86  30.36 265.5  27 265.5  C 23.64 265.5  21 262.86  21 259.5  C 21 256.14  23.64 253.5  27 253.5  Z " fill-rule="nonzero" fill="#ffffff" stroke="none" />
  <path d="M 27 254  C 30.08 254  32.5 256.42  32.5 259.5  C 32.5 262.58  30.08 265  27 265  C 23.92 265  21.5 262.58  21.5 259.5  C 21.5 256.42  23.92 254  27 254  Z " stroke-width="1" stroke="#797979" fill="none" />
  <path d="M 27 262.5  C 25.32 262.5  24 261.18  24 259.5  C 24 257.82  25.32 256.5  27 256.5  C 28.68 256.5  30 257.82  30 259.5  C 30 261.18  28.68 262.5  27 262.5  " fill-rule="nonzero" fill="#797979" stroke="none" />
</svg>