<?xml version="1.0" encoding="utf-8"?>
<svg version="1.1" xmlns:xlink="http://www.w3.org/1999/xlink" width="12px" height="12px" viewBox="20 715.5  12 12" xmlns="http://www.w3.org/2000/svg">
  <path d="M 26 715.5  C 29.36 715.5  32 718.14  32 721.5  C 32 724.86  29.36 727.5  26 727.5  C 22.64 727.5  20 724.86  20 721.5  C 20 718.14  22.64 715.5  26 715.5  Z " fill-rule="nonzero" fill="#ffffff" stroke="none" />
  <path d="M 26 716  C 29.08 716  31.5 718.42  31.5 721.5  C 31.5 724.58  29.08 727  26 727  C 22.92 727  20.5 724.58  20.5 721.5  C 20.5 718.42  22.92 716  26 716  Z " stroke-width="1" stroke="#797979" fill="none" />
  <path d="M 26 724.5  C 24.32 724.5  23 723.18  23 721.5  C 23 719.82  24.32 718.5  26 718.5  C 27.68 718.5  29 719.82  29 721.5  C 29 723.18  27.68 724.5  26 724.5  " fill-rule="nonzero" fill="#797979" stroke="none" />
</svg>