<?xml version="1.0" encoding="utf-8"?>
<svg version="1.1" xmlns:xlink="http://www.w3.org/1999/xlink" width="12px" height="12px" viewBox="20 920.5  12 12" xmlns="http://www.w3.org/2000/svg">
  <path d="M 26 920.5  C 29.36 920.5  32 923.14  32 926.5  C 32 929.86  29.36 932.5  26 932.5  C 22.64 932.5  20 929.86  20 926.5  C 20 923.14  22.64 920.5  26 920.5  Z " fill-rule="nonzero" fill="#ffffff" stroke="none" />
  <path d="M 26 921  C 29.08 921  31.5 923.42  31.5 926.5  C 31.5 929.58  29.08 932  26 932  C 22.92 932  20.5 929.58  20.5 926.5  C 20.5 923.42  22.92 921  26 921  Z " stroke-width="1" stroke="#797979" fill="none" />
  <path d="M 26 929.5  C 24.32 929.5  23 928.18  23 926.5  C 23 924.82  24.32 923.5  26 923.5  C 27.68 923.5  29 924.82  29 926.5  C 29 928.18  27.68 929.5  26 929.5  " fill-rule="nonzero" fill="#797979" stroke="none" />
</svg>