<?xml version="1.0" encoding="utf-8"?>
<svg version="1.1" xmlns:xlink="http://www.w3.org/1999/xlink" width="12px" height="12px" viewBox="20 742.5  12 12" xmlns="http://www.w3.org/2000/svg">
  <path d="M 26 742.5  C 29.36 742.5  32 745.14  32 748.5  C 32 751.86  29.36 754.5  26 754.5  C 22.64 754.5  20 751.86  20 748.5  C 20 745.14  22.64 742.5  26 742.5  Z " fill-rule="nonzero" fill="#ffffff" stroke="none" />
  <path d="M 26 743  C 29.08 743  31.5 745.42  31.5 748.5  C 31.5 751.58  29.08 754  26 754  C 22.92 754  20.5 751.58  20.5 748.5  C 20.5 745.42  22.92 743  26 743  Z " stroke-width="1" stroke="#797979" fill="none" />
  <path d="M 26 751.5  C 24.32 751.5  23 750.18  23 748.5  C 23 746.82  24.32 745.5  26 745.5  C 27.68 745.5  29 746.82  29 748.5  C 29 750.18  27.68 751.5  26 751.5  " fill-rule="nonzero" fill="#797979" stroke="none" />
</svg>