<?xml version="1.0" encoding="utf-8"?>
<svg version="1.1" xmlns:xlink="http://www.w3.org/1999/xlink" width="12px" height="12px" viewBox="20 463.5  12 12" xmlns="http://www.w3.org/2000/svg">
  <path d="M 26 463.5  C 29.36 463.5  32 466.14  32 469.5  C 32 472.86  29.36 475.5  26 475.5  C 22.64 475.5  20 472.86  20 469.5  C 20 466.14  22.64 463.5  26 463.5  Z " fill-rule="nonzero" fill="#ffffff" stroke="none" />
  <path d="M 26 464  C 29.08 464  31.5 466.42  31.5 469.5  C 31.5 472.58  29.08 475  26 475  C 22.92 475  20.5 472.58  20.5 469.5  C 20.5 466.42  22.92 464  26 464  Z " stroke-width="1" stroke="#797979" fill="none" />
  <path d="M 26 472.5  C 24.32 472.5  23 471.18  23 469.5  C 23 467.82  24.32 466.5  26 466.5  C 27.68 466.5  29 467.82  29 469.5  C 29 471.18  27.68 472.5  26 472.5  " fill-rule="nonzero" fill="#797979" stroke="none" />
</svg>