<?xml version="1.0" encoding="utf-8"?>
<svg version="1.1" xmlns:xlink="http://www.w3.org/1999/xlink" width="240px" height="100px" xmlns="http://www.w3.org/2000/svg">
  <defs>
    <mask fill="white" id="clip268">
      <path d="M 0 100  L 0 0  L 230.361445783133 0  L 240 0  L 240 100  L 234.698795180723 100  L 207.341772151899 100  L 0 100  Z " fill-rule="evenodd" />
    </mask>
  </defs>
  <g transform="matrix(1 0 0 1 -148 -64 )">
    <path d="M 0 100  L 0 0  L 230.361445783133 0  L 240 0  L 240 100  L 234.698795180723 100  L 207.341772151899 100  L 0 100  Z " fill-rule="nonzero" fill="#393939" stroke="none" transform="matrix(1 0 0 1 148 64 )" />
    <path d="M 0 100  L 0 0  L 230.361445783133 0  L 240 0  L 240 100  L 234.698795180723 100  L 207.341772151899 100  L 0 100  Z " stroke-width="2" stroke="#797979" fill="none" transform="matrix(1 0 0 1 148 64 )" mask="url(#clip268)" />
  </g>
</svg>