<?xml version="1.0" encoding="utf-8"?>
<svg version="1.1" xmlns:xlink="http://www.w3.org/1999/xlink" width="12px" height="12px" viewBox="21 398  12 12" xmlns="http://www.w3.org/2000/svg">
  <path d="M 27 398  C 30.36 398  33 400.64  33 404  C 33 407.36  30.36 410  27 410  C 23.64 410  21 407.36  21 404  C 21 400.64  23.64 398  27 398  Z " fill-rule="nonzero" fill="#ffffff" stroke="none" />
  <path d="M 27 398.5  C 30.08 398.5  32.5 400.92  32.5 404  C 32.5 407.08  30.08 409.5  27 409.5  C 23.92 409.5  21.5 407.08  21.5 404  C 21.5 400.92  23.92 398.5  27 398.5  Z " stroke-width="1" stroke="#797979" fill="none" />
  <path d="M 27 407  C 25.32 407  24 405.68  24 404  C 24 402.32  25.32 401  27 401  C 28.68 401  30 402.32  30 404  C 30 405.68  28.68 407  27 407  " fill-rule="nonzero" fill="#797979" stroke="none" />
</svg>