<?xml version="1.0" encoding="utf-8"?>
<svg version="1.1" xmlns:xlink="http://www.w3.org/1999/xlink" width="12px" height="12px" viewBox="20 515.5  12 12" xmlns="http://www.w3.org/2000/svg">
  <path d="M 26 515.5  C 29.36 515.5  32 518.14  32 521.5  C 32 524.86  29.36 527.5  26 527.5  C 22.64 527.5  20 524.86  20 521.5  C 20 518.14  22.64 515.5  26 515.5  Z " fill-rule="nonzero" fill="#ffffff" stroke="none" />
  <path d="M 26 516  C 29.08 516  31.5 518.42  31.5 521.5  C 31.5 524.58  29.08 527  26 527  C 22.92 527  20.5 524.58  20.5 521.5  C 20.5 518.42  22.92 516  26 516  Z " stroke-width="1" stroke="#797979" fill="none" />
  <path d="M 26 524.5  C 24.32 524.5  23 523.18  23 521.5  C 23 519.82  24.32 518.5  26 518.5  C 27.68 518.5  29 519.82  29 521.5  C 29 523.18  27.68 524.5  26 524.5  " fill-rule="nonzero" fill="#797979" stroke="none" />
</svg>