<?xml version="1.0" encoding="utf-8"?>
<svg version="1.1" xmlns:xlink="http://www.w3.org/1999/xlink" width="12px" height="12px" viewBox="20 264.5  12 12" xmlns="http://www.w3.org/2000/svg">
  <path d="M 26 264.5  C 29.36 264.5  32 267.14  32 270.5  C 32 273.86  29.36 276.5  26 276.5  C 22.64 276.5  20 273.86  20 270.5  C 20 267.14  22.64 264.5  26 264.5  Z " fill-rule="nonzero" fill="#ffffff" stroke="none" />
  <path d="M 26 265  C 29.08 265  31.5 267.42  31.5 270.5  C 31.5 273.58  29.08 276  26 276  C 22.92 276  20.5 273.58  20.5 270.5  C 20.5 267.42  22.92 265  26 265  Z " stroke-width="1" stroke="#797979" fill="none" />
  <path d="M 26 273.5  C 24.32 273.5  23 272.18  23 270.5  C 23 268.82  24.32 267.5  26 267.5  C 27.68 267.5  29 268.82  29 270.5  C 29 272.18  27.68 273.5  26 273.5  " fill-rule="nonzero" fill="#797979" stroke="none" />
</svg>