<?xml version="1.0" encoding="utf-8"?>
<svg version="1.1" xmlns:xlink="http://www.w3.org/1999/xlink" width="12px" height="12px" viewBox="20 234.5  12 12" xmlns="http://www.w3.org/2000/svg">
  <path d="M 26 234.5  C 29.36 234.5  32 237.14  32 240.5  C 32 243.86  29.36 246.5  26 246.5  C 22.64 246.5  20 243.86  20 240.5  C 20 237.14  22.64 234.5  26 234.5  Z " fill-rule="nonzero" fill="#ffffff" stroke="none" />
  <path d="M 26 235  C 29.08 235  31.5 237.42  31.5 240.5  C 31.5 243.58  29.08 246  26 246  C 22.92 246  20.5 243.58  20.5 240.5  C 20.5 237.42  22.92 235  26 235  Z " stroke-width="1" stroke="#797979" fill="none" />
  <path d="M 26 243.5  C 24.32 243.5  23 242.18  23 240.5  C 23 238.82  24.32 237.5  26 237.5  C 27.68 237.5  29 238.82  29 240.5  C 29 242.18  27.68 243.5  26 243.5  " fill-rule="nonzero" fill="#797979" stroke="none" />
</svg>