<?xml version="1.0" encoding="utf-8"?>
<svg version="1.1" xmlns:xlink="http://www.w3.org/1999/xlink" width="110px" height="110px" xmlns="http://www.w3.org/2000/svg">
  <defs>
    <mask fill="white" id="clip275">
      <path d="M 0 60.0000000003552  L 0 0  C 61.5999999999999 0  110 48.4000000000001  110 110  L 50 110  C 50 82  28 60  0 60.0000000003552  Z " fill-rule="evenodd" />
    </mask>
  </defs>
  <g transform="matrix(1 0 0 1 -551 -387 )">
    <path d="M 0 60.0000000003552  L 0 0  C 61.5999999999999 0  110 48.4000000000001  110 110  L 50 110  C 50 82  28 60  0 60.0000000003552  Z " fill-rule="nonzero" fill="#ffffff" stroke="none" transform="matrix(1 0 0 1 551 387 )" />
    <path d="M 0 60.0000000003552  L 0 0  C 61.5999999999999 0  110 48.4000000000001  110 110  L 50 110  C 50 82  28 60  0 60.0000000003552  Z " stroke-width="2" stroke="#d7d7d7" fill="none" transform="matrix(1 0 0 1 551 387 )" mask="url(#clip275)" />
  </g>
</svg>