<?xml version="1.0" encoding="utf-8"?>
<svg version="1.1" xmlns:xlink="http://www.w3.org/1999/xlink" width="110px" height="110px" xmlns="http://www.w3.org/2000/svg">
  <defs>
    <mask fill="white" id="clip282">
      <path d="M 110 49.9999999996448  L 110 110  C 48.4000000000001 110  0 61.5999999999999  0 0  L 60 0  C 60 28  82 50  110 49.9999999996448  Z " fill-rule="evenodd" />
    </mask>
  </defs>
  <g transform="matrix(1 0 0 1 -442 -496 )">
    <path d="M 110 49.9999999996448  L 110 110  C 48.4000000000001 110  0 61.5999999999999  0 0  L 60 0  C 60 28  82 50  110 49.9999999996448  Z " fill-rule="nonzero" fill="#409eff" stroke="none" fill-opacity="0.647058823529412" transform="matrix(1 0 0 1 442 496 )" />
    <path d="M 110 49.9999999996448  L 110 110  C 48.4000000000001 110  0 61.5999999999999  0 0  L 60 0  C 60 28  82 50  110 49.9999999996448  Z " stroke-width="2" stroke="#d7d7d7" fill="none" transform="matrix(1 0 0 1 442 496 )" mask="url(#clip282)" />
  </g>
</svg>