<?xml version="1.0" encoding="utf-8"?>
<svg version="1.1" xmlns:xlink="http://www.w3.org/1999/xlink" width="12px" height="12px" viewBox="21 800.5  12 12" xmlns="http://www.w3.org/2000/svg">
  <path d="M 27 800.5  C 30.36 800.5  33 803.14  33 806.5  C 33 809.86  30.36 812.5  27 812.5  C 23.64 812.5  21 809.86  21 806.5  C 21 803.14  23.64 800.5  27 800.5  Z " fill-rule="nonzero" fill="#ffffff" stroke="none" />
  <path d="M 27 801  C 30.08 801  32.5 803.42  32.5 806.5  C 32.5 809.58  30.08 812  27 812  C 23.92 812  21.5 809.58  21.5 806.5  C 21.5 803.42  23.92 801  27 801  Z " stroke-width="1" stroke="#797979" fill="none" />
  <path d="M 27 809.5  C 25.32 809.5  24 808.18  24 806.5  C 24 804.82  25.32 803.5  27 803.5  C 28.68 803.5  30 804.82  30 806.5  C 30 808.18  28.68 809.5  27 809.5  " fill-rule="nonzero" fill="#797979" stroke="none" />
</svg>