<?xml version="1.0" encoding="utf-8"?>
<svg version="1.1" xmlns:xlink="http://www.w3.org/1999/xlink" width="12px" height="12px" viewBox="220 234.5  12 12" xmlns="http://www.w3.org/2000/svg">
  <path d="M 226 234.5  C 229.36 234.5  232 237.14  232 240.5  C 232 243.86  229.36 246.5  226 246.5  C 222.64 246.5  220 243.86  220 240.5  C 220 237.14  222.64 234.5  226 234.5  Z " fill-rule="nonzero" fill="#ffffff" stroke="none" />
  <path d="M 226 235  C 229.08 235  231.5 237.42  231.5 240.5  C 231.5 243.58  229.08 246  226 246  C 222.92 246  220.5 243.58  220.5 240.5  C 220.5 237.42  222.92 235  226 235  Z " stroke-width="1" stroke="#797979" fill="none" />
  <path d="M 226 243.5  C 224.32 243.5  223 242.18  223 240.5  C 223 238.82  224.32 237.5  226 237.5  C 227.68 237.5  229 238.82  229 240.5  C 229 242.18  227.68 243.5  226 243.5  " fill-rule="nonzero" fill="#797979" stroke="none" />
</svg>