<?xml version="1.0" encoding="utf-8"?>
<svg version="1.1" xmlns:xlink="http://www.w3.org/1999/xlink" width="12px" height="12px" viewBox="21 835.5  12 12" xmlns="http://www.w3.org/2000/svg">
  <path d="M 27 835.5  C 30.36 835.5  33 838.14  33 841.5  C 33 844.86  30.36 847.5  27 847.5  C 23.64 847.5  21 844.86  21 841.5  C 21 838.14  23.64 835.5  27 835.5  Z " fill-rule="nonzero" fill="#ffffff" stroke="none" />
  <path d="M 27 836  C 30.08 836  32.5 838.42  32.5 841.5  C 32.5 844.58  30.08 847  27 847  C 23.92 847  21.5 844.58  21.5 841.5  C 21.5 838.42  23.92 836  27 836  Z " stroke-width="1" stroke="#797979" fill="none" />
  <path d="M 27 844.5  C 25.32 844.5  24 843.18  24 841.5  C 24 839.82  25.32 838.5  27 838.5  C 28.68 838.5  30 839.82  30 841.5  C 30 843.18  28.68 844.5  27 844.5  " fill-rule="nonzero" fill="#797979" stroke="none" />
</svg>