<?xml version="1.0" encoding="utf-8"?>
<svg version="1.1" xmlns:xlink="http://www.w3.org/1999/xlink" width="12px" height="12px" viewBox="21 358  12 12" xmlns="http://www.w3.org/2000/svg">
  <path d="M 27 358  C 30.36 358  33 360.64  33 364  C 33 367.36  30.36 370  27 370  C 23.64 370  21 367.36  21 364  C 21 360.64  23.64 358  27 358  Z " fill-rule="nonzero" fill="#ffffff" stroke="none" />
  <path d="M 27 358.5  C 30.08 358.5  32.5 360.92  32.5 364  C 32.5 367.08  30.08 369.5  27 369.5  C 23.92 369.5  21.5 367.08  21.5 364  C 21.5 360.92  23.92 358.5  27 358.5  Z " stroke-width="1" stroke="#797979" fill="none" />
  <path d="M 27 367  C 25.32 367  24 365.68  24 364  C 24 362.32  25.32 361  27 361  C 28.68 361  30 362.32  30 364  C 30 365.68  28.68 367  27 367  " fill-rule="nonzero" fill="#797979" stroke="none" />
</svg>