<?xml version="1.0" encoding="utf-8"?>
<svg version="1.1" xmlns:xlink="http://www.w3.org/1999/xlink" width="109px" height="109px" xmlns="http://www.w3.org/2000/svg">
  <defs>
    <mask fill="white" id="clip272">
      <path d="M 59.4545454548974 109  L 0 109  C 0 47.9600000000001  47.9600000000001 0  109 0  L 109 59.4545454545455  C 81.2545454545455 59.4545454545455  59.4545454545455 81.2545454545455  59.4545454548974 109  Z " fill-rule="evenodd" />
    </mask>
  </defs>
  <g transform="matrix(1 0 0 1 -442 -387 )">
    <path d="M 59.4545454548974 109  L 0 109  C 0 47.9600000000001  47.9600000000001 0  109 0  L 109 59.4545454545455  C 81.2545454545455 59.4545454545455  59.4545454545455 81.2545454545455  59.4545454548974 109  Z " fill-rule="nonzero" fill="#ffffff" stroke="none" transform="matrix(1 0 0 1 442 387 )" />
    <path d="M 59.4545454548974 109  L 0 109  C 0 47.9600000000001  47.9600000000001 0  109 0  L 109 59.4545454545455  C 81.2545454545455 59.4545454545455  59.4545454545455 81.2545454545455  59.4545454548974 109  Z " stroke-width="2" stroke="#d7d7d7" fill="none" transform="matrix(1 0 0 1 442 387 )" mask="url(#clip272)" />
  </g>
</svg>