<?xml version="1.0" encoding="utf-8"?>
<svg version="1.1" xmlns:xlink="http://www.w3.org/1999/xlink" width="12px" height="12px" viewBox="11 112  12 12" xmlns="http://www.w3.org/2000/svg">
  <path d="M 17 112  C 20.36 112  23 114.64  23 118  C 23 121.36  20.36 124  17 124  C 13.64 124  11 121.36  11 118  C 11 114.64  13.64 112  17 112  Z " fill-rule="nonzero" fill="#ffffff" stroke="none" />
  <path d="M 17 112.5  C 20.08 112.5  22.5 114.92  22.5 118  C 22.5 121.08  20.08 123.5  17 123.5  C 13.92 123.5  11.5 121.08  11.5 118  C 11.5 114.92  13.92 112.5  17 112.5  Z " stroke-width="1" stroke="#797979" fill="none" />
  <path d="M 17 121  C 15.32 121  14 119.68  14 118  C 14 116.32  15.32 115  17 115  C 18.68 115  20 116.32  20 118  C 20 119.68  18.68 121  17 121  " fill-rule="nonzero" fill="#797979" stroke="none" />
</svg>