<?xml version="1.0" encoding="utf-8"?>
<svg version="1.1" xmlns:xlink="http://www.w3.org/1999/xlink" width="12px" height="12px" viewBox="575 337.5  12 12" xmlns="http://www.w3.org/2000/svg">
  <path d="M 581 337.5  C 584.36 337.5  587 340.14  587 343.5  C 587 346.86  584.36 349.5  581 349.5  C 577.64 349.5  575 346.86  575 343.5  C 575 340.14  577.64 337.5  581 337.5  Z " fill-rule="nonzero" fill="#ffffff" stroke="none" />
  <path d="M 581 338  C 584.08 338  586.5 340.42  586.5 343.5  C 586.5 346.58  584.08 349  581 349  C 577.92 349  575.5 346.58  575.5 343.5  C 575.5 340.42  577.92 338  581 338  Z " stroke-width="1" stroke="#797979" fill="none" />
  <path d="M 581 346.5  C 579.32 346.5  578 345.18  578 343.5  C 578 341.82  579.32 340.5  581 340.5  C 582.68 340.5  584 341.82  584 343.5  C 584 345.18  582.68 346.5  581 346.5  " fill-rule="nonzero" fill="#797979" stroke="none" />
</svg>