<?xml version="1.0" encoding="utf-8"?>
<svg version="1.1" xmlns:xlink="http://www.w3.org/1999/xlink" width="12px" height="12px" viewBox="651 337.5  12 12" xmlns="http://www.w3.org/2000/svg">
  <path d="M 657 337.5  C 660.36 337.5  663 340.14  663 343.5  C 663 346.86  660.36 349.5  657 349.5  C 653.64 349.5  651 346.86  651 343.5  C 651 340.14  653.64 337.5  657 337.5  Z " fill-rule="nonzero" fill="#ffffff" stroke="none" />
  <path d="M 657 338  C 660.08 338  662.5 340.42  662.5 343.5  C 662.5 346.58  660.08 349  657 349  C 653.92 349  651.5 346.58  651.5 343.5  C 651.5 340.42  653.92 338  657 338  Z " stroke-width="1" stroke="#797979" fill="none" />
  <path d="M 657 346.5  C 655.32 346.5  654 345.18  654 343.5  C 654 341.82  655.32 340.5  657 340.5  C 658.68 340.5  660 341.82  660 343.5  C 660 345.18  658.68 346.5  657 346.5  " fill-rule="nonzero" fill="#797979" stroke="none" />
</svg>