<?xml version="1.0" encoding="utf-8"?>
<svg version="1.1" xmlns:xlink="http://www.w3.org/1999/xlink" width="12px" height="12px" viewBox="575 296.5  12 12" xmlns="http://www.w3.org/2000/svg">
  <path d="M 581 296.5  C 584.36 296.5  587 299.14  587 302.5  C 587 305.86  584.36 308.5  581 308.5  C 577.64 308.5  575 305.86  575 302.5  C 575 299.14  577.64 296.5  581 296.5  Z " fill-rule="nonzero" fill="#ffffff" stroke="none" />
  <path d="M 581 297  C 584.08 297  586.5 299.42  586.5 302.5  C 586.5 305.58  584.08 308  581 308  C 577.92 308  575.5 305.58  575.5 302.5  C 575.5 299.42  577.92 297  581 297  Z " stroke-width="1" stroke="#797979" fill="none" />
  <path d="M 581 305.5  C 579.32 305.5  578 304.18  578 302.5  C 578 300.82  579.32 299.5  581 299.5  C 582.68 299.5  584 300.82  584 302.5  C 584 304.18  582.68 305.5  581 305.5  " fill-rule="nonzero" fill="#797979" stroke="none" />
</svg>