<?xml version="1.0" encoding="utf-8"?>
<svg version="1.1" xmlns:xlink="http://www.w3.org/1999/xlink" width="12px" height="12px" viewBox="651 494.5  12 12" xmlns="http://www.w3.org/2000/svg">
  <path d="M 657 494.5  C 660.36 494.5  663 497.14  663 500.5  C 663 503.86  660.36 506.5  657 506.5  C 653.64 506.5  651 503.86  651 500.5  C 651 497.14  653.64 494.5  657 494.5  Z " fill-rule="nonzero" fill="#ffffff" stroke="none" />
  <path d="M 657 495  C 660.08 495  662.5 497.42  662.5 500.5  C 662.5 503.58  660.08 506  657 506  C 653.92 506  651.5 503.58  651.5 500.5  C 651.5 497.42  653.92 495  657 495  Z " stroke-width="1" stroke="#797979" fill="none" />
  <path d="M 657 503.5  C 655.32 503.5  654 502.18  654 500.5  C 654 498.82  655.32 497.5  657 497.5  C 658.68 497.5  660 498.82  660 500.5  C 660 502.18  658.68 503.5  657 503.5  " fill-rule="nonzero" fill="#797979" stroke="none" />
</svg>