<?xml version="1.0" encoding="utf-8"?>
<svg version="1.1" xmlns:xlink="http://www.w3.org/1999/xlink" width="12px" height="12px" viewBox="575 456.5  12 12" xmlns="http://www.w3.org/2000/svg">
  <path d="M 581 456.5  C 584.36 456.5  587 459.14  587 462.5  C 587 465.86  584.36 468.5  581 468.5  C 577.64 468.5  575 465.86  575 462.5  C 575 459.14  577.64 456.5  581 456.5  Z " fill-rule="nonzero" fill="#ffffff" stroke="none" />
  <path d="M 581 457  C 584.08 457  586.5 459.42  586.5 462.5  C 586.5 465.58  584.08 468  581 468  C 577.92 468  575.5 465.58  575.5 462.5  C 575.5 459.42  577.92 457  581 457  Z " stroke-width="1" stroke="#797979" fill="none" />
  <path d="M 581 465.5  C 579.32 465.5  578 464.18  578 462.5  C 578 460.82  579.32 459.5  581 459.5  C 582.68 459.5  584 460.82  584 462.5  C 584 464.18  582.68 465.5  581 465.5  " fill-rule="nonzero" fill="#797979" stroke="none" />
</svg>