<?xml version="1.0" encoding="utf-8"?>
<svg version="1.1" xmlns:xlink="http://www.w3.org/1999/xlink" width="12px" height="12px" viewBox="575 416.5  12 12" xmlns="http://www.w3.org/2000/svg">
  <path d="M 581 416.5  C 584.36 416.5  587 419.14  587 422.5  C 587 425.86  584.36 428.5  581 428.5  C 577.64 428.5  575 425.86  575 422.5  C 575 419.14  577.64 416.5  581 416.5  Z " fill-rule="nonzero" fill="#ffffff" stroke="none" />
  <path d="M 581 417  C 584.08 417  586.5 419.42  586.5 422.5  C 586.5 425.58  584.08 428  581 428  C 577.92 428  575.5 425.58  575.5 422.5  C 575.5 419.42  577.92 417  581 417  Z " stroke-width="1" stroke="#797979" fill="none" />
  <path d="M 581 425.5  C 579.32 425.5  578 424.18  578 422.5  C 578 420.82  579.32 419.5  581 419.5  C 582.68 419.5  584 420.82  584 422.5  C 584 424.18  582.68 425.5  581 425.5  " fill-rule="nonzero" fill="#797979" stroke="none" />
</svg>