<?xml version="1.0" encoding="utf-8"?>
<svg version="1.1" xmlns:xlink="http://www.w3.org/1999/xlink" width="12px" height="12px" viewBox="651 416.5  12 12" xmlns="http://www.w3.org/2000/svg">
  <path d="M 657 416.5  C 660.36 416.5  663 419.14  663 422.5  C 663 425.86  660.36 428.5  657 428.5  C 653.64 428.5  651 425.86  651 422.5  C 651 419.14  653.64 416.5  657 416.5  Z " fill-rule="nonzero" fill="#ffffff" stroke="none" />
  <path d="M 657 417  C 660.08 417  662.5 419.42  662.5 422.5  C 662.5 425.58  660.08 428  657 428  C 653.92 428  651.5 425.58  651.5 422.5  C 651.5 419.42  653.92 417  657 417  Z " stroke-width="1" stroke="#797979" fill="none" />
  <path d="M 657 425.5  C 655.32 425.5  654 424.18  654 422.5  C 654 420.82  655.32 419.5  657 419.5  C 658.68 419.5  660 420.82  660 422.5  C 660 424.18  658.68 425.5  657 425.5  " fill-rule="nonzero" fill="#797979" stroke="none" />
</svg>