<?xml version="1.0" encoding="utf-8"?>
<svg version="1.1" xmlns:xlink="http://www.w3.org/1999/xlink" width="12px" height="12px" viewBox="651 376.5  12 12" xmlns="http://www.w3.org/2000/svg">
  <path d="M 657 376.5  C 660.36 376.5  663 379.14  663 382.5  C 663 385.86  660.36 388.5  657 388.5  C 653.64 388.5  651 385.86  651 382.5  C 651 379.14  653.64 376.5  657 376.5  Z " fill-rule="nonzero" fill="#ffffff" stroke="none" />
  <path d="M 657 377  C 660.08 377  662.5 379.42  662.5 382.5  C 662.5 385.58  660.08 388  657 388  C 653.92 388  651.5 385.58  651.5 382.5  C 651.5 379.42  653.92 377  657 377  Z " stroke-width="1" stroke="#797979" fill="none" />
  <path d="M 657 385.5  C 655.32 385.5  654 384.18  654 382.5  C 654 380.82  655.32 379.5  657 379.5  C 658.68 379.5  660 380.82  660 382.5  C 660 384.18  658.68 385.5  657 385.5  " fill-rule="nonzero" fill="#797979" stroke="none" />
</svg>