<?xml version="1.0" encoding="utf-8"?>
<svg version="1.1" xmlns:xlink="http://www.w3.org/1999/xlink" width="16px" height="15px" xmlns="http://www.w3.org/2000/svg">
  <g transform="matrix(1 0 0 1 -820 -135 )">
    <path d="M 7.46188340807175 11.25  L 7.96412556053812 11.25  L 9.00448430493273 10.0142045454545  L 7.64125560538117 8.39488636363636  L 6.60089686098655 9.63068181818182  L 6.60089686098655 10.2272727272727  L 7.46188340807175 10.2272727272727  L 7.46188340807175 11.25  Z M 11.9013452914798 3.93110795454545  C 12.0029895366218 3.81036931818182  12.0059790732436 3.69318181818182  11.9103139013453 3.57954545454545  C 11.8146487294469 3.46590909090909  11.7159940209268 3.46946022727273  11.6143497757848 3.59019886363636  L 8.47533632286996 7.31889204545455  C 8.37369207772795 7.43963068181818  8.37070254110613 7.55681818181818  8.46636771300448 7.67045454545455  C 8.56203288490284 7.78409090909091  8.66068759342302 7.78053977272727  8.76233183856502 7.65980113636364  L 11.9013452914798 3.93110795454545  Z M 12.4484304932735 9.59872159090909  C 12.5680119581465 9.65553977272727  12.627802690583 9.75852272727273  12.627802690583 9.90767045454546  L 12.627802690583 11.9318181818182  C 12.627802690583 12.7769886363636  12.3751868460389 13.4996448863636  11.8699551569507 14.0997869318182  C 11.3647234678625 14.6999289772727  10.7563527653214 15  10.0448430493274 15  L 2.58295964125561 15  C 1.87144992526158 15  1.26307922272048 14.6999289772727  0.757847533632287 14.0997869318182  C 0.252615844544096 13.4996448863636  0 12.7769886363636  0 11.9318181818182  L 0 3.06818181818182  C 0 2.22301136363636  0.252615844544096 1.50035511363636  0.757847533632287 0.900213068181819  C 1.26307922272048 0.300071022727271  1.87144992526158 0  2.58295964125561 0  L 10.0448430493274 0  C 10.4215246636771 0  10.7713004484305 0.0887784090909083  11.0941704035874 0.266335227272727  C 11.1838565022422 0.316051136363635  11.237668161435 0.397727272727272  11.2556053811659 0.511363636363636  C 11.2735426008969 0.632102272727272  11.2466367713004 0.735085227272727  11.1748878923767 0.8203125  L 10.7354260089686 1.34232954545455  C 10.6517189835575 1.44176136363636  10.5560538116592 1.47017045454545  10.4484304932735 1.42755681818182  C 10.3109118086697 1.38494318181818  10.1763826606876 1.36363636363636  10.0448430493274 1.36363636363636  L 2.58295964125561 1.36363636363636  C 2.18834080717489 1.36363636363636  1.85052316890882 1.53053977272727  1.5695067264574 1.86434659090909  C 1.28849028400598 2.19815340909091  1.14798206278027 2.59943181818182  1.14798206278027 3.06818181818182  L 1.14798206278027 11.9318181818182  C 1.14798206278027 12.4005681818182  1.28849028400598 12.8018465909091  1.5695067264574 13.1356534090909  C 1.85052316890882 13.4694602272727  2.18834080717489 13.6363636363636  2.58295964125561 13.6363636363636  L 10.0448430493274 13.6363636363636  C 10.4394618834081 13.6363636363636  10.7772795216741 13.4694602272727  11.0582959641256 13.1356534090909  C 11.339312406577 12.8018465909091  11.4798206278027 12.4005681818182  11.4798206278027 11.9318181818182  L 11.4798206278027 10.5894886363636  C 11.4798206278027 10.4971590909091  11.5067264573991 10.4190340909091  11.5605381165919 10.3551136363636  L 12.1345291479821 9.67329545454546  C 12.2242152466368 9.56676136363636  12.3288490284006 9.54190340909091  12.4484304932735 9.59872159090909  Z M 5.73991031390135 9.20454545454546  L 11.7668161434978 2.04545454545455  L 14.3497757847534 5.11363636363636  L 8.32286995515695 12.2727272727273  L 5.73991031390135 12.2727272727273  L 5.73991031390135 9.20454545454546  Z M 16 2.72727272727273  C 16 3.01136363636364  15.9162929745889 3.25284090909091  15.7488789237668 3.45170454545455  L 14.9237668161435 4.43181818181818  L 12.3408071748879 1.36363636363636  L 13.1659192825112 0.383522727272727  C 13.3333333333333 0.184659090909089  13.5366218236173 0.0852272727272735  13.7757847533632 0.0852272727272735  C 14.0149476831091 0.0852272727272735  14.2182361733931 0.184659090909089  14.3856502242152 0.383522727272727  L 15.7488789237668 2.00284090909091  C 15.9162929745889 2.20170454545454  16 2.44318181818182  16 2.72727272727273  Z " fill-rule="nonzero" fill="#7f7f7f" stroke="none" transform="matrix(1 0 0 1 820 135 )" />
  </g>
</svg>