<?xml version="1.0" encoding="utf-8"?>
<svg version="1.1" xmlns:xlink="http://www.w3.org/1999/xlink" width="16px" height="13px" xmlns="http://www.w3.org/2000/svg">
  <g transform="matrix(1 0 0 1 -1091 -136 )">
    <path d="M 2.7036303630363 11.9016501650165  L 3.83366336633663 11.9016501650165  L 4.79471947194719 11.1207920792079  L 2.31287128712871 9.10429042904291  L 1.35181518151815 9.88514851485149  L 1.35181518151815 10.803300330033  L 2.7036303630363 10.803300330033  L 2.7036303630363 11.9016501650165  Z M 9.28316831683168 4.08448844884488  C 9.33245324532453 4.04444444444444  9.35709570957096 3.9958195819582  9.35709570957096 3.93861386138614  C 9.35709570957096 3.81276127612761  9.27964796479648 3.74983498349835  9.12475247524752 3.74983498349835  C 9.05434543454346 3.74983498349835  8.994499449945 3.76985698569857  8.94521452145215 3.80990099009901  L 3.22112211221122 8.46072607260726  C 3.17183718371837 8.5007700770077  3.14719471947195 8.54939493949395  3.14719471947195 8.60660066006601  C 3.14719471947195 8.73245324532453  3.22464246424643 8.7953795379538  3.37953795379538 8.7953795379538  C 3.44994499449945 8.7953795379538  3.50979097909791 8.77535753575357  3.55907590759076 8.73531353135314  L 9.28316831683168 4.08448844884488  Z M 0 9.43036303630363  L 8.78679867986799 2.29108910891089  L 13.180198019802 5.86072607260726  L 4.39339933993399 13  L 0 13  L 0 9.43036303630363  Z M 15.6092409240924 2.33399339933993  C 15.8697469746975 2.55709570957096  16 2.81738173817382  16 3.11485148514852  C 16 3.41804180418042  15.8697469746975 3.67546754675467  15.6092409240924 3.88712871287129  L 13.8561056105611 5.31155115511551  L 9.46270627062706 1.74191419141914  L 11.2158415841584 0.326072607260725  C 11.4693069306931 0.108690869086908  11.7861386138614 0  12.1663366336634 0  C 12.5394939493949 0  12.8598459845985 0.108690869086908  13.1273927392739 0.326072607260725  L 15.6092409240924 2.33399339933993  Z " fill-rule="nonzero" fill="#7f7f7f" stroke="none" transform="matrix(1 0 0 1 1091 136 )" />
  </g>
</svg>