<?xml version="1.0" encoding="utf-8"?>
<svg version="1.1" xmlns:xlink="http://www.w3.org/1999/xlink" width="12px" height="12px" viewBox="24 135.5  12 12" xmlns="http://www.w3.org/2000/svg">
  <path d="M 30 135.5  C 33.36 135.5  36 138.14  36 141.5  C 36 144.86  33.36 147.5  30 147.5  C 26.64 147.5  24 144.86  24 141.5  C 24 138.14  26.64 135.5  30 135.5  Z " fill-rule="nonzero" fill="#ffffff" stroke="none" />
  <path d="M 30 136  C 33.08 136  35.5 138.42  35.5 141.5  C 35.5 144.58  33.08 147  30 147  C 26.92 147  24.5 144.58  24.5 141.5  C 24.5 138.42  26.92 136  30 136  Z " stroke-width="1" stroke="#797979" fill="none" />
  <path d="M 30 144.5  C 28.32 144.5  27 143.18  27 141.5  C 27 139.82  28.32 138.5  30 138.5  C 31.68 138.5  33 139.82  33 141.5  C 33 143.18  31.68 144.5  30 144.5  " fill-rule="nonzero" fill="#797979" stroke="none" />
</svg>