<?xml version="1.0" encoding="utf-8"?>
<svg version="1.1" xmlns:xlink="http://www.w3.org/1999/xlink" width="12px" height="12px" viewBox="285 681  12 12" xmlns="http://www.w3.org/2000/svg">
  <path d="M 291 681  C 294.36 681  297 683.64  297 687  C 297 690.36  294.36 693  291 693  C 287.64 693  285 690.36  285 687  C 285 683.64  287.64 681  291 681  Z " fill-rule="nonzero" fill="#ffffff" stroke="none" />
  <path d="M 291 681.5  C 294.08 681.5  296.5 683.92  296.5 687  C 296.5 690.08  294.08 692.5  291 692.5  C 287.92 692.5  285.5 690.08  285.5 687  C 285.5 683.92  287.92 681.5  291 681.5  Z " stroke-width="1" stroke="#797979" fill="none" />
  <path d="M 291 690  C 289.32 690  288 688.68  288 687  C 288 685.32  289.32 684  291 684  C 292.68 684  294 685.32  294 687  C 294 688.68  292.68 690  291 690  " fill-rule="nonzero" fill="#797979" stroke="none" />
</svg>