<?xml version="1.0" encoding="utf-8"?>
<svg version="1.1" xmlns:xlink="http://www.w3.org/1999/xlink" width="12px" height="12px" viewBox="554 38.5  12 12" xmlns="http://www.w3.org/2000/svg">
  <path d="M 560 38.5  C 563.36 38.5  566 41.14  566 44.5  C 566 47.86  563.36 50.5  560 50.5  C 556.64 50.5  554 47.86  554 44.5  C 554 41.14  556.64 38.5  560 38.5  Z " fill-rule="nonzero" fill="#ffffff" stroke="none" />
  <path d="M 560 39  C 563.08 39  565.5 41.42  565.5 44.5  C 565.5 47.58  563.08 50  560 50  C 556.92 50  554.5 47.58  554.5 44.5  C 554.5 41.42  556.92 39  560 39  Z " stroke-width="1" stroke="#797979" fill="none" />
  <path d="M 560 47.5  C 558.32 47.5  557 46.18  557 44.5  C 557 42.82  558.32 41.5  560 41.5  C 561.68 41.5  563 42.82  563 44.5  C 563 46.18  561.68 47.5  560 47.5  " fill-rule="nonzero" fill="#797979" stroke="none" />
</svg>