<?xml version="1.0" encoding="utf-8"?>
<svg version="1.1" xmlns:xlink="http://www.w3.org/1999/xlink" width="12px" height="12px" viewBox="321 38.5  12 12" xmlns="http://www.w3.org/2000/svg">
  <path d="M 327 38.5  C 330.36 38.5  333 41.14  333 44.5  C 333 47.86  330.36 50.5  327 50.5  C 323.64 50.5  321 47.86  321 44.5  C 321 41.14  323.64 38.5  327 38.5  Z " fill-rule="nonzero" fill="#ffffff" stroke="none" />
  <path d="M 327 39  C 330.08 39  332.5 41.42  332.5 44.5  C 332.5 47.58  330.08 50  327 50  C 323.92 50  321.5 47.58  321.5 44.5  C 321.5 41.42  323.92 39  327 39  Z " stroke-width="1" stroke="#797979" fill="none" />
  <path d="M 327 47.5  C 325.32 47.5  324 46.18  324 44.5  C 324 42.82  325.32 41.5  327 41.5  C 328.68 41.5  330 42.82  330 44.5  C 330 46.18  328.68 47.5  327 47.5  " fill-rule="nonzero" fill="#797979" stroke="none" />
</svg>