<?xml version="1.0" encoding="utf-8"?>
<svg version="1.1" xmlns:xlink="http://www.w3.org/1999/xlink" width="12px" height="12px" viewBox="89 38.5  12 12" xmlns="http://www.w3.org/2000/svg">
  <path d="M 95 38.5  C 98.36 38.5  101 41.14  101 44.5  C 101 47.86  98.36 50.5  95 50.5  C 91.64 50.5  89 47.86  89 44.5  C 89 41.14  91.64 38.5  95 38.5  Z " fill-rule="nonzero" fill="#ffffff" stroke="none" />
  <path d="M 95 39  C 98.08 39  100.5 41.42  100.5 44.5  C 100.5 47.58  98.08 50  95 50  C 91.92 50  89.5 47.58  89.5 44.5  C 89.5 41.42  91.92 39  95 39  Z " stroke-width="1" stroke="#797979" fill="none" />
  <path d="M 95 47.5  C 93.32 47.5  92 46.18  92 44.5  C 92 42.82  93.32 41.5  95 41.5  C 96.68 41.5  98 42.82  98 44.5  C 98 46.18  96.68 47.5  95 47.5  " fill-rule="nonzero" fill="#797979" stroke="none" />
</svg>