<?xml version="1.0" encoding="utf-8"?>
<svg version="1.1" xmlns:xlink="http://www.w3.org/1999/xlink" width="12px" height="12px" viewBox="786 38.5  12 12" xmlns="http://www.w3.org/2000/svg">
  <path d="M 792 38.5  C 795.36 38.5  798 41.14  798 44.5  C 798 47.86  795.36 50.5  792 50.5  C 788.64 50.5  786 47.86  786 44.5  C 786 41.14  788.64 38.5  792 38.5  Z " fill-rule="nonzero" fill="#ffffff" stroke="none" />
  <path d="M 792 39  C 795.08 39  797.5 41.42  797.5 44.5  C 797.5 47.58  795.08 50  792 50  C 788.92 50  786.5 47.58  786.5 44.5  C 786.5 41.42  788.92 39  792 39  Z " stroke-width="1" stroke="#797979" fill="none" />
  <path d="M 792 47.5  C 790.32 47.5  789 46.18  789 44.5  C 789 42.82  790.32 41.5  792 41.5  C 793.68 41.5  795 42.82  795 44.5  C 795 46.18  793.68 47.5  792 47.5  " fill-rule="nonzero" fill="#797979" stroke="none" />
</svg>