<?xml version="1.0" encoding="utf-8"?>
<svg version="1.1" xmlns:xlink="http://www.w3.org/1999/xlink" width="12px" height="12px" viewBox="230 147  12 12" xmlns="http://www.w3.org/2000/svg">
  <path d="M 236 147  C 239.36 147  242 149.64  242 153  C 242 156.36  239.36 159  236 159  C 232.64 159  230 156.36  230 153  C 230 149.64  232.64 147  236 147  Z " fill-rule="nonzero" fill="#ffffff" stroke="none" />
  <path d="M 236 147.5  C 239.08 147.5  241.5 149.92  241.5 153  C 241.5 156.08  239.08 158.5  236 158.5  C 232.92 158.5  230.5 156.08  230.5 153  C 230.5 149.92  232.92 147.5  236 147.5  Z " stroke-width="1" stroke="#797979" fill="none" />
  <path d="M 236 156  C 234.32 156  233 154.68  233 153  C 233 151.32  234.32 150  236 150  C 237.68 150  239 151.32  239 153  C 239 154.68  237.68 156  236 156  " fill-rule="nonzero" fill="#797979" stroke="none" />
</svg>