<?xml version="1.0" encoding="utf-8"?>
<svg version="1.1" xmlns:xlink="http://www.w3.org/1999/xlink" width="12px" height="12px" viewBox="139 119  12 12" xmlns="http://www.w3.org/2000/svg">
  <path d="M 145 119  C 148.36 119  151 121.64  151 125  C 151 128.36  148.36 131  145 131  C 141.64 131  139 128.36  139 125  C 139 121.64  141.64 119  145 119  Z " fill-rule="nonzero" fill="#ffffff" stroke="none" />
  <path d="M 145 119.5  C 148.08 119.5  150.5 121.92  150.5 125  C 150.5 128.08  148.08 130.5  145 130.5  C 141.92 130.5  139.5 128.08  139.5 125  C 139.5 121.92  141.92 119.5  145 119.5  Z " stroke-width="1" stroke="#797979" fill="none" />
  <path d="M 145 128  C 143.32 128  142 126.68  142 125  C 142 123.32  143.32 122  145 122  C 146.68 122  148 123.32  148 125  C 148 126.68  146.68 128  145 128  " fill-rule="nonzero" fill="#797979" stroke="none" />
</svg>