<?xml version="1.0" encoding="utf-8"?>
<svg version="1.1" xmlns:xlink="http://www.w3.org/1999/xlink" width="12px" height="12px" viewBox="270 119  12 12" xmlns="http://www.w3.org/2000/svg">
  <path d="M 276 119  C 279.36 119  282 121.64  282 125  C 282 128.36  279.36 131  276 131  C 272.64 131  270 128.36  270 125  C 270 121.64  272.64 119  276 119  Z " fill-rule="nonzero" fill="#ffffff" stroke="none" />
  <path d="M 276 119.5  C 279.08 119.5  281.5 121.92  281.5 125  C 281.5 128.08  279.08 130.5  276 130.5  C 272.92 130.5  270.5 128.08  270.5 125  C 270.5 121.92  272.92 119.5  276 119.5  Z " stroke-width="1" stroke="#797979" fill="none" />
  <path d="M 276 128  C 274.32 128  273 126.68  273 125  C 273 123.32  274.32 122  276 122  C 277.68 122  279 123.32  279 125  C 279 126.68  277.68 128  276 128  " fill-rule="nonzero" fill="#797979" stroke="none" />
</svg>