<?xml version="1.0" encoding="utf-8"?>
<svg version="1.1" xmlns:xlink="http://www.w3.org/1999/xlink" width="12px" height="12px" viewBox="400 119  12 12" xmlns="http://www.w3.org/2000/svg">
  <path d="M 406 119  C 409.36 119  412 121.64  412 125  C 412 128.36  409.36 131  406 131  C 402.64 131  400 128.36  400 125  C 400 121.64  402.64 119  406 119  Z " fill-rule="nonzero" fill="#ffffff" stroke="none" />
  <path d="M 406 119.5  C 409.08 119.5  411.5 121.92  411.5 125  C 411.5 128.08  409.08 130.5  406 130.5  C 402.92 130.5  400.5 128.08  400.5 125  C 400.5 121.92  402.92 119.5  406 119.5  Z " stroke-width="1" stroke="#797979" fill="none" />
  <path d="M 406 128  C 404.32 128  403 126.68  403 125  C 403 123.32  404.32 122  406 122  C 407.68 122  409 123.32  409 125  C 409 126.68  407.68 128  406 128  " fill-rule="nonzero" fill="#797979" stroke="none" />
</svg>