<?xml version="1.0" encoding="utf-8"?>
<svg version="1.1" xmlns:xlink="http://www.w3.org/1999/xlink" width="12px" height="12px" viewBox="181 109  12 12" xmlns="http://www.w3.org/2000/svg">
  <path d="M 187 109  C 190.36 109  193 111.64  193 115  C 193 118.36  190.36 121  187 121  C 183.64 121  181 118.36  181 115  C 181 111.64  183.64 109  187 109  Z " fill-rule="nonzero" fill="#ffffff" stroke="none" />
  <path d="M 187 109.5  C 190.08 109.5  192.5 111.92  192.5 115  C 192.5 118.08  190.08 120.5  187 120.5  C 183.92 120.5  181.5 118.08  181.5 115  C 181.5 111.92  183.92 109.5  187 109.5  Z " stroke-width="1" stroke="#797979" fill="none" />
  <path d="M 187 118  C 185.32 118  184 116.68  184 115  C 184 113.32  185.32 112  187 112  C 188.68 112  190 113.32  190 115  C 190 116.68  188.68 118  187 118  " fill-rule="nonzero" fill="#797979" stroke="none" />
</svg>