<?xml version="1.0" encoding="utf-8"?>
<svg version="1.1" xmlns:xlink="http://www.w3.org/1999/xlink" width="12px" height="12px" viewBox="121 210  12 12" xmlns="http://www.w3.org/2000/svg">
  <path d="M 127 210  C 130.36 210  133 212.64  133 216  C 133 219.36  130.36 222  127 222  C 123.64 222  121 219.36  121 216  C 121 212.64  123.64 210  127 210  Z " fill-rule="nonzero" fill="#ffffff" stroke="none" />
  <path d="M 127 210.5  C 130.08 210.5  132.5 212.92  132.5 216  C 132.5 219.08  130.08 221.5  127 221.5  C 123.92 221.5  121.5 219.08  121.5 216  C 121.5 212.92  123.92 210.5  127 210.5  Z " stroke-width="1" stroke="#797979" fill="none" />
  <path d="M 127 219  C 125.32 219  124 217.68  124 216  C 124 214.32  125.32 213  127 213  C 128.68 213  130 214.32  130 216  C 130 217.68  128.68 219  127 219  " fill-rule="nonzero" fill="#797979" stroke="none" />
</svg>