<?xml version="1.0" encoding="utf-8"?>
<svg version="1.1" xmlns:xlink="http://www.w3.org/1999/xlink" width="12px" height="12px" viewBox="178 32  12 12" xmlns="http://www.w3.org/2000/svg">
  <path d="M 184 32  C 187.36 32  190 34.64  190 38  C 190 41.36  187.36 44  184 44  C 180.64 44  178 41.36  178 38  C 178 34.64  180.64 32  184 32  Z " fill-rule="nonzero" fill="#ffffff" stroke="none" />
  <path d="M 184 32.5  C 187.08 32.5  189.5 34.92  189.5 38  C 189.5 41.08  187.08 43.5  184 43.5  C 180.92 43.5  178.5 41.08  178.5 38  C 178.5 34.92  180.92 32.5  184 32.5  Z " stroke-width="1" stroke="#797979" fill="none" />
  <path d="M 184 41  C 182.32 41  181 39.68  181 38  C 181 36.32  182.32 35  184 35  C 185.68 35  187 36.32  187 38  C 187 39.68  185.68 41  184 41  " fill-rule="nonzero" fill="#797979" stroke="none" />
</svg>