<?xml version="1.0" encoding="utf-8"?>
<svg version="1.1" xmlns:xlink="http://www.w3.org/1999/xlink" width="12px" height="12px" viewBox="121 145  12 12" xmlns="http://www.w3.org/2000/svg">
  <path d="M 127 145  C 130.36 145  133 147.64  133 151  C 133 154.36  130.36 157  127 157  C 123.64 157  121 154.36  121 151  C 121 147.64  123.64 145  127 145  Z " fill-rule="nonzero" fill="#ffffff" stroke="none" />
  <path d="M 127 145.5  C 130.08 145.5  132.5 147.92  132.5 151  C 132.5 154.08  130.08 156.5  127 156.5  C 123.92 156.5  121.5 154.08  121.5 151  C 121.5 147.92  123.92 145.5  127 145.5  Z " stroke-width="1" stroke="#797979" fill="none" />
  <path d="M 127 154  C 125.32 154  124 152.68  124 151  C 124 149.32  125.32 148  127 148  C 128.68 148  130 149.32  130 151  C 130 152.68  128.68 154  127 154  " fill-rule="nonzero" fill="#797979" stroke="none" />
</svg>