<?xml version="1.0" encoding="utf-8"?>
<svg version="1.1" xmlns:xlink="http://www.w3.org/1999/xlink" width="12px" height="12px" viewBox="289 140  12 12" xmlns="http://www.w3.org/2000/svg">
  <path d="M 295 140  C 298.36 140  301 142.64  301 146  C 301 149.36  298.36 152  295 152  C 291.64 152  289 149.36  289 146  C 289 142.64  291.64 140  295 140  Z " fill-rule="nonzero" fill="#ffffff" stroke="none" />
  <path d="M 295 140.5  C 298.08 140.5  300.5 142.92  300.5 146  C 300.5 149.08  298.08 151.5  295 151.5  C 291.92 151.5  289.5 149.08  289.5 146  C 289.5 142.92  291.92 140.5  295 140.5  Z " stroke-width="1" stroke="#797979" fill="none" />
  <path d="M 295 149  C 293.32 149  292 147.68  292 146  C 292 144.32  293.32 143  295 143  C 296.68 143  298 144.32  298 146  C 298 147.68  296.68 149  295 149  " fill-rule="nonzero" fill="#797979" stroke="none" />
</svg>