<?xml version="1.0" encoding="utf-8"?>
<svg version="1.1" xmlns:xlink="http://www.w3.org/1999/xlink" width="12px" height="12px" viewBox="152 140  12 12" xmlns="http://www.w3.org/2000/svg">
  <path d="M 158 140  C 161.36 140  164 142.64  164 146  C 164 149.36  161.36 152  158 152  C 154.64 152  152 149.36  152 146  C 152 142.64  154.64 140  158 140  Z " fill-rule="nonzero" fill="#ffffff" stroke="none" />
  <path d="M 158 140.5  C 161.08 140.5  163.5 142.92  163.5 146  C 163.5 149.08  161.08 151.5  158 151.5  C 154.92 151.5  152.5 149.08  152.5 146  C 152.5 142.92  154.92 140.5  158 140.5  Z " stroke-width="1" stroke="#797979" fill="none" />
  <path d="M 158 149  C 156.32 149  155 147.68  155 146  C 155 144.32  156.32 143  158 143  C 159.68 143  161 144.32  161 146  C 161 147.68  159.68 149  158 149  " fill-rule="nonzero" fill="#797979" stroke="none" />
</svg>