<?xml version="1.0" encoding="utf-8"?>
<svg version="1.1" xmlns:xlink="http://www.w3.org/1999/xlink" width="12px" height="12px" viewBox="176 103  12 12" xmlns="http://www.w3.org/2000/svg">
  <path d="M 182 103  C 185.36 103  188 105.64  188 109  C 188 112.36  185.36 115  182 115  C 178.64 115  176 112.36  176 109  C 176 105.64  178.64 103  182 103  Z " fill-rule="nonzero" fill="#ffffff" stroke="none" />
  <path d="M 182 103.5  C 185.08 103.5  187.5 105.92  187.5 109  C 187.5 112.08  185.08 114.5  182 114.5  C 178.92 114.5  176.5 112.08  176.5 109  C 176.5 105.92  178.92 103.5  182 103.5  Z " stroke-width="1" stroke="#797979" fill="none" />
  <path d="M 182 112  C 180.32 112  179 110.68  179 109  C 179 107.32  180.32 106  182 106  C 183.68 106  185 107.32  185 109  C 185 110.68  183.68 112  182 112  " fill-rule="nonzero" fill="#797979" stroke="none" />
</svg>