<?xml version="1.0" encoding="utf-8"?>
<svg version="1.1" xmlns:xlink="http://www.w3.org/1999/xlink" width="12px" height="12px" viewBox="676 175  12 12" xmlns="http://www.w3.org/2000/svg">
  <path d="M 682 175  C 685.36 175  688 177.64  688 181  C 688 184.36  685.36 187  682 187  C 678.64 187  676 184.36  676 181  C 676 177.64  678.64 175  682 175  Z " fill-rule="nonzero" fill="#ffffff" stroke="none" />
  <path d="M 682 175.5  C 685.08 175.5  687.5 177.92  687.5 181  C 687.5 184.08  685.08 186.5  682 186.5  C 678.92 186.5  676.5 184.08  676.5 181  C 676.5 177.92  678.92 175.5  682 175.5  Z " stroke-width="1" stroke="#797979" fill="none" />
  <path d="M 682 184  C 680.32 184  679 182.68  679 181  C 679 179.32  680.32 178  682 178  C 683.68 178  685 179.32  685 181  C 685 182.68  683.68 184  682 184  " fill-rule="nonzero" fill="#797979" stroke="none" />
</svg>