<?xml version="1.0" encoding="utf-8"?>
<svg version="1.1" xmlns:xlink="http://www.w3.org/1999/xlink" width="12px" height="12px" viewBox="676 140  12 12" xmlns="http://www.w3.org/2000/svg">
  <path d="M 682 140  C 685.36 140  688 142.64  688 146  C 688 149.36  685.36 152  682 152  C 678.64 152  676 149.36  676 146  C 676 142.64  678.64 140  682 140  Z " fill-rule="nonzero" fill="#ffffff" stroke="none" />
  <path d="M 682 140.5  C 685.08 140.5  687.5 142.92  687.5 146  C 687.5 149.08  685.08 151.5  682 151.5  C 678.92 151.5  676.5 149.08  676.5 146  C 676.5 142.92  678.92 140.5  682 140.5  Z " stroke-width="1" stroke="#797979" fill="none" />
  <path d="M 682 149  C 680.32 149  679 147.68  679 146  C 679 144.32  680.32 143  682 143  C 683.68 143  685 144.32  685 146  C 685 147.68  683.68 149  682 149  " fill-rule="nonzero" fill="#797979" stroke="none" />
</svg>