<?xml version="1.0" encoding="utf-8"?>
<svg version="1.1" xmlns:xlink="http://www.w3.org/1999/xlink" width="12px" height="12px" viewBox="12 275  12 12" xmlns="http://www.w3.org/2000/svg">
  <path d="M 18 275  C 21.36 275  24 277.64  24 281  C 24 284.36  21.36 287  18 287  C 14.64 287  12 284.36  12 281  C 12 277.64  14.64 275  18 275  Z " fill-rule="nonzero" fill="#ffffff" stroke="none" />
  <path d="M 18 275.5  C 21.08 275.5  23.5 277.92  23.5 281  C 23.5 284.08  21.08 286.5  18 286.5  C 14.92 286.5  12.5 284.08  12.5 281  C 12.5 277.92  14.92 275.5  18 275.5  Z " stroke-width="1" stroke="#797979" fill="none" />
  <path d="M 18 284  C 16.32 284  15 282.68  15 281  C 15 279.32  16.32 278  18 278  C 19.68 278  21 279.32  21 281  C 21 282.68  19.68 284  18 284  " fill-rule="nonzero" fill="#797979" stroke="none" />
</svg>