<?xml version="1.0" encoding="utf-8"?>
<svg version="1.1" xmlns:xlink="http://www.w3.org/1999/xlink" width="12px" height="12px" viewBox="676 281  12 12" xmlns="http://www.w3.org/2000/svg">
  <path d="M 682 281  C 685.36 281  688 283.64  688 287  C 688 290.36  685.36 293  682 293  C 678.64 293  676 290.36  676 287  C 676 283.64  678.64 281  682 281  Z " fill-rule="nonzero" fill="#ffffff" stroke="none" />
  <path d="M 682 281.5  C 685.08 281.5  687.5 283.92  687.5 287  C 687.5 290.08  685.08 292.5  682 292.5  C 678.92 292.5  676.5 290.08  676.5 287  C 676.5 283.92  678.92 281.5  682 281.5  Z " stroke-width="1" stroke="#797979" fill="none" />
  <path d="M 682 290  C 680.32 290  679 288.68  679 287  C 679 285.32  680.32 284  682 284  C 683.68 284  685 285.32  685 287  C 685 288.68  683.68 290  682 290  " fill-rule="nonzero" fill="#797979" stroke="none" />
</svg>