<?xml version="1.0" encoding="utf-8"?>
<svg version="1.1" xmlns:xlink="http://www.w3.org/1999/xlink" width="12px" height="12px" viewBox="12 99  12 12" xmlns="http://www.w3.org/2000/svg">
  <path d="M 18 99  C 21.36 99  24 101.64  24 105  C 24 108.36  21.36 111  18 111  C 14.64 111  12 108.36  12 105  C 12 101.64  14.64 99  18 99  Z " fill-rule="nonzero" fill="#ffffff" stroke="none" />
  <path d="M 18 99.5  C 21.08 99.5  23.5 101.92  23.5 105  C 23.5 108.08  21.08 110.5  18 110.5  C 14.92 110.5  12.5 108.08  12.5 105  C 12.5 101.92  14.92 99.5  18 99.5  Z " stroke-width="1" stroke="#797979" fill="none" />
  <path d="M 18 108  C 16.32 108  15 106.68  15 105  C 15 103.32  16.32 102  18 102  C 19.68 102  21 103.32  21 105  C 21 106.68  19.68 108  18 108  " fill-rule="nonzero" fill="#797979" stroke="none" />
</svg>