<?xml version="1.0" encoding="utf-8"?>
<svg version="1.1" xmlns:xlink="http://www.w3.org/1999/xlink" width="12px" height="12px" viewBox="676 316  12 12" xmlns="http://www.w3.org/2000/svg">
  <path d="M 682 316  C 685.36 316  688 318.64  688 322  C 688 325.36  685.36 328  682 328  C 678.64 328  676 325.36  676 322  C 676 318.64  678.64 316  682 316  Z " fill-rule="nonzero" fill="#ffffff" stroke="none" />
  <path d="M 682 316.5  C 685.08 316.5  687.5 318.92  687.5 322  C 687.5 325.08  685.08 327.5  682 327.5  C 678.92 327.5  676.5 325.08  676.5 322  C 676.5 318.92  678.92 316.5  682 316.5  Z " stroke-width="1" stroke="#797979" fill="none" />
  <path d="M 682 325  C 680.32 325  679 323.68  679 322  C 679 320.32  680.32 319  682 319  C 683.68 319  685 320.32  685 322  C 685 323.68  683.68 325  682 325  " fill-rule="nonzero" fill="#797979" stroke="none" />
</svg>