<?xml version="1.0" encoding="utf-8"?>
<svg version="1.1" xmlns:xlink="http://www.w3.org/1999/xlink" width="11px" height="16px" xmlns="http://www.w3.org/2000/svg">
  <g transform="matrix(1 0 0 1 -42 -142 )">
    <path d="M 10.7571331521739 6.41335044929397  C 10.919044384058 6.67008985879333  11 6.97988874625588  11 7.34274711168164  L 11 8.65725288831836  C 11 9.02011125374412  10.919044384058 9.32991014120667  10.7571331521739 9.58664955070603  C 10.5952219202899 9.84338896020539  10.3847373188406 9.97175866495507  10.1256793478261 9.97175866495507  L 4.8648097826087 9.97175866495507  L 7.05434782608696 12.9910141206675  C 7.24365942028986 13.2374839537869  7.3383152173913 13.5455712451861  7.3383152173913 13.9152759948652  C 7.3383152173913 14.2849807445443  7.24365942028986 14.5930680359435  7.05434782608696 14.8395378690629  L 6.49388586956522 15.6200256739409  C 6.30955615942029 15.8733418913137  6.08537137681159 16  5.82133152173913 16  C 5.56227355072464 16  5.33559782608696 15.8733418913137  5.14130434782609 15.6200256739409  L 0.276494565217391 8.92426187419769  C 0.0921648550724638 8.67094565682499  0 8.36285836542576  0 8  C 0 7.64398801882756  0.0921648550724638 7.33247753530167  0.276494565217391 7.06546854942234  L 5.14130434782609 0.390243902439025  C 5.33061594202899 0.130081300813007  5.55729166666667 0  5.82133152173913 0  C 6.08038949275362 0  6.30457427536232 0.130081300813007  6.49388586956522 0.390243902439025  L 7.05434782608696 1.15019255455712  C 7.24365942028986 1.41035515618314  7.3383152173913 1.72186563970903  7.3383152173913 2.08472400513479  C 7.3383152173913 2.44758237056055  7.24365942028986 2.75909285408643  7.05434782608696 3.01925545571245  L 4.8648097826087 6.02824133504493  L 10.1256793478261 6.02824133504493  C 10.3847373188406 6.02824133504493  10.5952219202899 6.15661103979461  10.7571331521739 6.41335044929397  Z " fill-rule="nonzero" fill="#7f7f7f" stroke="none" transform="matrix(1 0 0 1 42 142 )" />
  </g>
</svg>