<?xml version="1.0" encoding="utf-8"?>
<svg version="1.1" xmlns:xlink="http://www.w3.org/1999/xlink" width="16px" height="19px" xmlns="http://www.w3.org/2000/svg">
  <g transform="matrix(1 0 0 1 -1303 -215 )">
    <path d="M 15.703125 11.4836647727273  C 15.9010416666667 11.6545928030303  16 11.8570075757576  16 12.0909090909091  C 16 12.3248106060606  15.9010416666667 12.5272253787879  15.703125 12.6981534090909  L 8.703125 18.7436079545455  C 8.50520833333333 18.9145359848485  8.27083333333333 19  8 19  C 7.72916666666667 19  7.49479166666667 18.9145359848485  7.296875 18.7436079545455  L 0.296875 12.6981534090909  C 0.0989583333333333 12.5272253787879  0 12.3248106060606  0 12.0909090909091  C 0 11.8570075757576  0.0989583333333333 11.6545928030303  0.296875 11.4836647727273  C 0.494791666666667 11.3127367424242  0.729166666666667 11.2272727272727  1 11  L 15 11  C 15.2708333333333 11.2272727272727  15.5052083333333 11.3127367424242  15.703125 11.4836647727273  Z M 15.703125 6.30184659090909  C 15.9010416666667 6.47277462121212  16 6.67518939393939  16 6.90909090909091  C 16 7.14299242424242  15.9010416666667 7.3454071969697  15.703125 7.51633522727273  C 15.5052083333333 7.68726325757576  15.2708333333333 7.77272727272727  15 8  L 1 8  C 0.729166666666667 7.77272727272727  0.494791666666667 7.68726325757576  0.296875 7.51633522727273  C 0.0989583333333333 7.3454071969697  0 7.14299242424242  0 6.90909090909091  C 0 6.67518939393939  0.0989583333333333 6.47277462121212  0.296875 6.30184659090909  L 7.296875 0.256392045454546  C 7.49479166666667 0.0854640151515134  7.72916666666667 0  8 0  C 8.27083333333333 0  8.50520833333333 0.0854640151515134  8.703125 0.256392045454546  L 15.703125 6.30184659090909  Z " fill-rule="nonzero" fill="#d7d7d7" stroke="none" transform="matrix(1 0 0 1 1303 215 )" />
  </g>
</svg>