<?xml version="1.0" encoding="utf-8"?>
<svg version="1.1" xmlns:xlink="http://www.w3.org/1999/xlink" width="8px" height="8px" xmlns="http://www.w3.org/2000/svg">
  <g transform="matrix(1 0 0 1 -180 -81 )">
    <path d="M 5.88541666666667 5.41666666666667  C 5.95138888888889 5.35069444444444  5.984375 5.27083333333333  5.984375 5.17708333333333  C 5.984375 5.08680555555556  5.95138888888889 5.00868055555556  5.88541666666667 4.94270833333333  L 4.94270833333333 4  L 5.88541666666667 3.05729166666667  C 5.95138888888889 2.99131944444444  5.984375 2.91319444444444  5.984375 2.82291666666667  C 5.984375 2.72916666666667  5.95138888888889 2.64930555555555  5.88541666666667 2.58333333333333  L 5.41666666666667 2.11458333333333  C 5.35069444444445 2.04861111111111  5.27083333333333 2.015625  5.17708333333333 2.015625  C 5.08680555555556 2.015625  5.00868055555556 2.04861111111111  4.94270833333333 2.11458333333333  L 4 3.05729166666667  L 3.05729166666667 2.11458333333333  C 2.99131944444444 2.04861111111111  2.91319444444444 2.015625  2.82291666666667 2.015625  C 2.72916666666667 2.015625  2.64930555555556 2.04861111111111  2.58333333333333 2.11458333333333  L 2.11458333333333 2.58333333333333  C 2.04861111111111 2.64930555555555  2.015625 2.72916666666667  2.015625 2.82291666666667  C 2.015625 2.91319444444444  2.04861111111111 2.99131944444444  2.11458333333333 3.05729166666667  L 3.05729166666667 4  L 2.11458333333333 4.94270833333333  C 2.04861111111111 5.00868055555556  2.015625 5.08680555555556  2.015625 5.17708333333333  C 2.015625 5.27083333333333  2.04861111111111 5.35069444444444  2.11458333333333 5.41666666666667  L 2.58333333333333 5.88541666666667  C 2.64930555555556 5.95138888888889  2.72916666666667 5.984375  2.82291666666667 5.984375  C 2.91319444444444 5.984375  2.99131944444444 5.95138888888889  3.05729166666667 5.88541666666667  L 4 4.94270833333333  L 4.94270833333333 5.88541666666667  C 5.00868055555556 5.95138888888889  5.08680555555556 5.984375  5.17708333333333 5.984375  C 5.27083333333333 5.984375  5.35069444444445 5.95138888888889  5.41666666666667 5.88541666666667  L 5.88541666666667 5.41666666666667  Z M 7.46354166666667 1.9921875  C 7.82118055555555 2.60503472222222  8 3.27430555555555  8 4  C 8 4.72569444444444  7.82118055555555 5.39496527777778  7.46354166666667 6.0078125  C 7.10590277777778 6.62065972222222  6.62065972222222 7.10590277777778  6.0078125 7.46354166666667  C 5.39496527777778 7.82118055555556  4.72569444444444 8  4 8  C 3.27430555555556 8  2.60503472222222 7.82118055555556  1.9921875 7.46354166666667  C 1.37934027777778 7.10590277777778  0.894097222222222 6.62065972222222  0.536458333333333 6.0078125  C 0.178819444444444 5.39496527777778  0 4.72569444444444  0 4  C 0 3.27430555555555  0.178819444444444 2.60503472222222  0.536458333333333 1.9921875  C 0.894097222222222 1.37934027777778  1.37934027777778 0.894097222222221  1.9921875 0.536458333333333  C 2.60503472222222 0.178819444444444  3.27430555555556 0  4 0  C 4.72569444444444 0  5.39496527777778 0.178819444444444  6.0078125 0.536458333333333  C 6.62065972222222 0.894097222222221  7.10590277777778 1.37934027777778  7.46354166666667 1.9921875  Z " fill-rule="nonzero" fill="#02a7f0" stroke="none" transform="matrix(1 0 0 1 180 81 )" />
  </g>
</svg>