<?xml version="1.0" encoding="utf-8"?>
<svg version="1.1" xmlns:xlink="http://www.w3.org/1999/xlink" width="14px" height="16px" xmlns="http://www.w3.org/2000/svg">
  <g transform="matrix(1 0 0 1 -1664 -238 )">
    <path d="M 13.6908967391304 6.41335044929397  C 13.8969655797101 6.67008985879333  14 6.97988874625588  14 7.34274711168164  L 14 8.65725288831836  C 14 9.02011125374412  13.8969655797101 9.32991014120667  13.6908967391304 9.58664955070603  C 13.4848278985507 9.84338896020539  13.2169384057971 9.97175866495507  12.8872282608696 9.97175866495507  L 6.19157608695652 9.97175866495507  L 8.97826086956522 12.9910141206675  C 9.21920289855073 13.2374839537869  9.33967391304348 13.5455712451861  9.33967391304348 13.9152759948652  C 9.33967391304348 14.2849807445443  9.21920289855073 14.5930680359435  8.97826086956522 14.8395378690629  L 8.26494565217391 15.6200256739409  C 8.03034420289855 15.8733418913137  7.74501811594203 16  7.40896739130435 16  C 7.07925724637681 16  6.79076086956522 15.8733418913137  6.54347826086957 15.6200256739409  L 0.351902173913043 8.92426187419769  C 0.117300724637681 8.67094565682499  0 8.36285836542576  0 8  C 0 7.64398801882756  0.117300724637681 7.33247753530167  0.351902173913043 7.06546854942234  L 6.54347826086957 0.390243902439025  C 6.78442028985507 0.130081300813007  7.07291666666667 0  7.40896739130435 0  C 7.73867753623188 0  8.02400362318841 0.130081300813007  8.26494565217391 0.390243902439025  L 8.97826086956522 1.15019255455712  C 9.21920289855073 1.41035515618314  9.33967391304348 1.72186563970903  9.33967391304348 2.08472400513479  C 9.33967391304348 2.44758237056055  9.21920289855073 2.75909285408643  8.97826086956522 3.01925545571245  L 6.19157608695652 6.02824133504493  L 12.8872282608696 6.02824133504493  C 13.2169384057971 6.02824133504493  13.4848278985507 6.15661103979461  13.6908967391304 6.41335044929397  Z " fill-rule="nonzero" fill="#7f7f7f" stroke="none" transform="matrix(1 0 0 1 1664 238 )" />
  </g>
</svg>