<?xml version="1.0" encoding="utf-8"?>
<svg version="1.1" xmlns:xlink="http://www.w3.org/1999/xlink" width="20px" height="20px" xmlns="http://www.w3.org/2000/svg">
  <g transform="matrix(1 0 0 1 -778 -3318 )">
    <path d="M 788 3318  C 793.6 3318  798 3322.4  798 3328  C 798 3333.6  793.6 3338  788 3338  C 782.4 3338  778 3333.6  778 3328  C 778 3322.4  782.4 3318  788 3318  Z " fill-rule="nonzero" fill="#d9001b" stroke="none" />
    <path d="M 788 3318.5  C 793.32 3318.5  797.5 3322.68  797.5 3328  C 797.5 3333.32  793.32 3337.5  788 3337.5  C 782.68 3337.5  778.5 3333.32  778.5 3328  C 778.5 3322.68  782.68 3318.5  788 3318.5  Z " stroke-width="1" stroke="#797979" fill="none" />
  </g>
</svg>