<?xml version="1.0" encoding="utf-8"?>
<svg version="1.1" xmlns:xlink="http://www.w3.org/1999/xlink" width="12px" height="12px" viewBox="26 316.5  12 12" xmlns="http://www.w3.org/2000/svg">
  <path d="M 32 316.5  C 35.36 316.5  38 319.14  38 322.5  C 38 325.86  35.36 328.5  32 328.5  C 28.64 328.5  26 325.86  26 322.5  C 26 319.14  28.64 316.5  32 316.5  Z " fill-rule="nonzero" fill="#ffffff" stroke="none" />
  <path d="M 32 317  C 35.08 317  37.5 319.42  37.5 322.5  C 37.5 325.58  35.08 328  32 328  C 28.92 328  26.5 325.58  26.5 322.5  C 26.5 319.42  28.92 317  32 317  Z " stroke-width="1" stroke="#797979" fill="none" />
  <path d="M 32 325.5  C 30.32 325.5  29 324.18  29 322.5  C 29 320.82  30.32 319.5  32 319.5  C 33.68 319.5  35 320.82  35 322.5  C 35 324.18  33.68 325.5  32 325.5  " fill-rule="nonzero" fill="#797979" stroke="none" />
</svg>