<?xml version="1.0" encoding="utf-8"?>
<svg version="1.1" xmlns:xlink="http://www.w3.org/1999/xlink" width="12px" height="12px" viewBox="26 161.5  12 12" xmlns="http://www.w3.org/2000/svg">
  <path d="M 32 161.5  C 35.36 161.5  38 164.14  38 167.5  C 38 170.86  35.36 173.5  32 173.5  C 28.64 173.5  26 170.86  26 167.5  C 26 164.14  28.64 161.5  32 161.5  Z " fill-rule="nonzero" fill="#ffffff" stroke="none" />
  <path d="M 32 162  C 35.08 162  37.5 164.42  37.5 167.5  C 37.5 170.58  35.08 173  32 173  C 28.92 173  26.5 170.58  26.5 167.5  C 26.5 164.42  28.92 162  32 162  Z " stroke-width="1" stroke="#797979" fill="none" />
  <path d="M 32 170.5  C 30.32 170.5  29 169.18  29 167.5  C 29 165.82  30.32 164.5  32 164.5  C 33.68 164.5  35 165.82  35 167.5  C 35 169.18  33.68 170.5  32 170.5  " fill-rule="nonzero" fill="#797979" stroke="none" />
</svg>