<?xml version="1.0" encoding="utf-8"?>
<svg version="1.1" xmlns:xlink="http://www.w3.org/1999/xlink" width="12px" height="12px" viewBox="26 277.5  12 12" xmlns="http://www.w3.org/2000/svg">
  <path d="M 32 277.5  C 35.36 277.5  38 280.14  38 283.5  C 38 286.86  35.36 289.5  32 289.5  C 28.64 289.5  26 286.86  26 283.5  C 26 280.14  28.64 277.5  32 277.5  Z " fill-rule="nonzero" fill="#ffffff" stroke="none" />
  <path d="M 32 278  C 35.08 278  37.5 280.42  37.5 283.5  C 37.5 286.58  35.08 289  32 289  C 28.92 289  26.5 286.58  26.5 283.5  C 26.5 280.42  28.92 278  32 278  Z " stroke-width="1" stroke="#797979" fill="none" />
  <path d="M 32 286.5  C 30.32 286.5  29 285.18  29 283.5  C 29 281.82  30.32 280.5  32 280.5  C 33.68 280.5  35 281.82  35 283.5  C 35 285.18  33.68 286.5  32 286.5  " fill-rule="nonzero" fill="#797979" stroke="none" />
</svg>