<?xml version="1.0" encoding="utf-8"?>
<svg version="1.1" xmlns:xlink="http://www.w3.org/1999/xlink" width="12px" height="12px" xmlns="http://www.w3.org/2000/svg">
  <g transform="matrix(1 0 0 1 -26 -10 )">
    <path d="M 5.8203125 7.0703125  C 5.87239583333333 7.12239583333333  5.8984375 7.18229166666667  5.8984375 7.25  C 5.8984375 7.31770833333333  5.87239583333333 7.37760416666667  5.8203125 7.4296875  L 3.2265625 10.0234375  L 4.3515625 11.1484375  C 4.45052083333333 11.2473958333333  4.5 11.3645833333333  4.5 11.5  C 4.5 11.6354166666667  4.45052083333333 11.7526041666667  4.3515625 11.8515625  C 4.25260416666667 11.9505208333333  4.13541666666667 12  4 12  L 0.5 12  C 0.364583333333333 12  0.247395833333333 11.9505208333333  0.1484375 11.8515625  C 0.0494791666666667 11.7526041666667  0 11.6354166666667  0 11.5  L 0 8  C 0 7.86458333333333  0.0494791666666667 7.74739583333333  0.1484375 7.6484375  C 0.247395833333333 7.54947916666667  0.364583333333333 7.5  0.5 7.5  C 0.635416666666667 7.5  0.752604166666667 7.54947916666667  0.8515625 7.6484375  L 1.9765625 8.7734375  L 4.5703125 6.1796875  C 4.62239583333333 6.12760416666667  4.68229166666667 6.1015625  4.75 6.1015625  C 4.81770833333333 6.1015625  4.87760416666667 6.12760416666667  4.9296875 6.1796875  L 5.8203125 7.0703125  Z M 11.8515625 0.1484375  C 11.9505208333333 0.247395833333332  12 0.364583333333332  12 0.5  L 12 4  C 12 4.13541666666667  11.9505208333333 4.25260416666667  11.8515625 4.3515625  C 11.7526041666667 4.45052083333333  11.6354166666667 4.5  11.5 4.5  C 11.3645833333333 4.5  11.2473958333333 4.45052083333333  11.1484375 4.3515625  L 10.0234375 3.2265625  L 7.4296875 5.8203125  C 7.37760416666667 5.87239583333333  7.31770833333333 5.8984375  7.25 5.8984375  C 7.18229166666667 5.8984375  7.12239583333333 5.87239583333333  7.0703125 5.8203125  L 6.1796875 4.9296875  C 6.12760416666667 4.87760416666667  6.1015625 4.81770833333333  6.1015625 4.75  C 6.1015625 4.68229166666667  6.12760416666667 4.62239583333333  6.1796875 4.5703125  L 8.7734375 1.9765625  L 7.6484375 0.8515625  C 7.54947916666667 0.752604166666666  7.5 0.635416666666666  7.5 0.5  C 7.5 0.364583333333332  7.54947916666667 0.247395833333332  7.6484375 0.1484375  C 7.74739583333333 0.0494791666666661  7.86458333333333 0  8 0  L 11.5 0  C 11.6354166666667 0  11.7526041666667 0.0494791666666661  11.8515625 0.1484375  Z " fill-rule="nonzero" fill="#d7d7d7" stroke="none" transform="matrix(1 0 0 1 26 10 )" />
  </g>
</svg>