<?xml version="1.0" encoding="utf-8"?>
<svg version="1.1" xmlns:xlink="http://www.w3.org/1999/xlink" width="6px" height="19px" xmlns="http://www.w3.org/2000/svg">
  <g transform="matrix(1 0 0 1 -480 -323 )">
    <path d="M 5.32735426008969 14.5063920454545  C 5.49775784753363 14.6773200757576  5.58295964125561 14.8797348484848  5.58295964125561 15.1136363636364  L 5.58295964125561 18.1363636363636  C 5.58295964125561 18.3702651515151  5.49775784753363 18.5726799242424  5.32735426008969 18.7436079545455  C 5.15695067264574 18.9145359848485  4.95515695067265 19  4.7219730941704 19  L 1.2780269058296 19  C 1.04484304932735 19  0.84304932735426 18.9145359848485  0.672645739910314 18.7436079545455  C 0.502242152466368 18.5726799242424  0.417040358744395 18.3702651515151  0.417040358744395 18.1363636363636  L 0.417040358744395 15.1136363636364  C 0.417040358744395 14.8797348484848  0.502242152466368 14.6773200757576  0.672645739910314 14.5063920454545  C 0.84304932735426 14.3354640151515  1.04484304932735 14.25  1.2780269058296 14.25  L 4.7219730941704 14.25  C 4.95515695067265 14.25  5.15695067264574 14.3354640151515  5.32735426008969 14.5063920454545  Z M 5.75112107623318 0.256392045454546  C 5.9170403587444 0.427320075757573  5.99551569506727 0.629734848484847  5.98654708520179 0.863636363636363  L 5.60986547085202 11.2272727272727  C 5.60089686098655 11.4611742424242  5.50896860986547 11.6635890151515  5.33408071748879 11.8345170454545  C 5.15919282511211 12.0054450757576  4.95515695067265 12.0909090909091  4.7219730941704 12.0909090909091  L 1.2780269058296 12.0909090909091  C 1.04484304932735 12.0909090909091  0.840807174887892 12.0054450757576  0.665919282511211 11.8345170454545  C 0.491031390134529 11.6635890151515  0.399103139013453 11.4611742424242  0.390134529147982 11.2272727272727  L 0.0134529147982063 0.863636363636363  C 0.00448430493273555 0.629734848484847  0.0829596412556054 0.427320075757573  0.248878923766816 0.256392045454546  C 0.414798206278027 0.0854640151515134  0.614349775784754 0  0.847533632286996 0  L 5.152466367713 0  C 5.38565022421525 0  5.58520179372197 0.0854640151515134  5.75112107623318 0.256392045454546  Z " fill-rule="nonzero" fill="#d9001b" stroke="none" transform="matrix(1 0 0 1 480 323 )" />
  </g>
</svg>