<?xml version="1.0" encoding="utf-8"?>
<svg version="1.1" xmlns:xlink="http://www.w3.org/1999/xlink" width="12px" height="12px" viewBox="785 266  12 12" xmlns="http://www.w3.org/2000/svg">
  <path d="M 791 266  C 794.36 266  797 268.64  797 272  C 797 275.36  794.36 278  791 278  C 787.64 278  785 275.36  785 272  C 785 268.64  787.64 266  791 266  Z " fill-rule="nonzero" fill="#ffffff" stroke="none" />
  <path d="M 791 266.5  C 794.08 266.5  796.5 268.92  796.5 272  C 796.5 275.08  794.08 277.5  791 277.5  C 787.92 277.5  785.5 275.08  785.5 272  C 785.5 268.92  787.92 266.5  791 266.5  Z " stroke-width="1" stroke="#797979" fill="none" />
  <path d="M 791 275  C 789.32 275  788 273.68  788 272  C 788 270.32  789.32 269  791 269  C 792.68 269  794 270.32  794 272  C 794 273.68  792.68 275  791 275  " fill-rule="nonzero" fill="#797979" stroke="none" />
</svg>