<?xml version="1.0" encoding="utf-8"?>
<svg version="1.1" xmlns:xlink="http://www.w3.org/1999/xlink" width="12px" height="12px" viewBox="1081 266  12 12" xmlns="http://www.w3.org/2000/svg">
  <path d="M 1087 266  C 1090.36 266  1093 268.64  1093 272  C 1093 275.36  1090.36 278  1087 278  C 1083.64 278  1081 275.36  1081 272  C 1081 268.64  1083.64 266  1087 266  Z " fill-rule="nonzero" fill="#ffffff" stroke="none" />
  <path d="M 1087 266.5  C 1090.08 266.5  1092.5 268.92  1092.5 272  C 1092.5 275.08  1090.08 277.5  1087 277.5  C 1083.92 277.5  1081.5 275.08  1081.5 272  C 1081.5 268.92  1083.92 266.5  1087 266.5  Z " stroke-width="1" stroke="#797979" fill="none" />
  <path d="M 1087 275  C 1085.32 275  1084 273.68  1084 272  C 1084 270.32  1085.32 269  1087 269  C 1088.68 269  1090 270.32  1090 272  C 1090 273.68  1088.68 275  1087 275  " fill-rule="nonzero" fill="#797979" stroke="none" />
</svg>