<?xml version="1.0" encoding="utf-8"?>
<svg version="1.1" xmlns:xlink="http://www.w3.org/1999/xlink" width="12px" height="12px" viewBox="493 266  12 12" xmlns="http://www.w3.org/2000/svg">
  <path d="M 499 266  C 502.36 266  505 268.64  505 272  C 505 275.36  502.36 278  499 278  C 495.64 278  493 275.36  493 272  C 493 268.64  495.64 266  499 266  Z " fill-rule="nonzero" fill="#ffffff" stroke="none" />
  <path d="M 499 266.5  C 502.08 266.5  504.5 268.92  504.5 272  C 504.5 275.08  502.08 277.5  499 277.5  C 495.92 277.5  493.5 275.08  493.5 272  C 493.5 268.92  495.92 266.5  499 266.5  Z " stroke-width="1" stroke="#797979" fill="none" />
  <path d="M 499 275  C 497.32 275  496 273.68  496 272  C 496 270.32  497.32 269  499 269  C 500.68 269  502 270.32  502 272  C 502 273.68  500.68 275  499 275  " fill-rule="nonzero" fill="#797979" stroke="none" />
</svg>