<?xml version="1.0" encoding="utf-8"?>
<svg version="1.1" xmlns:xlink="http://www.w3.org/1999/xlink" width="12px" height="12px" viewBox="413 266  12 12" xmlns="http://www.w3.org/2000/svg">
  <path d="M 419 266  C 422.36 266  425 268.64  425 272  C 425 275.36  422.36 278  419 278  C 415.64 278  413 275.36  413 272  C 413 268.64  415.64 266  419 266  Z " fill-rule="nonzero" fill="#ffffff" stroke="none" />
  <path d="M 419 266.5  C 422.08 266.5  424.5 268.92  424.5 272  C 424.5 275.08  422.08 277.5  419 277.5  C 415.92 277.5  413.5 275.08  413.5 272  C 413.5 268.92  415.92 266.5  419 266.5  Z " stroke-width="1" stroke="#797979" fill="none" />
  <path d="M 419 275  C 417.32 275  416 273.68  416 272  C 416 270.32  417.32 269  419 269  C 420.68 269  422 270.32  422 272  C 422 273.68  420.68 275  419 275  " fill-rule="nonzero" fill="#797979" stroke="none" />
</svg>