<?xml version="1.0" encoding="utf-8"?>
<svg version="1.1" xmlns:xlink="http://www.w3.org/1999/xlink" width="12px" height="12px" viewBox="1001 266  12 12" xmlns="http://www.w3.org/2000/svg">
  <path d="M 1007 266  C 1010.36 266  1013 268.64  1013 272  C 1013 275.36  1010.36 278  1007 278  C 1003.64 278  1001 275.36  1001 272  C 1001 268.64  1003.64 266  1007 266  Z " fill-rule="nonzero" fill="#ffffff" stroke="none" />
  <path d="M 1007 266.5  C 1010.08 266.5  1012.5 268.92  1012.5 272  C 1012.5 275.08  1010.08 277.5  1007 277.5  C 1003.92 277.5  1001.5 275.08  1001.5 272  C 1001.5 268.92  1003.92 266.5  1007 266.5  Z " stroke-width="1" stroke="#797979" fill="none" />
  <path d="M 1007 275  C 1005.32 275  1004 273.68  1004 272  C 1004 270.32  1005.32 269  1007 269  C 1008.68 269  1010 270.32  1010 272  C 1010 273.68  1008.68 275  1007 275  " fill-rule="nonzero" fill="#797979" stroke="none" />
</svg>