<?xml version="1.0" encoding="utf-8"?>
<svg version="1.1" xmlns:xlink="http://www.w3.org/1999/xlink" width="12px" height="12px" viewBox="705 266  12 12" xmlns="http://www.w3.org/2000/svg">
  <path d="M 711 266  C 714.36 266  717 268.64  717 272  C 717 275.36  714.36 278  711 278  C 707.64 278  705 275.36  705 272  C 705 268.64  707.64 266  711 266  Z " fill-rule="nonzero" fill="#ffffff" stroke="none" />
  <path d="M 711 266.5  C 714.08 266.5  716.5 268.92  716.5 272  C 716.5 275.08  714.08 277.5  711 277.5  C 707.92 277.5  705.5 275.08  705.5 272  C 705.5 268.92  707.92 266.5  711 266.5  Z " stroke-width="1" stroke="#797979" fill="none" />
  <path d="M 711 275  C 709.32 275  708 273.68  708 272  C 708 270.32  709.32 269  711 269  C 712.68 269  714 270.32  714 272  C 714 273.68  712.68 275  711 275  " fill-rule="nonzero" fill="#797979" stroke="none" />
</svg>