<?xml version="1.0" encoding="utf-8"?>
<svg version="1.1" xmlns:xlink="http://www.w3.org/1999/xlink" width="16px" height="15px" xmlns="http://www.w3.org/2000/svg">
  <g transform="matrix(1 0 0 1 -26 -296 )">
    <path d="M 4.32142857142857 11.2073863636364  C 4.48809523809524 11.40625  4.57142857142857 11.6477272727273  4.57142857142857 11.9318181818182  L 4.57142857142857 13.9772727272727  C 4.57142857142857 14.2613636363636  4.48809523809524 14.5028409090909  4.32142857142857 14.7017045454545  C 4.15476190476191 14.9005681818182  3.95238095238095 15  3.71428571428571 15  L 0.857142857142857 15  C 0.619047619047619 15  0.416666666666667 14.9005681818182  0.25 14.7017045454545  C 0.0833333333333333 14.5028409090909  0 14.2613636363636  0 13.9772727272727  L 0 11.9318181818182  C 0 11.6477272727273  0.0833333333333333 11.40625  0.25 11.2073863636364  C 0.416666666666667 11.0085227272727  0.619047619047619 10.9090909090909  0.857142857142857 10.9090909090909  L 3.71428571428571 10.9090909090909  C 3.95238095238095 10.9090909090909  4.15476190476191 11.0085227272727  4.32142857142857 11.2073863636364  Z M 4.32142857142857 5.75284090909091  C 4.48809523809524 5.95170454545454  4.57142857142857 6.19318181818182  4.57142857142857 6.47727272727273  L 4.57142857142857 8.52272727272727  C 4.57142857142857 8.80681818181818  4.48809523809524 9.04829545454545  4.32142857142857 9.24715909090909  C 4.15476190476191 9.44602272727273  3.95238095238095 9.54545454545455  3.71428571428571 9.54545454545455  L 0.857142857142857 9.54545454545455  C 0.619047619047619 9.54545454545455  0.416666666666667 9.44602272727273  0.25 9.24715909090909  C 0.0833333333333333 9.04829545454545  0 8.80681818181818  0 8.52272727272727  L 0 6.47727272727273  C 0 6.19318181818182  0.0833333333333333 5.95170454545454  0.25 5.75284090909091  C 0.416666666666667 5.55397727272727  0.619047619047619 5.45454545454546  0.857142857142857 5.45454545454546  L 3.71428571428571 5.45454545454546  C 3.95238095238095 5.45454545454546  4.15476190476191 5.55397727272727  4.32142857142857 5.75284090909091  Z M 15.75 11.2073863636364  C 15.9166666666667 11.40625  16 11.6477272727273  16 11.9318181818182  L 16 13.9772727272727  C 16 14.2613636363636  15.9166666666667 14.5028409090909  15.75 14.7017045454545  C 15.5833333333333 14.9005681818182  15.3809523809524 15  15.1428571428571 15  L 6.57142857142857 15  C 6.33333333333333 15  6.13095238095238 14.9005681818182  5.96428571428571 14.7017045454545  C 5.79761904761905 14.5028409090909  5.71428571428571 14.2613636363636  5.71428571428571 13.9772727272727  L 5.71428571428571 11.9318181818182  C 5.71428571428571 11.6477272727273  5.79761904761905 11.40625  5.96428571428571 11.2073863636364  C 6.13095238095238 11.0085227272727  6.33333333333333 10.9090909090909  6.57142857142857 10.9090909090909  L 15.1428571428571 10.9090909090909  C 15.3809523809524 10.9090909090909  15.5833333333333 11.0085227272727  15.75 11.2073863636364  Z M 4.32142857142857 0.298295454545455  C 4.48809523809524 0.49715909090909  4.57142857142857 0.738636363636363  4.57142857142857 1.02272727272727  L 4.57142857142857 3.06818181818182  C 4.57142857142857 3.35227272727273  4.48809523809524 3.59375  4.32142857142857 3.79261363636364  C 4.15476190476191 3.99147727272727  3.95238095238095 4.09090909090909  3.71428571428571 4.09090909090909  L 0.857142857142857 4.09090909090909  C 0.619047619047619 4.09090909090909  0.416666666666667 3.99147727272727  0.25 3.79261363636364  C 0.0833333333333333 3.59375  0 3.35227272727273  0 3.06818181818182  L 0 1.02272727272727  C 0 0.738636363636363  0.0833333333333333 0.49715909090909  0.25 0.298295454545455  C 0.416666666666667 0.0994318181818177  0.619047619047619 0  0.857142857142857 0  L 3.71428571428571 0  C 3.95238095238095 0  4.15476190476191 0.0994318181818177  4.32142857142857 0.298295454545455  Z M 15.75 5.75284090909091  C 15.9166666666667 5.95170454545454  16 6.19318181818182  16 6.47727272727273  L 16 8.52272727272727  C 16 8.80681818181818  15.9166666666667 9.04829545454545  15.75 9.24715909090909  C 15.5833333333333 9.44602272727273  15.3809523809524 9.54545454545455  15.1428571428571 9.54545454545455  L 6.57142857142857 9.54545454545455  C 6.33333333333333 9.54545454545455  6.13095238095238 9.44602272727273  5.96428571428571 9.24715909090909  C 5.79761904761905 9.04829545454545  5.71428571428571 8.80681818181818  5.71428571428571 8.52272727272727  L 5.71428571428571 6.47727272727273  C 5.71428571428571 6.19318181818182  5.79761904761905 5.95170454545454  5.96428571428571 5.75284090909091  C 6.13095238095238 5.55397727272727  6.33333333333333 5.45454545454546  6.57142857142857 5.45454545454546  L 15.1428571428571 5.45454545454546  C 15.3809523809524 5.45454545454546  15.5833333333333 5.55397727272727  15.75 5.75284090909091  Z M 15.75 0.298295454545455  C 15.9166666666667 0.49715909090909  16 0.738636363636363  16 1.02272727272727  L 16 3.06818181818182  C 16 3.35227272727273  15.9166666666667 3.59375  15.75 3.79261363636364  C 15.5833333333333 3.99147727272727  15.3809523809524 4.09090909090909  15.1428571428571 4.09090909090909  L 6.57142857142857 4.09090909090909  C 6.33333333333333 4.09090909090909  6.13095238095238 3.99147727272727  5.96428571428571 3.79261363636364  C 5.79761904761905 3.59375  5.71428571428571 3.35227272727273  5.71428571428571 3.06818181818182  L 5.71428571428571 1.02272727272727  C 5.71428571428571 0.738636363636363  5.79761904761905 0.49715909090909  5.96428571428571 0.298295454545455  C 6.13095238095238 0.0994318181818177  6.33333333333333 0  6.57142857142857 0  L 15.1428571428571 0  C 15.3809523809524 0  15.5833333333333 0.0994318181818177  15.75 0.298295454545455  Z " fill-rule="nonzero" fill="#aaaaaa" stroke="none" transform="matrix(1 0 0 1 26 296 )" />
  </g>
</svg>