<?xml version="1.0" encoding="utf-8"?>
<svg version="1.1" xmlns:xlink="http://www.w3.org/1999/xlink" width="10px" height="893px" preserveAspectRatio="xMidYMin meet" viewBox="-14 405  8 893" xmlns="http://www.w3.org/2000/svg">
  <path d="M 136 416.5  L 87 416.5  A 3 3 0 0 1 84.5 413.5 A 3 3 0 0 0 81.5 410.5 L -5 410.5  A 5 5 0 0 0 -9.5 415 L -9.5 948  A 3 3 0 0 1 -6.5 951 A 3 3 0 0 1 -9.5 954 L -9.5 1288  A 5 5 0 0 0 -4.5 1293.5 L 28 1293.5  " stroke-width="1" stroke="#ff0000" fill="none" />
  <path d="M 27 1299.8  L 33 1293.5  L 27 1287.2  L 27 1299.8  Z " fill-rule="nonzero" fill="#ff0000" stroke="none" />
</svg>