<?xml version="1.0" encoding="utf-8"?>
<svg version="1.1" xmlns:xlink="http://www.w3.org/1999/xlink" width="101px" height="10px" preserveAspectRatio="xMinYMid meet" viewBox="356 644  101 8" xmlns="http://www.w3.org/2000/svg">
  <path d="M 356 648.5  L 397 648.5  A 3 3 0 0 1 400 645.5 A 3 3 0 0 1 403 648.5 L 447 648.5  A 5 5 0 0 1 452.5 653.5 L 452.5 923  A 5 5 0 0 0 457.5 928.5 L 749 928.5  A 5 5 0 0 1 754.5 933 L 754.5 949  A 3 3 0 0 1 757.5 952 A 3 3 0 0 1 754.5 955 L 754.5 1064  A 5 5 0 0 0 759.5 1069.5 L 803 1069.5  " stroke-width="1" stroke="#ff0000" fill="none" />
  <path d="M 802 1075.8  L 808 1069.5  L 802 1063.2  L 802 1075.8  Z " fill-rule="nonzero" fill="#ff0000" stroke="none" />
</svg>