<?xml version="1.0" encoding="utf-8"?>
<svg version="1.1" xmlns:xlink="http://www.w3.org/1999/xlink" width="12px" height="12px" viewBox="20 65.5  12 12" xmlns="http://www.w3.org/2000/svg">
  <path d="M 26 65.5  C 29.36 65.5  32 68.14  32 71.5  C 32 74.86  29.36 77.5  26 77.5  C 22.64 77.5  20 74.86  20 71.5  C 20 68.14  22.64 65.5  26 65.5  Z " fill-rule="nonzero" fill="#ffffff" stroke="none" />
  <path d="M 26 66  C 29.08 66  31.5 68.42  31.5 71.5  C 31.5 74.58  29.08 77  26 77  C 22.92 77  20.5 74.58  20.5 71.5  C 20.5 68.42  22.92 66  26 66  Z " stroke-width="1" stroke="#797979" fill="none" />
  <path d="M 26 74.5  C 24.32 74.5  23 73.18  23 71.5  C 23 69.82  24.32 68.5  26 68.5  C 27.68 68.5  29 69.82  29 71.5  C 29 73.18  27.68 74.5  26 74.5  " fill-rule="nonzero" fill="#797979" stroke="none" />
</svg>