<?xml version="1.0" encoding="utf-8"?>
<svg version="1.1" xmlns:xlink="http://www.w3.org/1999/xlink" width="21px" height="14px" xmlns="http://www.w3.org/2000/svg">
  <g transform="matrix(1 0 0 1 -314 -165 )">
    <path d="M 20.888671875 9.09895833333333  C 20.962890625 9.16493055555555  21 9.24305555555556  21 9.33333333333333  L 21 11.3333333333333  C 21 11.4236111111111  20.962890625 11.5017361111111  20.888671875 11.5677083333333  C 20.814453125 11.6336805555556  20.7265625 11.6666666666667  20.625 11.6666666666667  L 4.5 11.6666666666667  L 4.5 13.6666666666667  C 4.5 13.7569444444444  4.462890625 13.8350694444444  4.388671875 13.9010416666667  C 4.314453125 13.9670138888889  4.2265625 14  4.125 14  C 4.03125 14  3.9375 13.9652777777778  3.84375 13.8958333333333  L 0.10546875 10.5625  C 0.03515625 10.5  0 10.4236111111111  0 10.3333333333333  C 0 10.2361111111111  0.03515625 10.15625  0.10546875 10.09375  L 3.85546875 6.76041666666667  C 3.92578125 6.69791666666667  4.015625 6.66666666666667  4.125 6.66666666666667  C 4.2265625 6.66666666666667  4.314453125 6.69965277777778  4.388671875 6.765625  C 4.462890625 6.83159722222222  4.5 6.90972222222222  4.5 7  L 4.5 9  L 20.625 9  C 20.7265625 9  20.814453125 9.03298611111111  20.888671875 9.09895833333333  Z M 20.89453125 3.42708333333333  C 20.96484375 3.48958333333333  21 3.56944444444444  21 3.66666666666667  C 21 3.76388888888889  20.96484375 3.84375  20.89453125 3.90625  L 17.14453125 7.23958333333333  C 17.07421875 7.30208333333333  16.984375 7.33333333333333  16.875 7.33333333333333  C 16.7734375 7.33333333333333  16.685546875 7.30034722222222  16.611328125 7.234375  C 16.537109375 7.16840277777778  16.5 7.09027777777778  16.5 7  L 16.5 5  L 0.375 5  C 0.2734375 5  0.185546875 4.96701388888889  0.111328125 4.90104166666667  C 0.037109375 4.83506944444444  0 4.75694444444444  0 4.66666666666667  L 0 2.66666666666667  C 0 2.57638888888889  0.037109375 2.49826388888889  0.111328125 2.43229166666667  C 0.185546875 2.36631944444444  0.2734375 2.33333333333333  0.375 2.33333333333333  L 16.5 2.33333333333333  L 16.5 0.333333333333334  C 16.5 0.23611111111111  16.53515625 0.15625  16.60546875 0.0937500000000004  C 16.67578125 0.0312500000000007  16.765625 0  16.875 0  C 16.96875 0  17.0625 0.0347222222222221  17.15625 0.104166666666666  L 20.89453125 3.42708333333333  Z " fill-rule="nonzero" fill="#aaaaaa" stroke="none" transform="matrix(1 0 0 1 314 165 )" />
  </g>
</svg>