<?xml version="1.0" encoding="utf-8"?>
<svg version="1.1" xmlns:xlink="http://www.w3.org/1999/xlink" width="10px" height="13px" xmlns="http://www.w3.org/2000/svg">
  <g transform="matrix(1 0 0 1 -154 -90 )">
    <path d="M 9.814453125 7.85724431818182  C 9.93815104166667 7.97419507575757  10 8.11268939393939  10 8.27272727272727  C 10 8.43276515151515  9.93815104166667 8.57125946969697  9.814453125 8.68821022727273  L 5.439453125 12.8245738636364  C 5.31575520833333 12.9415246212121  5.16927083333333 13  5 13  C 4.83072916666667 13  4.68424479166667 12.9415246212121  4.560546875 12.8245738636364  L 0.185546875 8.68821022727273  C 0.0618489583333333 8.57125946969697  0 8.43276515151515  0 8.27272727272727  C 0 8.11268939393939  0.0618489583333333 7.97419507575757  0.185546875 7.85724431818182  C 0.309244791666667 7.74029356060606  0.455729166666667 7.68181818181818  0.625 7.68181818181818  L 9.375 7.68181818181818  C 9.54427083333333 7.68181818181818  9.69075520833333 7.74029356060606  9.814453125 7.85724431818182  Z M 9.814453125 4.31178977272727  C 9.93815104166667 4.42874053030303  10 4.56723484848485  10 4.72727272727273  C 10 4.8873106060606  9.93815104166667 5.02580492424242  9.814453125 5.14275568181818  C 9.69075520833333 5.25970643939394  9.54427083333333 5.31818181818182  9.375 5.31818181818182  L 0.625 5.31818181818182  C 0.455729166666667 5.31818181818182  0.309244791666667 5.25970643939394  0.185546875 5.14275568181818  C 0.0618489583333333 5.02580492424242  0 4.8873106060606  0 4.72727272727273  C 0 4.56723484848485  0.0618489583333333 4.42874053030303  0.185546875 4.31178977272727  L 4.560546875 0.175426136363637  C 4.68424479166667 0.0584753787878776  4.83072916666667 0  5 0  C 5.16927083333333 0  5.31575520833333 0.0584753787878776  5.439453125 0.175426136363637  L 9.814453125 4.31178977272727  Z " fill-rule="nonzero" fill="#d7d7d7" stroke="none" transform="matrix(1 0 0 1 154 90 )" />
  </g>
</svg>