<?xml version="1.0" encoding="utf-8"?>
<svg version="1.1" xmlns:xlink="http://www.w3.org/1999/xlink" width="12px" height="12px" viewBox="146 808.5  12 12" xmlns="http://www.w3.org/2000/svg">
  <path d="M 152 808.5  C 155.36 808.5  158 811.14  158 814.5  C 158 817.86  155.36 820.5  152 820.5  C 148.64 820.5  146 817.86  146 814.5  C 146 811.14  148.64 808.5  152 808.5  Z " fill-rule="nonzero" fill="#ffffff" stroke="none" />
  <path d="M 152 809  C 155.08 809  157.5 811.42  157.5 814.5  C 157.5 817.58  155.08 820  152 820  C 148.92 820  146.5 817.58  146.5 814.5  C 146.5 811.42  148.92 809  152 809  Z " stroke-width="1" stroke="#797979" fill="none" />
  <path d="M 152 817.5  C 150.32 817.5  149 816.18  149 814.5  C 149 812.82  150.32 811.5  152 811.5  C 153.68 811.5  155 812.82  155 814.5  C 155 816.18  153.68 817.5  152 817.5  " fill-rule="nonzero" fill="#797979" stroke="none" />
</svg>