<?xml version="1.0" encoding="utf-8"?>
<svg version="1.1" xmlns:xlink="http://www.w3.org/1999/xlink" width="12px" height="12px" viewBox="146 788.5  12 12" xmlns="http://www.w3.org/2000/svg">
  <path d="M 152 788.5  C 155.36 788.5  158 791.14  158 794.5  C 158 797.86  155.36 800.5  152 800.5  C 148.64 800.5  146 797.86  146 794.5  C 146 791.14  148.64 788.5  152 788.5  Z " fill-rule="nonzero" fill="#ffffff" stroke="none" />
  <path d="M 152 789  C 155.08 789  157.5 791.42  157.5 794.5  C 157.5 797.58  155.08 800  152 800  C 148.92 800  146.5 797.58  146.5 794.5  C 146.5 791.42  148.92 789  152 789  Z " stroke-width="1" stroke="#797979" fill="none" />
  <path d="M 152 797.5  C 150.32 797.5  149 796.18  149 794.5  C 149 792.82  150.32 791.5  152 791.5  C 153.68 791.5  155 792.82  155 794.5  C 155 796.18  153.68 797.5  152 797.5  " fill-rule="nonzero" fill="#797979" stroke="none" />
</svg>