<?xml version="1.0" encoding="utf-8"?>
<svg version="1.1" xmlns:xlink="http://www.w3.org/1999/xlink" width="20px" height="24px" xmlns="http://www.w3.org/2000/svg">
  <g transform="matrix(1 0 0 1 -556 -732 )">
    <path d="M 566 732  C 571.6 732  576 737.28  576 744  C 576 750.72  571.6 756  566 756  C 560.4 756  556 750.72  556 744  C 556 737.28  560.4 732  566 732  Z " fill-rule="nonzero" fill="#ffffff" stroke="none" />
    <path d="M 566 732.5  C 571.32 732.5  575.5 737.56  575.5 744  C 575.5 750.44  571.32 755.5  566 755.5  C 560.68 755.5  556.5 750.44  556.5 744  C 556.5 737.56  560.68 732.5  566 732.5  Z " stroke-width="1" stroke="#bfbfbf" fill="none" />
  </g>
</svg>