<?xml version="1.0" encoding="utf-8"?>
<svg version="1.1" xmlns:xlink="http://www.w3.org/1999/xlink" width="12px" height="12px" viewBox="121 229  12 12" xmlns="http://www.w3.org/2000/svg">
  <path d="M 127 229  C 130.36 229  133 231.64  133 235  C 133 238.36  130.36 241  127 241  C 123.64 241  121 238.36  121 235  C 121 231.64  123.64 229  127 229  Z " fill-rule="nonzero" fill="#ffffff" stroke="none" />
  <path d="M 127 229.5  C 130.08 229.5  132.5 231.92  132.5 235  C 132.5 238.08  130.08 240.5  127 240.5  C 123.92 240.5  121.5 238.08  121.5 235  C 121.5 231.92  123.92 229.5  127 229.5  Z " stroke-width="1" stroke="#797979" fill="none" />
  <path d="M 127 238  C 125.32 238  124 236.68  124 235  C 124 233.32  125.32 232  127 232  C 128.68 232  130 233.32  130 235  C 130 236.68  128.68 238  127 238  " fill-rule="nonzero" fill="#797979" stroke="none" />
</svg>