<?xml version="1.0" encoding="utf-8"?>
<svg version="1.1" xmlns:xlink="http://www.w3.org/1999/xlink" width="12px" height="12px" viewBox="181 95  12 12" xmlns="http://www.w3.org/2000/svg">
  <path d="M 187 95  C 190.36 95  193 97.64  193 101  C 193 104.36  190.36 107  187 107  C 183.64 107  181 104.36  181 101  C 181 97.64  183.64 95  187 95  Z " fill-rule="nonzero" fill="#ffffff" stroke="none" />
  <path d="M 187 95.5  C 190.08 95.5  192.5 97.92  192.5 101  C 192.5 104.08  190.08 106.5  187 106.5  C 183.92 106.5  181.5 104.08  181.5 101  C 181.5 97.92  183.92 95.5  187 95.5  Z " stroke-width="1" stroke="#797979" fill="none" />
  <path d="M 187 104  C 185.32 104  184 102.68  184 101  C 184 99.32  185.32 98  187 98  C 188.68 98  190 99.32  190 101  C 190 102.68  188.68 104  187 104  " fill-rule="nonzero" fill="#797979" stroke="none" />
</svg>