<?xml version="1.0" encoding="utf-8"?>
<svg version="1.1" xmlns:xlink="http://www.w3.org/1999/xlink" width="12px" height="12px" viewBox="121 164  12 12" xmlns="http://www.w3.org/2000/svg">
  <path d="M 127 164  C 130.36 164  133 166.64  133 170  C 133 173.36  130.36 176  127 176  C 123.64 176  121 173.36  121 170  C 121 166.64  123.64 164  127 164  Z " fill-rule="nonzero" fill="#ffffff" stroke="none" />
  <path d="M 127 164.5  C 130.08 164.5  132.5 166.92  132.5 170  C 132.5 173.08  130.08 175.5  127 175.5  C 123.92 175.5  121.5 173.08  121.5 170  C 121.5 166.92  123.92 164.5  127 164.5  Z " stroke-width="1" stroke="#797979" fill="none" />
  <path d="M 127 173  C 125.32 173  124 171.68  124 170  C 124 168.32  125.32 167  127 167  C 128.68 167  130 168.32  130 170  C 130 171.68  128.68 173  127 173  " fill-rule="nonzero" fill="#797979" stroke="none" />
</svg>