<?xml version="1.0" encoding="utf-8"?>
<svg version="1.1" xmlns:xlink="http://www.w3.org/1999/xlink" width="12px" height="12px" viewBox="19 145  12 12" xmlns="http://www.w3.org/2000/svg">
  <path d="M 25 145  C 28.36 145  31 147.64  31 151  C 31 154.36  28.36 157  25 157  C 21.64 157  19 154.36  19 151  C 19 147.64  21.64 145  25 145  Z " fill-rule="nonzero" fill="#ffffff" stroke="none" />
  <path d="M 25 145.5  C 28.08 145.5  30.5 147.92  30.5 151  C 30.5 154.08  28.08 156.5  25 156.5  C 21.92 156.5  19.5 154.08  19.5 151  C 19.5 147.92  21.92 145.5  25 145.5  Z " stroke-width="1" stroke="#797979" fill="none" />
  <path d="M 25 154  C 23.32 154  22 152.68  22 151  C 22 149.32  23.32 148  25 148  C 26.68 148  28 149.32  28 151  C 28 152.68  26.68 154  25 154  " fill-rule="nonzero" fill="#797979" stroke="none" />
</svg>