<?xml version="1.0" encoding="utf-8"?>
<svg version="1.1" xmlns:xlink="http://www.w3.org/1999/xlink" width="12px" height="12px" viewBox="19 238  12 12" xmlns="http://www.w3.org/2000/svg">
  <path d="M 25 238  C 28.36 238  31 240.64  31 244  C 31 247.36  28.36 250  25 250  C 21.64 250  19 247.36  19 244  C 19 240.64  21.64 238  25 238  Z " fill-rule="nonzero" fill="#ffffff" stroke="none" />
  <path d="M 25 238.5  C 28.08 238.5  30.5 240.92  30.5 244  C 30.5 247.08  28.08 249.5  25 249.5  C 21.92 249.5  19.5 247.08  19.5 244  C 19.5 240.92  21.92 238.5  25 238.5  Z " stroke-width="1" stroke="#797979" fill="none" />
  <path d="M 25 247  C 23.32 247  22 245.68  22 244  C 22 242.32  23.32 241  25 241  C 26.68 241  28 242.32  28 244  C 28 245.68  26.68 247  25 247  " fill-rule="nonzero" fill="#797979" stroke="none" />
</svg>