<?xml version="1.0" encoding="utf-8"?>
<svg version="1.1" xmlns:xlink="http://www.w3.org/1999/xlink" width="340px" height="324px" xmlns="http://www.w3.org/2000/svg">
  <g transform="matrix(1 0 0 1 -516 -207 )">
    <path d="M 516 207  L 856 207  L 856 531  L 516 531  L 516 207  " fill-rule="nonzero" fill="#cccccc" stroke="none" />
    <path d="M 539 230  L 833 230  L 833 508  L 539 508  L 539 230  " fill-rule="nonzero" fill="#ffffff" stroke="none" />
    <path d="M 717.1 304.2  C 703.492 304.2  692.8 293.508  692.8 279.9  C 692.8 266.292  703.492 255.6  717.1 255.6  C 730.708 255.6  741.4 266.292  741.4 279.9  C 741.4 293.508  730.708 304.2  717.1 304.2  " fill-rule="nonzero" fill="#cccccc" stroke="none" />
    <path d="M 547 500  L 547 355.9  L 616.5 290.4  L 713.8 350.197647058824  L 769.4 329.7  L 825 350.197647058824  L 825 500  L 547 500  " fill-rule="nonzero" fill="#169bd5" stroke="none" />
  </g>
</svg>