<?xml version="1.0" encoding="utf-8"?>
<svg version="1.1" xmlns:xlink="http://www.w3.org/1999/xlink" width="12px" height="12px" viewBox="666 198  12 12" xmlns="http://www.w3.org/2000/svg">
  <path d="M 672 198  C 675.36 198  678 200.64  678 204  C 678 207.36  675.36 210  672 210  C 668.64 210  666 207.36  666 204  C 666 200.64  668.64 198  672 198  Z " fill-rule="nonzero" fill="#ffffff" stroke="none" />
  <path d="M 672 198.5  C 675.08 198.5  677.5 200.92  677.5 204  C 677.5 207.08  675.08 209.5  672 209.5  C 668.92 209.5  666.5 207.08  666.5 204  C 666.5 200.92  668.92 198.5  672 198.5  Z " stroke-width="1" stroke="#797979" fill="none" />
  <path d="M 672 207  C 670.32 207  669 205.68  669 204  C 669 202.32  670.32 201  672 201  C 673.68 201  675 202.32  675 204  C 675 205.68  673.68 207  672 207  " fill-rule="nonzero" fill="#797979" stroke="none" />
</svg>