<?xml version="1.0" encoding="utf-8"?>
<svg version="1.1" xmlns:xlink="http://www.w3.org/1999/xlink" width="15px" height="14px" xmlns="http://www.w3.org/2000/svg">
  <g transform="matrix(1 0 0 1 -1382 -171 )">
    <path d="M 9.14513221153857 5.46454326923077  C 9.20222355769238 5.51782852564102  9.23076923076928 5.58092948717947  9.23076923076928 5.65384615384616  L 9.23076923076928 6.19230769230768  C 9.23076923076928 6.26522435897436  9.20222355769238 6.32832532051282  9.14513221153857 6.38161057692307  C 9.08804086538453 6.43489583333334  9.02043269230762 6.46153846153845  8.94230769230762 6.46153846153845  L 6.92307692307691 6.46153846153845  L 6.92307692307691 8.34615384615384  C 6.92307692307691 8.41907051282053  6.89453125 8.48217147435898  6.83743990384619 8.53545673076923  C 6.78034855769238 8.58874198717947  6.71274038461547 8.61538461538461  6.63461538461547 8.61538461538461  L 6.05769230769238 8.61538461538461  C 5.97956730769238 8.61538461538461  5.91195913461547 8.58874198717947  5.85486778846143 8.53545673076923  C 5.79777644230762 8.48217147435898  5.76923076923072 8.41907051282053  5.76923076923072 8.34615384615384  L 5.76923076923072 6.46153846153845  L 3.75 6.46153846153845  C 3.671875 6.46153846153845  3.60426682692309 6.43489583333334  3.54717548076928 6.38161057692307  C 3.49008413461547 6.32832532051282  3.46153846153857 6.26522435897436  3.46153846153857 6.19230769230768  L 3.46153846153857 5.65384615384616  C 3.46153846153857 5.58092948717947  3.49008413461547 5.51782852564102  3.54717548076928 5.46454326923077  C 3.60426682692309 5.41125801282053  3.671875 5.38461538461539  3.75 5.38461538461539  L 5.76923076923072 5.38461538461539  L 5.76923076923072 3.5  C 5.76923076923072 3.42708333333334  5.79777644230762 3.36398237179486  5.85486778846143 3.31069711538461  C 5.91195913461547 3.25741185897436  5.97956730769238 3.23076923076923  6.05769230769238 3.23076923076923  L 6.63461538461547 3.23076923076923  C 6.71274038461547 3.23076923076923  6.78034855769238 3.25741185897436  6.83743990384619 3.31069711538461  C 6.89453125 3.36398237179486  6.92307692307691 3.42708333333334  6.92307692307691 3.5  L 6.92307692307691 5.38461538461539  L 8.94230769230762 5.38461538461539  C 9.02043269230762 5.38461538461539  9.08804086538453 5.41125801282053  9.14513221153857 5.46454326923077  Z M 9.19921875 8.5859375  C 9.98948317307691 7.84835737179486  10.3846153846155 6.96073717948718  10.3846153846155 5.92307692307693  C 10.3846153846155 4.88541666666666  9.98948317307691 3.99779647435898  9.19921875 3.26021634615384  C 8.40895432692309 2.52263621794873  7.45793269230762 2.15384615384616  6.34615384615381 2.15384615384616  C 5.234375 2.15384615384616  4.28335336538453 2.52263621794873  3.49308894230762 3.26021634615384  C 2.70282451923072 3.99779647435898  2.30769230769238 4.88541666666666  2.30769230769238 5.92307692307693  C 2.30769230769238 6.96073717948718  2.70282451923072 7.84835737179486  3.49308894230762 8.5859375  C 4.28335336538453 9.32351762820514  5.234375 9.69230769230768  6.34615384615381 9.69230769230768  C 7.45793269230762 9.69230769230768  8.40895432692309 9.32351762820514  9.19921875 8.5859375  Z M 14.6664663461538 12.1658653846154  C 14.8888221153845 12.3733974358974  15 12.6258012820513  15 12.9230769230769  C 15 13.2203525641026  14.8873197115386 13.4741586538462  14.6619591346155 13.6844951923077  C 14.4365985576924 13.8948317307692  14.1646634615386 14  13.8461538461538 14  C 13.5216346153845 14  13.2512019230769 13.8934294871795  13.0348557692307 13.6802884615385  L 9.94290865384619 10.8028846153846  C 8.8671875 11.4983974358974  7.66826923076928 11.8461538461538  6.34615384615381 11.8461538461538  C 5.48677884615381 11.8461538461538  4.66496394230762 11.6905048076923  3.88070913461547 11.3792067307692  C 3.09645432692309 11.0679086538462  2.42037259615381 10.6472355769231  1.85246394230762 10.1171875  C 1.28455528846143 9.58713942307693  0.833834134615472 8.95612980769232  0.500300480769283 8.22415865384616  C 0.166766826923094 7.4921875  0 6.72516025641025  0 5.92307692307693  C 0 5.12099358974359  0.166766826923094 4.35396634615384  0.500300480769283 3.62199519230768  C 0.833834134615472 2.89002403846155  1.28455528846143 2.25901442307693  1.85246394230762 1.72896634615384  C 2.42037259615381 1.19891826923077  3.09645432692309 0.778245192307679  3.88070913461547 0.466947115384613  C 4.66496394230762 0.155649038461547  5.48677884615381 0  6.34615384615381 0  C 7.20552884615381 0  8.02734375 0.155649038461547  8.81159855769238 0.466947115384613  C 9.59585336538453 0.778245192307679  10.2719350961538 1.19891826923077  10.83984375 1.72896634615384  C 11.4077524038462 2.25901442307693  11.8584735576924 2.89002403846155  12.1920072115386 3.62199519230768  C 12.5255408653845 4.35396634615384  12.6923076923076 5.12099358974359  12.6923076923076 5.92307692307693  C 12.6923076923076 7.15705128205127  12.3197115384614 8.27604166666666  11.5745192307693 9.28004807692307  L 14.6664663461538 12.1658653846154  Z " fill-rule="nonzero" fill="#a1a1a1" stroke="none" transform="matrix(1 0 0 1 1382 171 )" />
  </g>
</svg>