<?xml version="1.0" encoding="utf-8"?>
<svg version="1.1" xmlns:xlink="http://www.w3.org/1999/xlink" width="16px" height="16px" xmlns="http://www.w3.org/2000/svg">
  <g transform="matrix(1 0 0 1 -444 -260 )">
    <path d="M 452 260  C 456.48 260  460 263.52  460 268  C 460 272.48  456.48 276  452 276  C 447.52 276  444 272.48  444 268  C 444 263.52  447.52 260  452 260  Z " fill-rule="nonzero" fill="#ffffff" stroke="none" />
    <path d="M 452 260.5  C 456.2 260.5  459.5 263.8  459.5 268  C 459.5 272.2  456.2 275.5  452 275.5  C 447.8 275.5  444.5 272.2  444.5 268  C 444.5 263.8  447.8 260.5  452 260.5  Z " stroke-width="1" stroke="#cdcdcd" fill="none" />
  </g>
</svg>