<?xml version="1.0" encoding="utf-8"?>
<svg version="1.1" xmlns:xlink="http://www.w3.org/1999/xlink" width="12px" height="12px" viewBox="575 407  12 12" xmlns="http://www.w3.org/2000/svg">
  <path d="M 581 407  C 584.36 407  587 409.64  587 413  C 587 416.36  584.36 419  581 419  C 577.64 419  575 416.36  575 413  C 575 409.64  577.64 407  581 407  Z " fill-rule="nonzero" fill="#ffffff" stroke="none" />
  <path d="M 581 407.5  C 584.08 407.5  586.5 409.92  586.5 413  C 586.5 416.08  584.08 418.5  581 418.5  C 577.92 418.5  575.5 416.08  575.5 413  C 575.5 409.92  577.92 407.5  581 407.5  Z " stroke-width="1" stroke="#797979" fill="none" />
  <path d="M 581 416  C 579.32 416  578 414.68  578 413  C 578 411.32  579.32 410  581 410  C 582.68 410  584 411.32  584 413  C 584 414.68  582.68 416  581 416  " fill-rule="nonzero" fill="#797979" stroke="none" />
</svg>