<?xml version="1.0" encoding="utf-8"?>
<svg version="1.1" xmlns:xlink="http://www.w3.org/1999/xlink" width="12px" height="12px" viewBox="1066 410  12 12" xmlns="http://www.w3.org/2000/svg">
  <path d="M 1072 410  C 1075.36 410  1078 412.64  1078 416  C 1078 419.36  1075.36 422  1072 422  C 1068.64 422  1066 419.36  1066 416  C 1066 412.64  1068.64 410  1072 410  Z " fill-rule="nonzero" fill="#ffffff" stroke="none" />
  <path d="M 1072 410.5  C 1075.08 410.5  1077.5 412.92  1077.5 416  C 1077.5 419.08  1075.08 421.5  1072 421.5  C 1068.92 421.5  1066.5 419.08  1066.5 416  C 1066.5 412.92  1068.92 410.5  1072 410.5  Z " stroke-width="1" stroke="#797979" fill="none" />
  <path d="M 1072 419  C 1070.32 419  1069 417.68  1069 416  C 1069 414.32  1070.32 413  1072 413  C 1073.68 413  1075 414.32  1075 416  C 1075 417.68  1073.68 419  1072 419  " fill-rule="nonzero" fill="#797979" stroke="none" />
</svg>