<?xml version="1.0" encoding="utf-8"?>
<svg version="1.1" xmlns:xlink="http://www.w3.org/1999/xlink" width="12px" height="12px" viewBox="828 410  12 12" xmlns="http://www.w3.org/2000/svg">
  <path d="M 834 410  C 837.36 410  840 412.64  840 416  C 840 419.36  837.36 422  834 422  C 830.64 422  828 419.36  828 416  C 828 412.64  830.64 410  834 410  Z " fill-rule="nonzero" fill="#ffffff" stroke="none" />
  <path d="M 834 410.5  C 837.08 410.5  839.5 412.92  839.5 416  C 839.5 419.08  837.08 421.5  834 421.5  C 830.92 421.5  828.5 419.08  828.5 416  C 828.5 412.92  830.92 410.5  834 410.5  Z " stroke-width="1" stroke="#797979" fill="none" />
  <path d="M 834 419  C 832.32 419  831 417.68  831 416  C 831 414.32  832.32 413  834 413  C 835.68 413  837 414.32  837 416  C 837 417.68  835.68 419  834 419  " fill-rule="nonzero" fill="#797979" stroke="none" />
</svg>