<?xml version="1.0" encoding="utf-8"?>
<svg version="1.1" xmlns:xlink="http://www.w3.org/1999/xlink" width="32px" height="32px" xmlns="http://www.w3.org/2000/svg">
  <g transform="matrix(1 0 0 1 -582 55 )">
    <path d="M 598 -55  C 606.96 -55  614 -47.96  614 -39  C 614 -30.04  606.96 -23  598 -23  C 589.04 -23  582 -30.04  582 -39  C 582 -47.96  589.04 -55  598 -55  Z " fill-rule="nonzero" fill="#ffffff" stroke="none" />
    <path d="M 598 -54.5  C 606.68 -54.5  613.5 -47.68  613.5 -39  C 613.5 -30.32  606.68 -23.5  598 -23.5  C 589.32 -23.5  582.5 -30.32  582.5 -39  C 582.5 -47.68  589.32 -54.5  598 -54.5  Z " stroke-width="1" stroke="#cccccc" fill="none" />
  </g>
</svg>