<?xml version="1.0" encoding="utf-8"?>
<svg version="1.1" xmlns:xlink="http://www.w3.org/1999/xlink" width="22px" height="22px" xmlns="http://www.w3.org/2000/svg">
  <g transform="matrix(1 0 0 1 -103 -9 )">
    <path d="M 18.17578125 14.0266060999351  C 18.5863715277778 13.0605667315596  18.7916666666667 12.04931862427  18.7916666666667 10.9928617780662  C 18.7916666666667 9.46052346960848  18.3763020833333 8.05667315595933  17.5455729166667 6.78131083711876  L 6.74609375 17.5314730694354  C 8.05425347222222 18.3785420722475  9.47222222222222 18.8020765736535  11 18.8020765736535  C 12.0598958333333 18.8020765736535  13.0696614583333 18.595068137573  14.029296875 18.1810512654121  C 14.9889322916667 17.7670343932511  15.8172743055556 17.2126324897253  16.5143229166667 16.5178455548345  C 17.2113715277778 15.8230586199438  17.7651909722222 14.9926454683106  18.17578125 14.0266060999351  Z M 3.20833333333333 10.9928617780662  C 3.20833333333333 12.534717715769  3.63324652777778 13.9576032879083  4.48307291666667 15.2615184944841  L 15.296875 4.49707981829981  C 14.0078125 3.63097555699762  12.5755208333333 3.19792342634653  11 3.19792342634653  C 9.58680555555556 3.19792342634653  8.28342013888889 3.54531689379191  7.08984375 4.24010382868267  C 5.89626736111111 4.93489076357343  4.95095486111111 5.88189487345879  4.25390625 7.08111615833874  C 3.55685763888889 8.28033744321869  3.20833333333333 9.58425264979451  3.20833333333333 10.9928617780662  Z M 21.1263020833333 6.71706683971447  C 21.7087673611111 8.07332900713822  22 9.49859398658879  22 10.9928617780662  C 22 12.4871295695436  21.7087673611111 13.9147739563054  21.1263020833333 15.2757949383517  C 20.5438368055556 16.636815920398  19.7632378472222 17.8074843175427  18.7845052083333 18.7878001297859  C 17.8057725694444 19.768115942029  16.6360677083333 20.5485615401255  15.275390625 21.1291369240753  C 13.9147135416667 21.7097123080251  12.4895833333333 22  11 22  C 9.51041666666667 22  8.08528645833333 21.7097123080251  6.724609375 21.1291369240753  C 5.36393229166667 20.5485615401255  4.19422743055556 19.768115942029  3.21549479166667 18.7878001297859  C 2.23676215277778 17.8074843175427  1.45616319444444 16.636815920398  0.873697916666667 15.2757949383517  C 0.291232638888889 13.9147739563054  0 12.4871295695436  0 10.9928617780662  C 0 9.49859398658879  0.291232638888889 8.07332900713822  0.873697916666667 6.71706683971447  C 1.45616319444444 5.36080467229072  2.23676215277778 4.19251568245728  3.21549479166667 3.21219987021415  C 4.19422743055556 2.23188405797101  5.36393229166667 1.45143845987454  6.724609375 0.870863075924725  C 8.08528645833333 0.290287691974906  9.51041666666667 0  11 0  C 12.4895833333333 0  13.9147135416667 0.290287691974906  15.275390625 0.870863075924725  C 16.6360677083333 1.45143845987454  17.8057725694444 2.23188405797101  18.7845052083333 3.21219987021415  C 19.7632378472222 4.19251568245728  20.5438368055556 5.36080467229072  21.1263020833333 6.71706683971447  Z " fill-rule="nonzero" fill="#000000" stroke="none" transform="matrix(1 0 0 1 103 9 )" />
  </g>
</svg>