<?xml version="1.0" encoding="utf-8"?>
<svg version="1.1" xmlns:xlink="http://www.w3.org/1999/xlink" width="12px" height="12px" viewBox="234 586  12 12" xmlns="http://www.w3.org/2000/svg">
  <path d="M 240 586  C 243.36 586  246 588.64  246 592  C 246 595.36  243.36 598  240 598  C 236.64 598  234 595.36  234 592  C 234 588.64  236.64 586  240 586  Z " fill-rule="nonzero" fill="#ffffff" stroke="none" />
  <path d="M 240 586.5  C 243.08 586.5  245.5 588.92  245.5 592  C 245.5 595.08  243.08 597.5  240 597.5  C 236.92 597.5  234.5 595.08  234.5 592  C 234.5 588.92  236.92 586.5  240 586.5  Z " stroke-width="1" stroke="#797979" fill="none" />
  <path d="M 240 595  C 238.32 595  237 593.68  237 592  C 237 590.32  238.32 589  240 589  C 241.68 589  243 590.32  243 592  C 243 593.68  241.68 595  240 595  " fill-rule="nonzero" fill="#797979" stroke="none" />
</svg>