<?xml version="1.0" encoding="utf-8"?>
<svg version="1.1" xmlns:xlink="http://www.w3.org/1999/xlink" width="12px" height="12px" viewBox="104 586  12 12" xmlns="http://www.w3.org/2000/svg">
  <path d="M 110 586  C 113.36 586  116 588.64  116 592  C 116 595.36  113.36 598  110 598  C 106.64 598  104 595.36  104 592  C 104 588.64  106.64 586  110 586  Z " fill-rule="nonzero" fill="#ffffff" stroke="none" />
  <path d="M 110 586.5  C 113.08 586.5  115.5 588.92  115.5 592  C 115.5 595.08  113.08 597.5  110 597.5  C 106.92 597.5  104.5 595.08  104.5 592  C 104.5 588.92  106.92 586.5  110 586.5  Z " stroke-width="1" stroke="#797979" fill="none" />
  <path d="M 110 595  C 108.32 595  107 593.68  107 592  C 107 590.32  108.32 589  110 589  C 111.68 589  113 590.32  113 592  C 113 593.68  111.68 595  110 595  " fill-rule="nonzero" fill="#797979" stroke="none" />
</svg>