<?xml version="1.0" encoding="utf-8"?>
<svg version="1.1" xmlns:xlink="http://www.w3.org/1999/xlink" width="26px" height="22px" xmlns="http://www.w3.org/2000/svg">
  <g transform="matrix(1 0 0 1 -13 -9 )">
    <path d="M 25.6333155934007 12.203125  C 25.8777718644669 12.3385416666667  26 12.5625  26 12.875  C 26 13.1979166666667  25.8570161433387 13.5416666666667  25.571048430016 13.90625  L 20.9217668972858 20.09375  C 20.5251020046124 20.625  19.9693099166223 21.0755208333333  19.2543906333156 21.4453125  C 18.5394713500089 21.8151041666667  17.877594465141 22  17.2687599787121 22  L 2.21394358701437 22  C 1.900301578854 22  1.62125243924073 21.9322916666667  1.37679616817456 21.796875  C 1.13233989710839 21.6614583333333  1.01011176157531 21.4375  1.01011176157531 21.125  C 1.01011176157531 20.8020833333333  1.15309561823665 20.4583333333333  1.43906333155934 20.09375  L 6.08834486428952 13.90625  C 6.48500975696293 13.375  7.04080184495299 12.9244791666667  7.75572112825971 12.5546875  C 8.47064041156644 12.1848958333333  9.13251729643427 12  9.74135178286322 12  L 24.7961681745609 12  C 25.1098101827213 12  25.3888593223346 12.0677083333333  25.6333155934007 12.203125  Z M 20.3406067056945 5.03125  C 20.9494411921235 5.71875  21.2538584353379 6.54166666666666  21.2538584353379 7.5  L 21.2538584353379 10  L 9.74135178286322 10  C 8.87422387794926 10  7.96558453077878 10.2473958333333  7.01543374135178 10.7421875  C 6.06528295192478 11.2369791666667  5.30885222636154 11.859375  4.74614156466205 12.609375  L 0.0830228845130389 18.796875  L 0.0138371474188398 18.890625  C 0.0138371474188398 18.8489583333333  0.0115309561823665 18.7838541666667  0.0069185737094199 18.6953125  C 0.0023061912364733 18.6067708333333  0 18.5416666666667  0 18.5  L 0 3.5  C 0 2.54166666666666  0.304417243214476 1.71875  0.913251729643427 1.03125  C 1.52208621607238 0.34375  2.25084264679794 0  3.09952102182012 0  L 7.52740819584886 0  C 8.37608657087103 0  9.10484300159659 0.34375  9.71367748802555 1.03125  C 10.3225119744545 1.71875  10.626929217669 2.54166666666666  10.626929217669 3.5  L 10.626929217669 4  L 18.1543374135178 4  C 19.00301578854 4  19.7317722192656 4.34375  20.3406067056945 5.03125  Z " fill-rule="nonzero" fill="#aaaaaa" stroke="none" transform="matrix(1 0 0 1 13 9 )" />
  </g>
</svg>