<?xml version="1.0" encoding="utf-8"?>
<svg version="1.1" xmlns:xlink="http://www.w3.org/1999/xlink" width="12px" height="12px" viewBox="104 630  12 12" xmlns="http://www.w3.org/2000/svg">
  <path d="M 110 630  C 113.36 630  116 632.64  116 636  C 116 639.36  113.36 642  110 642  C 106.64 642  104 639.36  104 636  C 104 632.64  106.64 630  110 630  Z " fill-rule="nonzero" fill="#ffffff" stroke="none" />
  <path d="M 110 630.5  C 113.08 630.5  115.5 632.92  115.5 636  C 115.5 639.08  113.08 641.5  110 641.5  C 106.92 641.5  104.5 639.08  104.5 636  C 104.5 632.92  106.92 630.5  110 630.5  Z " stroke-width="1" stroke="#797979" fill="none" />
  <path d="M 110 639  C 108.32 639  107 637.68  107 636  C 107 634.32  108.32 633  110 633  C 111.68 633  113 634.32  113 636  C 113 637.68  111.68 639  110 639  " fill-rule="nonzero" fill="#797979" stroke="none" />
</svg>