<?xml version="1.0" encoding="utf-8"?>
<svg version="1.1" xmlns:xlink="http://www.w3.org/1999/xlink" width="12px" height="12px" viewBox="442 55.5  12 12" xmlns="http://www.w3.org/2000/svg">
  <path d="M 448 55.5  C 451.36 55.5  454 58.14  454 61.5  C 454 64.86  451.36 67.5  448 67.5  C 444.64 67.5  442 64.86  442 61.5  C 442 58.14  444.64 55.5  448 55.5  Z " fill-rule="nonzero" fill="#ffffff" stroke="none" />
  <path d="M 448 56  C 451.08 56  453.5 58.42  453.5 61.5  C 453.5 64.58  451.08 67  448 67  C 444.92 67  442.5 64.58  442.5 61.5  C 442.5 58.42  444.92 56  448 56  Z " stroke-width="1" stroke="#797979" fill="none" />
  <path d="M 448 64.5  C 446.32 64.5  445 63.18  445 61.5  C 445 59.82  446.32 58.5  448 58.5  C 449.68 58.5  451 59.82  451 61.5  C 451 63.18  449.68 64.5  448 64.5  " fill-rule="nonzero" fill="#797979" stroke="none" />
</svg>