<?xml version="1.0" encoding="utf-8"?>
<svg version="1.1" xmlns:xlink="http://www.w3.org/1999/xlink" width="12px" height="12px" viewBox="295 55.5  12 12" xmlns="http://www.w3.org/2000/svg">
  <path d="M 301 55.5  C 304.36 55.5  307 58.14  307 61.5  C 307 64.86  304.36 67.5  301 67.5  C 297.64 67.5  295 64.86  295 61.5  C 295 58.14  297.64 55.5  301 55.5  Z " fill-rule="nonzero" fill="#ffffff" stroke="none" />
  <path d="M 301 56  C 304.08 56  306.5 58.42  306.5 61.5  C 306.5 64.58  304.08 67  301 67  C 297.92 67  295.5 64.58  295.5 61.5  C 295.5 58.42  297.92 56  301 56  Z " stroke-width="1" stroke="#797979" fill="none" />
  <path d="M 301 64.5  C 299.32 64.5  298 63.18  298 61.5  C 298 59.82  299.32 58.5  301 58.5  C 302.68 58.5  304 59.82  304 61.5  C 304 63.18  302.68 64.5  301 64.5  " fill-rule="nonzero" fill="#797979" stroke="none" />
</svg>