<?xml version="1.0" encoding="utf-8"?>
<svg version="1.1" xmlns:xlink="http://www.w3.org/1999/xlink" width="12px" height="12px" viewBox="111 51  12 12" xmlns="http://www.w3.org/2000/svg">
  <path d="M 117 51  C 120.36 51  123 53.64  123 57  C 123 60.36  120.36 63  117 63  C 113.64 63  111 60.36  111 57  C 111 53.64  113.64 51  117 51  Z " fill-rule="nonzero" fill="#ffffff" stroke="none" />
  <path d="M 117 51.5  C 120.08 51.5  122.5 53.92  122.5 57  C 122.5 60.08  120.08 62.5  117 62.5  C 113.92 62.5  111.5 60.08  111.5 57  C 111.5 53.92  113.92 51.5  117 51.5  Z " stroke-width="1" stroke="#797979" fill="none" />
  <path d="M 117 60  C 115.32 60  114 58.68  114 57  C 114 55.32  115.32 54  117 54  C 118.68 54  120 55.32  120 57  C 120 58.68  118.68 60  117 60  " fill-rule="nonzero" fill="#797979" stroke="none" />
</svg>