<?xml version="1.0" encoding="utf-8"?>
<svg version="1.1" xmlns:xlink="http://www.w3.org/1999/xlink" width="12px" height="12px" viewBox="250 230  12 12" xmlns="http://www.w3.org/2000/svg">
  <path d="M 256 230  C 259.36 230  262 232.64  262 236  C 262 239.36  259.36 242  256 242  C 252.64 242  250 239.36  250 236  C 250 232.64  252.64 230  256 230  Z " fill-rule="nonzero" fill="#ffffff" stroke="none" />
  <path d="M 256 230.5  C 259.08 230.5  261.5 232.92  261.5 236  C 261.5 239.08  259.08 241.5  256 241.5  C 252.92 241.5  250.5 239.08  250.5 236  C 250.5 232.92  252.92 230.5  256 230.5  Z " stroke-width="1" stroke="#797979" fill="none" />
  <path d="M 256 239  C 254.32 239  253 237.68  253 236  C 253 234.32  254.32 233  256 233  C 257.68 233  259 234.32  259 236  C 259 237.68  257.68 239  256 239  " fill-rule="nonzero" fill="#797979" stroke="none" />
</svg>