<?xml version="1.0" encoding="utf-8"?>
<svg version="1.1" xmlns:xlink="http://www.w3.org/1999/xlink" width="12px" height="12px" viewBox="251 274  12 12" xmlns="http://www.w3.org/2000/svg">
  <path d="M 257 274  C 260.36 274  263 276.64  263 280  C 263 283.36  260.36 286  257 286  C 253.64 286  251 283.36  251 280  C 251 276.64  253.64 274  257 274  Z " fill-rule="nonzero" fill="#ffffff" stroke="none" />
  <path d="M 257 274.5  C 260.08 274.5  262.5 276.92  262.5 280  C 262.5 283.08  260.08 285.5  257 285.5  C 253.92 285.5  251.5 283.08  251.5 280  C 251.5 276.92  253.92 274.5  257 274.5  Z " stroke-width="1" stroke="#797979" fill="none" />
  <path d="M 257 283  C 255.32 283  254 281.68  254 280  C 254 278.32  255.32 277  257 277  C 258.68 277  260 278.32  260 280  C 260 281.68  258.68 283  257 283  " fill-rule="nonzero" fill="#797979" stroke="none" />
</svg>