<?xml version="1.0" encoding="utf-8"?>
<svg version="1.1" xmlns:xlink="http://www.w3.org/1999/xlink" width="12px" height="12px" viewBox="380 230  12 12" xmlns="http://www.w3.org/2000/svg">
  <path d="M 386 230  C 389.36 230  392 232.64  392 236  C 392 239.36  389.36 242  386 242  C 382.64 242  380 239.36  380 236  C 380 232.64  382.64 230  386 230  Z " fill-rule="nonzero" fill="#ffffff" stroke="none" />
  <path d="M 386 230.5  C 389.08 230.5  391.5 232.92  391.5 236  C 391.5 239.08  389.08 241.5  386 241.5  C 382.92 241.5  380.5 239.08  380.5 236  C 380.5 232.92  382.92 230.5  386 230.5  Z " stroke-width="1" stroke="#797979" fill="none" />
  <path d="M 386 239  C 384.32 239  383 237.68  383 236  C 383 234.32  384.32 233  386 233  C 387.68 233  389 234.32  389 236  C 389 237.68  387.68 239  386 239  " fill-rule="nonzero" fill="#797979" stroke="none" />
</svg>