<?xml version="1.0" encoding="utf-8"?>
<svg version="1.1" xmlns:xlink="http://www.w3.org/1999/xlink" width="22px" height="16px" xmlns="http://www.w3.org/2000/svg">
  <g transform="matrix(1 0 0 1 -3 -125 )">
    <path d="M 21.5142663043478 6.41335044929397  C 21.8380887681159 6.67008985879333  22 6.97988874625588  22 7.34274711168164  L 22 8.65725288831836  C 22 9.02011125374412  21.8380887681159 9.32991014120667  21.5142663043478 9.58664955070603  C 21.1904438405797 9.84338896020539  20.7694746376812 9.97175866495507  20.2513586956522 10  L 9.72961956521739 10  L 14.1086956521739 12.9910141206675  C 14.4873188405797 13.2374839537869  14.6766304347826 13.5455712451861  14.6766304347826 13.9152759948652  C 14.6766304347826 14.2849807445443  14.4873188405797 14.5930680359435  14.1086956521739 14.8395378690629  L 12.9877717391304 15.6200256739409  C 12.6191123188406 15.8733418913137  12.1707427536232 16  11.6426630434783 16  C 11.1245471014493 16  10.6711956521739 15.8733418913137  10.2826086956522 15.6200256739409  L 0.552989130434783 8.92426187419769  C 0.184329710144928 8.67094565682499  0 8.36285836542576  0 8  C 0 7.64398801882756  0.184329710144928 7.33247753530167  0.552989130434783 7.06546854942234  L 10.2826086956522 0.390243902439025  C 10.661231884058 0.130081300813007  11.1145833333333 0  11.6426630434783 0  C 12.1607789855072 0  12.6091485507246 0.130081300813007  12.9877717391304 0.390243902439025  L 14.1086956521739 1.15019255455712  C 14.4873188405797 1.41035515618314  14.6766304347826 1.72186563970903  14.6766304347826 2.08472400513479  C 14.6766304347826 2.44758237056055  14.4873188405797 2.75909285408643  14.1086956521739 3.01925545571245  L 9.72961956521739 6  L 20.2513586956522 6  C 20.7694746376812 6.02824133504493  21.1904438405797 6.15661103979461  21.5142663043478 6.41335044929397  Z " fill-rule="nonzero" fill="#7f7f7f" stroke="none" transform="matrix(1 0 0 1 3 125 )" />
  </g>
</svg>