<?xml version="1.0" encoding="utf-8"?>
<svg version="1.1" xmlns:xlink="http://www.w3.org/1999/xlink" width="14px" height="14px" xmlns="http://www.w3.org/2000/svg">
  <g transform="matrix(1 0 0 1 -55 -10 )">
    <path d="M 13.685546875 8.25325520833333  C 13.7432725694444 8.31098090277778  13.7721354166667 8.37934027777778  13.7721354166667 8.45833333333333  C 13.7721354166667 8.48871527777778  13.7690972222222 8.50998263888889  13.7630208333333 8.52213541666667  C 13.3741319444444 10.1506076388889  12.5598958333333 11.470703125  11.3203125 12.482421875  C 10.0807291666667 13.494140625  8.62847222222222 14  6.96354166666667 14  C 6.07638888888889 14  5.21809895833333 13.8328993055556  4.388671875 13.4986979166667  C 3.55924479166667 13.1644965277778  2.81944444444445 12.6875  2.16927083333333 12.0677083333333  L 0.993489583333333 13.2434895833333  C 0.878038194444445 13.3589409722222  0.741319444444445 13.4166666666667  0.583333333333333 13.4166666666667  C 0.425347222222222 13.4166666666667  0.288628472222222 13.3589409722222  0.173177083333333 13.2434895833333  C 0.0577256944444444 13.1280381944444  0 12.9913194444444  0 12.8333333333333  L 0 8.75  C 0 8.59201388888889  0.0577256944444444 8.45529513888889  0.173177083333333 8.33984375  C 0.288628472222222 8.22439236111111  0.425347222222222 8.16666666666667  0.583333333333333 8.16666666666667  L 4.66666666666667 8.16666666666667  C 4.82465277777778 8.16666666666667  4.96137152777778 8.22439236111111  5.07682291666667 8.33984375  C 5.19227430555556 8.45529513888889  5.25 8.59201388888889  5.25 8.75  C 5.25 8.90798611111111  5.19227430555556 9.04470486111111  5.07682291666667 9.16015625  L 3.828125 10.4088541666667  C 4.25954861111111 10.8098958333333  4.74869791666667 11.1197916666667  5.29557291666667 11.3385416666667  C 5.84244791666667 11.5572916666667  6.41059027777778 11.6666666666667  7 11.6666666666667  C 7.81423611111111 11.6666666666667  8.57378472222222 11.4691840277778  9.27864583333333 11.07421875  C 9.98350694444444 10.6792534722222  10.5486111111111 10.1354166666667  10.9739583333333 9.44270833333333  C 11.0407986111111 9.33940972222222  11.2018229166667 8.98394097222222  11.45703125 8.37630208333333  C 11.5056423611111 8.23654513888889  11.5967881944444 8.16666666666667  11.73046875 8.16666666666667  L 13.48046875 8.16666666666667  C 13.5594618055556 8.16666666666667  13.6278211805556 8.19552951388889  13.685546875 8.25325520833333  Z M 13.8268229166667 0.756510416666667  C 13.9422743055556 0.871961805555555  14 1.00868055555555  14 1.16666666666667  L 14 5.25  C 14 5.40798611111111  13.9422743055556 5.54470486111111  13.8268229166667 5.66015625  C 13.7113715277778 5.77560763888889  13.5746527777778 5.83333333333333  13.4166666666667 5.83333333333333  L 9.33333333333333 5.83333333333333  C 9.17534722222222 5.83333333333333  9.03862847222222 5.77560763888889  8.92317708333333 5.66015625  C 8.80772569444444 5.54470486111111  8.75 5.40798611111111  8.75 5.25  C 8.75 5.09201388888889  8.80772569444444 4.95529513888889  8.92317708333333 4.83984375  L 10.1809895833333 3.58203125  C 9.28168402777778 2.74956597222222  8.22135416666667 2.33333333333333  7 2.33333333333333  C 6.18576388888889 2.33333333333333  5.42621527777778 2.53081597222222  4.72135416666667 2.92578125  C 4.01649305555556 3.32074652777778  3.45138888888889 3.86458333333333  3.02604166666667 4.55729166666667  C 2.95920138888889 4.66059027777778  2.79817708333333 5.01605902777778  2.54296875 5.62369791666667  C 2.49435763888889 5.76345486111111  2.40321180555556 5.83333333333333  2.26953125 5.83333333333333  L 0.455729166666667 5.83333333333333  C 0.376736111111111 5.83333333333333  0.308376736111111 5.80447048611111  0.250651041666667 5.74674479166667  C 0.192925347222222 5.68901909722222  0.1640625 5.62065972222222  0.1640625 5.54166666666667  L 0.1640625 5.47786458333333  C 0.559027777777778 3.84939236111111  1.37934027777778 2.529296875  2.625 1.517578125  C 3.87065972222222 0.505859375  5.32899305555556 0  7 0  C 7.88715277777778 0  8.75 0.168619791666667  9.58854166666667 0.505859375  C 10.4270833333333 0.843098958333333  11.1714409722222 1.31857638888889  11.8216145833333 1.93229166666667  L 13.0065104166667 0.756510416666667  C 13.1219618055556 0.641059027777777  13.2586805555556 0.583333333333333  13.4166666666667 0.583333333333333  C 13.5746527777778 0.583333333333333  13.7113715277778 0.641059027777777  13.8268229166667 0.756510416666667  Z " fill-rule="nonzero" fill="#d7d7d7" stroke="none" transform="matrix(1 0 0 1 55 10 )" />
  </g>
</svg>