<?xml version="1.0" encoding="utf-8"?>
<svg version="1.1" xmlns:xlink="http://www.w3.org/1999/xlink" width="12px" height="12px" viewBox="52 876.5  12 12" xmlns="http://www.w3.org/2000/svg">
  <path d="M 58 876.5  C 61.36 876.5  64 879.14  64 882.5  C 64 885.86  61.36 888.5  58 888.5  C 54.64 888.5  52 885.86  52 882.5  C 52 879.14  54.64 876.5  58 876.5  Z " fill-rule="nonzero" fill="#ffffff" stroke="none" />
  <path d="M 58 877  C 61.08 877  63.5 879.42  63.5 882.5  C 63.5 885.58  61.08 888  58 888  C 54.92 888  52.5 885.58  52.5 882.5  C 52.5 879.42  54.92 877  58 877  Z " stroke-width="1" stroke="#797979" fill="none" />
  <path d="M 58 885.5  C 56.32 885.5  55 884.18  55 882.5  C 55 880.82  56.32 879.5  58 879.5  C 59.68 879.5  61 880.82  61 882.5  C 61 884.18  59.68 885.5  58 885.5  " fill-rule="nonzero" fill="#797979" stroke="none" />
</svg>