<?xml version="1.0" encoding="utf-8"?>
<svg version="1.1" xmlns:xlink="http://www.w3.org/1999/xlink" width="12px" height="12px" viewBox="51 853.5  12 12" xmlns="http://www.w3.org/2000/svg">
  <path d="M 57 853.5  C 60.36 853.5  63 856.14  63 859.5  C 63 862.86  60.36 865.5  57 865.5  C 53.64 865.5  51 862.86  51 859.5  C 51 856.14  53.64 853.5  57 853.5  Z " fill-rule="nonzero" fill="#ffffff" stroke="none" />
  <path d="M 57 854  C 60.08 854  62.5 856.42  62.5 859.5  C 62.5 862.58  60.08 865  57 865  C 53.92 865  51.5 862.58  51.5 859.5  C 51.5 856.42  53.92 854  57 854  Z " stroke-width="1" stroke="#797979" fill="none" />
  <path d="M 57 862.5  C 55.32 862.5  54 861.18  54 859.5  C 54 857.82  55.32 856.5  57 856.5  C 58.68 856.5  60 857.82  60 859.5  C 60 861.18  58.68 862.5  57 862.5  " fill-rule="nonzero" fill="#797979" stroke="none" />
</svg>