<?xml version="1.0" encoding="utf-8"?>
<svg version="1.1" xmlns:xlink="http://www.w3.org/1999/xlink" width="12px" height="12px" viewBox="51 803.5  12 12" xmlns="http://www.w3.org/2000/svg">
  <path d="M 57 803.5  C 60.36 803.5  63 806.14  63 809.5  C 63 812.86  60.36 815.5  57 815.5  C 53.64 815.5  51 812.86  51 809.5  C 51 806.14  53.64 803.5  57 803.5  Z " fill-rule="nonzero" fill="#ffffff" stroke="none" />
  <path d="M 57 804  C 60.08 804  62.5 806.42  62.5 809.5  C 62.5 812.58  60.08 815  57 815  C 53.92 815  51.5 812.58  51.5 809.5  C 51.5 806.42  53.92 804  57 804  Z " stroke-width="1" stroke="#797979" fill="none" />
  <path d="M 57 812.5  C 55.32 812.5  54 811.18  54 809.5  C 54 807.82  55.32 806.5  57 806.5  C 58.68 806.5  60 807.82  60 809.5  C 60 811.18  58.68 812.5  57 812.5  " fill-rule="nonzero" fill="#797979" stroke="none" />
</svg>