<?xml version="1.0" encoding="utf-8"?>
<svg version="1.1" xmlns:xlink="http://www.w3.org/1999/xlink" width="4px" height="13px" xmlns="http://www.w3.org/2000/svg">
  <g transform="matrix(1 0 0 1 -99 -11 )">
    <path d="M 3.70833333333333 9.71306818181818  C 3.90277777777778 9.88541666666666  4 10.094696969697  4 10.3409090909091  L 4 12.1136363636364  C 4 12.3598484848485  3.90277777777778 12.5691287878788  3.70833333333333 12.7414772727273  C 3.51388888888889 12.9138257575758  3.27777777777778 13  3 13  L 1 13  C 0.722222222222222 13  0.486111111111111 12.9138257575758  0.291666666666667 12.7414772727273  C 0.0972222222222222 12.5691287878788  0 12.3598484848485  0 12.1136363636364  L 0 10.3409090909091  C 0 10.094696969697  0.0972222222222222 9.88541666666666  0.291666666666667 9.71306818181818  C 0.486111111111111 9.5407196969697  0.722222222222222 9.45454545454546  1 9.45454545454546  L 3 9.45454545454546  C 3.27777777777778 9.45454545454546  3.51388888888889 9.5407196969697  3.70833333333333 9.71306818181818  Z M 3.70833333333333 4.98579545454546  C 3.90277777777778 5.15814393939394  4 5.36742424242424  4 5.61363636363636  L 4 7.38636363636364  C 4 7.63257575757576  3.90277777777778 7.84185606060606  3.70833333333333 8.01420454545455  C 3.51388888888889 8.18655303030303  3.27777777777778 8.27272727272727  3 8.27272727272727  L 1 8.27272727272727  C 0.722222222222222 8.27272727272727  0.486111111111111 8.18655303030303  0.291666666666667 8.01420454545455  C 0.0972222222222222 7.84185606060606  0 7.63257575757576  0 7.38636363636364  L 0 5.61363636363636  C 0 5.36742424242424  0.0972222222222222 5.15814393939394  0.291666666666667 4.98579545454546  C 0.486111111111111 4.81344696969697  0.722222222222222 4.72727272727273  1 4.72727272727273  L 3 4.72727272727273  C 3.27777777777778 4.72727272727273  3.51388888888889 4.81344696969697  3.70833333333333 4.98579545454546  Z M 3.70833333333333 0.258522727272727  C 3.90277777777778 0.430871212121211  4 0.640151515151515  4 0.886363636363637  L 4 2.65909090909091  C 4 2.90530303030303  3.90277777777778 3.11458333333333  3.70833333333333 3.28693181818182  C 3.51388888888889 3.4592803030303  3.27777777777778 3.54545454545455  3 3.54545454545455  L 1 3.54545454545455  C 0.722222222222222 3.54545454545455  0.486111111111111 3.4592803030303  0.291666666666667 3.28693181818182  C 0.0972222222222222 3.11458333333333  0 2.90530303030303  0 2.65909090909091  L 0 0.886363636363637  C 0 0.640151515151515  0.0972222222222222 0.430871212121211  0.291666666666667 0.258522727272727  C 0.486111111111111 0.086174242424242  0.722222222222222 0  1 0  L 3 0  C 3.27777777777778 0  3.51388888888889 0.086174242424242  3.70833333333333 0.258522727272727  Z " fill-rule="nonzero" fill="#d7d7d7" stroke="none" transform="matrix(1 0 0 1 99 11 )" />
  </g>
</svg>