<?xml version="1.0" encoding="utf-8"?>
<svg version="1.1" xmlns:xlink="http://www.w3.org/1999/xlink" width="12px" height="17px" xmlns="http://www.w3.org/2000/svg">
  <defs>
    <path d="M 0 0  L 1024 0  L 1024 1024  L 0 1024  Z " fill-rule="evenodd" fill="black" id="path209" />
    <clipPath id="clip210">
      <use xlink:href="#path209" />
    </clipPath>
    <filter x="-50.00%" y="-50.00%" width="200.00%" height="200.00%" filterUnits="objectBoundingBox" id="filter211">
      <feColorMatrix type="matrix" values="1 0 0 0 0  0 1 0 0 0  0 0 1 0 0  0 0 0 1 0  " in="SourceGraphic" />
    </filter>
  </defs>
  <g transform="matrix(1 0 0 1 -78 -96 )">
    <g transform="matrix(0.01171875 0 0 0.01171875 78 98.5 )" clip-path="url(#clip210)" filter="url(#filter211)">
      <path d="M513 767.9c-9.1 0-18.2-3.5-25.1-10.4L108.4 378c-13.9-13.9-13.9-36.4 0-50.3 13.9-13.9 36.4-13.9 50.3 0L513 682l354.3-354.3c13.9-13.9 36.4-13.9 50.3 0 13.9 13.9 13.9 36.4 0 50.3L538.1 757.5c-6.9 6.9-16 10.4-25.1 10.4z" p-id="4632" fill="#8a8a8a"></path>
    </g>
    <path d="M 78.5 112.5  L 78.5 96.5  L 89.5 96.5  L 89.5 112.5  L 78.5 112.5  Z " stroke-width="1" stroke="#797979" fill="none" />
  </g>
</svg>