<?xml version="1.0" encoding="utf-8"?>
<svg version="1.1" xmlns:xlink="http://www.w3.org/1999/xlink" width="20px" height="20px" xmlns="http://www.w3.org/2000/svg">
  <g transform="matrix(1 0 0 1 -22 -113 )">
    <path d="M 0.212053571428572 16.6335227272727  C 0.0706845238095233 16.813446969697  0 17.0265151515152  0 17.2727272727273  L 0 19.0909090909091  C 0 19.3371212121212  0.0706845238095233 19.5501893939394  0.212053571428572 19.7301136363636  C 0.353422619047616 19.9100378787879  0.520833333333333 20  0.714285714285714 20  L 19.2857142857143 20  C 19.4791666666667 20  19.6465773809524 19.9100378787879  19.7879464285714 19.7301136363636  C 19.9293154761905 19.5501893939394  20 19.3371212121212  20 19.0909090909091  L 20 17.2727272727273  C 20 17.0265151515152  19.9293154761905 16.813446969697  19.7879464285714 16.6335227272727  C 19.6465773809524 16.4535984848485  19.4791666666667 16.3636363636364  19.2857142857143 16  L 0.714285714285714 16  C 0.520833333333333 16.3636363636364  0.353422619047616 16.4535984848485  0.212053571428572 16.6335227272727  Z M 0.212053571428572 11.1789772727273  C 0.0706845238095233 11.3589015151515  0 11.5719696969697  0 11.8181818181818  L 0 13.6363636363636  C 0 13.8825757575758  0.0706845238095233 14.0956439393939  0.212053571428572 14.2755681818182  C 0.353422619047616 14.4554924242424  0.520833333333333 14.5454545454545  0.714285714285714 14.5454545454545  L 15 14.5454545454545  C 15.1934523809524 14.5454545454545  15.3608630952381 14.4554924242424  15.5022321428571 14.2755681818182  C 15.6436011904762 14.0956439393939  15.7142857142857 13.8825757575758  15.7142857142857 13.6363636363636  L 15.7142857142857 11.8181818181818  C 15.7142857142857 11.5719696969697  15.6436011904762 11.3589015151515  15.5022321428571 11.1789772727273  C 15.3608630952381 10.999053030303  15.1934523809524 10.9090909090909  15 11  L 0.714285714285714 11  C 0.520833333333333 10.9090909090909  0.353422619047616 10.999053030303  0.212053571428572 11.1789772727273  Z M 0.212053571428572 5.72443181818182  C 0.0706845238095233 5.90435606060606  0 6.11742424242424  0 6.36363636363637  L 0 8.18181818181818  C 0 8.4280303030303  0.0706845238095233 8.64109848484848  0.212053571428572 8.82102272727273  C 0.353422619047616 9.00094696969697  0.520833333333333 9.09090909090909  0.714285714285714 9  L 17.8571428571429 9  C 18.0505952380952 9.09090909090909  18.218005952381 9.00094696969697  18.359375 8.82102272727273  C 18.500744047619 8.64109848484848  18.5714285714286 8.4280303030303  18.5714285714286 8.18181818181818  L 18.5714285714286 6.36363636363637  C 18.5714285714286 6.11742424242424  18.500744047619 5.90435606060606  18.359375 5.72443181818182  C 18.218005952381 5.54450757575758  18.0505952380952 5.45454545454545  17.8571428571429 5.45454545454545  L 0.714285714285714 5.45454545454545  C 0.520833333333333 5.45454545454545  0.353422619047616 5.54450757575758  0.212053571428572 5.72443181818182  Z M 0.212053571428572 0.269886363636365  C 0.0706845238095233 0.449810606060603  0 0.662878787878787  0 0.909090909090908  L 0 2.72727272727273  C 0 2.97348484848485  0.0706845238095233 3.18655303030303  0.212053571428572 3.36647727272727  C 0.353422619047616 3.54640151515151  0.520833333333333 3.63636363636364  0.714285714285714 4  L 13.5714285714286 4  C 13.764880952381 3.63636363636364  13.9322916666667 3.54640151515151  14.0736607142857 3.36647727272727  C 14.2150297619048 3.18655303030303  14.2857142857143 2.97348484848485  14.2857142857143 2.72727272727273  L 14.2857142857143 0.909090909090908  C 14.2857142857143 0.662878787878787  14.2150297619048 0.449810606060603  14.0736607142857 0.269886363636365  C 13.9322916666667 0.0899621212121193  13.764880952381 0  13.5714285714286 0  L 0.714285714285714 0  C 0.520833333333333 0  0.353422619047616 0.0899621212121193  0.212053571428572 0.269886363636365  Z " fill-rule="nonzero" fill="#7f7f7f" stroke="none" transform="matrix(1 0 0 1 22 113 )" />
  </g>
</svg>