<?xml version="1.0" encoding="utf-8"?>
<svg version="1.1" xmlns:xlink="http://www.w3.org/1999/xlink" width="30px" height="50px" xmlns="http://www.w3.org/2000/svg">
  <g transform="matrix(1 0 0 1 -1377 -453 )">
    <path d="M 29.4845360824742 23.8476953907816  C 29.8281786941581 24.1816967267869  30 24.5657982631931  30 25  C 30 25.4342017368069  29.8281786941581 25.8183032732131  29.4845360824742 26.1523046092184  L 5.4639175257732 49.498997995992  C 5.12027491408935 49.8329993319973  4.72508591065292 50  4.27835051546392 50  C 3.83161512027491 50  3.43642611683849 49.8329993319973  3.09278350515464 49.498997995992  L 0.515463917525773 46.9939879759519  C 0.171821305841925 46.6599866399466  0 46.2758851035404  0 45.8416833667335  C 0 45.4074816299265  0.171821305841925 45.0233800935204  0.515463917525773 44.689378757515  L 20.7731958762887 25  L 0.515463917525773 5.31062124248497  C 0.171821305841925 4.97661990647962  0 4.59251837007348  0 4.15831663326653  C 0 3.72411489645958  0.171821305841925 3.34001336005343  0.515463917525773 3.00601202404809  L 3.09278350515464 0.501002004008017  C 3.43642611683849 0.16700066800267  3.83161512027491 0  4.27835051546392 0  C 4.72508591065292 0  5.12027491408935 0.16700066800267  5.4639175257732 0.501002004008017  L 29.4845360824742 23.8476953907816  Z " fill-rule="nonzero" fill="#aaaaaa" stroke="none" transform="matrix(1 0 0 1 1377 453 )" />
  </g>
</svg>