<?xml version="1.0" encoding="utf-8"?>
<svg version="1.1" xmlns:xlink="http://www.w3.org/1999/xlink" width="30px" height="50px" xmlns="http://www.w3.org/2000/svg">
  <g transform="matrix(1 0 0 1 -36 -453 )">
    <path d="M 29.4845360824742 3.00601202404809  C 29.8281786941581 3.34001336005343  30 3.72411489645958  30 4.15831663326653  C 30 4.59251837007348  29.8281786941581 4.97661990647962  29.4845360824742 5.31062124248497  L 9.22680412371134 25  L 29.4845360824742 44.689378757515  C 29.8281786941581 45.0233800935204  30 45.4074816299265  30 45.8416833667335  C 30 46.2758851035404  29.8281786941581 46.6599866399466  29.4845360824742 46.9939879759519  L 26.9072164948454 49.498997995992  C 26.5635738831615 49.8329993319973  26.1683848797251 50  25.7216494845361 50  C 25.2749140893471 50  24.8797250859107 49.8329993319973  24.5360824742268 49.498997995992  L 0.515463917525773 26.1523046092184  C 0.171821305841925 25.8183032732131  0 25.4342017368069  0 25  C 0 24.5657982631931  0.171821305841925 24.1816967267869  0.515463917525773 23.8476953907816  L 24.5360824742268 0.501002004008017  C 24.8797250859107 0.16700066800267  25.2749140893471 0  25.7216494845361 0  C 26.1683848797251 0  26.5635738831615 0.16700066800267  26.9072164948454 0.501002004008017  L 29.4845360824742 3.00601202404809  Z " fill-rule="nonzero" fill="#aaaaaa" stroke="none" transform="matrix(1 0 0 1 36 453 )" />
  </g>
</svg>