<?xml version="1.0" encoding="utf-8"?>
<svg version="1.1" xmlns:xlink="http://www.w3.org/1999/xlink" width="12px" height="12px" viewBox="1490 80  12 12" xmlns="http://www.w3.org/2000/svg">
  <path d="M 1496 80  C 1499.36 80  1502 82.64  1502 86  C 1502 89.36  1499.36 92  1496 92  C 1492.64 92  1490 89.36  1490 86  C 1490 82.64  1492.64 80  1496 80  Z " fill-rule="nonzero" fill="#ffffff" stroke="none" />
  <path d="M 1496 80.5  C 1499.08 80.5  1501.5 82.92  1501.5 86  C 1501.5 89.08  1499.08 91.5  1496 91.5  C 1492.92 91.5  1490.5 89.08  1490.5 86  C 1490.5 82.92  1492.92 80.5  1496 80.5  Z " stroke-width="1" stroke="#797979" fill="none" />
  <path d="M 1496 89  C 1494.32 89  1493 87.68  1493 86  C 1493 84.32  1494.32 83  1496 83  C 1497.68 83  1499 84.32  1499 86  C 1499 87.68  1497.68 89  1496 89  " fill-rule="nonzero" fill="#797979" stroke="none" />
</svg>