<?xml version="1.0" encoding="utf-8"?>
<svg version="1.1" xmlns:xlink="http://www.w3.org/1999/xlink" width="11px" height="11px" xmlns="http://www.w3.org/2000/svg">
  <g transform="matrix(1 0 0 1 -1362 -1081 )">
    <path d="M 5.33528645833333 6.48111979166667  C 5.38302951388889 6.52886284722222  5.40690104166667 6.58376736111111  5.40690104166667 6.64583333333333  C 5.40690104166667 6.70789930555555  5.38302951388889 6.76280381944444  5.33528645833333 6.810546875  L 2.95768229166667 9.18815104166667  L 3.98893229166667 10.2194010416667  C 4.07964409722222 10.3101128472222  4.125 10.4175347222222  4.125 10.5416666666667  C 4.125 10.6657986111111  4.07964409722222 10.7732204861111  3.98893229166667 10.8639322916667  C 3.89822048611111 10.9546440972222  3.79079861111111 11  3.66666666666667 11  L 0.458333333333333 11  C 0.334201388888889 11  0.226779513888889 10.9546440972222  0.136067708333333 10.8639322916667  C 0.0453559027777778 10.7732204861111  0 10.6657986111111  0 10.5416666666667  L 0 7.33333333333333  C 0 7.20920138888889  0.0453559027777778 7.10177951388889  0.136067708333333 7.01106770833333  C 0.226779513888889 6.92035590277778  0.334201388888889 6.875  0.458333333333333 6.875  C 0.582465277777778 6.875  0.689887152777778 6.92035590277778  0.780598958333333 7.01106770833333  L 1.81184895833333 8.04231770833333  L 4.189453125 5.66471354166667  C 4.23719618055556 5.61697048611111  4.29210069444444 5.59309895833333  4.35416666666667 5.59309895833333  C 4.41623263888889 5.59309895833333  4.47113715277778 5.61697048611111  4.51888020833333 5.66471354166667  L 5.33528645833333 6.48111979166667  Z M 10.8639322916667 0.136067708333333  C 10.9546440972222 0.226779513888887  11 0.334201388888887  11 0.458333333333333  L 11 3.66666666666667  C 11 3.79079861111111  10.9546440972222 3.89822048611111  10.8639322916667 3.98893229166667  C 10.7732204861111 4.07964409722222  10.6657986111111 4.125  10.5416666666667 4.125  C 10.4175347222222 4.125  10.3101128472222 4.07964409722222  10.2194010416667 3.98893229166667  L 9.18815104166667 2.95768229166667  L 6.810546875 5.33528645833333  C 6.76280381944444 5.38302951388889  6.70789930555556 5.40690104166667  6.64583333333333 5.40690104166667  C 6.58376736111111 5.40690104166667  6.52886284722222 5.38302951388889  6.48111979166667 5.33528645833333  L 5.66471354166667 4.51888020833333  C 5.61697048611111 4.47113715277778  5.59309895833333 4.41623263888889  5.59309895833333 4.35416666666667  C 5.59309895833333 4.29210069444444  5.61697048611111 4.23719618055555  5.66471354166667 4.189453125  L 8.04231770833333 1.81184895833333  L 7.01106770833333 0.780598958333333  C 6.92035590277778 0.689887152777777  6.875 0.582465277777777  6.875 0.458333333333333  C 6.875 0.334201388888887  6.92035590277778 0.226779513888887  7.01106770833333 0.136067708333333  C 7.10177951388889 0.0453559027777772  7.20920138888889 0  7.33333333333333 0  L 10.5416666666667 0  C 10.6657986111111 0  10.7732204861111 0.0453559027777772  10.8639322916667 0.136067708333333  Z " fill-rule="nonzero" fill="#d7d7d7" stroke="none" transform="matrix(1 0 0 1 1362 1081 )" />
  </g>
</svg>