<?xml version="1.0" encoding="utf-8"?>
<svg version="1.1" xmlns:xlink="http://www.w3.org/1999/xlink" width="15px" height="15px" xmlns="http://www.w3.org/2000/svg">
  <g transform="matrix(1 0 0 1 -100 -392 )">
    <path d="M 107.5 392  C 111.7 392  115 395.3  115 399.5  C 115 403.7  111.7 407  107.5 407  C 103.3 407  100 403.7  100 399.5  C 100 395.3  103.3 392  107.5 392  Z " fill-rule="nonzero" fill="#ffffff" stroke="none" />
    <path d="M 107.5 392.5  C 111.42 392.5  114.5 395.58  114.5 399.5  C 114.5 403.42  111.42 406.5  107.5 406.5  C 103.58 406.5  100.5 403.42  100.5 399.5  C 100.5 395.58  103.58 392.5  107.5 392.5  Z " stroke-width="1" stroke="#02a7f0" fill="none" />
  </g>
</svg>