<?xml version="1.0" encoding="utf-8"?>
<svg version="1.1" xmlns:xlink="http://www.w3.org/1999/xlink" width="57px" height="29px" xmlns="http://www.w3.org/2000/svg">
  <g transform="matrix(1 0 0 1 -102 -77 )">
    <path d="M 102.5 94.1058823529412  C 102.5 94.1058823529412  102.5 79  102.5 79  C 102.5 78.1715728752538  103.171572875254 77.5  104 77.5  C 104 77.5  157 77.5  157 77.5  C 157.828427124746 77.5  158.5 78.1715728752538  158.5 79  C 158.5 79  158.5 94.1058823529412  158.5 94.1058823529412  C 158.5 94.9343094776874  157.828427124746 95.6058823529412  157 95.6058823529412  C 157 95.6058823529412  137.618785509804 95.6058823529412  137.618785509804 95.6058823529412  C 137.618785509804 95.6058823529412  130.569371672007 103.626319828776  130.569371672007 103.626319828776  C 130.569371672007 103.626319828776  123.572328489633 95.6058823529412  123.572328489633 95.6058823529412  C 123.572328489633 95.6058823529412  104 95.6058823529412  104 95.6058823529412  C 103.171572875254 95.6058823529412  102.5 94.9343094776874  102.5 94.1058823529412  Z " fill-rule="nonzero" fill="#7f7f7f" stroke="none" />
    <path d="M 102 94.1058823529412  C 102 94.1058823529412  102 79  102 79  C 102 77.8954305003384  102.895430500338 77  104 77  C 104 77  157 77  157 77  C 158.104569499662 77  159 77.8954305003384  159 79  C 159 79  159 94.1058823529412  159 94.1058823529412  C 159 95.2104518526028  158.104569499662 96.1058823529412  157 96.1058823529412  C 157 96.1058823529412  137.845 96.1058823529412  137.845 96.1058823529412  C 137.845 96.1058823529412  130.567969179967 104.385289980971  130.567969179967 104.385289980971  C 130.567969179967 104.385289980971  123.345 96.1058823529412  123.345 96.1058823529412  C 123.345 96.1058823529412  104 96.1058823529412  104 96.1058823529412  C 102.895430500338 96.1058823529412  102 95.2104518526028  102 94.1058823529412  Z M 103 94.1058823529412  C 103 94.658167102772  103.447715250169 95.1058823529412  104 95.1058823529412  C 104 95.1058823529412  123.799656979265 95.1058823529412  123.799656979265 95.1058823529412  C 123.799656979265 95.1058823529412  130.570774164047 102.86734967658  130.570774164047 102.86734967658  C 130.570774164047 102.86734967658  137.392571019608 95.1058823529412  137.392571019608 95.1058823529412  C 137.392571019608 95.1058823529412  157 95.1058823529412  157 95.1058823529412  C 157.552284749831 95.1058823529412  158 94.658167102772  158 94.1058823529412  C 158 94.1058823529412  158 79  158 79  C 158 78.4477152501692  157.552284749831 78  157 78  C 157 78  104 78  104 78  C 103.447715250169 78  103 78.4477152501692  103 79  C 103 79  103 94.1058823529412  103 94.1058823529412  Z " fill-rule="nonzero" fill="#797979" stroke="none" />
  </g>
</svg>