<?xml version="1.0" encoding="utf-8"?>
<svg version="1.1" xmlns:xlink="http://www.w3.org/1999/xlink" width="823px" height="625px" xmlns="http://www.w3.org/2000/svg">
  <g transform="matrix(1 0 0 1 -17 -121 )">
    <path d="M 17 121  L 840 121  L 840 746  L 17 746  L 17 121  " fill-rule="nonzero" fill="#cccccc" stroke="none" />
    <path d="M 61 165  L 796 165  L 796 702  L 61 702  L 61 165  " fill-rule="nonzero" fill="#ffffff" stroke="none" />
    <path d="M 491.835 308.5  C 465.585 308.5  444.96 287.875  444.96 261.625  C 444.96 235.375  465.585 214.75  491.835 214.75  C 518.085 214.75  538.71 235.375  538.71 261.625  C 538.71 287.875  518.085 308.5  491.835 308.5  " fill-rule="nonzero" fill="#cccccc" stroke="none" />
    <path d="M 77 687  L 77 408.7  L 253 282.2  L 499.4 456.441069258809  L 640.2 358.1  L 781 456.441069258809  L 781 687  L 77 687  " fill-rule="nonzero" fill="#169bd5" stroke="none" />
  </g>
</svg>