<?xml version="1.0" encoding="utf-8"?>
<svg version="1.1" xmlns:xlink="http://www.w3.org/1999/xlink" width="162px" height="134px" xmlns="http://www.w3.org/2000/svg">
  <g>
    <path d="M 0 0  L 162 0  L 162 134  L 0 134  L 0 0  " fill-rule="nonzero" fill="#cccccc" stroke="none" />
    <path d="M 9 9  L 153 9  L 153 125  L 9 125  L 9 9  " fill-rule="nonzero" fill="#ffffff" stroke="none" />
    <path d="M 94.29 40.2  C 88.662 40.2  84.24 35.778  84.24 30.15  C 84.24 24.522  88.662 20.1  94.29 20.1  C 99.918 20.1  104.34 24.522  104.34 30.15  C 104.34 35.778  99.918 40.2  94.29 40.2  " fill-rule="nonzero" fill="#cccccc" stroke="none" />
    <path d="M 13 122  L 13 62.05  L 47.25 34.8  L 95.2 67.9037037037037  L 122.6 51.15  L 150 67.9037037037037  L 150 122  L 13 122  " fill-rule="nonzero" fill="#169bd5" stroke="none" />
  </g>
</svg>