<?xml version="1.0" encoding="utf-8"?>
<svg version="1.1" xmlns:xlink="http://www.w3.org/1999/xlink" width="25px" height="20px" xmlns="http://www.w3.org/2000/svg">
  <g transform="matrix(1 0 0 1 -352 -664 )">
    <path d="M 364.5 664  C 371.5 664  377 668.4  377 674  C 377 679.6  371.5 684  364.5 684  C 357.5 684  352 679.6  352 674  C 352 668.4  357.5 664  364.5 664  Z " fill-rule="nonzero" fill="#ffffff" stroke="none" />
    <path d="M 364.5 664.5  C 371.22 664.5  376.5 668.68  376.5 674  C 376.5 679.32  371.22 683.5  364.5 683.5  C 357.78 683.5  352.5 679.32  352.5 674  C 352.5 668.68  357.78 664.5  364.5 664.5  Z " stroke-width="1" stroke="#bfbfbf" fill="none" />
  </g>
</svg>