<?xml version="1.0" encoding="utf-8"?>
<svg version="1.1" xmlns:xlink="http://www.w3.org/1999/xlink" width="27px" height="26px" xmlns="http://www.w3.org/2000/svg">
  <g transform="matrix(1 0 0 1 -269 -215 )">
    <path d="M 16.55859375 15.9453125  C 17.9810697115387 14.5755208333333  18.6923076923079 12.9270833333333  18.6923076923079 11  C 18.6923076923079 9.07291666666667  17.9810697115387 7.42447916666664  16.55859375 6.05468750000001  C 15.1361177884613 4.68489583333333  13.4242788461539 3.99999999999999  11.4230769230767 3.99999999999999  C 9.421875 3.99999999999999  7.71003605769241 4.68489583333333  6.28756009615392 6.05468750000001  C 4.86508413461544 7.42447916666664  4.15384615384608 9.07291666666667  4.15384615384608 11  C 4.15384615384608 12.9270833333333  4.86508413461544 14.5755208333333  6.28756009615392 15.9453125  C 7.71003605769241 17.3151041666667  9.421875 18  11.4230769230767 18  C 13.4242788461539 18  15.1361177884613 17.3151041666667  16.55859375 15.9453125  Z M 26.3996394230767 22.59375  C 26.7998798076924 22.9791666666667  27 23.4479166666667  27 24  C 27 24.5416666666666  26.7944711538461 25.0104166666667  26.3834134615385 25.40625  C 25.9723557692306 25.8020833333333  25.485576923077 26  24.9230769230767 26  C 24.3389423076922 26  23.8521634615385 25.8020833333333  23.4627403846152 25.40625  L 17.8972355769233 20.0625  C 15.9609375 21.3541666666667  13.8028846153846 22  11.4230769230767 22  C 9.87620192307696 22  8.39693509615392 21.7109375  6.98527644230785 21.1328125  C 5.57361778846152 20.5546875  4.35667067307671 19.7734375  3.33443509615392 18.7890625  C 2.31219951923063 17.8046875  1.50090144230785 16.6328125  0.900540865384812 15.2734375  C 0.300180288461519 13.9140625  0 12.4895833333333  0 11  C 0 9.51041666666664  0.300180288461519 8.08593750000001  0.900540865384812 6.72656250000003  C 1.50090144230785 5.36718749999998  2.31219951923063 4.19531249999998  3.33443509615392 3.21093750000001  C 4.35667067307671 2.22656249999999  5.57361778846152 1.44531250000003  6.98527644230785 0.867187500000005  C 8.39693509615392 0.289062499999981  9.87620192307696 0  11.4230769230767 0  C 12.9699519230767 0  14.44921875 0.289062499999981  15.8608774038461 0.867187500000005  C 17.2725360576922 1.44531250000003  18.4894831730767 2.22656249999999  19.51171875 3.21093750000001  C 20.5339543269233 4.19531249999998  21.3452524038461 5.36718749999998  21.9456129807694 6.72656250000003  C 22.5459735576922 8.08593750000001  22.8461538461539 9.51041666666664  22.8461538461539 11  C 22.8461538461539 13.2916666666667  22.1754807692306 15.3697916666667  20.8341346153848 17.234375  L 26.3996394230767 22.59375  Z " fill-rule="nonzero" fill="#a1a1a1" stroke="none" transform="matrix(1 0 0 1 269 215 )" />
  </g>
</svg>