<?xml version="1.0" encoding="utf-8"?>
<svg version="1.1" xmlns:xlink="http://www.w3.org/1999/xlink" width="12px" height="12px" viewBox="783 460.5  12 12" xmlns="http://www.w3.org/2000/svg">
  <path d="M 789 460.5  C 792.36 460.5  795 463.14  795 466.5  C 795 469.86  792.36 472.5  789 472.5  C 785.64 472.5  783 469.86  783 466.5  C 783 463.14  785.64 460.5  789 460.5  Z " fill-rule="nonzero" fill="#ffffff" stroke="none" />
  <path d="M 789 461  C 792.08 461  794.5 463.42  794.5 466.5  C 794.5 469.58  792.08 472  789 472  C 785.92 472  783.5 469.58  783.5 466.5  C 783.5 463.42  785.92 461  789 461  Z " stroke-width="1" stroke="#797979" fill="none" />
  <path d="M 789 469.5  C 787.32 469.5  786 468.18  786 466.5  C 786 464.82  787.32 463.5  789 463.5  C 790.68 463.5  792 464.82  792 466.5  C 792 468.18  790.68 469.5  789 469.5  " fill-rule="nonzero" fill="#797979" stroke="none" />
</svg>