<?xml version="1.0" encoding="utf-8"?>
<svg version="1.1" xmlns:xlink="http://www.w3.org/1999/xlink" width="18px" height="18px" xmlns="http://www.w3.org/2000/svg">
  <g transform="matrix(1 0 0 1 -333 -52 )">
    <path d="M 342 52  C 347.04 52  351 55.96  351 61  C 351 66.04  347.04 70  342 70  C 336.96 70  333 66.04  333 61  C 333 55.96  336.96 52  342 52  Z " fill-rule="nonzero" fill="#ffffff" stroke="none" />
    <path d="M 342 52.5  C 346.76 52.5  350.5 56.24  350.5 61  C 350.5 65.76  346.76 69.5  342 69.5  C 337.24 69.5  333.5 65.76  333.5 61  C 333.5 56.24  337.24 52.5  342 52.5  Z " stroke-width="1" stroke="#797979" fill="none" />
  </g>
</svg>