<?xml version="1.0" encoding="utf-8"?>
<svg version="1.1" xmlns:xlink="http://www.w3.org/1999/xlink" width="15px" height="15px" xmlns="http://www.w3.org/2000/svg">
  <g transform="matrix(1 0 0 1 -569 -537 )">
    <path d="M 576.5 537  C 580.7 537  584 540.3  584 544.5  C 584 548.7  580.7 552  576.5 552  C 572.3 552  569 548.7  569 544.5  C 569 540.3  572.3 537  576.5 537  Z " fill-rule="nonzero" fill="#555555" stroke="none" />
    <path d="M 576.5 537.5  C 580.42 537.5  583.5 540.58  583.5 544.5  C 583.5 548.42  580.42 551.5  576.5 551.5  C 572.58 551.5  569.5 548.42  569.5 544.5  C 569.5 540.58  572.58 537.5  576.5 537.5  Z " stroke-width="1" stroke="#797979" fill="none" />
  </g>
</svg>