<?xml version="1.0" encoding="utf-8"?>
<svg version="1.1" xmlns:xlink="http://www.w3.org/1999/xlink" width="12px" height="12px" viewBox="21 966.5  12 12" xmlns="http://www.w3.org/2000/svg">
  <path d="M 27 966.5  C 30.36 966.5  33 969.14  33 972.5  C 33 975.86  30.36 978.5  27 978.5  C 23.64 978.5  21 975.86  21 972.5  C 21 969.14  23.64 966.5  27 966.5  Z " fill-rule="nonzero" fill="#ffffff" stroke="none" />
  <path d="M 27 967  C 30.08 967  32.5 969.42  32.5 972.5  C 32.5 975.58  30.08 978  27 978  C 23.92 978  21.5 975.58  21.5 972.5  C 21.5 969.42  23.92 967  27 967  Z " stroke-width="1" stroke="#797979" fill="none" />
  <path d="M 27 975.5  C 25.32 975.5  24 974.18  24 972.5  C 24 970.82  25.32 969.5  27 969.5  C 28.68 969.5  30 970.82  30 972.5  C 30 974.18  28.68 975.5  27 975.5  " fill-rule="nonzero" fill="#797979" stroke="none" />
</svg>