<?xml version="1.0" encoding="utf-8"?>
<svg version="1.1" xmlns:xlink="http://www.w3.org/1999/xlink" width="12px" height="12px" viewBox="21 796.5  12 12" xmlns="http://www.w3.org/2000/svg">
  <path d="M 27 796.5  C 30.36 796.5  33 799.14  33 802.5  C 33 805.86  30.36 808.5  27 808.5  C 23.64 808.5  21 805.86  21 802.5  C 21 799.14  23.64 796.5  27 796.5  Z " fill-rule="nonzero" fill="#ffffff" stroke="none" />
  <path d="M 27 797  C 30.08 797  32.5 799.42  32.5 802.5  C 32.5 805.58  30.08 808  27 808  C 23.92 808  21.5 805.58  21.5 802.5  C 21.5 799.42  23.92 797  27 797  Z " stroke-width="1" stroke="#797979" fill="none" />
  <path d="M 27 805.5  C 25.32 805.5  24 804.18  24 802.5  C 24 800.82  25.32 799.5  27 799.5  C 28.68 799.5  30 800.82  30 802.5  C 30 804.18  28.68 805.5  27 805.5  " fill-rule="nonzero" fill="#797979" stroke="none" />
</svg>