<?xml version="1.0" encoding="utf-8"?>
<svg version="1.1" xmlns:xlink="http://www.w3.org/1999/xlink" width="12px" height="12px" viewBox="21 1001.5  12 12" xmlns="http://www.w3.org/2000/svg">
  <path d="M 27 1001.5  C 30.36 1001.5  33 1004.14  33 1007.5  C 33 1010.86  30.36 1013.5  27 1013.5  C 23.64 1013.5  21 1010.86  21 1007.5  C 21 1004.14  23.64 1001.5  27 1001.5  Z " fill-rule="nonzero" fill="#ffffff" stroke="none" />
  <path d="M 27 1002  C 30.08 1002  32.5 1004.42  32.5 1007.5  C 32.5 1010.58  30.08 1013  27 1013  C 23.92 1013  21.5 1010.58  21.5 1007.5  C 21.5 1004.42  23.92 1002  27 1002  Z " stroke-width="1" stroke="#797979" fill="none" />
  <path d="M 27 1010.5  C 25.32 1010.5  24 1009.18  24 1007.5  C 24 1005.82  25.32 1004.5  27 1004.5  C 28.68 1004.5  30 1005.82  30 1007.5  C 30 1009.18  28.68 1010.5  27 1010.5  " fill-rule="nonzero" fill="#797979" stroke="none" />
</svg>