<?xml version="1.0" encoding="utf-8"?>
<svg version="1.1" xmlns:xlink="http://www.w3.org/1999/xlink" width="12px" height="12px" viewBox="21 823.5  12 12" xmlns="http://www.w3.org/2000/svg">
  <path d="M 27 823.5  C 30.36 823.5  33 826.14  33 829.5  C 33 832.86  30.36 835.5  27 835.5  C 23.64 835.5  21 832.86  21 829.5  C 21 826.14  23.64 823.5  27 823.5  Z " fill-rule="nonzero" fill="#ffffff" stroke="none" />
  <path d="M 27 824  C 30.08 824  32.5 826.42  32.5 829.5  C 32.5 832.58  30.08 835  27 835  C 23.92 835  21.5 832.58  21.5 829.5  C 21.5 826.42  23.92 824  27 824  Z " stroke-width="1" stroke="#797979" fill="none" />
  <path d="M 27 832.5  C 25.32 832.5  24 831.18  24 829.5  C 24 827.82  25.32 826.5  27 826.5  C 28.68 826.5  30 827.82  30 829.5  C 30 831.18  28.68 832.5  27 832.5  " fill-rule="nonzero" fill="#797979" stroke="none" />
</svg>