<?xml version="1.0" encoding="utf-8"?>
<svg version="1.1" xmlns:xlink="http://www.w3.org/1999/xlink" width="21px" height="19px" xmlns="http://www.w3.org/2000/svg">
  <g transform="matrix(1 0 0 1 -343 -19 )">
    <path d="M 6.34795673076923 17.1512784090909  C 6.42367788461538 17.0703125  6.46153846153846 16.9668560606061  6.46153846153846 16.8409090909091  L 6.46153846153846 14.25  C 6.46153846153846 14.124053030303  6.42367788461538 14.0205965909091  6.34795673076923 13.9396306818182  C 6.27223557692308 13.8586647727273  6.17548076923077 13.8181818181818  6.05769230769231 13.8181818181818  L 2.01923076923077 13.8181818181818  C 1.90144230769231 13.8181818181818  1.8046875 13.8586647727273  1.72896634615385 13.9396306818182  C 1.65324519230769 14.0205965909091  1.61538461538462 14.124053030303  1.61538461538462 14.25  L 1.61538461538462 16.8409090909091  C 1.61538461538462 16.9668560606061  1.65324519230769 17.0703125  1.72896634615385 17.1512784090909  C 1.8046875 17.2322443181818  1.90144230769231 17.2727272727273  2.01923076923077 17.2727272727273  L 6.05769230769231 17.2727272727273  C 6.17548076923077 17.2727272727273  6.27223557692308 17.2322443181818  6.34795673076923 17.1512784090909  Z M 6.34795673076923 11.9694602272727  C 6.42367788461538 11.8884943181818  6.46153846153846 11.7850378787879  6.46153846153846 11.6590909090909  L 6.46153846153846 9.06818181818182  C 6.46153846153846 8.94223484848485  6.42367788461538 8.83877840909091  6.34795673076923 8.7578125  C 6.27223557692308 8.67684659090909  6.17548076923077 8.63636363636364  6.05769230769231 8.63636363636364  L 2.01923076923077 8.63636363636364  C 1.90144230769231 8.63636363636364  1.8046875 8.67684659090909  1.72896634615385 8.7578125  C 1.65324519230769 8.83877840909091  1.61538461538462 8.94223484848485  1.61538461538462 9.06818181818182  L 1.61538461538462 11.6590909090909  C 1.61538461538462 11.7850378787879  1.65324519230769 11.8884943181818  1.72896634615385 11.9694602272727  C 1.8046875 12.0504261363636  1.90144230769231 12.0909090909091  2.01923076923077 12.0909090909091  L 6.05769230769231 12.0909090909091  C 6.17548076923077 12.0909090909091  6.27223557692308 12.0504261363636  6.34795673076923 11.9694602272727  Z M 12.8094951923077 17.1512784090909  C 12.8852163461538 17.0703125  12.9230769230769 16.9668560606061  12.9230769230769 16.8409090909091  L 12.9230769230769 14.25  C 12.9230769230769 14.124053030303  12.8852163461538 14.0205965909091  12.8094951923077 13.9396306818182  C 12.7337740384615 13.8586647727273  12.6370192307692 13.8181818181818  12.5192307692308 13.8181818181818  L 8.48076923076923 13.8181818181818  C 8.36298076923077 13.8181818181818  8.26622596153846 13.8586647727273  8.19050480769231 13.9396306818182  C 8.11478365384615 14.0205965909091  8.07692307692308 14.124053030303  8.07692307692308 14.25  L 8.07692307692308 16.8409090909091  C 8.07692307692308 16.9668560606061  8.11478365384615 17.0703125  8.19050480769231 17.1512784090909  C 8.26622596153846 17.2322443181818  8.36298076923077 17.2727272727273  8.48076923076923 17.2727272727273  L 12.5192307692308 17.2727272727273  C 12.6370192307692 17.2727272727273  12.7337740384615 17.2322443181818  12.8094951923077 17.1512784090909  Z M 6.34795673076923 6.78764204545455  C 6.42367788461538 6.70667613636364  6.46153846153846 6.6032196969697  6.46153846153846 6.47727272727273  L 6.46153846153846 3.88636363636364  C 6.46153846153846 3.76041666666666  6.42367788461538 3.65696022727273  6.34795673076923 3.57599431818182  C 6.27223557692308 3.49502840909091  6.17548076923077 3.45454545454545  6.05769230769231 3.45454545454545  L 2.01923076923077 3.45454545454545  C 1.90144230769231 3.45454545454545  1.8046875 3.49502840909091  1.72896634615385 3.57599431818182  C 1.65324519230769 3.65696022727273  1.61538461538462 3.76041666666666  1.61538461538462 3.88636363636364  L 1.61538461538462 6.47727272727273  C 1.61538461538462 6.6032196969697  1.65324519230769 6.70667613636364  1.72896634615385 6.78764204545455  C 1.8046875 6.86860795454545  1.90144230769231 6.90909090909091  2.01923076923077 6.90909090909091  L 6.05769230769231 6.90909090909091  C 6.17548076923077 6.90909090909091  6.27223557692308 6.86860795454545  6.34795673076923 6.78764204545455  Z M 12.8094951923077 11.9694602272727  C 12.8852163461538 11.8884943181818  12.9230769230769 11.7850378787879  12.9230769230769 11.6590909090909  L 12.9230769230769 9.06818181818182  C 12.9230769230769 8.94223484848485  12.8852163461538 8.83877840909091  12.8094951923077 8.7578125  C 12.7337740384615 8.67684659090909  12.6370192307692 8.63636363636364  12.5192307692308 8.63636363636364  L 8.48076923076923 8.63636363636364  C 8.36298076923077 8.63636363636364  8.26622596153846 8.67684659090909  8.19050480769231 8.7578125  C 8.11478365384615 8.83877840909091  8.07692307692308 8.94223484848485  8.07692307692308 9.06818181818182  L 8.07692307692308 11.6590909090909  C 8.07692307692308 11.7850378787879  8.11478365384615 11.8884943181818  8.19050480769231 11.9694602272727  C 8.26622596153846 12.0504261363636  8.36298076923077 12.0909090909091  8.48076923076923 12.0909090909091  L 12.5192307692308 12.0909090909091  C 12.6370192307692 12.0909090909091  12.7337740384615 12.0504261363636  12.8094951923077 11.9694602272727  Z M 19.2710336538462 17.1512784090909  C 19.3467548076923 17.0703125  19.3846153846154 16.9668560606061  19.3846153846154 16.8409090909091  L 19.3846153846154 14.25  C 19.3846153846154 14.124053030303  19.3467548076923 14.0205965909091  19.2710336538462 13.9396306818182  C 19.1953125 13.8586647727273  19.0985576923077 13.8181818181818  18.9807692307692 13.8181818181818  L 14.9423076923077 13.8181818181818  C 14.8245192307692 13.8181818181818  14.7277644230769 13.8586647727273  14.6520432692308 13.9396306818182  C 14.5763221153846 14.0205965909091  14.5384615384615 14.124053030303  14.5384615384615 14.25  L 14.5384615384615 16.8409090909091  C 14.5384615384615 16.9668560606061  14.5763221153846 17.0703125  14.6520432692308 17.1512784090909  C 14.7277644230769 17.2322443181818  14.8245192307692 17.2727272727273  14.9423076923077 17.2727272727273  L 18.9807692307692 17.2727272727273  C 19.0985576923077 17.2727272727273  19.1953125 17.2322443181818  19.2710336538462 17.1512784090909  Z M 12.8094951923077 6.78764204545455  C 12.8852163461538 6.70667613636364  12.9230769230769 6.6032196969697  12.9230769230769 6.47727272727273  L 12.9230769230769 3.88636363636364  C 12.9230769230769 3.76041666666666  12.8852163461538 3.65696022727273  12.8094951923077 3.57599431818182  C 12.7337740384615 3.49502840909091  12.6370192307692 3.45454545454545  12.5192307692308 3.45454545454545  L 8.48076923076923 3.45454545454545  C 8.36298076923077 3.45454545454545  8.26622596153846 3.49502840909091  8.19050480769231 3.57599431818182  C 8.11478365384615 3.65696022727273  8.07692307692308 3.76041666666666  8.07692307692308 3.88636363636364  L 8.07692307692308 6.47727272727273  C 8.07692307692308 6.6032196969697  8.11478365384615 6.70667613636364  8.19050480769231 6.78764204545455  C 8.26622596153846 6.86860795454545  8.36298076923077 6.90909090909091  8.48076923076923 6.90909090909091  L 12.5192307692308 6.90909090909091  C 12.6370192307692 6.90909090909091  12.7337740384615 6.86860795454545  12.8094951923077 6.78764204545455  Z M 19.2710336538462 11.9694602272727  C 19.3467548076923 11.8884943181818  19.3846153846154 11.7850378787879  19.3846153846154 11.6590909090909  L 19.3846153846154 9.06818181818182  C 19.3846153846154 8.94223484848485  19.3467548076923 8.83877840909091  19.2710336538462 8.7578125  C 19.1953125 8.67684659090909  19.0985576923077 8.63636363636364  18.9807692307692 8.63636363636364  L 14.9423076923077 8.63636363636364  C 14.8245192307692 8.63636363636364  14.7277644230769 8.67684659090909  14.6520432692308 8.7578125  C 14.5763221153846 8.83877840909091  14.5384615384615 8.94223484848485  14.5384615384615 9.06818181818182  L 14.5384615384615 11.6590909090909  C 14.5384615384615 11.7850378787879  14.5763221153846 11.8884943181818  14.6520432692308 11.9694602272727  C 14.7277644230769 12.0504261363636  14.8245192307692 12.0909090909091  14.9423076923077 12.0909090909091  L 18.9807692307692 12.0909090909091  C 19.0985576923077 12.0909090909091  19.1953125 12.0504261363636  19.2710336538462 11.9694602272727  Z M 19.2710336538462 6.78764204545455  C 19.3467548076923 6.70667613636364  19.3846153846154 6.6032196969697  19.3846153846154 6.47727272727273  L 19.3846153846154 3.88636363636364  C 19.3846153846154 3.76041666666666  19.3467548076923 3.65696022727273  19.2710336538462 3.57599431818182  C 19.1953125 3.49502840909091  19.0985576923077 3.45454545454545  18.9807692307692 3.45454545454545  L 14.9423076923077 3.45454545454545  C 14.8245192307692 3.45454545454545  14.7277644230769 3.49502840909091  14.6520432692308 3.57599431818182  C 14.5763221153846 3.65696022727273  14.5384615384615 3.76041666666666  14.5384615384615 3.88636363636364  L 14.5384615384615 6.47727272727273  C 14.5384615384615 6.6032196969697  14.5763221153846 6.70667613636364  14.6520432692308 6.78764204545455  C 14.7277644230769 6.86860795454545  14.8245192307692 6.90909090909091  14.9423076923077 6.90909090909091  L 18.9807692307692 6.90909090909091  C 19.0985576923077 6.90909090909091  19.1953125 6.86860795454545  19.2710336538462 6.78764204545455  Z M 20.4068509615385 0.634232954545454  C 20.8022836538462 1.05705492424242  21 1.56534090909091  21 2.15909090909091  L 21 16.8409090909091  C 21 17.4346590909091  20.8022836538462 17.9429450757576  20.4068509615385 18.3657670454545  C 20.0114182692308 18.7885890151515  19.5360576923077 19  18.9807692307692 19  L 2.01923076923077 19  C 1.46394230769231 19  0.988581730769231 18.7885890151515  0.593149038461538 18.3657670454545  C 0.197716346153846 17.9429450757576  0 17.4346590909091  0 16.8409090909091  L 0 2.15909090909091  C 0 1.56534090909091  0.197716346153846 1.05705492424242  0.593149038461538 0.634232954545454  C 0.988581730769231 0.211410984848482  1.46394230769231 0  2.01923076923077 0  L 18.9807692307692 0  C 19.5360576923077 0  20.0114182692308 0.211410984848482  20.4068509615385 0.634232954545454  Z " fill-rule="nonzero" fill="#d7d7d7" stroke="none" transform="matrix(1 0 0 1 343 19 )" />
  </g>
</svg>