<?xml version="1.0" encoding="utf-8"?>
<svg version="1.1" xmlns:xlink="http://www.w3.org/1999/xlink" width="12px" height="12px" viewBox="89 186.5  12 12" xmlns="http://www.w3.org/2000/svg">
  <path d="M 95 186.5  C 98.36 186.5  101 189.14  101 192.5  C 101 195.86  98.36 198.5  95 198.5  C 91.64 198.5  89 195.86  89 192.5  C 89 189.14  91.64 186.5  95 186.5  Z " fill-rule="nonzero" fill="#ffffff" stroke="none" />
  <path d="M 95 187  C 98.08 187  100.5 189.42  100.5 192.5  C 100.5 195.58  98.08 198  95 198  C 91.92 198  89.5 195.58  89.5 192.5  C 89.5 189.42  91.92 187  95 187  Z " stroke-width="1" stroke="#797979" fill="none" />
  <path d="M 95 195.5  C 93.32 195.5  92 194.18  92 192.5  C 92 190.82  93.32 189.5  95 189.5  C 96.68 189.5  98 190.82  98 192.5  C 98 194.18  96.68 195.5  95 195.5  " fill-rule="nonzero" fill="#797979" stroke="none" />
</svg>