<?xml version="1.0" encoding="utf-8"?>
<svg version="1.1" xmlns:xlink="http://www.w3.org/1999/xlink" width="12px" height="12px" viewBox="67 6.5  12 12" xmlns="http://www.w3.org/2000/svg">
  <path d="M 73 6.5  C 76.36 6.5  79 9.14  79 12.5  C 79 15.86  76.36 18.5  73 18.5  C 69.64 18.5  67 15.86  67 12.5  C 67 9.14  69.64 6.5  73 6.5  Z " fill-rule="nonzero" fill="#ffffff" stroke="none" />
  <path d="M 73 7  C 76.08 7  78.5 9.42  78.5 12.5  C 78.5 15.58  76.08 18  73 18  C 69.92 18  67.5 15.58  67.5 12.5  C 67.5 9.42  69.92 7  73 7  Z " stroke-width="1" stroke="#797979" fill="none" />
  <path d="M 73 15.5  C 71.32 15.5  70 14.18  70 12.5  C 70 10.82  71.32 9.5  73 9.5  C 74.68 9.5  76 10.82  76 12.5  C 76 14.18  74.68 15.5  73 15.5  " fill-rule="nonzero" fill="#797979" stroke="none" />
</svg>