<?xml version="1.0" encoding="utf-8"?>
<svg version="1.1" xmlns:xlink="http://www.w3.org/1999/xlink" width="12px" height="12px" viewBox="133 6.5  12 12" xmlns="http://www.w3.org/2000/svg">
  <path d="M 139 6.5  C 142.36 6.5  145 9.14  145 12.5  C 145 15.86  142.36 18.5  139 18.5  C 135.64 18.5  133 15.86  133 12.5  C 133 9.14  135.64 6.5  139 6.5  Z " fill-rule="nonzero" fill="#ffffff" stroke="none" />
  <path d="M 139 7  C 142.08 7  144.5 9.42  144.5 12.5  C 144.5 15.58  142.08 18  139 18  C 135.92 18  133.5 15.58  133.5 12.5  C 133.5 9.42  135.92 7  139 7  Z " stroke-width="1" stroke="#797979" fill="none" />
  <path d="M 139 15.5  C 137.32 15.5  136 14.18  136 12.5  C 136 10.82  137.32 9.5  139 9.5  C 140.68 9.5  142 10.82  142 12.5  C 142 14.18  140.68 15.5  139 15.5  " fill-rule="nonzero" fill="#797979" stroke="none" />
</svg>