<?xml version="1.0" encoding="utf-8"?>
<svg version="1.1" xmlns:xlink="http://www.w3.org/1999/xlink" width="19px" height="16px" xmlns="http://www.w3.org/2000/svg">
  <g transform="matrix(1 0 0 1 -14 -119 )">
    <path d="M 18.5805027173913 6.41335044929397  C 18.8601675724638 6.67008985879333  19 6.97988874625588  19 7.34274711168164  L 19 8.65725288831836  C 19 9.02011125374412  18.8601675724638 9.32991014120667  18.5805027173913 9.58664955070603  C 18.3008378623188 9.84338896020539  17.9372735507246 9.97175866495507  17.4898097826087 9.97175866495507  L 8.40285326086956 9.97175866495507  L 12.1847826086957 12.9910141206675  C 12.5117753623188 13.2374839537869  12.6752717391304 13.5455712451861  12.6752717391304 13.9152759948652  C 12.6752717391304 14.2849807445443  12.5117753623188 14.5930680359435  12.1847826086957 14.8395378690629  L 11.2167119565217 15.6200256739409  C 10.8983242753623 15.8733418913137  10.5110960144928 16  10.055027173913 16  C 9.6075634057971 16  9.21603260869565 15.8733418913137  8.8804347826087 15.6200256739409  L 0.47758152173913 8.92426187419769  C 0.15919384057971 8.67094565682499  0 8.36285836542576  0 8  C 0 7.64398801882756  0.15919384057971 7.33247753530167  0.47758152173913 7.06546854942234  L 8.8804347826087 0.390243902439025  C 9.20742753623188 0.130081300813007  9.59895833333333 0  10.055027173913 0  C 10.502490942029 0  10.8897192028986 0.130081300813007  11.2167119565217 0.390243902439025  L 12.1847826086957 1.15019255455712  C 12.5117753623188 1.41035515618314  12.6752717391304 1.72186563970903  12.6752717391304 2.08472400513479  C 12.6752717391304 2.44758237056055  12.5117753623188 2.75909285408643  12.1847826086957 3.01925545571245  L 8.40285326086956 6.02824133504493  L 17.4898097826087 6.02824133504493  C 17.9372735507246 6.02824133504493  18.3008378623188 6.15661103979461  18.5805027173913 6.41335044929397  Z " fill-rule="nonzero" fill="#7f7f7f" stroke="none" transform="matrix(1 0 0 1 14 119 )" />
  </g>
</svg>