<?xml version="1.0" encoding="utf-8"?>
<svg version="1.1" xmlns:xlink="http://www.w3.org/1999/xlink" width="12px" height="12px" viewBox="166 1381.5  12 12" xmlns="http://www.w3.org/2000/svg">
  <path d="M 172 1381.5  C 175.36 1381.5  178 1384.14  178 1387.5  C 178 1390.86  175.36 1393.5  172 1393.5  C 168.64 1393.5  166 1390.86  166 1387.5  C 166 1384.14  168.64 1381.5  172 1381.5  Z " fill-rule="nonzero" fill="#ffffff" stroke="none" />
  <path d="M 172 1382  C 175.08 1382  177.5 1384.42  177.5 1387.5  C 177.5 1390.58  175.08 1393  172 1393  C 168.92 1393  166.5 1390.58  166.5 1387.5  C 166.5 1384.42  168.92 1382  172 1382  Z " stroke-width="1" stroke="#797979" fill="none" />
  <path d="M 172 1390.5  C 170.32 1390.5  169 1389.18  169 1387.5  C 169 1385.82  170.32 1384.5  172 1384.5  C 173.68 1384.5  175 1385.82  175 1387.5  C 175 1389.18  173.68 1390.5  172 1390.5  " fill-rule="nonzero" fill="#797979" stroke="none" />
</svg>