<?xml version="1.0" encoding="utf-8"?>
<svg version="1.1" xmlns:xlink="http://www.w3.org/1999/xlink" width="12px" height="12px" viewBox="178 1313.5  12 12" xmlns="http://www.w3.org/2000/svg">
  <path d="M 184 1313.5  C 187.36 1313.5  190 1316.14  190 1319.5  C 190 1322.86  187.36 1325.5  184 1325.5  C 180.64 1325.5  178 1322.86  178 1319.5  C 178 1316.14  180.64 1313.5  184 1313.5  Z " fill-rule="nonzero" fill="#ffffff" stroke="none" />
  <path d="M 184 1314  C 187.08 1314  189.5 1316.42  189.5 1319.5  C 189.5 1322.58  187.08 1325  184 1325  C 180.92 1325  178.5 1322.58  178.5 1319.5  C 178.5 1316.42  180.92 1314  184 1314  Z " stroke-width="1" stroke="#797979" fill="none" />
  <path d="M 184 1322.5  C 182.32 1322.5  181 1321.18  181 1319.5  C 181 1317.82  182.32 1316.5  184 1316.5  C 185.68 1316.5  187 1317.82  187 1319.5  C 187 1321.18  185.68 1322.5  184 1322.5  " fill-rule="nonzero" fill="#797979" stroke="none" />
</svg>