<?xml version="1.0" encoding="utf-8"?>
<svg version="1.1" xmlns:xlink="http://www.w3.org/1999/xlink" width="12px" height="12px" viewBox="114 1313.5  12 12" xmlns="http://www.w3.org/2000/svg">
  <path d="M 120 1313.5  C 123.36 1313.5  126 1316.14  126 1319.5  C 126 1322.86  123.36 1325.5  120 1325.5  C 116.64 1325.5  114 1322.86  114 1319.5  C 114 1316.14  116.64 1313.5  120 1313.5  Z " fill-rule="nonzero" fill="#ffffff" stroke="none" />
  <path d="M 120 1314  C 123.08 1314  125.5 1316.42  125.5 1319.5  C 125.5 1322.58  123.08 1325  120 1325  C 116.92 1325  114.5 1322.58  114.5 1319.5  C 114.5 1316.42  116.92 1314  120 1314  Z " stroke-width="1" stroke="#797979" fill="none" />
  <path d="M 120 1322.5  C 118.32 1322.5  117 1321.18  117 1319.5  C 117 1317.82  118.32 1316.5  120 1316.5  C 121.68 1316.5  123 1317.82  123 1319.5  C 123 1321.18  121.68 1322.5  120 1322.5  " fill-rule="nonzero" fill="#797979" stroke="none" />
</svg>