<?xml version="1.0" encoding="utf-8"?>
<svg version="1.1" xmlns:xlink="http://www.w3.org/1999/xlink" width="12px" height="12px" viewBox="114 1046.5  12 12" xmlns="http://www.w3.org/2000/svg">
  <path d="M 120 1046.5  C 123.36 1046.5  126 1049.14  126 1052.5  C 126 1055.86  123.36 1058.5  120 1058.5  C 116.64 1058.5  114 1055.86  114 1052.5  C 114 1049.14  116.64 1046.5  120 1046.5  Z " fill-rule="nonzero" fill="#ffffff" stroke="none" />
  <path d="M 120 1047  C 123.08 1047  125.5 1049.42  125.5 1052.5  C 125.5 1055.58  123.08 1058  120 1058  C 116.92 1058  114.5 1055.58  114.5 1052.5  C 114.5 1049.42  116.92 1047  120 1047  Z " stroke-width="1" stroke="#797979" fill="none" />
  <path d="M 120 1055.5  C 118.32 1055.5  117 1054.18  117 1052.5  C 117 1050.82  118.32 1049.5  120 1049.5  C 121.68 1049.5  123 1050.82  123 1052.5  C 123 1054.18  121.68 1055.5  120 1055.5  " fill-rule="nonzero" fill="#797979" stroke="none" />
</svg>