<?xml version="1.0" encoding="utf-8"?>
<svg version="1.1" xmlns:xlink="http://www.w3.org/1999/xlink" width="12px" height="12px" viewBox="114 1122.5  12 12" xmlns="http://www.w3.org/2000/svg">
  <path d="M 120 1122.5  C 123.36 1122.5  126 1125.14  126 1128.5  C 126 1131.86  123.36 1134.5  120 1134.5  C 116.64 1134.5  114 1131.86  114 1128.5  C 114 1125.14  116.64 1122.5  120 1122.5  Z " fill-rule="nonzero" fill="#ffffff" stroke="none" />
  <path d="M 120 1123  C 123.08 1123  125.5 1125.42  125.5 1128.5  C 125.5 1131.58  123.08 1134  120 1134  C 116.92 1134  114.5 1131.58  114.5 1128.5  C 114.5 1125.42  116.92 1123  120 1123  Z " stroke-width="1" stroke="#797979" fill="none" />
  <path d="M 120 1131.5  C 118.32 1131.5  117 1130.18  117 1128.5  C 117 1126.82  118.32 1125.5  120 1125.5  C 121.68 1125.5  123 1126.82  123 1128.5  C 123 1130.18  121.68 1131.5  120 1131.5  " fill-rule="nonzero" fill="#797979" stroke="none" />
</svg>