<?xml version="1.0" encoding="utf-8"?>
<svg version="1.1" xmlns:xlink="http://www.w3.org/1999/xlink" width="12px" height="12px" viewBox="169 1471.5  12 12" xmlns="http://www.w3.org/2000/svg">
  <path d="M 175 1471.5  C 178.36 1471.5  181 1474.14  181 1477.5  C 181 1480.86  178.36 1483.5  175 1483.5  C 171.64 1483.5  169 1480.86  169 1477.5  C 169 1474.14  171.64 1471.5  175 1471.5  Z " fill-rule="nonzero" fill="#ffffff" stroke="none" />
  <path d="M 175 1472  C 178.08 1472  180.5 1474.42  180.5 1477.5  C 180.5 1480.58  178.08 1483  175 1483  C 171.92 1483  169.5 1480.58  169.5 1477.5  C 169.5 1474.42  171.92 1472  175 1472  Z " stroke-width="1" stroke="#797979" fill="none" />
  <path d="M 175 1480.5  C 173.32 1480.5  172 1479.18  172 1477.5  C 172 1475.82  173.32 1474.5  175 1474.5  C 176.68 1474.5  178 1475.82  178 1477.5  C 178 1479.18  176.68 1480.5  175 1480.5  " fill-rule="nonzero" fill="#797979" stroke="none" />
</svg>