<?xml version="1.0" encoding="utf-8"?>
<svg version="1.1" xmlns:xlink="http://www.w3.org/1999/xlink" width="12px" height="12px" viewBox="175 1724.5  12 12" xmlns="http://www.w3.org/2000/svg">
  <path d="M 181 1724.5  C 184.36 1724.5  187 1727.14  187 1730.5  C 187 1733.86  184.36 1736.5  181 1736.5  C 177.64 1736.5  175 1733.86  175 1730.5  C 175 1727.14  177.64 1724.5  181 1724.5  Z " fill-rule="nonzero" fill="#ffffff" stroke="none" />
  <path d="M 181 1725  C 184.08 1725  186.5 1727.42  186.5 1730.5  C 186.5 1733.58  184.08 1736  181 1736  C 177.92 1736  175.5 1733.58  175.5 1730.5  C 175.5 1727.42  177.92 1725  181 1725  Z " stroke-width="1" stroke="#797979" fill="none" />
  <path d="M 181 1733.5  C 179.32 1733.5  178 1732.18  178 1730.5  C 178 1728.82  179.32 1727.5  181 1727.5  C 182.68 1727.5  184 1728.82  184 1730.5  C 184 1732.18  182.68 1733.5  181 1733.5  " fill-rule="nonzero" fill="#797979" stroke="none" />
</svg>