<?xml version="1.0" encoding="utf-8"?>
<svg version="1.1" xmlns:xlink="http://www.w3.org/1999/xlink" width="12px" height="12px" viewBox="106 626.5  12 12" xmlns="http://www.w3.org/2000/svg">
  <path d="M 112 626.5  C 115.36 626.5  118 629.14  118 632.5  C 118 635.86  115.36 638.5  112 638.5  C 108.64 638.5  106 635.86  106 632.5  C 106 629.14  108.64 626.5  112 626.5  Z " fill-rule="nonzero" fill="#ffffff" stroke="none" />
  <path d="M 112 627  C 115.08 627  117.5 629.42  117.5 632.5  C 117.5 635.58  115.08 638  112 638  C 108.92 638  106.5 635.58  106.5 632.5  C 106.5 629.42  108.92 627  112 627  Z " stroke-width="1" stroke="#797979" fill="none" />
  <path d="M 112 635.5  C 110.32 635.5  109 634.18  109 632.5  C 109 630.82  110.32 629.5  112 629.5  C 113.68 629.5  115 630.82  115 632.5  C 115 634.18  113.68 635.5  112 635.5  " fill-rule="nonzero" fill="#797979" stroke="none" />
</svg>