<svg t="1603533424382" class="icon" viewBox="0 0 1024 1024" version="1.1" xmlns="http://www.w3.org/2000/svg" p-id="7360" width="200" height="200"><path d="M480.67 959.56L99.94 578.83 480.67 198.1 861.4 578.83 480.67 959.56z m279.2-380.73l-279.2-279.2-279.2 279.2 279.2 279.2 279.2-279.2z" p-id="7361" fill="#707070"></path><path d="M211.45 524.98h495.2l94.52 51.28-333.32 307.68-307.68-307.68zM349.504 63.865l193.731 193.731-50.762 50.763L298.74 114.628z" p-id="7362" fill="#707070"></path><path d="M857.57 812.15m-71.79 0a71.79 71.79 0 1 0 143.58 0 71.79 71.79 0 1 0-143.58 0Z" p-id="7363" fill="#707070"></path><path d="M795.97 775.95l61.1-95.67 61.09 91.65" p-id="7364" fill="#707070"></path></svg>