<?xml version="1.0" encoding="utf-8"?>
<svg version="1.1" xmlns:xlink="http://www.w3.org/1999/xlink" width="12px" height="12px" viewBox="58 510.5  12 12" xmlns="http://www.w3.org/2000/svg">
  <path d="M 64 510.5  C 67.36 510.5  70 513.14  70 516.5  C 70 519.86  67.36 522.5  64 522.5  C 60.64 522.5  58 519.86  58 516.5  C 58 513.14  60.64 510.5  64 510.5  Z " fill-rule="nonzero" fill="#ffffff" stroke="none" />
  <path d="M 64 511  C 67.08 511  69.5 513.42  69.5 516.5  C 69.5 519.58  67.08 522  64 522  C 60.92 522  58.5 519.58  58.5 516.5  C 58.5 513.42  60.92 511  64 511  Z " stroke-width="1" stroke="#797979" fill="none" />
  <path d="M 64 519.5  C 62.32 519.5  61 518.18  61 516.5  C 61 514.82  62.32 513.5  64 513.5  C 65.68 513.5  67 514.82  67 516.5  C 67 518.18  65.68 519.5  64 519.5  " fill-rule="nonzero" fill="#797979" stroke="none" />
</svg>