<?xml version="1.0" encoding="utf-8"?>
<svg version="1.1" xmlns:xlink="http://www.w3.org/1999/xlink" width="12px" height="12px" viewBox="60 517.5  12 12" xmlns="http://www.w3.org/2000/svg">
  <path d="M 66 517.5  C 69.36 517.5  72 520.14  72 523.5  C 72 526.86  69.36 529.5  66 529.5  C 62.64 529.5  60 526.86  60 523.5  C 60 520.14  62.64 517.5  66 517.5  Z " fill-rule="nonzero" fill="#ffffff" stroke="none" />
  <path d="M 66 518  C 69.08 518  71.5 520.42  71.5 523.5  C 71.5 526.58  69.08 529  66 529  C 62.92 529  60.5 526.58  60.5 523.5  C 60.5 520.42  62.92 518  66 518  Z " stroke-width="1" stroke="#797979" fill="none" />
  <path d="M 66 526.5  C 64.32 526.5  63 525.18  63 523.5  C 63 521.82  64.32 520.5  66 520.5  C 67.68 520.5  69 521.82  69 523.5  C 69 525.18  67.68 526.5  66 526.5  " fill-rule="nonzero" fill="#797979" stroke="none" />
</svg>