<?xml version="1.0" encoding="utf-8"?>
<svg version="1.1" xmlns:xlink="http://www.w3.org/1999/xlink" width="12px" height="12px" viewBox="61 548.5  12 12" xmlns="http://www.w3.org/2000/svg">
  <path d="M 67 548.5  C 70.36 548.5  73 551.14  73 554.5  C 73 557.86  70.36 560.5  67 560.5  C 63.64 560.5  61 557.86  61 554.5  C 61 551.14  63.64 548.5  67 548.5  Z " fill-rule="nonzero" fill="#ffffff" stroke="none" />
  <path d="M 67 549  C 70.08 549  72.5 551.42  72.5 554.5  C 72.5 557.58  70.08 560  67 560  C 63.92 560  61.5 557.58  61.5 554.5  C 61.5 551.42  63.92 549  67 549  Z " stroke-width="1" stroke="#797979" fill="none" />
  <path d="M 67 557.5  C 65.32 557.5  64 556.18  64 554.5  C 64 552.82  65.32 551.5  67 551.5  C 68.68 551.5  70 552.82  70 554.5  C 70 556.18  68.68 557.5  67 557.5  " fill-rule="nonzero" fill="#797979" stroke="none" />
</svg>