<?xml version="1.0" encoding="utf-8"?>
<svg version="1.1" xmlns:xlink="http://www.w3.org/1999/xlink" width="12px" height="12px" viewBox="85 1281.5  12 12" xmlns="http://www.w3.org/2000/svg">
  <path d="M 91 1281.5  C 94.36 1281.5  97 1284.14  97 1287.5  C 97 1290.86  94.36 1293.5  91 1293.5  C 87.64 1293.5  85 1290.86  85 1287.5  C 85 1284.14  87.64 1281.5  91 1281.5  Z " fill-rule="nonzero" fill="#ffffff" stroke="none" />
  <path d="M 91 1282  C 94.08 1282  96.5 1284.42  96.5 1287.5  C 96.5 1290.58  94.08 1293  91 1293  C 87.92 1293  85.5 1290.58  85.5 1287.5  C 85.5 1284.42  87.92 1282  91 1282  Z " stroke-width="1" stroke="#797979" fill="none" />
  <path d="M 91 1290.5  C 89.32 1290.5  88 1289.18  88 1287.5  C 88 1285.82  89.32 1284.5  91 1284.5  C 92.68 1284.5  94 1285.82  94 1287.5  C 94 1289.18  92.68 1290.5  91 1290.5  " fill-rule="nonzero" fill="#797979" stroke="none" />
</svg>