<?xml version="1.0" encoding="utf-8"?>
<svg version="1.1" xmlns:xlink="http://www.w3.org/1999/xlink" width="12px" height="12px" viewBox="48 680.5  12 12" xmlns="http://www.w3.org/2000/svg">
  <path d="M 54 680.5  C 57.36 680.5  60 683.14  60 686.5  C 60 689.86  57.36 692.5  54 692.5  C 50.64 692.5  48 689.86  48 686.5  C 48 683.14  50.64 680.5  54 680.5  Z " fill-rule="nonzero" fill="#ffffff" stroke="none" />
  <path d="M 54 681  C 57.08 681  59.5 683.42  59.5 686.5  C 59.5 689.58  57.08 692  54 692  C 50.92 692  48.5 689.58  48.5 686.5  C 48.5 683.42  50.92 681  54 681  Z " stroke-width="1" stroke="#797979" fill="none" />
  <path d="M 54 689.5  C 52.32 689.5  51 688.18  51 686.5  C 51 684.82  52.32 683.5  54 683.5  C 55.68 683.5  57 684.82  57 686.5  C 57 688.18  55.68 689.5  54 689.5  " fill-rule="nonzero" fill="#797979" stroke="none" />
</svg>