<?xml version="1.0" encoding="utf-8"?>
<svg version="1.1" xmlns:xlink="http://www.w3.org/1999/xlink" width="12px" height="12px" viewBox="113 558.5  12 12" xmlns="http://www.w3.org/2000/svg">
  <path d="M 119 558.5  C 122.36 558.5  125 561.14  125 564.5  C 125 567.86  122.36 570.5  119 570.5  C 115.64 570.5  113 567.86  113 564.5  C 113 561.14  115.64 558.5  119 558.5  Z " fill-rule="nonzero" fill="#ffffff" stroke="none" />
  <path d="M 119 559  C 122.08 559  124.5 561.42  124.5 564.5  C 124.5 567.58  122.08 570  119 570  C 115.92 570  113.5 567.58  113.5 564.5  C 113.5 561.42  115.92 559  119 559  Z " stroke-width="1" stroke="#797979" fill="none" />
  <path d="M 119 567.5  C 117.32 567.5  116 566.18  116 564.5  C 116 562.82  117.32 561.5  119 561.5  C 120.68 561.5  122 562.82  122 564.5  C 122 566.18  120.68 567.5  119 567.5  " fill-rule="nonzero" fill="#797979" stroke="none" />
</svg>