<?xml version="1.0" encoding="utf-8"?>
<svg version="1.1" xmlns:xlink="http://www.w3.org/1999/xlink" width="25px" height="26px" xmlns="http://www.w3.org/2000/svg">
  <g transform="matrix(1 0 0 1 -361 -146 )">
    <path d="M 373.5 146  C 380.5 146  386 151.72  386 159  C 386 166.28  380.5 172  373.5 172  C 366.5 172  361 166.28  361 159  C 361 151.72  366.5 146  373.5 146  Z " fill-rule="nonzero" fill="#95f204" stroke="none" />
    <path d="M 373.5 146.5  C 380.22 146.5  385.5 152  385.5 159  C 385.5 166  380.22 171.5  373.5 171.5  C 366.78 171.5  361.5 166  361.5 159  C 361.5 152  366.78 146.5  373.5 146.5  Z " stroke-width="1" stroke="#797979" fill="none" />
  </g>
</svg>