<?xml version="1.0" encoding="utf-8"?>
<svg version="1.1" xmlns:xlink="http://www.w3.org/1999/xlink" width="20px" height="21px" xmlns="http://www.w3.org/2000/svg">
  <g transform="matrix(1 0 0 1 -400 -185 )">
    <path d="M 19.6022727272727 8.05397727272727  C 19.8674242424242 8.33238636363636  20 8.67045454545455  20 9.06818181818182  L 20 11.9318181818182  C 20 12.3295454545455  19.8674242424242 12.6676136363636  19.6022727272727 12.9460227272727  C 19.3371212121212 13.2244318181818  19.0151515151515 13.3636363636364  18.6363636363636 13.3636363636364  L 12.7272727272727 13.3636363636364  L 12.7272727272727 19.5681818181818  C 12.7272727272727 19.9659090909091  12.594696969697 20.3039772727273  12.3295454545455 20.5823863636364  C 12.0643939393939 20.8607954545455  11.7424242424242 21  11.3636363636364 21  L 8.63636363636364 21  C 8.25757575757576 21  7.93560606060606 20.8607954545455  7.67045454545455 20.5823863636364  C 7.40530303030303 20.3039772727273  7.27272727272727 19.9659090909091  7.27272727272727 19.5681818181818  L 7.27272727272727 13.3636363636364  L 1.36363636363636 13.3636363636364  C 0.984848484848485 13.3636363636364  0.662878787878788 13.2244318181818  0.397727272727273 12.9460227272727  C 0.132575757575758 12.6676136363636  0 12.3295454545455  0 11.9318181818182  L 0 9.06818181818182  C 0 8.67045454545455  0.132575757575758 8.33238636363636  0.397727272727273 8.05397727272727  C 0.662878787878788 7.77556818181818  0.984848484848485 7.63636363636364  1.36363636363636 7.63636363636364  L 7.27272727272727 7.63636363636364  L 7.27272727272727 1.43181818181818  C 7.27272727272727 1.03409090909091  7.40530303030303 0.696022727272726  7.67045454545455 0.417613636363637  C 7.93560606060606 0.139204545454545  8.25757575757576 0  8.63636363636364 0  L 11.3636363636364 0  C 11.7424242424242 0  12.0643939393939 0.139204545454545  12.3295454545455 0.417613636363637  C 12.594696969697 0.696022727272726  12.7272727272727 1.03409090909091  12.7272727272727 1.43181818181818  L 12.7272727272727 7.63636363636364  L 18.6363636363636 7.63636363636364  C 19.0151515151515 7.63636363636364  19.3371212121212 7.77556818181818  19.6022727272727 8.05397727272727  Z " fill-rule="nonzero" fill="#000000" stroke="none" transform="matrix(1 0 0 1 400 185 )" />
  </g>
</svg>