<?xml version="1.0" encoding="utf-8"?>
<svg version="1.1" xmlns:xlink="http://www.w3.org/1999/xlink" width="25px" height="26px" xmlns="http://www.w3.org/2000/svg">
  <g transform="matrix(1 0 0 1 -361 -181 )">
    <path d="M 373.5 181  C 380.5 181  386 186.72  386 194  C 386 201.28  380.5 207  373.5 207  C 366.5 207  361 201.28  361 194  C 361 186.72  366.5 181  373.5 181  Z " fill-rule="nonzero" fill="#f59a23" stroke="none" />
    <path d="M 373.5 181.5  C 380.22 181.5  385.5 187  385.5 194  C 385.5 201  380.22 206.5  373.5 206.5  C 366.78 206.5  361.5 201  361.5 194  C 361.5 187  366.78 181.5  373.5 181.5  Z " stroke-width="1" stroke="#797979" fill="none" />
  </g>
</svg>