<?xml version="1.0" encoding="utf-8"?>
<svg version="1.1" xmlns:xlink="http://www.w3.org/1999/xlink" width="20px" height="6px" xmlns="http://www.w3.org/2000/svg">
  <g transform="matrix(1 0 0 1 -435 -192 )">
    <path d="M 19.6022727272727 0.4375  C 19.8674242424242 0.729166666666664  20 1.08333333333333  20 1.5  L 20 4.5  C 20 4.91666666666667  19.8674242424242 5.27083333333333  19.6022727272727 5.5625  C 19.3371212121212 5.85416666666667  19.0151515151515 6  18.6363636363636 6  L 1.36363636363636 6  C 0.984848484848485 6  0.662878787878788 5.85416666666667  0.397727272727273 5.5625  C 0.132575757575758 5.27083333333333  0 4.91666666666667  0 4.5  L 0 1.5  C 0 1.08333333333333  0.132575757575758 0.729166666666664  0.397727272727273 0.4375  C 0.662878787878788 0.145833333333332  0.984848484848485 0  1.36363636363636 0  L 18.6363636363636 0  C 19.0151515151515 0  19.3371212121212 0.145833333333332  19.6022727272727 0.4375  Z " fill-rule="nonzero" fill="#000000" stroke="none" transform="matrix(1 0 0 1 435 192 )" />
  </g>
</svg>