<?xml version="1.0" encoding="utf-8"?>
<svg version="1.1" xmlns:xlink="http://www.w3.org/1999/xlink" width="12px" height="12px" viewBox="746 454  12 12" xmlns="http://www.w3.org/2000/svg">
  <path d="M 752 454  C 755.36 454  758 456.64  758 460  C 758 463.36  755.36 466  752 466  C 748.64 466  746 463.36  746 460  C 746 456.64  748.64 454  752 454  Z " fill-rule="nonzero" fill="#ffffff" stroke="none" />
  <path d="M 752 454.5  C 755.08 454.5  757.5 456.92  757.5 460  C 757.5 463.08  755.08 465.5  752 465.5  C 748.92 465.5  746.5 463.08  746.5 460  C 746.5 456.92  748.92 454.5  752 454.5  Z " stroke-width="1" stroke="#797979" fill="none" />
  <path d="M 752 463  C 750.32 463  749 461.68  749 460  C 749 458.32  750.32 457  752 457  C 753.68 457  755 458.32  755 460  C 755 461.68  753.68 463  752 463  " fill-rule="nonzero" fill="#797979" stroke="none" />
</svg>