<?xml version="1.0" encoding="utf-8"?>
<svg version="1.1" xmlns:xlink="http://www.w3.org/1999/xlink" width="60px" height="26px" xmlns="http://www.w3.org/2000/svg">
  <defs>
    <mask fill="white" id="clip226">
      <path d="M 0 20.8  L 0 5.2  C 0 2.288  2.19999999999999 0  5 0  L 55 0  C 57.8 0  60 2.288  60 5.2  L 60 20.8  C 60 23.712  57.8 26  55 26  L 25 26  L 5 26  C 2.19999999999999 26  0 23.712  0 20.8  Z " fill-rule="evenodd" />
    </mask>
  </defs>
  <g transform="matrix(1 0 0 1 -13 -200 )">
    <path d="M 0 20.8  L 0 5.2  C 0 2.288  2.19999999999999 0  5 0  L 55 0  C 57.8 0  60 2.288  60 5.2  L 60 20.8  C 60 23.712  57.8 26  55 26  L 25 26  L 5 26  C 2.19999999999999 26  0 23.712  0 20.8  Z " fill-rule="nonzero" fill="#02a7f0" stroke="none" fill-opacity="0.298039215686275" transform="matrix(1 0 0 1 13 200 )" />
    <path d="M 0 20.8  L 0 5.2  C 0 2.288  2.19999999999999 0  5 0  L 55 0  C 57.8 0  60 2.288  60 5.2  L 60 20.8  C 60 23.712  57.8 26  55 26  L 25 26  L 5 26  C 2.19999999999999 26  0 23.712  0 20.8  Z " stroke-width="2" stroke="#f2f2f2" fill="none" transform="matrix(1 0 0 1 13 200 )" mask="url(#clip226)" />
  </g>
</svg>