<?xml version="1.0" encoding="utf-8"?>
<svg version="1.1" xmlns:xlink="http://www.w3.org/1999/xlink" width="12px" height="12px" viewBox="646 454  12 12" xmlns="http://www.w3.org/2000/svg">
  <path d="M 652 454  C 655.36 454  658 456.64  658 460  C 658 463.36  655.36 466  652 466  C 648.64 466  646 463.36  646 460  C 646 456.64  648.64 454  652 454  Z " fill-rule="nonzero" fill="#ffffff" stroke="none" />
  <path d="M 652 454.5  C 655.08 454.5  657.5 456.92  657.5 460  C 657.5 463.08  655.08 465.5  652 465.5  C 648.92 465.5  646.5 463.08  646.5 460  C 646.5 456.92  648.92 454.5  652 454.5  Z " stroke-width="1" stroke="#797979" fill="none" />
  <path d="M 652 463  C 650.32 463  649 461.68  649 460  C 649 458.32  650.32 457  652 457  C 653.68 457  655 458.32  655 460  C 655 461.68  653.68 463  652 463  " fill-rule="nonzero" fill="#797979" stroke="none" />
</svg>