<?xml version="1.0" encoding="utf-8"?>
<svg version="1.1" xmlns:xlink="http://www.w3.org/1999/xlink" width="12px" height="12px" viewBox="565 454  12 12" xmlns="http://www.w3.org/2000/svg">
  <path d="M 571 454  C 574.36 454  577 456.64  577 460  C 577 463.36  574.36 466  571 466  C 567.64 466  565 463.36  565 460  C 565 456.64  567.64 454  571 454  Z " fill-rule="nonzero" fill="#ffffff" stroke="none" />
  <path d="M 571 454.5  C 574.08 454.5  576.5 456.92  576.5 460  C 576.5 463.08  574.08 465.5  571 465.5  C 567.92 465.5  565.5 463.08  565.5 460  C 565.5 456.92  567.92 454.5  571 454.5  Z " stroke-width="1" stroke="#797979" fill="none" />
  <path d="M 571 463  C 569.32 463  568 461.68  568 460  C 568 458.32  569.32 457  571 457  C 572.68 457  574 458.32  574 460  C 574 461.68  572.68 463  571 463  " fill-rule="nonzero" fill="#797979" stroke="none" />
</svg>