<?xml version="1.0" encoding="utf-8"?>
<svg version="1.1" xmlns:xlink="http://www.w3.org/1999/xlink" width="21px" height="23px" xmlns="http://www.w3.org/2000/svg">
  <g transform="matrix(1 0 0 1 -199 -211 )">
    <path d="M 20.6206451612903 3.17508417508418  C 20.8735483870968 3.5364758698092  21 3.97530864197531  21 4.49158249158249  C 21 5.00785634118967  20.8735483870968 5.44668911335578  20.6206451612903 5.80808080808081  L 10.8116129032258 19.8249158249158  L 8.96903225806452 22.4579124579125  C 8.71612903225807 22.8193041526375  8.40903225806452 23  8.04774193548387 23  C 7.68645161290323 23  7.37935483870968 22.8193041526375  7.12645161290323 22.4579124579125  L 5.28387096774193 19.8249158249158  L 0.379354838709677 12.8164983164983  C 0.126451612903226 12.4551066217733  0 12.0162738496072  0 11.5  C 0 10.9837261503928  0.126451612903226 10.5448933782267  0.379354838709677 10.1835016835017  L 2.22193548387097 7.55050505050505  C 2.47483870967742 7.18911335578002  2.78193548387097 7.00841750841751  3.14322580645161 7.00841750841751  C 3.50451612903226 7.00841750841751  3.81161290322581 7.18911335578002  4.06451612903226 7.55050505050505  L 8.04774193548387 13.2617845117845  L 16.9354838709677 0.542087542087542  C 17.1883870967742 0.180695847362513  17.4954838709677 0  17.8567741935484 0  C 18.218064516129 0  18.5251612903226 0.180695847362513  18.778064516129 0.542087542087542  L 20.6206451612903 3.17508417508418  Z " fill-rule="nonzero" fill="#ffffff" stroke="none" transform="matrix(1 0 0 1 199 211 )" />
  </g>
</svg>