<?xml version="1.0" encoding="utf-8"?>
<svg version="1.1" xmlns:xlink="http://www.w3.org/1999/xlink" width="18px" height="18px" xmlns="http://www.w3.org/2000/svg">
  <g transform="matrix(1 0 0 1 -350 -52 )">
    <path d="M 359 53  C 363.48 53  367 56.52  367 61  C 367 65.48  363.48 69  359 69  C 354.52 69  351 65.48  351 61  C 351 56.52  354.52 53  359 53  Z " fill-rule="nonzero" fill="#ffffff" stroke="none" />
    <path d="M 359 53  C 363.48 53  367 56.52  367 61  C 367 65.48  363.48 69  359 69  C 354.52 69  351 65.48  351 61  C 351 56.52  354.52 53  359 53  Z " stroke-width="2" stroke="#333333" fill="none" />
  </g>
</svg>