<?xml version="1.0" encoding="utf-8"?>
<svg version="1.1" xmlns:xlink="http://www.w3.org/1999/xlink" width="160px" height="128px" xmlns="http://www.w3.org/2000/svg">
  <g transform="matrix(1 0 0 1 -32 -1145 )">
    <path d="M 32 1145  L 192 1145  L 192 1273  L 32 1273  L 32 1145  " fill-rule="nonzero" fill="#cccccc" stroke="none" />
    <path d="M 41 1154  L 183 1154  L 183 1264  L 41 1264  L 41 1154  " fill-rule="nonzero" fill="#ffffff" stroke="none" />
    <path d="M 124.8 1183.4  C 119.424 1183.4  115.2 1179.176  115.2 1173.8  C 115.2 1168.424  119.424 1164.2  124.8 1164.2  C 130.176 1164.2  134.4 1168.424  134.4 1173.8  C 134.4 1179.176  130.176 1183.4  124.8 1183.4  " fill-rule="nonzero" fill="#cccccc" stroke="none" />
    <path d="M 44 1261  L 44 1203.8  L 78 1177.8  L 125.6 1211.08  L 152.8 1193.4  L 180 1211.08  L 180 1261  L 44 1261  " fill-rule="nonzero" fill="#169bd5" stroke="none" />
  </g>
</svg>