<?xml version="1.0" encoding="utf-8"?>
<svg version="1.1" xmlns:xlink="http://www.w3.org/1999/xlink" width="18px" height="18px" xmlns="http://www.w3.org/2000/svg">
  <g transform="matrix(1 0 0 1 -142 -258 )">
    <path d="M 142 258  L 160 258  L 160 276  L 142 276  L 142 258  " fill-rule="nonzero" fill="#cccccc" stroke="none" />
    <path d="M 143 259  L 159 259  L 159 275  L 143 275  L 143 259  " fill-rule="nonzero" fill="#ffffff" stroke="none" />
    <path d="M 152.71 263.4  C 151.954 263.4  151.36 262.806  151.36 262.05  C 151.36 261.294  151.954 260.7  152.71 260.7  C 153.466 260.7  154.06 261.294  154.06 262.05  C 154.06 262.806  153.466 263.4  152.71 263.4  " fill-rule="nonzero" fill="#cccccc" stroke="none" />
    <path d="M 144 275  L 144 266.75  L 147.75 263  L 153 266  L 156 265.25  L 159 266  L 159 275  L 144 275  " fill-rule="nonzero" fill="#169bd5" stroke="none" />
  </g>
</svg>