<?xml version="1.0" encoding="utf-8"?>
<svg version="1.1" xmlns:xlink="http://www.w3.org/1999/xlink" width="12px" height="12px" viewBox="541 198  12 12" xmlns="http://www.w3.org/2000/svg">
  <path d="M 547 198  C 550.36 198  553 200.64  553 204  C 553 207.36  550.36 210  547 210  C 543.64 210  541 207.36  541 204  C 541 200.64  543.64 198  547 198  Z " fill-rule="nonzero" fill="#ffffff" stroke="none" />
  <path d="M 547 198.5  C 550.08 198.5  552.5 200.92  552.5 204  C 552.5 207.08  550.08 209.5  547 209.5  C 543.92 209.5  541.5 207.08  541.5 204  C 541.5 200.92  543.92 198.5  547 198.5  Z " stroke-width="1" stroke="#797979" fill="none" />
  <path d="M 547 207  C 545.32 207  544 205.68  544 204  C 544 202.32  545.32 201  547 201  C 548.68 201  550 202.32  550 204  C 550 205.68  548.68 207  547 207  " fill-rule="nonzero" fill="#797979" stroke="none" />
</svg>