<?xml version="1.0" encoding="utf-8"?>
<svg version="1.1" xmlns:xlink="http://www.w3.org/1999/xlink" width="12px" height="12px" viewBox="721 317.5  12 12" xmlns="http://www.w3.org/2000/svg">
  <path d="M 727 317.5  C 730.36 317.5  733 320.14  733 323.5  C 733 326.86  730.36 329.5  727 329.5  C 723.64 329.5  721 326.86  721 323.5  C 721 320.14  723.64 317.5  727 317.5  Z " fill-rule="nonzero" fill="#ffffff" stroke="none" />
  <path d="M 727 318  C 730.08 318  732.5 320.42  732.5 323.5  C 732.5 326.58  730.08 329  727 329  C 723.92 329  721.5 326.58  721.5 323.5  C 721.5 320.42  723.92 318  727 318  Z " stroke-width="1" stroke="#797979" fill="none" />
  <path d="M 727 326.5  C 725.32 326.5  724 325.18  724 323.5  C 724 321.82  725.32 320.5  727 320.5  C 728.68 320.5  730 321.82  730 323.5  C 730 325.18  728.68 326.5  727 326.5  " fill-rule="nonzero" fill="#797979" stroke="none" />
</svg>