<?xml version="1.0" encoding="utf-8"?>
<svg version="1.1" xmlns:xlink="http://www.w3.org/1999/xlink" width="6px" height="6px" xmlns="http://www.w3.org/2000/svg">
  <g transform="matrix(1 0 0 1 -453 -72 )">
    <path d="M 2.91015625 3.53515625  C 2.93619791666667 3.56119791666667  2.94921875 3.59114583333333  2.94921875 3.625  C 2.94921875 3.65885416666667  2.93619791666667 3.68880208333333  2.91015625 3.71484375  L 1.61328125 5.01171875  L 2.17578125 5.57421875  C 2.22526041666667 5.62369791666667  2.25 5.68229166666667  2.25 5.75  C 2.25 5.81770833333333  2.22526041666667 5.87630208333333  2.17578125 5.92578125  C 2.12630208333333 5.97526041666667  2.06770833333333 6  2 6  L 0.25 6  C 0.182291666666667 6  0.123697916666667 5.97526041666667  0.07421875 5.92578125  C 0.0247395833333333 5.87630208333333  0 5.81770833333333  0 5.75  L 0 4  C 0 3.93229166666667  0.0247395833333333 3.87369791666667  0.07421875 3.82421875  C 0.123697916666667 3.77473958333333  0.182291666666667 3.75  0.25 3.75  C 0.317708333333333 3.75  0.376302083333333 3.77473958333333  0.42578125 3.82421875  L 0.98828125 4.38671875  L 2.28515625 3.08984375  C 2.31119791666667 3.06380208333333  2.34114583333333 3.05078125  2.375 3.05078125  C 2.40885416666667 3.05078125  2.43880208333333 3.06380208333333  2.46484375 3.08984375  L 2.91015625 3.53515625  Z M 5.92578125 0.0742187499999998  C 5.97526041666667 0.123697916666666  6 0.182291666666666  6 0.25  L 6 2  C 6 2.06770833333333  5.97526041666667 2.12630208333333  5.92578125 2.17578125  C 5.87630208333333 2.22526041666667  5.81770833333333 2.25  5.75 2.25  C 5.68229166666667 2.25  5.62369791666667 2.22526041666667  5.57421875 2.17578125  L 5.01171875 1.61328125  L 3.71484375 2.91015625  C 3.68880208333333 2.93619791666667  3.65885416666667 2.94921875  3.625 2.94921875  C 3.59114583333333 2.94921875  3.56119791666667 2.93619791666667  3.53515625 2.91015625  L 3.08984375 2.46484375  C 3.06380208333333 2.43880208333333  3.05078125 2.40885416666667  3.05078125 2.375  C 3.05078125 2.34114583333333  3.06380208333333 2.31119791666667  3.08984375 2.28515625  L 4.38671875 0.98828125  L 3.82421875 0.42578125  C 3.77473958333333 0.376302083333333  3.75 0.317708333333333  3.75 0.25  C 3.75 0.182291666666666  3.77473958333333 0.123697916666666  3.82421875 0.0742187499999998  C 3.87369791666667 0.024739583333333  3.93229166666667 0  4 0  L 5.75 0  C 5.81770833333333 0  5.87630208333333 0.024739583333333  5.92578125 0.0742187499999998  Z " fill-rule="nonzero" fill="#d7d7d7" stroke="none" transform="matrix(1 0 0 1 453 72 )" />
  </g>
</svg>