<?xml version="1.0" encoding="utf-8"?>
<svg version="1.1" xmlns:xlink="http://www.w3.org/1999/xlink" width="99px" height="19px" xmlns="http://www.w3.org/2000/svg">
  <defs>
    <mask fill="white" id="clip323">
      <path d="M 0 19  L 0 0  L 51.5981161695447 0  L 99 0  L 99 19  L 73.8004036779547 19  L 0 19  Z " fill-rule="evenodd" />
    </mask>
  </defs>
  <g transform="matrix(1 0 0 1 -27 -324 )">
    <path d="M 0 19  L 0 0  L 51.5981161695447 0  L 99 0  L 99 19  L 73.8004036779547 19  L 0 19  Z " fill-rule="nonzero" fill="#d7d7d7" stroke="none" transform="matrix(1 0 0 1 27 324 )" />
    <path d="M 0 19  L 0 0  L 51.5981161695447 0  L 99 0  L 99 19  L 73.8004036779547 19  L 0 19  Z " stroke-width="2" stroke="#797979" fill="none" transform="matrix(1 0 0 1 27 324 )" mask="url(#clip323)" />
  </g>
</svg>