<?xml version="1.0" standalone="no"?><!DOCTYPE svg PUBLIC "-//W3C//DTD SVG 1.1//EN" "http://www.w3.org/Graphics/SVG/1.1/DTD/svg11.dtd"><svg t="1620812848361" class="icon" viewBox="0 0 1024 1024" version="1.1" xmlns="http://www.w3.org/2000/svg" p-id="4558" xmlns:xlink="http://www.w3.org/1999/xlink" width="50" height="50"><defs><style type="text/css"></style></defs><path d="M512 64C265.6 64 64 265.6 64 512s201.6 448 448 448 448-201.6 448-448S758.4 64 512 64z m0 864C281.6 928 96 742.4 96 512S281.6 96 512 96s416 185.6 416 416-185.6 416-416 416z" p-id="4559" fill="#cdcdcd"></path><path d="M752 496h-220.8v-224c-3.2-9.6-9.6-16-19.2-16s-16 6.4-16 16v220.8h-224c-9.6 3.2-16 9.6-16 19.2s6.4 16 16 16h220.8v220.8c0 9.6 6.4 16 16 16s16-6.4 16-16v-220.8h220.8c9.6 0 16-6.4 16-16 6.4-9.6 0-16-9.6-16z" p-id="4560" fill="#cdcdcd"></path></svg>