<?xml version="1.0" encoding="utf-8"?>
<svg version="1.1" xmlns:xlink="http://www.w3.org/1999/xlink" width="300px" height="170px" xmlns="http://www.w3.org/2000/svg">
  <g transform="matrix(1 0 0 1 0 -11 )">
    <path d="M 1 13  A 1 1 0 0 1 2 12 L 298 12  A 1 1 0 0 1 299 13 L 299 179  A 1 1 0 0 1 298 180 L 2 180  A 1 1 0 0 1 1 179 L 1 13  Z " fill-rule="nonzero" fill="#ffffff" stroke="none" />
    <path d="M 0.5 13  A 1.5 1.5 0 0 1 2 11.5 L 298 11.5  A 1.5 1.5 0 0 1 299.5 13 L 299.5 179  A 1.5 1.5 0 0 1 298 180.5 L 2 180.5  A 1.5 1.5 0 0 1 0.5 179 L 0.5 13  Z " stroke-width="1" stroke-dasharray="3,1" stroke="#d7d7d7" fill="none" stroke-dashoffset="0.5" />
  </g>
</svg>