<?xml version="1.0" encoding="utf-8"?>
<svg version="1.1" xmlns:xlink="http://www.w3.org/1999/xlink" width="12px" height="12px" viewBox="121 218  12 12" xmlns="http://www.w3.org/2000/svg">
  <path d="M 127 218  C 130.36 218  133 220.64  133 224  C 133 227.36  130.36 230  127 230  C 123.64 230  121 227.36  121 224  C 121 220.64  123.64 218  127 218  Z " fill-rule="nonzero" fill="#ffffff" stroke="none" />
  <path d="M 127 218.5  C 130.08 218.5  132.5 220.92  132.5 224  C 132.5 227.08  130.08 229.5  127 229.5  C 123.92 229.5  121.5 227.08  121.5 224  C 121.5 220.92  123.92 218.5  127 218.5  Z " stroke-width="1" stroke="#797979" fill="none" />
  <path d="M 127 227  C 125.32 227  124 225.68  124 224  C 124 222.32  125.32 221  127 221  C 128.68 221  130 222.32  130 224  C 130 225.68  128.68 227  127 227  " fill-rule="nonzero" fill="#797979" stroke="none" />
</svg>