<?xml version="1.0" encoding="utf-8"?>
<svg version="1.1" xmlns:xlink="http://www.w3.org/1999/xlink" width="12px" height="12px" viewBox="281 297  12 12" xmlns="http://www.w3.org/2000/svg">
  <path d="M 287 297  C 290.36 297  293 299.64  293 303  C 293 306.36  290.36 309  287 309  C 283.64 309  281 306.36  281 303  C 281 299.64  283.64 297  287 297  Z " fill-rule="nonzero" fill="#ffffff" stroke="none" />
  <path d="M 287 297.5  C 290.08 297.5  292.5 299.92  292.5 303  C 292.5 306.08  290.08 308.5  287 308.5  C 283.92 308.5  281.5 306.08  281.5 303  C 281.5 299.92  283.92 297.5  287 297.5  Z " stroke-width="1" stroke="#797979" fill="none" />
  <path d="M 287 306  C 285.32 306  284 304.68  284 303  C 284 301.32  285.32 300  287 300  C 288.68 300  290 301.32  290 303  C 290 304.68  288.68 306  287 306  " fill-rule="nonzero" fill="#797979" stroke="none" />
</svg>