<?xml version="1.0" encoding="utf-8"?>
<svg version="1.1" xmlns:xlink="http://www.w3.org/1999/xlink" width="12px" height="12px" viewBox="281 336  12 12" xmlns="http://www.w3.org/2000/svg">
  <path d="M 287 336  C 290.36 336  293 338.64  293 342  C 293 345.36  290.36 348  287 348  C 283.64 348  281 345.36  281 342  C 281 338.64  283.64 336  287 336  Z " fill-rule="nonzero" fill="#ffffff" stroke="none" />
  <path d="M 287 336.5  C 290.08 336.5  292.5 338.92  292.5 342  C 292.5 345.08  290.08 347.5  287 347.5  C 283.92 347.5  281.5 345.08  281.5 342  C 281.5 338.92  283.92 336.5  287 336.5  Z " stroke-width="1" stroke="#797979" fill="none" />
  <path d="M 287 345  C 285.32 345  284 343.68  284 342  C 284 340.32  285.32 339  287 339  C 288.68 339  290 340.32  290 342  C 290 343.68  288.68 345  287 345  " fill-rule="nonzero" fill="#797979" stroke="none" />
</svg>