<?xml version="1.0" encoding="utf-8"?>
<svg version="1.1" xmlns:xlink="http://www.w3.org/1999/xlink" width="12px" height="12px" viewBox="145 297  12 12" xmlns="http://www.w3.org/2000/svg">
  <path d="M 151 297  C 154.36 297  157 299.64  157 303  C 157 306.36  154.36 309  151 309  C 147.64 309  145 306.36  145 303  C 145 299.64  147.64 297  151 297  Z " fill-rule="nonzero" fill="#ffffff" stroke="none" />
  <path d="M 151 297.5  C 154.08 297.5  156.5 299.92  156.5 303  C 156.5 306.08  154.08 308.5  151 308.5  C 147.92 308.5  145.5 306.08  145.5 303  C 145.5 299.92  147.92 297.5  151 297.5  Z " stroke-width="1" stroke="#797979" fill="none" />
  <path d="M 151 306  C 149.32 306  148 304.68  148 303  C 148 301.32  149.32 300  151 300  C 152.68 300  154 301.32  154 303  C 154 304.68  152.68 306  151 306  " fill-rule="nonzero" fill="#797979" stroke="none" />
</svg>