<?xml version="1.0" standalone="no"?><!DOCTYPE svg PUBLIC "-//W3C//DTD SVG 1.1//EN" "http://www.w3.org/Graphics/SVG/1.1/DTD/svg11.dtd"><svg t="1624513599492" class="icon" viewBox="0 0 1024 1024" version="1.1" xmlns="http://www.w3.org/2000/svg" p-id="3340" xmlns:xlink="http://www.w3.org/1999/xlink" width="50" height="50"><defs><style type="text/css"></style></defs><path d="M163.669333 980.992H102.4a89.770667 89.770667 0 0 1-89.6-89.6V439.978667A89.770667 89.770667 0 0 1 102.4 350.378667h61.269333a89.770667 89.770667 0 0 1 89.6 89.6v451.413333a89.770667 89.770667 0 0 1-89.6 89.6zM102.4 426.666667a12.8 12.8 0 0 0-12.8 12.8v451.925333A12.8 12.8 0 0 0 102.4 904.533333h61.269333a12.8 12.8 0 0 0 12.8-12.8V439.978667a12.8 12.8 0 0 0-12.8-13.312z" fill="#2E72F4" p-id="3341"></path><path d="M802.133333 983.04H387.925333a90.624 90.624 0 0 1-90.453333-90.453333V440.661333a90.624 90.624 0 0 1 90.453333-90.453333h66.901334a13.653333 13.653333 0 0 0 12.117333-7.338667l136.533333-260.778666a76.458667 76.458667 0 0 1 48.469334-38.741334 85.333333 85.333333 0 0 1 67.072 11.776 145.066667 145.066667 0 0 1 68.266666 159.573334c-4.266667 20.48-14.336 55.637333-26.965333 100.010666L750.933333 350.208h170.666667a90.453333 90.453333 0 0 1 87.381333 113.322667l-118.954666 452.096A90.453333 90.453333 0 0 1 802.133333 983.04zM387.925333 426.666667a13.653333 13.653333 0 0 0-13.653333 13.653333v452.437333a13.653333 13.653333 0 0 0 13.653333 13.653334H802.133333a13.653333 13.653333 0 0 0 13.141334-10.069334L933.888 443.733333a13.653333 13.653333 0 0 0-12.288-17.066666H727.04a58.197333 58.197333 0 0 1-46.762667-23.210667 61.269333 61.269333 0 0 1-9.898666-53.418667l16.042666-56.661333c11.776-41.301333 21.845333-76.970667 25.770667-95.061333a68.266667 68.266667 0 0 0-34.133333-78.506667 12.288 12.288 0 0 0-6.826667-2.730667l-136.533333 260.949334A90.282667 90.282667 0 0 1 454.826667 426.666667z" fill="#303133" p-id="3342"></path></svg>